<?xml version="1.0" encoding="us-ascii" standalone="no"?><svg xmlns="http://www.w3.org/2000/svg" xmlns:xlink="http://www.w3.org/1999/xlink" contentStyleType="text/css" height="628.8px" preserveAspectRatio="none" style="width:685px;height:628px;" version="1.1" viewBox="0 0 685 628" width="685.6px" zoomAndPan="magnify"><defs><linearGradient id="gevw5dysbvjg0" x1="50%" x2="50%" y1="0%" y2="100%"><stop offset="0%" stop-color="#F4F4F4"/><stop offset="100%" stop-color="#F4F4F4"/></linearGradient></defs><g><text fill="#808080" font-family="Noto Sans" font-size="8" font-weight="bold" lengthAdjust="spacing" textLength="113.6" x="283.2" y="16.552">JavaBeats - Domain Diagram</text><!--cluster model--><g id="cluster_model"><polygon fill="#FFFFFF" points="6.4,29.696,32,29.696,34.8,46.6336,678.8,46.6336,678.8,626.096,6.4,626.096,6.4,29.696" style="stroke:#C6C6C6;stroke-width:0.4000000000000001;"/><line style="stroke:#C6C6C6;stroke-width:0.4000000000000001;" x1="6.4" x2="34.8" y1="46.6336" y2="46.6336"/><text fill="#262626" font-family="Noto Sans" font-size="4.8" font-weight="bold" lengthAdjust="spacing" textLength="15.2" x="12" y="39.6272">model</text></g><!--cluster playable--><g id="cluster_playable"><polygon fill="#FFFFFF" points="16,213.896,47.2,213.896,50,230.8336,210,230.8336,210,616.496,16,616.496,16,213.896" style="stroke:#C6C6C6;stroke-width:0.4000000000000001;"/><line style="stroke:#C6C6C6;stroke-width:0.4000000000000001;" x1="16" x2="50" y1="230.8336" y2="230.8336"/><text fill="#262626" font-family="Noto Sans" font-size="4.8" font-weight="bold" lengthAdjust="spacing" textLength="20.8" x="21.6" y="223.8272">playable</text></g><!--cluster audio--><g id="cluster_audio"><polygon fill="#FFFFFF" points="25.6,314.096,49.6,314.096,52.4,331.0336,200.4,331.0336,200.4,606.896,25.6,606.896,25.6,314.096" style="stroke:#C6C6C6;stroke-width:0.4000000000000001;"/><line style="stroke:#C6C6C6;stroke-width:0.4000000000000001;" x1="25.6" x2="52.4" y1="331.0336" y2="331.0336"/><text fill="#262626" font-family="Noto Sans" font-size="4.8" font-weight="bold" lengthAdjust="spacing" textLength="13.6" x="31.2" y="324.0272">audio</text></g><!--cluster collection--><g id="cluster_collection"><polygon fill="#FFFFFF" points="219.6,177.296,253.2,177.296,256,194.2336,498,194.2336,498,436.896,219.6,436.896,219.6,177.296" style="stroke:#C6C6C6;stroke-width:0.4000000000000001;"/><line style="stroke:#C6C6C6;stroke-width:0.4000000000000001;" x1="219.6" x2="256" y1="194.2336" y2="194.2336"/><text fill="#262626" font-family="Noto Sans" font-size="4.8" font-weight="bold" lengthAdjust="spacing" textLength="23.2" x="225.2" y="187.2272">collection</text></g><!--cluster profile--><g id="cluster_profile"><polygon fill="#FFFFFF" points="507.6,184.296,534,184.296,536.8,201.2336,669.2,201.2336,669.2,436.896,507.6,436.896,507.6,184.296" style="stroke:#C6C6C6;stroke-width:0.4000000000000001;"/><line style="stroke:#C6C6C6;stroke-width:0.4000000000000001;" x1="507.6" x2="536.8" y1="201.2336" y2="201.2336"/><text fill="#262626" font-family="Noto Sans" font-size="4.8" font-weight="bold" lengthAdjust="spacing" textLength="16" x="513.2" y="194.2272">profile</text></g><!--class IJBResearchable--><g id="elem_IJBResearchable"><rect codeLine="13" fill="url(#gevw5dysbvjg0)" height="17.9928" id="IJBResearchable" style="stroke:#C6C6C6;stroke-width:0.4000000000000001;" width="50.4" x="333.6" y="102.296"/><rect fill="url(#gevw5dysbvjg0)" height="17.9928" style="stroke:#C6C6C6;stroke-width:0.4000000000000001;" width="50.4" x="333.6" y="102.296"/><ellipse cx="339.2" cy="111.2924" fill="#B4A7E5" rx="4" ry="4" style="stroke:#181818;stroke-width:0.4000000000000001;"/><path d="M339.6813,110.5299 L339.6813,112.4111 L340.1688,112.4111 Q340.3375,112.4111 340.4125,112.4799 Q340.4875,112.5424 340.4875,112.6549 Q340.4875,112.7611 340.4125,112.8299 Q340.3375,112.8924 340.1688,112.8924 L338.7125,112.8924 Q338.5438,112.8924 338.4688,112.8299 Q338.3938,112.7611 338.3938,112.6486 Q338.3938,112.5424 338.4688,112.4799 Q338.5438,112.4111 338.7125,112.4111 L339.2,112.4111 L339.2,110.5299 L338.7125,110.5299 Q338.5438,110.5299 338.4688,110.4674 Q338.3938,110.3986 338.3938,110.2924 Q338.3938,110.1799 338.4688,110.1174 Q338.5438,110.0486 338.7125,110.0486 L340.1688,110.0486 Q340.3375,110.0486 340.4125,110.1174 Q340.4875,110.1799 340.4875,110.2924 Q340.4875,110.3986 340.4125,110.4674 Q340.3375,110.5299 340.1688,110.5299 L339.6813,110.5299 Z " fill="#000000"/><text fill="#262626" font-family="Noto Sans" font-size="4.4" font-style="italic" lengthAdjust="spacing" textLength="30.4" x="348.4" y="112.9996">IJBResearchable</text></g><!--class EJENTITY--><g id="elem_EJENTITY"><rect codeLine="16" fill="url(#gevw5dysbvjg0)" height="119.142" id="EJENTITY" style="stroke:#C6C6C6;stroke-width:0.4000000000000001;" width="38" x="147.4" y="51.696"/><rect fill="url(#gevw5dysbvjg0)" height="17.9928" style="stroke:#C6C6C6;stroke-width:0.4000000000000001;" width="38" x="147.4" y="51.696"/><ellipse cx="153" cy="60.6924" fill="#EB937F" rx="4" ry="4" style="stroke:#181818;stroke-width:0.4000000000000001;"/><path d="M152.95,61.1049 L152.95,61.8111 L154.175,61.8111 L154.175,61.5486 Q154.175,61.3799 154.2375,61.3049 Q154.3063,61.2299 154.4125,61.2299 Q154.5188,61.2299 154.5875,61.3049 Q154.6563,61.3799 154.6563,61.5486 L154.6563,62.2924 L152.3938,62.2924 Q152.2188,62.2924 152.1438,62.2299 Q152.0688,62.1611 152.0688,62.0486 Q152.0688,61.9424 152.1438,61.8799 Q152.2188,61.8111 152.3938,61.8111 L152.4688,61.8111 L152.4688,59.9299 L152.3938,59.9299 Q152.2188,59.9299 152.1438,59.8674 Q152.0688,59.7986 152.0688,59.6924 Q152.0688,59.5799 152.1438,59.5174 Q152.2188,59.4486 152.3938,59.4486 L154.55,59.4486 L154.55,60.1799 Q154.55,60.3549 154.4813,60.4299 Q154.4188,60.4986 154.3063,60.4986 Q154.2,60.4986 154.1313,60.4299 Q154.0688,60.3549 154.0688,60.1799 L154.0688,59.9299 L152.95,59.9299 L152.95,60.6236 L153.3688,60.6236 Q153.3688,60.4361 153.4063,60.3861 Q153.475,60.2674 153.6125,60.2674 Q153.7188,60.2674 153.7813,60.3424 Q153.85,60.4174 153.85,60.5924 L153.85,61.1424 Q153.85,61.2986 153.8125,61.3549 Q153.7375,61.4674 153.6125,61.4674 Q153.475,61.4674 153.4063,61.3486 Q153.3688,61.2986 153.3688,61.1049 L152.95,61.1049 Z " fill="#000000"/><text fill="#262626" font-family="Noto Sans" font-size="4.4" lengthAdjust="spacing" textLength="18" x="162.2" y="62.3996">EJENTITY</text><line style="stroke:#C6C6C6;stroke-width:0.4000000000000001;" x1="147.8" x2="185" y1="69.6887" y2="69.6887"/><ellipse cx="151.8" cy="78.8851" fill="none" rx="1.2" ry="1.2" style="stroke:#038048;stroke-width:0.4000000000000001;"/><text fill="#262626" font-family="Noto Sans" font-size="4.4" lengthAdjust="spacing" textLength="12.4" x="159" y="79.9923">SONG</text><ellipse cx="151.8" cy="92.8779" fill="none" rx="1.2" ry="1.2" style="stroke:#038048;stroke-width:0.4000000000000001;"/><text fill="#262626" font-family="Noto Sans" font-size="4.4" lengthAdjust="spacing" textLength="18.4" x="159" y="93.9851">EPISODE</text><ellipse cx="151.8" cy="106.8706" fill="none" rx="1.2" ry="1.2" style="stroke:#038048;stroke-width:0.4000000000000001;"/><text fill="#262626" font-family="Noto Sans" font-size="4.4" lengthAdjust="spacing" textLength="19.2" x="159" y="107.9778">PLAYLIST</text><ellipse cx="151.8" cy="120.8634" fill="none" rx="1.2" ry="1.2" style="stroke:#038048;stroke-width:0.4000000000000001;"/><text fill="#262626" font-family="Noto Sans" font-size="4.4" lengthAdjust="spacing" textLength="15.2" x="159" y="121.9706">ALBUM</text><ellipse cx="151.8" cy="134.8561" fill="none" rx="1.2" ry="1.2" style="stroke:#038048;stroke-width:0.4000000000000001;"/><text fill="#262626" font-family="Noto Sans" font-size="4.4" lengthAdjust="spacing" textLength="20" x="159" y="135.9633">PODCAST</text><ellipse cx="151.8" cy="148.8489" fill="none" rx="1.2" ry="1.2" style="stroke:#038048;stroke-width:0.4000000000000001;"/><text fill="#262626" font-family="Noto Sans" font-size="4.4" lengthAdjust="spacing" textLength="10.8" x="159" y="149.9561">USER</text><ellipse cx="151.8" cy="162.8417" fill="none" rx="1.2" ry="1.2" style="stroke:#038048;stroke-width:0.4000000000000001;"/><text fill="#262626" font-family="Noto Sans" font-size="4.4" lengthAdjust="spacing" textLength="14.4" x="159" y="163.9488">ARTIST</text></g><!--class IJBPlayable--><g id="elem_IJBPlayable"><rect codeLine="28" fill="url(#gevw5dysbvjg0)" height="35.1855" id="IJBPlayable" style="stroke:#C6C6C6;stroke-width:0.4000000000000001;" width="41.6" x="148" y="235.896"/><rect fill="url(#gevw5dysbvjg0)" height="17.9928" style="stroke:#C6C6C6;stroke-width:0.4000000000000001;" width="41.6" x="148" y="235.896"/><ellipse cx="153.6" cy="244.8924" fill="#B4A7E5" rx="4" ry="4" style="stroke:#181818;stroke-width:0.4000000000000001;"/><path d="M154.0813,244.1299 L154.0813,246.0111 L154.5688,246.0111 Q154.7375,246.0111 154.8125,246.0799 Q154.8875,246.1424 154.8875,246.2549 Q154.8875,246.3611 154.8125,246.4299 Q154.7375,246.4924 154.5688,246.4924 L153.1125,246.4924 Q152.9438,246.4924 152.8688,246.4299 Q152.7938,246.3611 152.7938,246.2486 Q152.7938,246.1424 152.8688,246.0799 Q152.9438,246.0111 153.1125,246.0111 L153.6,246.0111 L153.6,244.1299 L153.1125,244.1299 Q152.9438,244.1299 152.8688,244.0674 Q152.7938,243.9986 152.7938,243.8924 Q152.7938,243.7799 152.8688,243.7174 Q152.9438,243.6486 153.1125,243.6486 L154.5688,243.6486 Q154.7375,243.6486 154.8125,243.7174 Q154.8875,243.7799 154.8875,243.8924 Q154.8875,243.9986 154.8125,244.0674 Q154.7375,244.1299 154.5688,244.1299 L154.0813,244.1299 Z " fill="#000000"/><text fill="#262626" font-family="Noto Sans" font-size="4.4" font-style="italic" lengthAdjust="spacing" textLength="21.6" x="162.8" y="246.5996">IJBPlayable</text><line style="stroke:#C6C6C6;stroke-width:0.4000000000000001;" x1="148.4" x2="189.2" y1="253.8887" y2="253.8887"/><ellipse cx="152.4" cy="263.0851" fill="#84BE84" rx="1.2" ry="1.2" style="stroke:#038048;stroke-width:0.4000000000000001;"/><text fill="#262626" font-family="Noto Sans" font-size="4.4" lengthAdjust="spacing" textLength="16" x="159.6" y="264.1923">playFX()</text></g><!--class JBAudio--><g id="elem_JBAudio"><rect codeLine="36" fill="url(#gevw5dysbvjg0)" height="122.342" id="JBAudio" style="stroke:#C6C6C6;stroke-width:0.4000000000000001;" width="73.6" x="104.8" y="336.096"/><rect fill="url(#gevw5dysbvjg0)" height="17.9928" style="stroke:#C6C6C6;stroke-width:0.4000000000000001;" width="73.6" x="104.8" y="336.096"/><ellipse cx="128.6" cy="345.0924" fill="#A9DCDF" rx="4" ry="4" style="stroke:#181818;stroke-width:0.4000000000000001;"/><path d="M129.225,345.9174 L128.0625,345.9174 L127.9438,346.2111 L128.0625,346.2111 Q128.2313,346.2111 128.3063,346.2799 Q128.3813,346.3424 128.3813,346.4549 Q128.3813,346.5611 128.3063,346.6299 Q128.2313,346.6924 128.0625,346.6924 L127.4125,346.6924 Q127.2375,346.6924 127.1688,346.6299 Q127.0938,346.5611 127.0938,346.4486 Q127.0938,346.3424 127.175,346.2736 Q127.25,346.2049 127.425,346.2111 L128.1813,344.3299 L127.8688,344.3299 Q127.6938,344.3299 127.6188,344.2674 Q127.5438,344.1986 127.5438,344.0924 Q127.5438,343.9799 127.6188,343.9174 Q127.6938,343.8486 127.8688,343.8486 L128.9063,343.8486 L129.8625,346.2111 Q130.0313,346.2111 130.0813,346.2486 Q130.1938,346.3236 130.1938,346.4549 Q130.1938,346.5611 130.1188,346.6299 Q130.0438,346.6924 129.875,346.6924 L129.225,346.6924 Q129.05,346.6924 128.975,346.6299 Q128.9063,346.5611 128.9063,346.4486 Q128.9063,346.3424 128.975,346.2799 Q129.05,346.2111 129.225,346.2111 L129.3438,346.2111 L129.225,345.9174 Z M129.0313,345.4361 L128.6438,344.4861 L128.25,345.4361 L129.0313,345.4361 Z " fill="#000000"/><text fill="#262626" font-family="Noto Sans" font-size="4.4" font-style="italic" lengthAdjust="spacing" textLength="14.8" x="140.2" y="346.7996">JBAudio</text><line style="stroke:#C6C6C6;stroke-width:0.4000000000000001;" x1="105.2" x2="178" y1="354.0887" y2="354.0887"/><rect fill="none" height="2.4" style="stroke:#C82930;stroke-width:0.4000000000000001;" width="2.4" x="108" y="362.0851"/><text fill="#262626" font-family="Noto Sans" font-size="4.4" lengthAdjust="spacing" textLength="13.2" x="116.4" y="364.3923">id : int</text><rect fill="none" height="2.4" style="stroke:#C82930;stroke-width:0.4000000000000001;" width="2.4" x="108" y="376.0779"/><text fill="#262626" font-family="Noto Sans" font-size="4.4" lengthAdjust="spacing" textLength="41.2" x="116.4" y="378.3851">isFavorite : boolean</text><rect fill="none" height="2.4" style="stroke:#C82930;stroke-width:0.4000000000000001;" width="2.4" x="108" y="390.0706"/><text fill="#262626" font-family="Noto Sans" font-size="4.4" lengthAdjust="spacing" textLength="42.8" x="116.4" y="392.3778">metadata : Metadata</text><rect fill="none" height="2.4" style="stroke:#C82930;stroke-width:0.4000000000000001;" width="2.4" x="108" y="404.0634"/><text fill="#262626" font-family="Noto Sans" font-size="4.4" lengthAdjust="spacing" textLength="32.4" x="116.4" y="406.3706">audioFile : Blob</text><rect fill="none" height="2.4" style="stroke:#C82930;stroke-width:0.4000000000000001;" width="2.4" x="108" y="418.0561"/><text fill="#262626" font-family="Noto Sans" font-size="4.4" lengthAdjust="spacing" textLength="54.8" x="116.4" y="420.3633">int numberOfStreams : int</text><polygon fill="none" points="109.2,431.2489,110.8,432.8489,109.2,434.4489,107.6,432.8489" style="stroke:#B38D22;stroke-width:0.4000000000000001;"/><text fill="#262626" font-family="Noto Sans" font-size="4.4" lengthAdjust="spacing" textLength="55.6" x="116.4" y="434.3561">mediaPlayer : MediaPlayer</text><line style="stroke:#C6C6C6;stroke-width:0.4000000000000001;" x1="105.2" x2="178" y1="441.2453" y2="441.2453"/><ellipse cx="109.2" cy="450.4417" fill="#84BE84" rx="1.2" ry="1.2" style="stroke:#038048;stroke-width:0.4000000000000001;"/><text fill="#262626" font-family="Noto Sans" font-size="4.4" lengthAdjust="spacing" textLength="39.2" x="116.4" y="451.5488">getters() &amp; setters()</text></g><!--class MetaData--><g id="elem_MetaData"><rect codeLine="49" fill="url(#gevw5dysbvjg0)" height="118.0525" id="MetaData" style="stroke:#C6C6C6;stroke-width:0.4000000000000001;" width="66.4" x="32" y="482.496"/><rect fill="url(#gevw5dysbvjg0)" height="30.896" style="stroke:#C6C6C6;stroke-width:0.4000000000000001;" width="66.4" x="32" y="482.496"/><ellipse cx="49.6" cy="497.944" fill="#DDEBE0" rx="4" ry="4" style="stroke:#181818;stroke-width:0.4000000000000001;"/><path d="M49.2375,497.6127 L49.2375,499.0627 L49.4125,499.0627 Q49.5875,499.0627 49.6563,499.1315 Q49.7313,499.194 49.7313,499.3065 Q49.7313,499.4127 49.6563,499.4815 Q49.5875,499.544 49.4125,499.544 L48.7813,499.544 Q48.6063,499.544 48.5313,499.4815 Q48.4625,499.4127 48.4625,499.3002 Q48.4625,499.2002 48.5313,499.1315 Q48.6063,499.0627 48.7563,499.0627 L48.7563,497.1815 L48.6813,497.1815 Q48.5125,497.1815 48.4375,497.119 Q48.3625,497.0502 48.3625,496.944 Q48.3625,496.8315 48.4375,496.769 Q48.5125,496.7002 48.6813,496.7002 L49.2375,496.7002 L50.4688,498.6315 L50.4688,497.1815 L50.2938,497.1815 Q50.1188,497.1815 50.0438,497.119 Q49.975,497.0502 49.975,496.944 Q49.975,496.8315 50.0438,496.769 Q50.1188,496.7002 50.2938,496.7002 L50.925,496.7002 Q51.1,496.7002 51.1688,496.769 Q51.2438,496.8315 51.2438,496.944 Q51.2438,497.0502 51.1688,497.119 Q51.1,497.1815 50.95,497.1815 L50.95,499.544 L50.475,499.544 L49.2375,497.6127 Z " fill="#000000"/><text fill="#262626" font-family="IBM Plex Sans, Noto Sans, Verdana" font-size="3.6" font-style="italic" lengthAdjust="spacing" textLength="13.6" x="64.4" y="492.3444">&#171;Nested&#187;</text><text fill="#262626" font-family="Noto Sans" font-size="4.4" lengthAdjust="spacing" textLength="20" x="61.2" y="506.1028">MetaData</text><line style="stroke:#C6C6C6;stroke-width:0.4000000000000001;" x1="32.4" x2="98" y1="513.392" y2="513.392"/><rect fill="none" height="2.4" style="stroke:#C82930;stroke-width:0.4000000000000001;" width="2.4" x="35.2" y="521.3884"/><text fill="#262626" font-family="Noto Sans" font-size="4.4" lengthAdjust="spacing" textLength="25.6" x="43.6" y="523.6955">artist : Artist</text><rect fill="none" height="2.4" style="stroke:#C82930;stroke-width:0.4000000000000001;" width="2.4" x="35.2" y="535.3811"/><text fill="#262626" font-family="Noto Sans" font-size="4.4" lengthAdjust="spacing" textLength="24.4" x="43.6" y="537.6883">title : String</text><rect fill="none" height="2.4" style="stroke:#C82930;stroke-width:0.4000000000000001;" width="2.4" x="35.2" y="549.3739"/><text fill="#262626" font-family="Noto Sans" font-size="4.4" lengthAdjust="spacing" textLength="48.4" x="43.6" y="551.6811">collection : JBCollection</text><rect fill="none" height="2.4" style="stroke:#C82930;stroke-width:0.4000000000000001;" width="2.4" x="35.2" y="563.3666"/><text fill="#262626" font-family="Noto Sans" font-size="4.4" lengthAdjust="spacing" textLength="36.8" x="43.6" y="565.6738">duration : double</text><rect fill="none" height="2.4" style="stroke:#C82930;stroke-width:0.4000000000000001;" width="2.4" x="35.2" y="577.3594"/><text fill="#262626" font-family="Noto Sans" font-size="4.4" lengthAdjust="spacing" textLength="37.6" x="43.6" y="579.6666">releaseDate : Date</text><rect fill="none" height="2.4" style="stroke:#C82930;stroke-width:0.4000000000000001;" width="2.4" x="35.2" y="591.3521"/><text fill="#262626" font-family="Noto Sans" font-size="4.4" lengthAdjust="spacing" textLength="34" x="43.6" y="593.6593">genres : String[]</text></g><!--class Song--><g id="elem_Song"><rect codeLine="60" fill="url(#gevw5dysbvjg0)" height="17.9928" id="Song" style="stroke:#C6C6C6;stroke-width:0.4000000000000001;" width="30.8" x="112.6" y="532.496"/><rect fill="url(#gevw5dysbvjg0)" height="17.9928" style="stroke:#C6C6C6;stroke-width:0.4000000000000001;" width="30.8" x="112.6" y="532.496"/><ellipse cx="118.2" cy="541.4924" fill="#ADD1B2" rx="4" ry="4" style="stroke:#181818;stroke-width:0.4000000000000001;"/><path d="M118.7938,540.3736 Q118.8375,540.3111 118.8875,540.2799 Q118.9438,540.2486 119.0063,540.2486 Q119.1125,540.2486 119.175,540.3236 Q119.2438,540.3986 119.2438,540.5674 L119.2438,540.9799 Q119.2438,541.1486 119.175,541.2236 Q119.1125,541.2986 119.0063,541.2986 Q118.9063,541.2986 118.85,541.2424 Q118.7938,541.1924 118.7625,541.0424 Q118.75,540.9424 118.7,540.8924 Q118.6,540.7861 118.425,540.7236 Q118.2563,540.6611 118.0813,540.6611 Q117.8688,540.6611 117.6875,540.7549 Q117.5063,540.8486 117.3688,541.0611 Q117.2313,541.2674 117.2313,541.5611 L117.2313,541.8736 Q117.2313,542.2174 117.4813,542.4486 Q117.7375,542.6799 118.1813,542.6799 Q118.45,542.6799 118.6375,542.6111 Q118.7438,542.5674 118.8625,542.4424 Q118.9375,542.3674 118.9813,542.3486 Q119.025,542.3236 119.075,542.3236 Q119.175,542.3236 119.2438,542.3986 Q119.3188,542.4674 119.3188,542.5674 Q119.3188,542.6674 119.2188,542.7799 Q119.075,542.9424 118.85,543.0361 Q118.55,543.1611 118.1875,543.1611 Q117.7563,543.1611 117.4188,542.9861 Q117.1375,542.8486 116.9438,542.5424 Q116.75,542.2361 116.75,541.8799 L116.75,541.5549 Q116.75,541.1799 116.925,540.8549 Q117.1,540.5299 117.4063,540.3549 Q117.7188,540.1799 118.0625,540.1799 Q118.275,540.1799 118.4563,540.2299 Q118.6375,540.2736 118.7938,540.3736 Z " fill="#000000"/><text fill="#262626" font-family="Noto Sans" font-size="4.4" lengthAdjust="spacing" textLength="10.8" x="127.4" y="543.1996">Song</text></g><!--class Episode--><g id="elem_Episode"><rect codeLine="63" fill="url(#gevw5dysbvjg0)" height="17.9928" id="Episode" style="stroke:#C6C6C6;stroke-width:0.4000000000000001;" width="36.4" x="157.4" y="532.496"/><rect fill="url(#gevw5dysbvjg0)" height="17.9928" style="stroke:#C6C6C6;stroke-width:0.4000000000000001;" width="36.4" x="157.4" y="532.496"/><ellipse cx="163" cy="541.4924" fill="#ADD1B2" rx="4" ry="4" style="stroke:#181818;stroke-width:0.4000000000000001;"/><path d="M163.5938,540.3736 Q163.6375,540.3111 163.6875,540.2799 Q163.7438,540.2486 163.8063,540.2486 Q163.9125,540.2486 163.975,540.3236 Q164.0438,540.3986 164.0438,540.5674 L164.0438,540.9799 Q164.0438,541.1486 163.975,541.2236 Q163.9125,541.2986 163.8063,541.2986 Q163.7063,541.2986 163.65,541.2424 Q163.5938,541.1924 163.5625,541.0424 Q163.55,540.9424 163.5,540.8924 Q163.4,540.7861 163.225,540.7236 Q163.0563,540.6611 162.8813,540.6611 Q162.6688,540.6611 162.4875,540.7549 Q162.3063,540.8486 162.1688,541.0611 Q162.0313,541.2674 162.0313,541.5611 L162.0313,541.8736 Q162.0313,542.2174 162.2813,542.4486 Q162.5375,542.6799 162.9813,542.6799 Q163.25,542.6799 163.4375,542.6111 Q163.5438,542.5674 163.6625,542.4424 Q163.7375,542.3674 163.7813,542.3486 Q163.825,542.3236 163.875,542.3236 Q163.975,542.3236 164.0438,542.3986 Q164.1188,542.4674 164.1188,542.5674 Q164.1188,542.6674 164.0188,542.7799 Q163.875,542.9424 163.65,543.0361 Q163.35,543.1611 162.9875,543.1611 Q162.5563,543.1611 162.2188,542.9861 Q161.9375,542.8486 161.7438,542.5424 Q161.55,542.2361 161.55,541.8799 L161.55,541.5549 Q161.55,541.1799 161.725,540.8549 Q161.9,540.5299 162.2063,540.3549 Q162.5188,540.1799 162.8625,540.1799 Q163.075,540.1799 163.2563,540.2299 Q163.4375,540.2736 163.5938,540.3736 Z " fill="#000000"/><text fill="#262626" font-family="Noto Sans" font-size="4.4" lengthAdjust="spacing" textLength="16.4" x="172.2" y="543.1996">Episode</text></g><!--class JBCollection--><g id="elem_JBCollection"><rect codeLine="70" fill="url(#gevw5dysbvjg0)" height="108.3493" id="JBCollection" style="stroke:#C6C6C6;stroke-width:0.4000000000000001;" width="78.8" x="319.4" y="199.296"/><rect fill="url(#gevw5dysbvjg0)" height="17.9928" style="stroke:#C6C6C6;stroke-width:0.4000000000000001;" width="78.8" x="319.4" y="199.296"/><ellipse cx="341.8" cy="208.2924" fill="#A9DCDF" rx="4" ry="4" style="stroke:#181818;stroke-width:0.4000000000000001;"/><path d="M342.425,209.1174 L341.2625,209.1174 L341.1438,209.4111 L341.2625,209.4111 Q341.4313,209.4111 341.5063,209.4799 Q341.5813,209.5424 341.5813,209.6549 Q341.5813,209.7611 341.5063,209.8299 Q341.4313,209.8924 341.2625,209.8924 L340.6125,209.8924 Q340.4375,209.8924 340.3688,209.8299 Q340.2938,209.7611 340.2938,209.6486 Q340.2938,209.5424 340.375,209.4736 Q340.45,209.4049 340.625,209.4111 L341.3813,207.5299 L341.0688,207.5299 Q340.8938,207.5299 340.8188,207.4674 Q340.7438,207.3986 340.7438,207.2924 Q340.7438,207.1799 340.8188,207.1174 Q340.8938,207.0486 341.0688,207.0486 L342.1063,207.0486 L343.0625,209.4111 Q343.2313,209.4111 343.2813,209.4486 Q343.3938,209.5236 343.3938,209.6549 Q343.3938,209.7611 343.3188,209.8299 Q343.2438,209.8924 343.075,209.8924 L342.425,209.8924 Q342.25,209.8924 342.175,209.8299 Q342.1063,209.7611 342.1063,209.6486 Q342.1063,209.5424 342.175,209.4799 Q342.25,209.4111 342.425,209.4111 L342.5438,209.4111 L342.425,209.1174 Z M342.2313,208.6361 L341.8438,207.6861 L341.45,208.6361 L342.2313,208.6361 Z " fill="#000000"/><text fill="#262626" font-family="Noto Sans" font-size="4.4" font-style="italic" lengthAdjust="spacing" textLength="22.8" x="353.4" y="209.9996">JBCollection</text><line style="stroke:#C6C6C6;stroke-width:0.4000000000000001;" x1="319.8" x2="397.8" y1="217.2887" y2="217.2887"/><rect fill="none" height="2.4" style="stroke:#C82930;stroke-width:0.4000000000000001;" width="2.4" x="322.6" y="225.2851"/><text fill="#262626" font-family="Noto Sans" font-size="4.4" lengthAdjust="spacing" textLength="13.2" x="331" y="227.5923">id : int</text><rect fill="none" height="2.4" style="stroke:#C82930;stroke-width:0.4000000000000001;" width="2.4" x="322.6" y="239.2779"/><text fill="#262626" font-family="Noto Sans" font-size="4.4" lengthAdjust="spacing" textLength="28" x="331" y="241.5851">name : String</text><rect fill="none" height="2.4" style="stroke:#C82930;stroke-width:0.4000000000000001;" width="2.4" x="322.6" y="253.2706"/><text fill="#262626" font-family="Noto Sans" font-size="4.4" lengthAdjust="spacing" textLength="36.8" x="331" y="255.5778">creator : JBProfile</text><rect fill="none" height="2.4" style="stroke:#C82930;stroke-width:0.4000000000000001;" width="2.4" x="322.6" y="267.2634"/><text fill="#262626" font-family="Noto Sans" font-size="4.4" lengthAdjust="spacing" textLength="28" x="331" y="269.5706">picture : Blob</text><line style="stroke:#C6C6C6;stroke-width:0.4000000000000001;" x1="319.8" x2="397.8" y1="276.4598" y2="276.4598"/><ellipse cx="323.8" cy="285.6561" fill="#84BE84" rx="1.2" ry="1.2" style="stroke:#038048;stroke-width:0.4000000000000001;"/><text fill="#262626" font-family="Noto Sans" font-size="4.4" lengthAdjust="spacing" textLength="60.8" x="331" y="286.7633">scalePicture(size : int) : Image</text><ellipse cx="323.8" cy="299.6489" fill="#84BE84" rx="1.2" ry="1.2" style="stroke:#038048;stroke-width:0.4000000000000001;"/><text fill="#262626" font-family="Noto Sans" font-size="4.4" lengthAdjust="spacing" textLength="39.2" x="331" y="300.7561">getters() &amp; setters()</text></g><!--class Album--><g id="elem_Album"><rect codeLine="83" fill="url(#gevw5dysbvjg0)" height="52.3783" id="Album" style="stroke:#C6C6C6;stroke-width:0.4000000000000001;" width="79.2" x="226" y="371.096"/><rect fill="url(#gevw5dysbvjg0)" height="17.9928" style="stroke:#C6C6C6;stroke-width:0.4000000000000001;" width="79.2" x="226" y="371.096"/><ellipse cx="253.2" cy="380.0924" fill="#ADD1B2" rx="4" ry="4" style="stroke:#181818;stroke-width:0.4000000000000001;"/><path d="M253.7938,378.9736 Q253.8375,378.9111 253.8875,378.8799 Q253.9438,378.8486 254.0063,378.8486 Q254.1125,378.8486 254.175,378.9236 Q254.2438,378.9986 254.2438,379.1674 L254.2438,379.5799 Q254.2438,379.7486 254.175,379.8236 Q254.1125,379.8986 254.0063,379.8986 Q253.9063,379.8986 253.85,379.8424 Q253.7938,379.7924 253.7625,379.6424 Q253.75,379.5424 253.7,379.4924 Q253.6,379.3861 253.425,379.3236 Q253.2563,379.2611 253.0813,379.2611 Q252.8688,379.2611 252.6875,379.3549 Q252.5063,379.4486 252.3688,379.6611 Q252.2313,379.8674 252.2313,380.1611 L252.2313,380.4736 Q252.2313,380.8174 252.4813,381.0486 Q252.7375,381.2799 253.1813,381.2799 Q253.45,381.2799 253.6375,381.2111 Q253.7438,381.1674 253.8625,381.0424 Q253.9375,380.9674 253.9813,380.9486 Q254.025,380.9236 254.075,380.9236 Q254.175,380.9236 254.2438,380.9986 Q254.3188,381.0674 254.3188,381.1674 Q254.3188,381.2674 254.2188,381.3799 Q254.075,381.5424 253.85,381.6361 Q253.55,381.7611 253.1875,381.7611 Q252.7563,381.7611 252.4188,381.5861 Q252.1375,381.4486 251.9438,381.1424 Q251.75,380.8361 251.75,380.4799 L251.75,380.1549 Q251.75,379.7799 251.925,379.4549 Q252.1,379.1299 252.4063,378.9549 Q252.7188,378.7799 253.0625,378.7799 Q253.275,378.7799 253.4563,378.8299 Q253.6375,378.8736 253.7938,378.9736 Z " fill="#000000"/><text fill="#262626" font-family="Noto Sans" font-size="4.4" lengthAdjust="spacing" textLength="13.6" x="264.8" y="381.7996">Album</text><line style="stroke:#C6C6C6;stroke-width:0.4000000000000001;" x1="226.4" x2="304.8" y1="389.0887" y2="389.0887"/><rect fill="none" height="2.4" style="stroke:#C82930;stroke-width:0.4000000000000001;" width="2.4" x="229.2" y="397.0851"/><text fill="#262626" font-family="Noto Sans" font-size="4.4" lengthAdjust="spacing" textLength="61.2" x="237.6" y="399.3923">trackList : ArrayList&lt;JBAudio&gt;</text><line style="stroke:#C6C6C6;stroke-width:0.4000000000000001;" x1="226.4" x2="304.8" y1="406.2815" y2="406.2815"/><ellipse cx="230.4" cy="415.4779" fill="#84BE84" rx="1.2" ry="1.2" style="stroke:#038048;stroke-width:0.4000000000000001;"/><text fill="#262626" font-family="Noto Sans" font-size="4.4" lengthAdjust="spacing" textLength="39.2" x="237.6" y="416.5851">getters() &amp; setters()</text></g><!--class Playlist--><g id="elem_Playlist"><rect codeLine="92" fill="url(#gevw5dysbvjg0)" height="66.371" id="Playlist" style="stroke:#C6C6C6;stroke-width:0.4000000000000001;" width="79.2" x="319.2" y="364.096"/><rect fill="url(#gevw5dysbvjg0)" height="17.9928" style="stroke:#C6C6C6;stroke-width:0.4000000000000001;" width="79.2" x="319.2" y="364.096"/><ellipse cx="345.8" cy="373.0924" fill="#ADD1B2" rx="4" ry="4" style="stroke:#181818;stroke-width:0.4000000000000001;"/><path d="M346.3938,371.9736 Q346.4375,371.9111 346.4875,371.8799 Q346.5438,371.8486 346.6063,371.8486 Q346.7125,371.8486 346.775,371.9236 Q346.8438,371.9986 346.8438,372.1674 L346.8438,372.5799 Q346.8438,372.7486 346.775,372.8236 Q346.7125,372.8986 346.6063,372.8986 Q346.5063,372.8986 346.45,372.8424 Q346.3938,372.7924 346.3625,372.6424 Q346.35,372.5424 346.3,372.4924 Q346.2,372.3861 346.025,372.3236 Q345.8563,372.2611 345.6813,372.2611 Q345.4688,372.2611 345.2875,372.3549 Q345.1063,372.4486 344.9688,372.6611 Q344.8313,372.8674 344.8313,373.1611 L344.8313,373.4736 Q344.8313,373.8174 345.0813,374.0486 Q345.3375,374.2799 345.7813,374.2799 Q346.05,374.2799 346.2375,374.2111 Q346.3438,374.1674 346.4625,374.0424 Q346.5375,373.9674 346.5813,373.9486 Q346.625,373.9236 346.675,373.9236 Q346.775,373.9236 346.8438,373.9986 Q346.9188,374.0674 346.9188,374.1674 Q346.9188,374.2674 346.8188,374.3799 Q346.675,374.5424 346.45,374.6361 Q346.15,374.7611 345.7875,374.7611 Q345.3563,374.7611 345.0188,374.5861 Q344.7375,374.4486 344.5438,374.1424 Q344.35,373.8361 344.35,373.4799 L344.35,373.1549 Q344.35,372.7799 344.525,372.4549 Q344.7,372.1299 345.0063,371.9549 Q345.3188,371.7799 345.6625,371.7799 Q345.875,371.7799 346.0563,371.8299 Q346.2375,371.8736 346.3938,371.9736 Z " fill="#000000"/><text fill="#262626" font-family="Noto Sans" font-size="4.4" lengthAdjust="spacing" textLength="14.8" x="357.4" y="374.7996">Playlist</text><line style="stroke:#C6C6C6;stroke-width:0.4000000000000001;" x1="319.6" x2="398" y1="382.0887" y2="382.0887"/><rect fill="none" height="2.4" style="stroke:#C82930;stroke-width:0.4000000000000001;" width="2.4" x="322.4" y="390.0851"/><text fill="#262626" font-family="Noto Sans" font-size="4.4" lengthAdjust="spacing" textLength="61.2" x="330.8" y="392.3923">trackList : ArrayList&lt;JBAudio&gt;</text><rect fill="none" height="2.4" style="stroke:#C82930;stroke-width:0.4000000000000001;" width="2.4" x="322.4" y="404.0779"/><text fill="#262626" font-family="Noto Sans" font-size="4.4" lengthAdjust="spacing" textLength="38.8" x="330.8" y="406.3851">isVisible : boolean;</text><line style="stroke:#C6C6C6;stroke-width:0.4000000000000001;" x1="319.6" x2="398" y1="413.2743" y2="413.2743"/><ellipse cx="323.6" cy="422.4706" fill="#84BE84" rx="1.2" ry="1.2" style="stroke:#038048;stroke-width:0.4000000000000001;"/><text fill="#262626" font-family="Noto Sans" font-size="4.4" lengthAdjust="spacing" textLength="39.2" x="330.8" y="423.5778">getters() &amp; setters()</text></g><!--class Podcast--><g id="elem_Podcast"><rect codeLine="102" fill="url(#gevw5dysbvjg0)" height="52.3783" id="Podcast" style="stroke:#C6C6C6;stroke-width:0.4000000000000001;" width="79.2" x="412.4" y="371.096"/><rect fill="url(#gevw5dysbvjg0)" height="17.9928" style="stroke:#C6C6C6;stroke-width:0.4000000000000001;" width="79.2" x="412.4" y="371.096"/><ellipse cx="438.2" cy="380.0924" fill="#ADD1B2" rx="4" ry="4" style="stroke:#181818;stroke-width:0.4000000000000001;"/><path d="M438.7938,378.9736 Q438.8375,378.9111 438.8875,378.8799 Q438.9438,378.8486 439.0063,378.8486 Q439.1125,378.8486 439.175,378.9236 Q439.2438,378.9986 439.2438,379.1674 L439.2438,379.5799 Q439.2438,379.7486 439.175,379.8236 Q439.1125,379.8986 439.0063,379.8986 Q438.9063,379.8986 438.85,379.8424 Q438.7938,379.7924 438.7625,379.6424 Q438.75,379.5424 438.7,379.4924 Q438.6,379.3861 438.425,379.3236 Q438.2563,379.2611 438.0813,379.2611 Q437.8688,379.2611 437.6875,379.3549 Q437.5063,379.4486 437.3688,379.6611 Q437.2313,379.8674 437.2313,380.1611 L437.2313,380.4736 Q437.2313,380.8174 437.4813,381.0486 Q437.7375,381.2799 438.1813,381.2799 Q438.45,381.2799 438.6375,381.2111 Q438.7438,381.1674 438.8625,381.0424 Q438.9375,380.9674 438.9813,380.9486 Q439.025,380.9236 439.075,380.9236 Q439.175,380.9236 439.2438,380.9986 Q439.3188,381.0674 439.3188,381.1674 Q439.3188,381.2674 439.2188,381.3799 Q439.075,381.5424 438.85,381.6361 Q438.55,381.7611 438.1875,381.7611 Q437.7563,381.7611 437.4188,381.5861 Q437.1375,381.4486 436.9438,381.1424 Q436.75,380.8361 436.75,380.4799 L436.75,380.1549 Q436.75,379.7799 436.925,379.4549 Q437.1,379.1299 437.4063,378.9549 Q437.7188,378.7799 438.0625,378.7799 Q438.275,378.7799 438.4563,378.8299 Q438.6375,378.8736 438.7938,378.9736 Z " fill="#000000"/><text fill="#262626" font-family="Noto Sans" font-size="4.4" lengthAdjust="spacing" textLength="16.4" x="449.8" y="381.7996">Podcast</text><line style="stroke:#C6C6C6;stroke-width:0.4000000000000001;" x1="412.8" x2="491.2" y1="389.0887" y2="389.0887"/><rect fill="none" height="2.4" style="stroke:#C82930;stroke-width:0.4000000000000001;" width="2.4" x="415.6" y="397.0851"/><text fill="#262626" font-family="Noto Sans" font-size="4.4" lengthAdjust="spacing" textLength="61.2" x="424" y="399.3923">trackList : ArrayList&lt;JBAudio&gt;</text><line style="stroke:#C6C6C6;stroke-width:0.4000000000000001;" x1="412.8" x2="491.2" y1="406.2815" y2="406.2815"/><ellipse cx="416.8" cy="415.4779" fill="#84BE84" rx="1.2" ry="1.2" style="stroke:#038048;stroke-width:0.4000000000000001;"/><text fill="#262626" font-family="Noto Sans" font-size="4.4" lengthAdjust="spacing" textLength="39.2" x="424" y="416.5851">getters() &amp; setters()</text></g><!--class JBProfile--><g id="elem_JBProfile"><rect codeLine="114" fill="url(#gevw5dysbvjg0)" height="94.3565" id="JBProfile" style="stroke:#C6C6C6;stroke-width:0.4000000000000001;" width="148.4" x="514.2" y="206.296"/><rect fill="url(#gevw5dysbvjg0)" height="17.9928" style="stroke:#C6C6C6;stroke-width:0.4000000000000001;" width="148.4" x="514.2" y="206.296"/><ellipse cx="574.6" cy="215.2924" fill="#A9DCDF" rx="4" ry="4" style="stroke:#181818;stroke-width:0.4000000000000001;"/><path d="M575.225,216.1174 L574.0625,216.1174 L573.9438,216.4111 L574.0625,216.4111 Q574.2313,216.4111 574.3063,216.4799 Q574.3813,216.5424 574.3813,216.6549 Q574.3813,216.7611 574.3063,216.8299 Q574.2313,216.8924 574.0625,216.8924 L573.4125,216.8924 Q573.2375,216.8924 573.1688,216.8299 Q573.0938,216.7611 573.0938,216.6486 Q573.0938,216.5424 573.175,216.4736 Q573.25,216.4049 573.425,216.4111 L574.1813,214.5299 L573.8688,214.5299 Q573.6938,214.5299 573.6188,214.4674 Q573.5438,214.3986 573.5438,214.2924 Q573.5438,214.1799 573.6188,214.1174 Q573.6938,214.0486 573.8688,214.0486 L574.9063,214.0486 L575.8625,216.4111 Q576.0313,216.4111 576.0813,216.4486 Q576.1938,216.5236 576.1938,216.6549 Q576.1938,216.7611 576.1188,216.8299 Q576.0438,216.8924 575.875,216.8924 L575.225,216.8924 Q575.05,216.8924 574.975,216.8299 Q574.9063,216.7611 574.9063,216.6486 Q574.9063,216.5424 574.975,216.4799 Q575.05,216.4111 575.225,216.4111 L575.3438,216.4111 L575.225,216.1174 Z M575.0313,215.6361 L574.6438,214.6861 L574.25,215.6361 L575.0313,215.6361 Z " fill="#000000"/><text fill="#262626" font-family="Noto Sans" font-size="4.4" font-style="italic" lengthAdjust="spacing" textLength="16.4" x="586.2" y="216.9996">JBProfile</text><line style="stroke:#C6C6C6;stroke-width:0.4000000000000001;" x1="514.6" x2="662.2" y1="224.2887" y2="224.2887"/><rect fill="none" height="2.4" style="stroke:#C82930;stroke-width:0.4000000000000001;" width="2.4" x="517.4" y="232.2851"/><text fill="#262626" font-family="Noto Sans" font-size="4.4" lengthAdjust="spacing" textLength="130.4" x="525.8" y="234.5923">username, mail, password, name, surname, biography : String</text><rect fill="none" height="2.4" style="stroke:#C82930;stroke-width:0.4000000000000001;" width="2.4" x="517.4" y="246.2779"/><text fill="#262626" font-family="Noto Sans" font-size="4.4" lengthAdjust="spacing" textLength="52.8" x="525.8" y="248.5851">Blob profilePicture : Blob</text><rect fill="none" height="2.4" style="stroke:#C82930;stroke-width:0.4000000000000001;" width="2.4" x="517.4" y="260.2706"/><text fill="#262626" font-family="Noto Sans" font-size="4.4" lengthAdjust="spacing" textLength="76.8" x="525.8" y="262.5778">listeningHistory : ArrayList&lt;JBAudio&gt;</text><rect fill="none" height="2.4" style="stroke:#C82930;stroke-width:0.4000000000000001;" width="2.4" x="517.4" y="274.2634"/><text fill="#262626" font-family="Noto Sans" font-size="4.4" lengthAdjust="spacing" textLength="36.8" x="525.8" y="276.5706">favorites : Playlist</text><line style="stroke:#C6C6C6;stroke-width:0.4000000000000001;" x1="514.6" x2="662.2" y1="283.4598" y2="283.4598"/><ellipse cx="518.6" cy="292.6561" fill="#84BE84" rx="1.2" ry="1.2" style="stroke:#038048;stroke-width:0.4000000000000001;"/><text fill="#262626" font-family="Noto Sans" font-size="4.4" lengthAdjust="spacing" textLength="39.2" x="525.8" y="293.7633">getters() &amp; setters()</text></g><!--class User--><g id="elem_User"><rect codeLine="126" fill="url(#gevw5dysbvjg0)" height="66.371" id="User" style="stroke:#C6C6C6;stroke-width:0.4000000000000001;" width="75.2" x="514.8" y="364.096"/><rect fill="url(#gevw5dysbvjg0)" height="17.9928" style="stroke:#C6C6C6;stroke-width:0.4000000000000001;" width="75.2" x="514.8" y="364.096"/><ellipse cx="542" cy="373.0924" fill="#ADD1B2" rx="4" ry="4" style="stroke:#181818;stroke-width:0.4000000000000001;"/><path d="M542.5938,371.9736 Q542.6375,371.9111 542.6875,371.8799 Q542.7438,371.8486 542.8063,371.8486 Q542.9125,371.8486 542.975,371.9236 Q543.0438,371.9986 543.0438,372.1674 L543.0438,372.5799 Q543.0438,372.7486 542.975,372.8236 Q542.9125,372.8986 542.8063,372.8986 Q542.7063,372.8986 542.65,372.8424 Q542.5938,372.7924 542.5625,372.6424 Q542.55,372.5424 542.5,372.4924 Q542.4,372.3861 542.225,372.3236 Q542.0563,372.2611 541.8813,372.2611 Q541.6688,372.2611 541.4875,372.3549 Q541.3063,372.4486 541.1688,372.6611 Q541.0313,372.8674 541.0313,373.1611 L541.0313,373.4736 Q541.0313,373.8174 541.2813,374.0486 Q541.5375,374.2799 541.9813,374.2799 Q542.25,374.2799 542.4375,374.2111 Q542.5438,374.1674 542.6625,374.0424 Q542.7375,373.9674 542.7813,373.9486 Q542.825,373.9236 542.875,373.9236 Q542.975,373.9236 543.0438,373.9986 Q543.1188,374.0674 543.1188,374.1674 Q543.1188,374.2674 543.0188,374.3799 Q542.875,374.5424 542.65,374.6361 Q542.35,374.7611 541.9875,374.7611 Q541.5563,374.7611 541.2188,374.5861 Q540.9375,374.4486 540.7438,374.1424 Q540.55,373.8361 540.55,373.4799 L540.55,373.1549 Q540.55,372.7799 540.725,372.4549 Q540.9,372.1299 541.2063,371.9549 Q541.5188,371.7799 541.8625,371.7799 Q542.075,371.7799 542.2563,371.8299 Q542.4375,371.8736 542.5938,371.9736 Z " fill="#000000"/><text fill="#262626" font-family="Noto Sans" font-size="4.4" lengthAdjust="spacing" textLength="9.6" x="553.6" y="374.7996">User</text><line style="stroke:#C6C6C6;stroke-width:0.4000000000000001;" x1="515.2" x2="589.6" y1="382.0887" y2="382.0887"/><rect fill="none" height="2.4" style="stroke:#C82930;stroke-width:0.4000000000000001;" width="2.4" x="518" y="390.0851"/><text fill="#262626" font-family="Noto Sans" font-size="4.4" lengthAdjust="spacing" textLength="37.6" x="526.4" y="392.3923">isVisible : Boolean</text><rect fill="none" height="2.4" style="stroke:#C82930;stroke-width:0.4000000000000001;" width="2.4" x="518" y="404.0779"/><text fill="#262626" font-family="Noto Sans" font-size="4.4" lengthAdjust="spacing" textLength="57.2" x="526.4" y="406.3851">totalListeningTime : double</text><line style="stroke:#C6C6C6;stroke-width:0.4000000000000001;" x1="515.2" x2="589.6" y1="413.2743" y2="413.2743"/><ellipse cx="519.2" cy="422.4706" fill="#84BE84" rx="1.2" ry="1.2" style="stroke:#038048;stroke-width:0.4000000000000001;"/><text fill="#262626" font-family="Noto Sans" font-size="4.4" lengthAdjust="spacing" textLength="39.2" x="526.4" y="423.5778">getters() &amp; setters()</text></g><!--class Artist--><g id="elem_Artist"><rect codeLine="136" fill="url(#gevw5dysbvjg0)" height="52.3783" id="Artist" style="stroke:#C6C6C6;stroke-width:0.4000000000000001;" width="57.2" x="604.2" y="371.096"/><rect fill="url(#gevw5dysbvjg0)" height="17.9928" style="stroke:#C6C6C6;stroke-width:0.4000000000000001;" width="57.2" x="604.2" y="371.096"/><ellipse cx="621.6" cy="380.0924" fill="#ADD1B2" rx="4" ry="4" style="stroke:#181818;stroke-width:0.4000000000000001;"/><path d="M622.1938,378.9736 Q622.2375,378.9111 622.2875,378.8799 Q622.3438,378.8486 622.4063,378.8486 Q622.5125,378.8486 622.575,378.9236 Q622.6438,378.9986 622.6438,379.1674 L622.6438,379.5799 Q622.6438,379.7486 622.575,379.8236 Q622.5125,379.8986 622.4063,379.8986 Q622.3063,379.8986 622.25,379.8424 Q622.1938,379.7924 622.1625,379.6424 Q622.15,379.5424 622.1,379.4924 Q622,379.3861 621.825,379.3236 Q621.6563,379.2611 621.4813,379.2611 Q621.2688,379.2611 621.0875,379.3549 Q620.9063,379.4486 620.7688,379.6611 Q620.6313,379.8674 620.6313,380.1611 L620.6313,380.4736 Q620.6313,380.8174 620.8813,381.0486 Q621.1375,381.2799 621.5813,381.2799 Q621.85,381.2799 622.0375,381.2111 Q622.1438,381.1674 622.2625,381.0424 Q622.3375,380.9674 622.3813,380.9486 Q622.425,380.9236 622.475,380.9236 Q622.575,380.9236 622.6438,380.9986 Q622.7188,381.0674 622.7188,381.1674 Q622.7188,381.2674 622.6188,381.3799 Q622.475,381.5424 622.25,381.6361 Q621.95,381.7611 621.5875,381.7611 Q621.1563,381.7611 620.8188,381.5861 Q620.5375,381.4486 620.3438,381.1424 Q620.15,380.8361 620.15,380.4799 L620.15,380.1549 Q620.15,379.7799 620.325,379.4549 Q620.5,379.1299 620.8063,378.9549 Q621.1188,378.7799 621.4625,378.7799 Q621.675,378.7799 621.8563,378.8299 Q622.0375,378.8736 622.1938,378.9736 Z " fill="#000000"/><text fill="#262626" font-family="Noto Sans" font-size="4.4" lengthAdjust="spacing" textLength="11.2" x="633.2" y="381.7996">Artist</text><line style="stroke:#C6C6C6;stroke-width:0.4000000000000001;" x1="604.6" x2="661" y1="389.0887" y2="389.0887"/><rect fill="none" height="2.4" style="stroke:#C82930;stroke-width:0.4000000000000001;" width="2.4" x="607.4" y="397.0851"/><text fill="#262626" font-family="Noto Sans" font-size="4.4" lengthAdjust="spacing" textLength="37.6" x="615.8" y="399.3923">totalListeners : int</text><line style="stroke:#C6C6C6;stroke-width:0.4000000000000001;" x1="604.6" x2="661" y1="406.2815" y2="406.2815"/><ellipse cx="608.6" cy="415.4779" fill="#84BE84" rx="1.2" ry="1.2" style="stroke:#038048;stroke-width:0.4000000000000001;"/><text fill="#262626" font-family="Noto Sans" font-size="4.4" lengthAdjust="spacing" textLength="39.2" x="615.8" y="416.5851">getters() &amp; setters()</text></g><!--reverse link IJBResearchable to IJBPlayable--><g id="link_IJBResearchable_IJBPlayable"><path d="M326.6087,120.2464 C296.7087,128.9784 253.632,144.824 219.6,174.096 C199.636,191.268 184.644,218.216 176.296,235.768 " fill="none" id="IJBResearchable-backto-IJBPlayable" style="stroke:#C6C6C6;stroke-width:0.4000000000000001;"/><polygon fill="none" points="333.52,118.228,325.9359,117.9426,327.2815,122.5501,333.52,118.228" style="stroke:#C6C6C6;stroke-width:0.4000000000000001;"/></g><!--reverse link IJBPlayable to JBAudio--><g id="link_IJBPlayable_JBAudio"><path d="M164.1737,278.217 C161.0977,294.377 157.668,312.424 153.188,335.98 " fill="none" id="IJBPlayable-backto-JBAudio" style="stroke:#C6C6C6;stroke-width:0.4000000000000001;stroke-dasharray:7.0,7.0;"/><polygon fill="none" points="165.52,271.144,161.816,277.7682,166.5313,278.6658,165.52,271.144" style="stroke:#C6C6C6;stroke-width:0.4000000000000001;"/></g><!--reverse link JBAudio to Song--><g id="link_JBAudio_Song"><path d="M135.1523,465.6798 C132.4523,494.1518 130.208,517.8 128.82,532.436 " fill="none" id="JBAudio-backto-Song" style="stroke:#C6C6C6;stroke-width:0.4000000000000001;"/><polygon fill="none" points="135.832,458.512,132.763,465.4533,137.5416,465.9064,135.832,458.512" style="stroke:#C6C6C6;stroke-width:0.4000000000000001;"/></g><!--reverse link JBAudio to Episode--><g id="link_JBAudio_Episode"><path d="M157.6804,465.5179 C164.4284,493.9899 170.076,517.8 173.548,532.436 " fill="none" id="JBAudio-backto-Episode" style="stroke:#C6C6C6;stroke-width:0.4000000000000001;"/><polygon fill="none" points="156.02,458.512,155.3451,466.0714,160.0157,464.9644,156.02,458.512" style="stroke:#C6C6C6;stroke-width:0.4000000000000001;"/></g><!--reverse link IJBResearchable to JBCollection--><g id="link_IJBResearchable_JBCollection"><path d="M358.8,127.528 C358.8,143.06 358.8,169.652 358.8,199.256 " fill="none" id="IJBResearchable-backto-JBCollection" style="stroke:#C6C6C6;stroke-width:0.4000000000000001;stroke-dasharray:7.0,7.0;"/><polygon fill="none" points="358.8,120.328,356.4,127.528,361.2,127.528,358.8,120.328" style="stroke:#C6C6C6;stroke-width:0.4000000000000001;"/></g><!--reverse link JBCollection to Album--><g id="link_JBCollection_Album"><path d="M315.1192,306.777 C312.6872,310.085 314.604,307.612 312.4,310.896 C299.428,330.236 286.936,353.504 278.128,370.96 " fill="none" id="JBCollection-backto-Album" style="stroke:#C6C6C6;stroke-width:0.4000000000000001;"/><polygon fill="none" points="319.384,300.976,313.1855,305.3554,317.0529,308.1986,319.384,300.976" style="stroke:#C6C6C6;stroke-width:0.4000000000000001;"/></g><!--reverse link JBCollection to Playlist--><g id="link_JBCollection_Playlist"><path d="M358.8,314.956 C358.8,333.876 358.8,347.356 358.8,364.032 " fill="none" id="JBCollection-backto-Playlist" style="stroke:#C6C6C6;stroke-width:0.4000000000000001;"/><polygon fill="none" points="358.8,307.756,356.4,314.956,361.2,314.956,358.8,307.756" style="stroke:#C6C6C6;stroke-width:0.4000000000000001;"/></g><!--reverse link JBCollection to Podcast--><g id="link_JBCollection_Podcast"><path d="M402.5098,306.2575 C405.0818,309.7295 403.28,307.44 405.6,310.896 C418.552,330.196 430.932,353.468 439.64,370.932 " fill="none" id="JBCollection-backto-Podcast" style="stroke:#C6C6C6;stroke-width:0.4000000000000001;"/><polygon fill="none" points="398.224,300.472,400.5813,307.6861,404.4383,304.8289,398.224,300.472" style="stroke:#C6C6C6;stroke-width:0.4000000000000001;"/></g><!--reverse link IJBResearchable to JBProfile--><g id="link_IJBResearchable_JBProfile"><path d="M390.5754,122.8011 C419.3474,133.3051 460.648,150.164 498,174.096 C512.48,183.372 527.012,194.876 540.064,206.204 " fill="none" id="IJBResearchable-backto-JBProfile" style="stroke:#C6C6C6;stroke-width:0.4000000000000001;stroke-dasharray:7.0,7.0;"/><polygon fill="none" points="383.812,120.332,389.7523,125.0556,391.3984,120.5467,383.812,120.332" style="stroke:#C6C6C6;stroke-width:0.4000000000000001;"/></g><!--reverse link JBProfile to User--><g id="link_JBProfile_User"><path d="M574.8543,307.7021 C569.6463,328.3901 565.404,345.24 560.68,364.004 " fill="none" id="JBProfile-backto-User" style="stroke:#C6C6C6;stroke-width:0.4000000000000001;"/><polygon fill="none" points="576.612,300.72,572.5269,307.1163,577.1817,308.288,576.612,300.72" style="stroke:#C6C6C6;stroke-width:0.4000000000000001;"/></g><!--reverse link JBProfile to Artist--><g id="link_JBProfile_Artist"><path d="M605.0744,307.5963 C612.3304,330.9723 618.7,351.488 624.772,371.044 " fill="none" id="JBProfile-backto-Artist" style="stroke:#C6C6C6;stroke-width:0.4000000000000001;"/><polygon fill="none" points="602.94,300.72,602.7823,308.3078,607.3666,306.8849,602.94,300.72" style="stroke:#C6C6C6;stroke-width:0.4000000000000001;"/></g><!--reverse link JBAudio to MetaData--><g id="link_JBAudio_MetaData"><path codeLine="160" d="M106.1885,464.1592 C101.9565,472.0952 100.644,474.572 96.432,482.472 " fill="none" id="JBAudio-backto-MetaData" style="stroke:#C6C6C6;stroke-width:0.4000000000000001;"/><ellipse cx="107.6943" cy="461.3356" fill="none" rx="3.2" ry="3.2" style="stroke:#C6C6C6;stroke-width:0.4000000000000001;"/><line style="stroke:#C6C6C6;stroke-width:0.4000000000000001;" x1="106.1885" x2="109.2" y1="464.1592" y2="458.512"/><line style="stroke:#C6C6C6;stroke-width:0.4000000000000001;" x1="104.8707" x2="110.5179" y1="459.8299" y2="462.8413"/></g><!--SRC=[pLVVZzeu47xFNs5KwGJjqlPUjnmIB6mFnEwYXJrrLVN1IGQmwiJ8TjfoA_xt6yVvuImXHTjUjtc9CnxRCz_CV9wqz0OY806LleYxQqbtdgUPva18Bn1SoFErX5r_Ih_G8L2jI9UCH4HPJ4QCedhKUvEgzJslfMK2v2_ofzTQKQxCyAtNKXlnzHgKXb2XmAXOsOM8ja8npKHi9j8LTcQWjMH-eg6wu0hqHfIRU5iQVAPh8948WJzu11yMQv0h6W2PJ8Ute83AO4Dz3dPwxwKlY9E8ZAVZw-LaUMzdpFEAB6wktpkVu_baSJCQEvBvR70_cooMZcWm6zvTkIeteuj1HUDkCRvr5zmkynqoUt97jfpkhB65UiMXUJPFu9k66958FNzTwsh-jDYAj1tqEfLPQv4vz_93kphLmXFOgX3jIvjoSsaICk7OQXxgAorfe4d0gL9aEXmO9SAYBSSiYtLkS-xgQyUjXmFJ2kFBZ3YqtpnTma9oRj0wDgqkwHSXcGPKyuNWGECZgX5e6b9DKV4g6nxHJ06uPDpiEUJ2FtPsh0bcd0_oPhNG4cYa6cnzWGQ4Z1fGGAOs55-7-5HZT7hCRTpNe36xLBj3_Y0g7vzooFv0oORRu3KoqFLwf7rzHbwCHkFX-6s7sFed_JvvgBNbv41dm4lDb4Pm1kcWGTCosJb1t5cyRb143kCG6392xUdmelXiM1CcacOhGf5W1ZVeIi2KKu3e67FCgq5v3R44LPZzyLCzQFNHtrShqaPc8U9rGHjPLJvutrqstZA5zVgzbTNH8rOhaNMuue0dIi0FoU8qWcjAdGP-w9AOHWqfWgc19Qk5JFDYBiMArGIwIxOiq8cifOAQG9r2oogW7EPssxPY_uBre8ElIOJ8Ua-fwEEqRYCnu3vUZcMyBvpeFG5s4-JFixnOiRamurwMHlsVWTAFksp8bHiJdyFh_7hwXodcS-TsUlURW2F2W3uJDh_EwRfcp5Pw4sTbPF3_45QYG1fcEYFORFCpj4kfhqA6PyHALP9D-qnW6xxTx9eup71IxjByE5DPPLCC4ED6V-D0oDsfMRpAMYnpS-L5zNjayHs2wQJmF8_jKouIfrI7Hnf9p7AXAP_bE2vPUiFKD0dFXeZjd7uI9ewtQ4dDHVkBtTnxE2WES7yqpMfxnRtiTlDs1cN57V18dB5VLLfMVfFSgO1AUsFNb8r4qJIRYQAXhKWh_MZcSkbVzdFTIG-o_rklS56-Gx5Wmqmd5strZgmOy52vaiX6mViF]--></g></svg>