<?xml version="1.0" encoding="us-ascii" standalone="no"?><svg xmlns="http://www.w3.org/2000/svg" xmlns:xlink="http://www.w3.org/1999/xlink" contentStyleType="text/css" height="1572px" preserveAspectRatio="none" style="width:1714px;height:1572px;" version="1.1" viewBox="0 0 1714 1572" width="1714px" zoomAndPan="magnify"><defs><linearGradient id="gcn8eo0jgu4300" x1="50%" x2="50%" y1="0%" y2="100%"><stop offset="0%" stop-color="#F4F4F4"/><stop offset="100%" stop-color="#F4F4F4"/></linearGradient></defs><g><text fill="#808080" font-family="Noto Sans" font-size="20" font-weight="bold" lengthAdjust="spacing" textLength="284" x="708" y="41.38">JavaBeats - Domain Diagram</text><!--cluster model--><g id="cluster_model"><polygon fill="#FFFFFF" points="16,74.24,80,74.24,87,116.5841,1697,116.5841,1697,1565.24,16,1565.24,16,74.24" style="stroke:#C6C6C6;stroke-width:1.0;"/><line style="stroke:#C6C6C6;stroke-width:1.0;" x1="16" x2="87" y1="116.5841" y2="116.5841"/><text fill="#262626" font-family="Noto Sans" font-size="12" font-weight="bold" lengthAdjust="spacing" textLength="38" x="30" y="99.0681">model</text></g><!--cluster playable--><g id="cluster_playable"><polygon fill="#FFFFFF" points="40,534.74,118,534.74,125,577.0841,525,577.0841,525,1541.24,40,1541.24,40,534.74" style="stroke:#C6C6C6;stroke-width:1.0;"/><line style="stroke:#C6C6C6;stroke-width:1.0;" x1="40" x2="125" y1="577.0841" y2="577.0841"/><text fill="#262626" font-family="Noto Sans" font-size="12" font-weight="bold" lengthAdjust="spacing" textLength="52" x="54" y="559.5681">playable</text></g><!--cluster audio--><g id="cluster_audio"><polygon fill="#FFFFFF" points="64,785.24,124,785.24,131,827.5841,501,827.5841,501,1517.24,64,1517.24,64,785.24" style="stroke:#C6C6C6;stroke-width:1.0;"/><line style="stroke:#C6C6C6;stroke-width:1.0;" x1="64" x2="131" y1="827.5841" y2="827.5841"/><text fill="#262626" font-family="Noto Sans" font-size="12" font-weight="bold" lengthAdjust="spacing" textLength="34" x="78" y="810.0681">audio</text></g><!--cluster collection--><g id="cluster_collection"><polygon fill="#FFFFFF" points="549,443.24,633,443.24,640,485.5841,1245,485.5841,1245,1092.24,549,1092.24,549,443.24" style="stroke:#C6C6C6;stroke-width:1.0;"/><line style="stroke:#C6C6C6;stroke-width:1.0;" x1="549" x2="640" y1="485.5841" y2="485.5841"/><text fill="#262626" font-family="Noto Sans" font-size="12" font-weight="bold" lengthAdjust="spacing" textLength="58" x="563" y="468.0681">collection</text></g><!--cluster profile--><g id="cluster_profile"><polygon fill="#FFFFFF" points="1269,460.74,1335,460.74,1342,503.0841,1673,503.0841,1673,1092.24,1269,1092.24,1269,460.74" style="stroke:#C6C6C6;stroke-width:1.0;"/><line style="stroke:#C6C6C6;stroke-width:1.0;" x1="1269" x2="1342" y1="503.0841" y2="503.0841"/><text fill="#262626" font-family="Noto Sans" font-size="12" font-weight="bold" lengthAdjust="spacing" textLength="40" x="1283" y="485.5681">profile</text></g><!--class IJBResearchable--><g id="elem_IJBResearchable"><rect codeLine="13" fill="url(#gcn8eo0jgu4300)" height="44.9819" id="IJBResearchable" style="stroke:#C6C6C6;stroke-width:1.0;" width="126" x="834" y="255.74"/><rect fill="url(#gcn8eo0jgu4300)" height="44.9819" style="stroke:#C6C6C6;stroke-width:1.0;" width="126" x="834" y="255.74"/><ellipse cx="848" cy="278.2309" fill="#B4A7E5" rx="10" ry="10" style="stroke:#181818;stroke-width:1.0;"/><path d="M849.2031,276.3247 L849.2031,281.0278 L850.4219,281.0278 Q850.8438,281.0278 851.0313,281.1997 Q851.2188,281.3559 851.2188,281.6372 Q851.2188,281.9028 851.0313,282.0747 Q850.8438,282.2309 850.4219,282.2309 L846.7813,282.2309 Q846.3594,282.2309 846.1719,282.0747 Q845.9844,281.9028 845.9844,281.6215 Q845.9844,281.3559 846.1719,281.1997 Q846.3594,281.0278 846.7813,281.0278 L848,281.0278 L848,276.3247 L846.7813,276.3247 Q846.3594,276.3247 846.1719,276.1684 Q845.9844,275.9965 845.9844,275.7309 Q845.9844,275.4497 846.1719,275.2934 Q846.3594,275.1215 846.7813,275.1215 L850.4219,275.1215 Q850.8438,275.1215 851.0313,275.2934 Q851.2188,275.4497 851.2188,275.7309 Q851.2188,275.9965 851.0313,276.1684 Q850.8438,276.3247 850.4219,276.3247 L849.2031,276.3247 Z " fill="#000000"/><text fill="#262626" font-family="Noto Sans" font-size="11" font-style="italic" lengthAdjust="spacing" textLength="76" x="871" y="282.4989">IJBResearchable</text></g><!--class EJBMODE--><g id="elem_EJBMODE"><rect codeLine="16" fill="url(#gcn8eo0jgu4300)" height="157.9276" id="EJBMODE" style="stroke:#C6C6C6;stroke-width:1.0;" width="111" x="556.5" y="199.24"/><rect fill="url(#gcn8eo0jgu4300)" height="44.9819" style="stroke:#C6C6C6;stroke-width:1.0;" width="111" x="556.5" y="199.24"/><ellipse cx="575.9" cy="221.7309" fill="#EB937F" rx="10" ry="10" style="stroke:#181818;stroke-width:1.0;"/><path d="M575.775,222.7622 L575.775,224.5278 L578.8375,224.5278 L578.8375,223.8715 Q578.8375,223.4497 578.9938,223.2622 Q579.1656,223.0747 579.4313,223.0747 Q579.6969,223.0747 579.8688,223.2622 Q580.0406,223.4497 580.0406,223.8715 L580.0406,225.7309 L574.3844,225.7309 Q573.9469,225.7309 573.7594,225.5747 Q573.5719,225.4028 573.5719,225.1215 Q573.5719,224.8559 573.7594,224.6997 Q573.9469,224.5278 574.3844,224.5278 L574.5719,224.5278 L574.5719,219.8247 L574.3844,219.8247 Q573.9469,219.8247 573.7594,219.6684 Q573.5719,219.4965 573.5719,219.2309 Q573.5719,218.9497 573.7594,218.7934 Q573.9469,218.6215 574.3844,218.6215 L579.775,218.6215 L579.775,220.4497 Q579.775,220.8872 579.6031,221.0747 Q579.4469,221.2465 579.1656,221.2465 Q578.9,221.2465 578.7281,221.0747 Q578.5719,220.8872 578.5719,220.4497 L578.5719,219.8247 L575.775,219.8247 L575.775,221.559 L576.8219,221.559 Q576.8219,221.0903 576.9156,220.9653 Q577.0875,220.6684 577.4313,220.6684 Q577.6969,220.6684 577.8531,220.8559 Q578.025,221.0434 578.025,221.4809 L578.025,222.8559 Q578.025,223.2465 577.9313,223.3872 Q577.7438,223.6684 577.4313,223.6684 Q577.0875,223.6684 576.9156,223.3715 Q576.8219,223.2465 576.8219,222.7622 L575.775,222.7622 Z " fill="#000000"/><text fill="#262626" font-family="Noto Sans" font-size="11" lengthAdjust="spacing" textLength="49" x="600.1" y="225.9989">EJBMODE</text><line style="stroke:#C6C6C6;stroke-width:1.0;" x1="557.5" x2="666.5" y1="244.2219" y2="244.2219"/><ellipse cx="567.5" cy="267.2128" fill="none" rx="3" ry="3" style="stroke:#038048;stroke-width:1.0;"/><text fill="#262626" font-family="Noto Sans" font-size="11" lengthAdjust="spacing" textLength="66" x="585.5" y="269.9808">SEQUENTIAL</text><ellipse cx="567.5" cy="302.1947" fill="none" rx="3" ry="3" style="stroke:#038048;stroke-width:1.0;"/><text fill="#262626" font-family="Noto Sans" font-size="11" lengthAdjust="spacing" textLength="49" x="585.5" y="304.9627">RANDOM</text><ellipse cx="567.5" cy="337.1766" fill="none" rx="3" ry="3" style="stroke:#038048;stroke-width:1.0;"/><text fill="#262626" font-family="Noto Sans" font-size="11" lengthAdjust="spacing" textLength="31" x="585.5" y="339.9446">LOOP</text></g><!--class EJENTITY--><g id="elem_EJENTITY"><rect codeLine="22" fill="url(#gcn8eo0jgu4300)" height="297.8551" id="EJENTITY" style="stroke:#C6C6C6;stroke-width:1.0;" width="95" x="164.5" y="129.24"/><rect fill="url(#gcn8eo0jgu4300)" height="44.9819" style="stroke:#C6C6C6;stroke-width:1.0;" width="95" x="164.5" y="129.24"/><ellipse cx="178.5" cy="151.7309" fill="#EB937F" rx="10" ry="10" style="stroke:#181818;stroke-width:1.0;"/><path d="M178.375,152.7622 L178.375,154.5278 L181.4375,154.5278 L181.4375,153.8715 Q181.4375,153.4497 181.5938,153.2622 Q181.7656,153.0747 182.0313,153.0747 Q182.2969,153.0747 182.4688,153.2622 Q182.6406,153.4497 182.6406,153.8715 L182.6406,155.7309 L176.9844,155.7309 Q176.5469,155.7309 176.3594,155.5747 Q176.1719,155.4028 176.1719,155.1215 Q176.1719,154.8559 176.3594,154.6997 Q176.5469,154.5278 176.9844,154.5278 L177.1719,154.5278 L177.1719,149.8247 L176.9844,149.8247 Q176.5469,149.8247 176.3594,149.6684 Q176.1719,149.4965 176.1719,149.2309 Q176.1719,148.9497 176.3594,148.7934 Q176.5469,148.6215 176.9844,148.6215 L182.375,148.6215 L182.375,150.4497 Q182.375,150.8872 182.2031,151.0747 Q182.0469,151.2465 181.7656,151.2465 Q181.5,151.2465 181.3281,151.0747 Q181.1719,150.8872 181.1719,150.4497 L181.1719,149.8247 L178.375,149.8247 L178.375,151.559 L179.4219,151.559 Q179.4219,151.0903 179.5156,150.9653 Q179.6875,150.6684 180.0313,150.6684 Q180.2969,150.6684 180.4531,150.8559 Q180.625,151.0434 180.625,151.4809 L180.625,152.8559 Q180.625,153.2465 180.5313,153.3872 Q180.3438,153.6684 180.0313,153.6684 Q179.6875,153.6684 179.5156,153.3715 Q179.4219,153.2465 179.4219,152.7622 L178.375,152.7622 Z " fill="#000000"/><text fill="#262626" font-family="Noto Sans" font-size="11" lengthAdjust="spacing" textLength="45" x="201.5" y="155.9989">EJENTITY</text><line style="stroke:#C6C6C6;stroke-width:1.0;" x1="165.5" x2="258.5" y1="174.2219" y2="174.2219"/><ellipse cx="175.5" cy="197.2128" fill="none" rx="3" ry="3" style="stroke:#038048;stroke-width:1.0;"/><text fill="#262626" font-family="Noto Sans" font-size="11" lengthAdjust="spacing" textLength="31" x="193.5" y="199.9808">SONG</text><ellipse cx="175.5" cy="232.1947" fill="none" rx="3" ry="3" style="stroke:#038048;stroke-width:1.0;"/><text fill="#262626" font-family="Noto Sans" font-size="11" lengthAdjust="spacing" textLength="46" x="193.5" y="234.9627">EPISODE</text><ellipse cx="175.5" cy="267.1766" fill="none" rx="3" ry="3" style="stroke:#038048;stroke-width:1.0;"/><text fill="#262626" font-family="Noto Sans" font-size="11" lengthAdjust="spacing" textLength="48" x="193.5" y="269.9446">PLAYLIST</text><ellipse cx="175.5" cy="302.1585" fill="none" rx="3" ry="3" style="stroke:#038048;stroke-width:1.0;"/><text fill="#262626" font-family="Noto Sans" font-size="11" lengthAdjust="spacing" textLength="38" x="193.5" y="304.9264">ALBUM</text><ellipse cx="175.5" cy="337.1404" fill="none" rx="3" ry="3" style="stroke:#038048;stroke-width:1.0;"/><text fill="#262626" font-family="Noto Sans" font-size="11" lengthAdjust="spacing" textLength="50" x="193.5" y="339.9083">PODCAST</text><ellipse cx="175.5" cy="372.1222" fill="none" rx="3" ry="3" style="stroke:#038048;stroke-width:1.0;"/><text fill="#262626" font-family="Noto Sans" font-size="11" lengthAdjust="spacing" textLength="27" x="193.5" y="374.8902">USER</text><ellipse cx="175.5" cy="407.1041" fill="none" rx="3" ry="3" style="stroke:#038048;stroke-width:1.0;"/><text fill="#262626" font-family="Noto Sans" font-size="11" lengthAdjust="spacing" textLength="36" x="193.5" y="409.8721">ARTIST</text></g><!--class IJBPlayable--><g id="elem_IJBPlayable"><rect codeLine="34" fill="url(#gcn8eo0jgu4300)" height="87.9638" id="IJBPlayable" style="stroke:#C6C6C6;stroke-width:1.0;" width="104" x="370" y="589.74"/><rect fill="url(#gcn8eo0jgu4300)" height="44.9819" style="stroke:#C6C6C6;stroke-width:1.0;" width="104" x="370" y="589.74"/><ellipse cx="384" cy="612.2309" fill="#B4A7E5" rx="10" ry="10" style="stroke:#181818;stroke-width:1.0;"/><path d="M385.2031,610.3247 L385.2031,615.0278 L386.4219,615.0278 Q386.8438,615.0278 387.0313,615.1997 Q387.2188,615.3559 387.2188,615.6372 Q387.2188,615.9028 387.0313,616.0747 Q386.8438,616.2309 386.4219,616.2309 L382.7813,616.2309 Q382.3594,616.2309 382.1719,616.0747 Q381.9844,615.9028 381.9844,615.6215 Q381.9844,615.3559 382.1719,615.1997 Q382.3594,615.0278 382.7813,615.0278 L384,615.0278 L384,610.3247 L382.7813,610.3247 Q382.3594,610.3247 382.1719,610.1684 Q381.9844,609.9965 381.9844,609.7309 Q381.9844,609.4497 382.1719,609.2934 Q382.3594,609.1215 382.7813,609.1215 L386.4219,609.1215 Q386.8438,609.1215 387.0313,609.2934 Q387.2188,609.4497 387.2188,609.7309 Q387.2188,609.9965 387.0313,610.1684 Q386.8438,610.3247 386.4219,610.3247 L385.2031,610.3247 Z " fill="#000000"/><text fill="#262626" font-family="Noto Sans" font-size="11" font-style="italic" lengthAdjust="spacing" textLength="54" x="407" y="616.4989">IJBPlayable</text><line style="stroke:#C6C6C6;stroke-width:1.0;" x1="371" x2="473" y1="634.7219" y2="634.7219"/><ellipse cx="381" cy="657.7128" fill="#84BE84" rx="3" ry="3" style="stroke:#038048;stroke-width:1.0;"/><text fill="#262626" font-family="Noto Sans" font-size="11" lengthAdjust="spacing" textLength="40" x="399" y="660.4808">playFX()</text></g><!--class JBAudio--><g id="elem_JBAudio"><rect codeLine="42" fill="url(#gcn8eo0jgu4300)" height="305.8551" id="JBAudio" style="stroke:#C6C6C6;stroke-width:1.0;" width="184" x="262" y="840.24"/><rect fill="url(#gcn8eo0jgu4300)" height="44.9819" style="stroke:#C6C6C6;stroke-width:1.0;" width="184" x="262" y="840.24"/><ellipse cx="321.5" cy="862.7309" fill="#A9DCDF" rx="10" ry="10" style="stroke:#181818;stroke-width:1.0;"/><path d="M323.0625,864.7934 L320.1563,864.7934 L319.8594,865.5278 L320.1563,865.5278 Q320.5781,865.5278 320.7656,865.6997 Q320.9531,865.8559 320.9531,866.1372 Q320.9531,866.4028 320.7656,866.5747 Q320.5781,866.7309 320.1563,866.7309 L318.5313,866.7309 Q318.0938,866.7309 317.9219,866.5747 Q317.7344,866.4028 317.7344,866.1215 Q317.7344,865.8559 317.9375,865.684 Q318.125,865.5122 318.5625,865.5278 L320.4531,860.8247 L319.6719,860.8247 Q319.2344,860.8247 319.0469,860.6684 Q318.8594,860.4965 318.8594,860.2309 Q318.8594,859.9497 319.0469,859.7934 Q319.2344,859.6215 319.6719,859.6215 L322.2656,859.6215 L324.6563,865.5278 Q325.0781,865.5278 325.2031,865.6215 Q325.4844,865.809 325.4844,866.1372 Q325.4844,866.4028 325.2969,866.5747 Q325.1094,866.7309 324.6875,866.7309 L323.0625,866.7309 Q322.625,866.7309 322.4375,866.5747 Q322.2656,866.4028 322.2656,866.1215 Q322.2656,865.8559 322.4375,865.6997 Q322.625,865.5278 323.0625,865.5278 L323.3594,865.5278 L323.0625,864.7934 Z M322.5781,863.5903 L321.6094,861.2153 L320.625,863.5903 L322.5781,863.5903 Z " fill="#000000"/><text fill="#262626" font-family="Noto Sans" font-size="11" font-style="italic" lengthAdjust="spacing" textLength="37" x="350.5" y="866.9989">JBAudio</text><line style="stroke:#C6C6C6;stroke-width:1.0;" x1="263" x2="445" y1="885.2219" y2="885.2219"/><rect fill="none" height="6" style="stroke:#C82930;stroke-width:1.0;" width="6" x="270" y="905.2128"/><text fill="#262626" font-family="Noto Sans" font-size="11" lengthAdjust="spacing" textLength="33" x="291" y="910.9808">id : int</text><rect fill="none" height="6" style="stroke:#C82930;stroke-width:1.0;" width="6" x="270" y="940.1947"/><text fill="#262626" font-family="Noto Sans" font-size="11" lengthAdjust="spacing" textLength="103" x="291" y="945.9627">isFavorite : boolean</text><rect fill="none" height="6" style="stroke:#C82930;stroke-width:1.0;" width="6" x="270" y="975.1766"/><text fill="#262626" font-family="Noto Sans" font-size="11" lengthAdjust="spacing" textLength="107" x="291" y="980.9446">metadata : Metadata</text><rect fill="none" height="6" style="stroke:#C82930;stroke-width:1.0;" width="6" x="270" y="1010.1585"/><text fill="#262626" font-family="Noto Sans" font-size="11" lengthAdjust="spacing" textLength="81" x="291" y="1015.9264">audioFile : Blob</text><rect fill="none" height="6" style="stroke:#C82930;stroke-width:1.0;" width="6" x="270" y="1045.1404"/><text fill="#262626" font-family="Noto Sans" font-size="11" lengthAdjust="spacing" textLength="137" x="291" y="1050.9083">int numberOfStreams : int</text><polygon fill="none" points="273,1078.1222,277,1082.1222,273,1086.1222,269,1082.1222" style="stroke:#B38D22;stroke-width:1.0;"/><text fill="#262626" font-family="Noto Sans" font-size="11" lengthAdjust="spacing" textLength="139" x="291" y="1085.8902">mediaPlayer : MediaPlayer</text><line style="stroke:#C6C6C6;stroke-width:1.0;" x1="263" x2="445" y1="1103.1132" y2="1103.1132"/><ellipse cx="273" cy="1126.1041" fill="#84BE84" rx="3" ry="3" style="stroke:#038048;stroke-width:1.0;"/><text fill="#262626" font-family="Noto Sans" font-size="11" lengthAdjust="spacing" textLength="98" x="291" y="1128.8721">getters() &amp; setters()</text></g><!--class MetaData--><g id="elem_MetaData"><rect codeLine="55" fill="url(#gcn8eo0jgu4300)" height="295.1313" id="MetaData" style="stroke:#C6C6C6;stroke-width:1.0;" width="166" x="80" y="1206.24"/><rect fill="url(#gcn8eo0jgu4300)" height="77.24" style="stroke:#C6C6C6;stroke-width:1.0;" width="166" x="80" y="1206.24"/><ellipse cx="124" cy="1244.86" fill="#DDEBE0" rx="10" ry="10" style="stroke:#181818;stroke-width:1.0;"/><path d="M123.0938,1244.0318 L123.0938,1247.6568 L123.5313,1247.6568 Q123.9688,1247.6568 124.1406,1247.8287 Q124.3281,1247.985 124.3281,1248.2662 Q124.3281,1248.5318 124.1406,1248.7037 Q123.9688,1248.86 123.5313,1248.86 L121.9531,1248.86 Q121.5156,1248.86 121.3281,1248.7037 Q121.1563,1248.5318 121.1563,1248.2506 Q121.1563,1248.0006 121.3281,1247.8287 Q121.5156,1247.6568 121.8906,1247.6568 L121.8906,1242.9537 L121.7031,1242.9537 Q121.2813,1242.9537 121.0938,1242.7975 Q120.9063,1242.6256 120.9063,1242.36 Q120.9063,1242.0787 121.0938,1241.9225 Q121.2813,1241.7506 121.7031,1241.7506 L123.0938,1241.7506 L126.1719,1246.5787 L126.1719,1242.9537 L125.7344,1242.9537 Q125.2969,1242.9537 125.1094,1242.7975 Q124.9375,1242.6256 124.9375,1242.36 Q124.9375,1242.0787 125.1094,1241.9225 Q125.2969,1241.7506 125.7344,1241.7506 L127.3125,1241.7506 Q127.75,1241.7506 127.9219,1241.9225 Q128.1094,1242.0787 128.1094,1242.36 Q128.1094,1242.6256 127.9219,1242.7975 Q127.75,1242.9537 127.375,1242.9537 L127.375,1248.86 L126.1875,1248.86 L123.0938,1244.0318 Z " fill="#000000"/><text fill="#262626" font-family="IBM Plex Sans, Noto Sans, Verdana" font-size="9" font-style="italic" lengthAdjust="spacing" textLength="34" x="161" y="1230.861">&#171;Nested&#187;</text><text fill="#262626" font-family="Noto Sans" font-size="11" lengthAdjust="spacing" textLength="50" x="153" y="1265.257">MetaData</text><line style="stroke:#C6C6C6;stroke-width:1.0;" x1="81" x2="245" y1="1283.4799" y2="1283.4799"/><rect fill="none" height="6" style="stroke:#C82930;stroke-width:1.0;" width="6" x="88" y="1303.4709"/><text fill="#262626" font-family="Noto Sans" font-size="11" lengthAdjust="spacing" textLength="64" x="109" y="1309.2389">artist : Artist</text><rect fill="none" height="6" style="stroke:#C82930;stroke-width:1.0;" width="6" x="88" y="1338.4528"/><text fill="#262626" font-family="Noto Sans" font-size="11" lengthAdjust="spacing" textLength="61" x="109" y="1344.2207">title : String</text><rect fill="none" height="6" style="stroke:#C82930;stroke-width:1.0;" width="6" x="88" y="1373.4347"/><text fill="#262626" font-family="Noto Sans" font-size="11" lengthAdjust="spacing" textLength="121" x="109" y="1379.2026">collection : JBCollection</text><rect fill="none" height="6" style="stroke:#C82930;stroke-width:1.0;" width="6" x="88" y="1408.4166"/><text fill="#262626" font-family="Noto Sans" font-size="11" lengthAdjust="spacing" textLength="92" x="109" y="1414.1845">duration : double</text><rect fill="none" height="6" style="stroke:#C82930;stroke-width:1.0;" width="6" x="88" y="1443.3984"/><text fill="#262626" font-family="Noto Sans" font-size="11" lengthAdjust="spacing" textLength="94" x="109" y="1449.1664">releaseDate : Date</text><rect fill="none" height="6" style="stroke:#C82930;stroke-width:1.0;" width="6" x="88" y="1478.3803"/><text fill="#262626" font-family="Noto Sans" font-size="11" lengthAdjust="spacing" textLength="85" x="109" y="1484.1483">genres : String[]</text></g><!--class Song--><g id="elem_Song"><rect codeLine="66" fill="url(#gcn8eo0jgu4300)" height="44.9819" id="Song" style="stroke:#C6C6C6;stroke-width:1.0;" width="77" x="281.5" y="1331.24"/><rect fill="url(#gcn8eo0jgu4300)" height="44.9819" style="stroke:#C6C6C6;stroke-width:1.0;" width="77" x="281.5" y="1331.24"/><ellipse cx="295.5" cy="1353.7309" fill="#ADD1B2" rx="10" ry="10" style="stroke:#181818;stroke-width:1.0;"/><path d="M296.9844,1350.934 Q297.0938,1350.7778 297.2188,1350.6997 Q297.3594,1350.6215 297.5156,1350.6215 Q297.7813,1350.6215 297.9375,1350.809 Q298.1094,1350.9965 298.1094,1351.4184 L298.1094,1352.4497 Q298.1094,1352.8715 297.9375,1353.059 Q297.7813,1353.2465 297.5156,1353.2465 Q297.2656,1353.2465 297.125,1353.1059 Q296.9844,1352.9809 296.9063,1352.6059 Q296.875,1352.3559 296.75,1352.2309 Q296.5,1351.9653 296.0625,1351.809 Q295.6406,1351.6528 295.2031,1351.6528 Q294.6719,1351.6528 294.2188,1351.8872 Q293.7656,1352.1215 293.4219,1352.6528 Q293.0781,1353.1684 293.0781,1353.9028 L293.0781,1354.684 Q293.0781,1355.5434 293.7031,1356.1215 Q294.3438,1356.6997 295.4531,1356.6997 Q296.125,1356.6997 296.5938,1356.5278 Q296.8594,1356.4184 297.1563,1356.1059 Q297.3438,1355.9184 297.4531,1355.8715 Q297.5625,1355.809 297.6875,1355.809 Q297.9375,1355.809 298.1094,1355.9965 Q298.2969,1356.1684 298.2969,1356.4184 Q298.2969,1356.6684 298.0469,1356.9497 Q297.6875,1357.3559 297.125,1357.5903 Q296.375,1357.9028 295.4688,1357.9028 Q294.3906,1357.9028 293.5469,1357.4653 Q292.8438,1357.1215 292.3594,1356.3559 Q291.875,1355.5903 291.875,1354.6997 L291.875,1353.8872 Q291.875,1352.9497 292.3125,1352.1372 Q292.75,1351.3247 293.5156,1350.8872 Q294.2969,1350.4497 295.1563,1350.4497 Q295.6875,1350.4497 296.1406,1350.5747 Q296.5938,1350.684 296.9844,1350.934 Z " fill="#000000"/><text fill="#262626" font-family="Noto Sans" font-size="11" lengthAdjust="spacing" textLength="27" x="318.5" y="1357.9989">Song</text></g><!--class Episode--><g id="elem_Episode"><rect codeLine="69" fill="url(#gcn8eo0jgu4300)" height="44.9819" id="Episode" style="stroke:#C6C6C6;stroke-width:1.0;" width="91" x="393.5" y="1331.24"/><rect fill="url(#gcn8eo0jgu4300)" height="44.9819" style="stroke:#C6C6C6;stroke-width:1.0;" width="91" x="393.5" y="1331.24"/><ellipse cx="407.5" cy="1353.7309" fill="#ADD1B2" rx="10" ry="10" style="stroke:#181818;stroke-width:1.0;"/><path d="M408.9844,1350.934 Q409.0938,1350.7778 409.2188,1350.6997 Q409.3594,1350.6215 409.5156,1350.6215 Q409.7813,1350.6215 409.9375,1350.809 Q410.1094,1350.9965 410.1094,1351.4184 L410.1094,1352.4497 Q410.1094,1352.8715 409.9375,1353.059 Q409.7813,1353.2465 409.5156,1353.2465 Q409.2656,1353.2465 409.125,1353.1059 Q408.9844,1352.9809 408.9063,1352.6059 Q408.875,1352.3559 408.75,1352.2309 Q408.5,1351.9653 408.0625,1351.809 Q407.6406,1351.6528 407.2031,1351.6528 Q406.6719,1351.6528 406.2188,1351.8872 Q405.7656,1352.1215 405.4219,1352.6528 Q405.0781,1353.1684 405.0781,1353.9028 L405.0781,1354.684 Q405.0781,1355.5434 405.7031,1356.1215 Q406.3438,1356.6997 407.4531,1356.6997 Q408.125,1356.6997 408.5938,1356.5278 Q408.8594,1356.4184 409.1563,1356.1059 Q409.3438,1355.9184 409.4531,1355.8715 Q409.5625,1355.809 409.6875,1355.809 Q409.9375,1355.809 410.1094,1355.9965 Q410.2969,1356.1684 410.2969,1356.4184 Q410.2969,1356.6684 410.0469,1356.9497 Q409.6875,1357.3559 409.125,1357.5903 Q408.375,1357.9028 407.4688,1357.9028 Q406.3906,1357.9028 405.5469,1357.4653 Q404.8438,1357.1215 404.3594,1356.3559 Q403.875,1355.5903 403.875,1354.6997 L403.875,1353.8872 Q403.875,1352.9497 404.3125,1352.1372 Q404.75,1351.3247 405.5156,1350.8872 Q406.2969,1350.4497 407.1563,1350.4497 Q407.6875,1350.4497 408.1406,1350.5747 Q408.5938,1350.684 408.9844,1350.934 Z " fill="#000000"/><text fill="#262626" font-family="Noto Sans" font-size="11" lengthAdjust="spacing" textLength="41" x="430.5" y="1357.9989">Episode</text></g><!--class JBCollection--><g id="elem_JBCollection"><rect codeLine="76" fill="url(#gcn8eo0jgu4300)" height="270.8732" id="JBCollection" style="stroke:#C6C6C6;stroke-width:1.0;" width="197" x="798.5" y="498.24"/><rect fill="url(#gcn8eo0jgu4300)" height="44.9819" style="stroke:#C6C6C6;stroke-width:1.0;" width="197" x="798.5" y="498.24"/><ellipse cx="854.5" cy="520.7309" fill="#A9DCDF" rx="10" ry="10" style="stroke:#181818;stroke-width:1.0;"/><path d="M856.0625,522.7934 L853.1563,522.7934 L852.8594,523.5278 L853.1563,523.5278 Q853.5781,523.5278 853.7656,523.6997 Q853.9531,523.8559 853.9531,524.1372 Q853.9531,524.4028 853.7656,524.5747 Q853.5781,524.7309 853.1563,524.7309 L851.5313,524.7309 Q851.0938,524.7309 850.9219,524.5747 Q850.7344,524.4028 850.7344,524.1215 Q850.7344,523.8559 850.9375,523.684 Q851.125,523.5122 851.5625,523.5278 L853.4531,518.8247 L852.6719,518.8247 Q852.2344,518.8247 852.0469,518.6684 Q851.8594,518.4965 851.8594,518.2309 Q851.8594,517.9497 852.0469,517.7934 Q852.2344,517.6215 852.6719,517.6215 L855.2656,517.6215 L857.6563,523.5278 Q858.0781,523.5278 858.2031,523.6215 Q858.4844,523.809 858.4844,524.1372 Q858.4844,524.4028 858.2969,524.5747 Q858.1094,524.7309 857.6875,524.7309 L856.0625,524.7309 Q855.625,524.7309 855.4375,524.5747 Q855.2656,524.4028 855.2656,524.1215 Q855.2656,523.8559 855.4375,523.6997 Q855.625,523.5278 856.0625,523.5278 L856.3594,523.5278 L856.0625,522.7934 Z M855.5781,521.5903 L854.6094,519.2153 L853.625,521.5903 L855.5781,521.5903 Z " fill="#000000"/><text fill="#262626" font-family="Noto Sans" font-size="11" font-style="italic" lengthAdjust="spacing" textLength="57" x="883.5" y="524.9989">JBCollection</text><line style="stroke:#C6C6C6;stroke-width:1.0;" x1="799.5" x2="994.5" y1="543.2219" y2="543.2219"/><rect fill="none" height="6" style="stroke:#C82930;stroke-width:1.0;" width="6" x="806.5" y="563.2128"/><text fill="#262626" font-family="Noto Sans" font-size="11" lengthAdjust="spacing" textLength="33" x="827.5" y="568.9808">id : int</text><rect fill="none" height="6" style="stroke:#C82930;stroke-width:1.0;" width="6" x="806.5" y="598.1947"/><text fill="#262626" font-family="Noto Sans" font-size="11" lengthAdjust="spacing" textLength="70" x="827.5" y="603.9627">name : String</text><rect fill="none" height="6" style="stroke:#C82930;stroke-width:1.0;" width="6" x="806.5" y="633.1766"/><text fill="#262626" font-family="Noto Sans" font-size="11" lengthAdjust="spacing" textLength="92" x="827.5" y="638.9446">creator : JBProfile</text><rect fill="none" height="6" style="stroke:#C82930;stroke-width:1.0;" width="6" x="806.5" y="668.1585"/><text fill="#262626" font-family="Noto Sans" font-size="11" lengthAdjust="spacing" textLength="70" x="827.5" y="673.9264">picture : Blob</text><line style="stroke:#C6C6C6;stroke-width:1.0;" x1="799.5" x2="994.5" y1="691.1494" y2="691.1494"/><ellipse cx="809.5" cy="714.1404" fill="#84BE84" rx="3" ry="3" style="stroke:#038048;stroke-width:1.0;"/><text fill="#262626" font-family="Noto Sans" font-size="11" lengthAdjust="spacing" textLength="152" x="827.5" y="716.9083">scalePicture(size : int) : Image</text><ellipse cx="809.5" cy="749.1222" fill="#84BE84" rx="3" ry="3" style="stroke:#038048;stroke-width:1.0;"/><text fill="#262626" font-family="Noto Sans" font-size="11" lengthAdjust="spacing" textLength="98" x="827.5" y="751.8902">getters() &amp; setters()</text></g><!--class Album--><g id="elem_Album"><rect codeLine="89" fill="url(#gcn8eo0jgu4300)" height="130.9457" id="Album" style="stroke:#C6C6C6;stroke-width:1.0;" width="198" x="565" y="927.74"/><rect fill="url(#gcn8eo0jgu4300)" height="44.9819" style="stroke:#C6C6C6;stroke-width:1.0;" width="198" x="565" y="927.74"/><ellipse cx="633" cy="950.2309" fill="#ADD1B2" rx="10" ry="10" style="stroke:#181818;stroke-width:1.0;"/><path d="M634.4844,947.434 Q634.5938,947.2778 634.7188,947.1997 Q634.8594,947.1215 635.0156,947.1215 Q635.2813,947.1215 635.4375,947.309 Q635.6094,947.4965 635.6094,947.9184 L635.6094,948.9497 Q635.6094,949.3715 635.4375,949.559 Q635.2813,949.7465 635.0156,949.7465 Q634.7656,949.7465 634.625,949.6059 Q634.4844,949.4809 634.4063,949.1059 Q634.375,948.8559 634.25,948.7309 Q634,948.4653 633.5625,948.309 Q633.1406,948.1528 632.7031,948.1528 Q632.1719,948.1528 631.7188,948.3872 Q631.2656,948.6215 630.9219,949.1528 Q630.5781,949.6684 630.5781,950.4028 L630.5781,951.184 Q630.5781,952.0434 631.2031,952.6215 Q631.8438,953.1997 632.9531,953.1997 Q633.625,953.1997 634.0938,953.0278 Q634.3594,952.9184 634.6563,952.6059 Q634.8438,952.4184 634.9531,952.3715 Q635.0625,952.309 635.1875,952.309 Q635.4375,952.309 635.6094,952.4965 Q635.7969,952.6684 635.7969,952.9184 Q635.7969,953.1684 635.5469,953.4497 Q635.1875,953.8559 634.625,954.0903 Q633.875,954.4028 632.9688,954.4028 Q631.8906,954.4028 631.0469,953.9653 Q630.3438,953.6215 629.8594,952.8559 Q629.375,952.0903 629.375,951.1997 L629.375,950.3872 Q629.375,949.4497 629.8125,948.6372 Q630.25,947.8247 631.0156,947.3872 Q631.7969,946.9497 632.6563,946.9497 Q633.1875,946.9497 633.6406,947.0747 Q634.0938,947.184 634.4844,947.434 Z " fill="#000000"/><text fill="#262626" font-family="Noto Sans" font-size="11" lengthAdjust="spacing" textLength="34" x="662" y="954.4989">Album</text><line style="stroke:#C6C6C6;stroke-width:1.0;" x1="566" x2="762" y1="972.7219" y2="972.7219"/><rect fill="none" height="6" style="stroke:#C82930;stroke-width:1.0;" width="6" x="573" y="992.7128"/><text fill="#262626" font-family="Noto Sans" font-size="11" lengthAdjust="spacing" textLength="153" x="594" y="998.4808">trackList : ArrayList&lt;JBAudio&gt;</text><line style="stroke:#C6C6C6;stroke-width:1.0;" x1="566" x2="762" y1="1015.7038" y2="1015.7038"/><ellipse cx="576" cy="1038.6947" fill="#84BE84" rx="3" ry="3" style="stroke:#038048;stroke-width:1.0;"/><text fill="#262626" font-family="Noto Sans" font-size="11" lengthAdjust="spacing" textLength="98" x="594" y="1041.4627">getters() &amp; setters()</text></g><!--class Playlist--><g id="elem_Playlist"><rect codeLine="98" fill="url(#gcn8eo0jgu4300)" height="165.9276" id="Playlist" style="stroke:#C6C6C6;stroke-width:1.0;" width="198" x="798" y="910.24"/><rect fill="url(#gcn8eo0jgu4300)" height="44.9819" style="stroke:#C6C6C6;stroke-width:1.0;" width="198" x="798" y="910.24"/><ellipse cx="864.5" cy="932.7309" fill="#ADD1B2" rx="10" ry="10" style="stroke:#181818;stroke-width:1.0;"/><path d="M865.9844,929.934 Q866.0938,929.7778 866.2188,929.6997 Q866.3594,929.6215 866.5156,929.6215 Q866.7813,929.6215 866.9375,929.809 Q867.1094,929.9965 867.1094,930.4184 L867.1094,931.4497 Q867.1094,931.8715 866.9375,932.059 Q866.7813,932.2465 866.5156,932.2465 Q866.2656,932.2465 866.125,932.1059 Q865.9844,931.9809 865.9063,931.6059 Q865.875,931.3559 865.75,931.2309 Q865.5,930.9653 865.0625,930.809 Q864.6406,930.6528 864.2031,930.6528 Q863.6719,930.6528 863.2188,930.8872 Q862.7656,931.1215 862.4219,931.6528 Q862.0781,932.1684 862.0781,932.9028 L862.0781,933.684 Q862.0781,934.5434 862.7031,935.1215 Q863.3438,935.6997 864.4531,935.6997 Q865.125,935.6997 865.5938,935.5278 Q865.8594,935.4184 866.1563,935.1059 Q866.3438,934.9184 866.4531,934.8715 Q866.5625,934.809 866.6875,934.809 Q866.9375,934.809 867.1094,934.9965 Q867.2969,935.1684 867.2969,935.4184 Q867.2969,935.6684 867.0469,935.9497 Q866.6875,936.3559 866.125,936.5903 Q865.375,936.9028 864.4688,936.9028 Q863.3906,936.9028 862.5469,936.4653 Q861.8438,936.1215 861.3594,935.3559 Q860.875,934.5903 860.875,933.6997 L860.875,932.8872 Q860.875,931.9497 861.3125,931.1372 Q861.75,930.3247 862.5156,929.8872 Q863.2969,929.4497 864.1563,929.4497 Q864.6875,929.4497 865.1406,929.5747 Q865.5938,929.684 865.9844,929.934 Z " fill="#000000"/><text fill="#262626" font-family="Noto Sans" font-size="11" lengthAdjust="spacing" textLength="37" x="893.5" y="936.9989">Playlist</text><line style="stroke:#C6C6C6;stroke-width:1.0;" x1="799" x2="995" y1="955.2219" y2="955.2219"/><rect fill="none" height="6" style="stroke:#C82930;stroke-width:1.0;" width="6" x="806" y="975.2128"/><text fill="#262626" font-family="Noto Sans" font-size="11" lengthAdjust="spacing" textLength="153" x="827" y="980.9808">trackList : ArrayList&lt;JBAudio&gt;</text><rect fill="none" height="6" style="stroke:#C82930;stroke-width:1.0;" width="6" x="806" y="1010.1947"/><text fill="#262626" font-family="Noto Sans" font-size="11" lengthAdjust="spacing" textLength="97" x="827" y="1015.9627">isVisible : boolean;</text><line style="stroke:#C6C6C6;stroke-width:1.0;" x1="799" x2="995" y1="1033.1856" y2="1033.1856"/><ellipse cx="809" cy="1056.1766" fill="#84BE84" rx="3" ry="3" style="stroke:#038048;stroke-width:1.0;"/><text fill="#262626" font-family="Noto Sans" font-size="11" lengthAdjust="spacing" textLength="98" x="827" y="1058.9446">getters() &amp; setters()</text></g><!--class Podcast--><g id="elem_Podcast"><rect codeLine="108" fill="url(#gcn8eo0jgu4300)" height="130.9457" id="Podcast" style="stroke:#C6C6C6;stroke-width:1.0;" width="198" x="1031" y="927.74"/><rect fill="url(#gcn8eo0jgu4300)" height="44.9819" style="stroke:#C6C6C6;stroke-width:1.0;" width="198" x="1031" y="927.74"/><ellipse cx="1095.5" cy="950.2309" fill="#ADD1B2" rx="10" ry="10" style="stroke:#181818;stroke-width:1.0;"/><path d="M1096.9844,947.434 Q1097.0938,947.2778 1097.2188,947.1997 Q1097.3594,947.1215 1097.5156,947.1215 Q1097.7813,947.1215 1097.9375,947.309 Q1098.1094,947.4965 1098.1094,947.9184 L1098.1094,948.9497 Q1098.1094,949.3715 1097.9375,949.559 Q1097.7813,949.7465 1097.5156,949.7465 Q1097.2656,949.7465 1097.125,949.6059 Q1096.9844,949.4809 1096.9063,949.1059 Q1096.875,948.8559 1096.75,948.7309 Q1096.5,948.4653 1096.0625,948.309 Q1095.6406,948.1528 1095.2031,948.1528 Q1094.6719,948.1528 1094.2188,948.3872 Q1093.7656,948.6215 1093.4219,949.1528 Q1093.0781,949.6684 1093.0781,950.4028 L1093.0781,951.184 Q1093.0781,952.0434 1093.7031,952.6215 Q1094.3438,953.1997 1095.4531,953.1997 Q1096.125,953.1997 1096.5938,953.0278 Q1096.8594,952.9184 1097.1563,952.6059 Q1097.3438,952.4184 1097.4531,952.3715 Q1097.5625,952.309 1097.6875,952.309 Q1097.9375,952.309 1098.1094,952.4965 Q1098.2969,952.6684 1098.2969,952.9184 Q1098.2969,953.1684 1098.0469,953.4497 Q1097.6875,953.8559 1097.125,954.0903 Q1096.375,954.4028 1095.4688,954.4028 Q1094.3906,954.4028 1093.5469,953.9653 Q1092.8438,953.6215 1092.3594,952.8559 Q1091.875,952.0903 1091.875,951.1997 L1091.875,950.3872 Q1091.875,949.4497 1092.3125,948.6372 Q1092.75,947.8247 1093.5156,947.3872 Q1094.2969,946.9497 1095.1563,946.9497 Q1095.6875,946.9497 1096.1406,947.0747 Q1096.5938,947.184 1096.9844,947.434 Z " fill="#000000"/><text fill="#262626" font-family="Noto Sans" font-size="11" lengthAdjust="spacing" textLength="41" x="1124.5" y="954.4989">Podcast</text><line style="stroke:#C6C6C6;stroke-width:1.0;" x1="1032" x2="1228" y1="972.7219" y2="972.7219"/><rect fill="none" height="6" style="stroke:#C82930;stroke-width:1.0;" width="6" x="1039" y="992.7128"/><text fill="#262626" font-family="Noto Sans" font-size="11" lengthAdjust="spacing" textLength="153" x="1060" y="998.4808">trackList : ArrayList&lt;JBAudio&gt;</text><line style="stroke:#C6C6C6;stroke-width:1.0;" x1="1032" x2="1228" y1="1015.7038" y2="1015.7038"/><ellipse cx="1042" cy="1038.6947" fill="#84BE84" rx="3" ry="3" style="stroke:#038048;stroke-width:1.0;"/><text fill="#262626" font-family="Noto Sans" font-size="11" lengthAdjust="spacing" textLength="98" x="1060" y="1041.4627">getters() &amp; setters()</text></g><!--class JBProfile--><g id="elem_JBProfile"><rect codeLine="120" fill="url(#gcn8eo0jgu4300)" height="235.8913" id="JBProfile" style="stroke:#C6C6C6;stroke-width:1.0;" width="371" x="1285.5" y="515.74"/><rect fill="url(#gcn8eo0jgu4300)" height="44.9819" style="stroke:#C6C6C6;stroke-width:1.0;" width="371" x="1285.5" y="515.74"/><ellipse cx="1436.5" cy="538.2309" fill="#A9DCDF" rx="10" ry="10" style="stroke:#181818;stroke-width:1.0;"/><path d="M1438.0625,540.2934 L1435.1563,540.2934 L1434.8594,541.0278 L1435.1563,541.0278 Q1435.5781,541.0278 1435.7656,541.1997 Q1435.9531,541.3559 1435.9531,541.6372 Q1435.9531,541.9028 1435.7656,542.0747 Q1435.5781,542.2309 1435.1563,542.2309 L1433.5313,542.2309 Q1433.0938,542.2309 1432.9219,542.0747 Q1432.7344,541.9028 1432.7344,541.6215 Q1432.7344,541.3559 1432.9375,541.184 Q1433.125,541.0122 1433.5625,541.0278 L1435.4531,536.3247 L1434.6719,536.3247 Q1434.2344,536.3247 1434.0469,536.1684 Q1433.8594,535.9965 1433.8594,535.7309 Q1433.8594,535.4497 1434.0469,535.2934 Q1434.2344,535.1215 1434.6719,535.1215 L1437.2656,535.1215 L1439.6563,541.0278 Q1440.0781,541.0278 1440.2031,541.1215 Q1440.4844,541.309 1440.4844,541.6372 Q1440.4844,541.9028 1440.2969,542.0747 Q1440.1094,542.2309 1439.6875,542.2309 L1438.0625,542.2309 Q1437.625,542.2309 1437.4375,542.0747 Q1437.2656,541.9028 1437.2656,541.6215 Q1437.2656,541.3559 1437.4375,541.1997 Q1437.625,541.0278 1438.0625,541.0278 L1438.3594,541.0278 L1438.0625,540.2934 Z M1437.5781,539.0903 L1436.6094,536.7153 L1435.625,539.0903 L1437.5781,539.0903 Z " fill="#000000"/><text fill="#262626" font-family="Noto Sans" font-size="11" font-style="italic" lengthAdjust="spacing" textLength="41" x="1465.5" y="542.4989">JBProfile</text><line style="stroke:#C6C6C6;stroke-width:1.0;" x1="1286.5" x2="1655.5" y1="560.7219" y2="560.7219"/><rect fill="none" height="6" style="stroke:#C82930;stroke-width:1.0;" width="6" x="1293.5" y="580.7128"/><text fill="#262626" font-family="Noto Sans" font-size="11" lengthAdjust="spacing" textLength="326" x="1314.5" y="586.4808">username, mail, password, name, surname, biography : String</text><rect fill="none" height="6" style="stroke:#C82930;stroke-width:1.0;" width="6" x="1293.5" y="615.6947"/><text fill="#262626" font-family="Noto Sans" font-size="11" lengthAdjust="spacing" textLength="132" x="1314.5" y="621.4627">Blob profilePicture : Blob</text><rect fill="none" height="6" style="stroke:#C82930;stroke-width:1.0;" width="6" x="1293.5" y="650.6766"/><text fill="#262626" font-family="Noto Sans" font-size="11" lengthAdjust="spacing" textLength="192" x="1314.5" y="656.4446">listeningHistory : ArrayList&lt;JBAudio&gt;</text><rect fill="none" height="6" style="stroke:#C82930;stroke-width:1.0;" width="6" x="1293.5" y="685.6585"/><text fill="#262626" font-family="Noto Sans" font-size="11" lengthAdjust="spacing" textLength="92" x="1314.5" y="691.4264">favorites : Playlist</text><line style="stroke:#C6C6C6;stroke-width:1.0;" x1="1286.5" x2="1655.5" y1="708.6494" y2="708.6494"/><ellipse cx="1296.5" cy="731.6404" fill="#84BE84" rx="3" ry="3" style="stroke:#038048;stroke-width:1.0;"/><text fill="#262626" font-family="Noto Sans" font-size="11" lengthAdjust="spacing" textLength="98" x="1314.5" y="734.4083">getters() &amp; setters()</text></g><!--class User--><g id="elem_User"><rect codeLine="132" fill="url(#gcn8eo0jgu4300)" height="165.9276" id="User" style="stroke:#C6C6C6;stroke-width:1.0;" width="188" x="1287" y="910.24"/><rect fill="url(#gcn8eo0jgu4300)" height="44.9819" style="stroke:#C6C6C6;stroke-width:1.0;" width="188" x="1287" y="910.24"/><ellipse cx="1355" cy="932.7309" fill="#ADD1B2" rx="10" ry="10" style="stroke:#181818;stroke-width:1.0;"/><path d="M1356.4844,929.934 Q1356.5938,929.7778 1356.7188,929.6997 Q1356.8594,929.6215 1357.0156,929.6215 Q1357.2813,929.6215 1357.4375,929.809 Q1357.6094,929.9965 1357.6094,930.4184 L1357.6094,931.4497 Q1357.6094,931.8715 1357.4375,932.059 Q1357.2813,932.2465 1357.0156,932.2465 Q1356.7656,932.2465 1356.625,932.1059 Q1356.4844,931.9809 1356.4063,931.6059 Q1356.375,931.3559 1356.25,931.2309 Q1356,930.9653 1355.5625,930.809 Q1355.1406,930.6528 1354.7031,930.6528 Q1354.1719,930.6528 1353.7188,930.8872 Q1353.2656,931.1215 1352.9219,931.6528 Q1352.5781,932.1684 1352.5781,932.9028 L1352.5781,933.684 Q1352.5781,934.5434 1353.2031,935.1215 Q1353.8438,935.6997 1354.9531,935.6997 Q1355.625,935.6997 1356.0938,935.5278 Q1356.3594,935.4184 1356.6563,935.1059 Q1356.8438,934.9184 1356.9531,934.8715 Q1357.0625,934.809 1357.1875,934.809 Q1357.4375,934.809 1357.6094,934.9965 Q1357.7969,935.1684 1357.7969,935.4184 Q1357.7969,935.6684 1357.5469,935.9497 Q1357.1875,936.3559 1356.625,936.5903 Q1355.875,936.9028 1354.9688,936.9028 Q1353.8906,936.9028 1353.0469,936.4653 Q1352.3438,936.1215 1351.8594,935.3559 Q1351.375,934.5903 1351.375,933.6997 L1351.375,932.8872 Q1351.375,931.9497 1351.8125,931.1372 Q1352.25,930.3247 1353.0156,929.8872 Q1353.7969,929.4497 1354.6563,929.4497 Q1355.1875,929.4497 1355.6406,929.5747 Q1356.0938,929.684 1356.4844,929.934 Z " fill="#000000"/><text fill="#262626" font-family="Noto Sans" font-size="11" lengthAdjust="spacing" textLength="24" x="1384" y="936.9989">User</text><line style="stroke:#C6C6C6;stroke-width:1.0;" x1="1288" x2="1474" y1="955.2219" y2="955.2219"/><rect fill="none" height="6" style="stroke:#C82930;stroke-width:1.0;" width="6" x="1295" y="975.2128"/><text fill="#262626" font-family="Noto Sans" font-size="11" lengthAdjust="spacing" textLength="94" x="1316" y="980.9808">isVisible : Boolean</text><rect fill="none" height="6" style="stroke:#C82930;stroke-width:1.0;" width="6" x="1295" y="1010.1947"/><text fill="#262626" font-family="Noto Sans" font-size="11" lengthAdjust="spacing" textLength="143" x="1316" y="1015.9627">totalListeningTime : double</text><line style="stroke:#C6C6C6;stroke-width:1.0;" x1="1288" x2="1474" y1="1033.1856" y2="1033.1856"/><ellipse cx="1298" cy="1056.1766" fill="#84BE84" rx="3" ry="3" style="stroke:#038048;stroke-width:1.0;"/><text fill="#262626" font-family="Noto Sans" font-size="11" lengthAdjust="spacing" textLength="98" x="1316" y="1058.9446">getters() &amp; setters()</text></g><!--class Artist--><g id="elem_Artist"><rect codeLine="142" fill="url(#gcn8eo0jgu4300)" height="130.9457" id="Artist" style="stroke:#C6C6C6;stroke-width:1.0;" width="143" x="1510.5" y="927.74"/><rect fill="url(#gcn8eo0jgu4300)" height="44.9819" style="stroke:#C6C6C6;stroke-width:1.0;" width="143" x="1510.5" y="927.74"/><ellipse cx="1554" cy="950.2309" fill="#ADD1B2" rx="10" ry="10" style="stroke:#181818;stroke-width:1.0;"/><path d="M1555.4844,947.434 Q1555.5938,947.2778 1555.7188,947.1997 Q1555.8594,947.1215 1556.0156,947.1215 Q1556.2813,947.1215 1556.4375,947.309 Q1556.6094,947.4965 1556.6094,947.9184 L1556.6094,948.9497 Q1556.6094,949.3715 1556.4375,949.559 Q1556.2813,949.7465 1556.0156,949.7465 Q1555.7656,949.7465 1555.625,949.6059 Q1555.4844,949.4809 1555.4063,949.1059 Q1555.375,948.8559 1555.25,948.7309 Q1555,948.4653 1554.5625,948.309 Q1554.1406,948.1528 1553.7031,948.1528 Q1553.1719,948.1528 1552.7188,948.3872 Q1552.2656,948.6215 1551.9219,949.1528 Q1551.5781,949.6684 1551.5781,950.4028 L1551.5781,951.184 Q1551.5781,952.0434 1552.2031,952.6215 Q1552.8438,953.1997 1553.9531,953.1997 Q1554.625,953.1997 1555.0938,953.0278 Q1555.3594,952.9184 1555.6563,952.6059 Q1555.8438,952.4184 1555.9531,952.3715 Q1556.0625,952.309 1556.1875,952.309 Q1556.4375,952.309 1556.6094,952.4965 Q1556.7969,952.6684 1556.7969,952.9184 Q1556.7969,953.1684 1556.5469,953.4497 Q1556.1875,953.8559 1555.625,954.0903 Q1554.875,954.4028 1553.9688,954.4028 Q1552.8906,954.4028 1552.0469,953.9653 Q1551.3438,953.6215 1550.8594,952.8559 Q1550.375,952.0903 1550.375,951.1997 L1550.375,950.3872 Q1550.375,949.4497 1550.8125,948.6372 Q1551.25,947.8247 1552.0156,947.3872 Q1552.7969,946.9497 1553.6563,946.9497 Q1554.1875,946.9497 1554.6406,947.0747 Q1555.0938,947.184 1555.4844,947.434 Z " fill="#000000"/><text fill="#262626" font-family="Noto Sans" font-size="11" lengthAdjust="spacing" textLength="28" x="1583" y="954.4989">Artist</text><line style="stroke:#C6C6C6;stroke-width:1.0;" x1="1511.5" x2="1652.5" y1="972.7219" y2="972.7219"/><rect fill="none" height="6" style="stroke:#C82930;stroke-width:1.0;" width="6" x="1518.5" y="992.7128"/><text fill="#262626" font-family="Noto Sans" font-size="11" lengthAdjust="spacing" textLength="94" x="1539.5" y="998.4808">totalListeners : int</text><line style="stroke:#C6C6C6;stroke-width:1.0;" x1="1511.5" x2="1652.5" y1="1015.7038" y2="1015.7038"/><ellipse cx="1521.5" cy="1038.6947" fill="#84BE84" rx="3" ry="3" style="stroke:#038048;stroke-width:1.0;"/><text fill="#262626" font-family="Noto Sans" font-size="11" lengthAdjust="spacing" textLength="98" x="1539.5" y="1041.4627">getters() &amp; setters()</text></g><!--reverse link IJBResearchable to IJBPlayable--><g id="link_IJBResearchable_IJBPlayable"><path d="M862.1528,313.1588 C826.1528,347.2088 763.45,400.01 685,427.24 C656.4,437.17 575.14,419.96 549,435.24 C490.58,469.39 454.52,542.3 436.39,589.34 " fill="none" id="IJBResearchable-backto-IJBPlayable" style="stroke:#C6C6C6;stroke-width:1.0;"/><polygon fill="none" points="875.23,300.79,858.0299,308.7997,866.2758,317.5179,875.23,300.79" style="stroke:#C6C6C6;stroke-width:1.0;"/></g><!--reverse link IJBPlayable to JBAudio--><g id="link_IJBPlayable_JBAudio"><path d="M410.4342,695.5425 C402.7442,735.9425 394.17,781.06 382.97,839.95 " fill="none" id="IJBPlayable-backto-JBAudio" style="stroke:#C6C6C6;stroke-width:1.0;stroke-dasharray:7.0,7.0;"/><polygon fill="none" points="413.8,677.86,404.54,694.4206,416.3284,696.6644,413.8,677.86" style="stroke:#C6C6C6;stroke-width:1.0;"/></g><!--reverse link JBAudio to Song--><g id="link_JBAudio_Song"><path d="M337.8807,1164.1996 C331.1307,1235.3796 325.52,1294.5 322.05,1331.09 " fill="none" id="JBAudio-backto-Song" style="stroke:#C6C6C6;stroke-width:1.0;"/><polygon fill="none" points="339.58,1146.28,331.9075,1163.6331,343.8539,1164.766,339.58,1146.28" style="stroke:#C6C6C6;stroke-width:1.0;"/></g><!--reverse link JBAudio to Episode--><g id="link_JBAudio_Episode"><path d="M394.2011,1163.7948 C411.0711,1234.9748 425.19,1294.5 433.87,1331.09 " fill="none" id="JBAudio-backto-Episode" style="stroke:#C6C6C6;stroke-width:1.0;"/><polygon fill="none" points="390.05,1146.28,388.3628,1165.1785,400.0394,1162.4111,390.05,1146.28" style="stroke:#C6C6C6;stroke-width:1.0;"/></g><!--reverse link IJBResearchable to JBCollection--><g id="link_IJBResearchable_JBCollection"><path d="M897,318.82 C897,357.65 897,424.13 897,498.14 " fill="none" id="IJBResearchable-backto-JBCollection" style="stroke:#C6C6C6;stroke-width:1.0;stroke-dasharray:7.0,7.0;"/><polygon fill="none" points="897,300.82,891,318.82,903,318.82,897,300.82" style="stroke:#C6C6C6;stroke-width:1.0;"/></g><!--reverse link JBCollection to Album--><g id="link_JBCollection_Album"><path d="M787.798,766.9424 C781.718,775.2124 786.51,769.03 781,777.24 C748.57,825.59 717.34,883.76 695.32,927.4 " fill="none" id="JBCollection-backto-Album" style="stroke:#C6C6C6;stroke-width:1.0;"/><polygon fill="none" points="798.46,752.44,782.9638,763.3884,792.6321,770.4964,798.46,752.44" style="stroke:#C6C6C6;stroke-width:1.0;"/></g><!--reverse link JBCollection to Playlist--><g id="link_JBCollection_Playlist"><path d="M897,787.39 C897,834.69 897,868.39 897,910.08 " fill="none" id="JBCollection-backto-Playlist" style="stroke:#C6C6C6;stroke-width:1.0;"/><polygon fill="none" points="897,769.39,891,787.39,903,787.39,897,769.39" style="stroke:#C6C6C6;stroke-width:1.0;"/></g><!--reverse link JBCollection to Podcast--><g id="link_JBCollection_Podcast"><path d="M1006.2745,765.6437 C1012.7045,774.3237 1008.2,768.6 1014,777.24 C1046.38,825.49 1077.33,883.67 1099.1,927.33 " fill="none" id="JBCollection-backto-Podcast" style="stroke:#C6C6C6;stroke-width:1.0;"/><polygon fill="none" points="995.56,751.18,1001.4532,769.2152,1011.0957,762.0722,995.56,751.18" style="stroke:#C6C6C6;stroke-width:1.0;"/></g><!--reverse link IJBResearchable to JBProfile--><g id="link_IJBResearchable_JBProfile"><path d="M976.4384,307.0029 C1048.3684,333.2629 1151.62,375.41 1245,435.24 C1281.2,458.43 1317.53,487.19 1350.16,515.51 " fill="none" id="IJBResearchable-backto-JBProfile" style="stroke:#C6C6C6;stroke-width:1.0;stroke-dasharray:7.0,7.0;"/><polygon fill="none" points="959.53,300.83,974.3808,312.639,978.4961,301.3667,959.53,300.83" style="stroke:#C6C6C6;stroke-width:1.0;"/></g><!--reverse link JBProfile to User--><g id="link_JBProfile_User"><path d="M1437.1358,769.2554 C1424.1158,820.9754 1413.51,863.1 1401.7,910.01 " fill="none" id="JBProfile-backto-User" style="stroke:#C6C6C6;stroke-width:1.0;"/><polygon fill="none" points="1441.53,751.8,1431.3173,767.7906,1442.9542,770.7201,1441.53,751.8" style="stroke:#C6C6C6;stroke-width:1.0;"/></g><!--reverse link JBProfile to Artist--><g id="link_JBProfile_Artist"><path d="M1512.6861,768.9908 C1530.8261,827.4308 1546.75,878.72 1561.93,927.61 " fill="none" id="JBProfile-backto-Artist" style="stroke:#C6C6C6;stroke-width:1.0;"/><polygon fill="none" points="1507.35,751.8,1506.9558,770.7695,1518.4164,767.2121,1507.35,751.8" style="stroke:#C6C6C6;stroke-width:1.0;"/></g><!--reverse link JBAudio to MetaData--><g id="link_JBAudio_MetaData"><path codeLine="166" d="M265.4713,1160.398 C254.8913,1180.238 251.61,1186.43 241.08,1206.18 " fill="none" id="JBAudio-backto-MetaData" style="stroke:#C6C6C6;stroke-width:1.0;"/><ellipse cx="269.2357" cy="1153.339" fill="none" rx="8" ry="8" style="stroke:#C6C6C6;stroke-width:1.0;"/><line style="stroke:#C6C6C6;stroke-width:1.0;" x1="265.4713" x2="273" y1="1160.398" y2="1146.28"/><line style="stroke:#C6C6C6;stroke-width:1.0;" x1="262.1766" x2="276.2947" y1="1149.5747" y2="1157.1033"/></g><!--SRC=[pLVVazes47xtNo4cCnreZYHzlL9cyC6bC1pGW-iqqyc3R2-WYMmnaaXAR_ZVkxByGmx6OIvfBdwnlDgLLj_kVbgtz1PY826LWKYw6qaFdgUPva18BnHSoEkDX4D_GZzI7wXMf4k68gOi8KD6KJtklKxL-fxNqd8Fv3VoYzTQKwxCy8tNKblnQGPAGwHGO5Iix4R4Ew6OPY8n4wc5dHbeBLcmrr0rk0Ez5UKYtew67-W6I2mYu8yUmOSb6kIQXa364_yU550PRcd0mKuVlVG5oJuceub_Dn-Ex8HvNfBbw8-7qMmr7amTuVrWDfpVEOBfVBweMSqOhjvLbflFtZgVeyLuYHiwaiLqy6uwNguSqM3gFxYRBUR3cq55us4vkdSDxbVv2fa_EImxJW_sw8Lw1Pv5Da_W7mq9ufhY-AeMkFnfiJLfEx7eL6QjHsRVsx_QrQaMxi3MXUXO-fIxI_SH4uwlvg61qfA6ceISAaKc_i0e4HRlEEPiedEVywE-SexrUE9QuNoPNwV-cwTBM4Ik3LhdfjKj_IWaqu1gWH0SQ796DGPD8wefAjvbmpEQAG2tZ9irVIw2Stidcc361I3dwwMMG6FLuEiBT21Yr802ClMX-3h5fngZosDkuxu1ZTcbsXto4r7v-99DZYTADjm6hw61hjSZxTaLUJ4SZlpHcmwnR4BwVV9Owyl5WSw0bvefZU0Cqa63fkN5QuAuisJJe8YCo24qr8RQ4_-c-6omYVQIPXQHs6C6D-XAm9HJWEWOTyohGNa3YGHLkFtt-thGwgD_h5QaZSnI99k2DhAgVFI-Q3RQCONr-YNBwkWpLYkHTRZYX2TAm4_9uZA2QqgT1dxeaeJ63Ic2gO4bguLCys8XnPhL1BfBTYpKUrbB1JM1keIMLKWvBEooRSN-1Nk23hx6CIBhFQMYpzEwZSI01tWvbl6-SQBt1DXDa3zCysB5LiMCUraQzRy5Ibz_P4EktBZu7AVEhwS_cM81TswdNtyGS4GKqcV2vliTkguPivNUn5aP6Vm_XBLN80qpNH5itVaL-gNK9o6ZAsAbQfzD1qnWKx_R7feup71IVgJ5UQQoogOO8C65ViU1a8TBitYTjLZcvigBwiV8uWS4qqdXHHxRfrmaJgdwPnf9p7AXAP_cEAvOUiFKD0dFXeZjdBuH9ivfqPEQY_Ox7_FeuQ3OmFrjDTRsYlkvsytR6PGLTy1duepzgjAoyflaJWLKsXjhKpOIHTDi9eg6jYAjzAFPaSlpPR_gdNGZ-x_r4eto5Gg3BJETNBpJ1x9cm2FbIc8R1Uy_]--></g></svg>