<?xml version="1.0" encoding="us-ascii" standalone="no"?><svg xmlns="http://www.w3.org/2000/svg" xmlns:xlink="http://www.w3.org/1999/xlink" contentStyleType="text/css" height="520.2px" preserveAspectRatio="none" style="width:679px;height:520px;" version="1.1" viewBox="0 0 679 520" width="679.2px" zoomAndPan="magnify"><defs><linearGradient id="g7zvhqs8f25um0" x1="50%" x2="50%" y1="0%" y2="100%"><stop offset="0%" stop-color="#F4F4F4"/><stop offset="100%" stop-color="#F4F4F4"/></linearGradient></defs><g><text fill="#808080" font-family="Noto Sans" font-size="12" font-weight="bold" lengthAdjust="spacing" textLength="170.4" x="250.2" y="24.828">JavaBeats - Domain Diagram</text><!--cluster model--><g id="cluster_model"><polygon fill="#FFFFFF" points="9.6,44.544,48,44.544,52.2,69.9505,669,69.9505,669,516.144,9.6,516.144,9.6,44.544" style="stroke:#C6C6C6;stroke-width:0.6;"/><line style="stroke:#C6C6C6;stroke-width:0.6;" x1="9.6" x2="52.2" y1="69.9505" y2="69.9505"/><text fill="#262626" font-family="Noto Sans" font-size="7.2" font-weight="bold" lengthAdjust="spacing" textLength="22.8" x="18" y="59.4408">model</text></g><!--cluster playable--><g id="cluster_playable"><polygon fill="#FFFFFF" points="24,265.944,70.8,265.944,75,291.3505,275.4,291.3505,275.4,501.744,24,501.744,24,265.944" style="stroke:#C6C6C6;stroke-width:0.6;"/><line style="stroke:#C6C6C6;stroke-width:0.6;" x1="24" x2="75" y1="291.3505" y2="291.3505"/><text fill="#262626" font-family="Noto Sans" font-size="7.2" font-weight="bold" lengthAdjust="spacing" textLength="31.2" x="32.4" y="280.8408">playable</text></g><!--cluster audio--><g id="cluster_audio"><polygon fill="#FFFFFF" points="38.4,335.544,74.4,335.544,78.6,360.9505,261,360.9505,261,487.344,38.4,487.344,38.4,335.544" style="stroke:#C6C6C6;stroke-width:0.6;"/><line style="stroke:#C6C6C6;stroke-width:0.6;" x1="38.4" x2="78.6" y1="360.9505" y2="360.9505"/><text fill="#262626" font-family="Noto Sans" font-size="7.2" font-weight="bold" lengthAdjust="spacing" textLength="20.4" x="46.8" y="350.4408">audio</text></g><!--cluster collection--><g id="cluster_collection"><polygon fill="#FFFFFF" points="289.8,265.944,340.2,265.944,344.4,291.3505,508.8,291.3505,508.8,405.144,289.8,405.144,289.8,265.944" style="stroke:#C6C6C6;stroke-width:0.6;"/><line style="stroke:#C6C6C6;stroke-width:0.6;" x1="289.8" x2="344.4" y1="291.3505" y2="291.3505"/><text fill="#262626" font-family="Noto Sans" font-size="7.2" font-weight="bold" lengthAdjust="spacing" textLength="34.8" x="298.2" y="280.8408">collection</text></g><!--cluster profile--><g id="cluster_profile"><polygon fill="#FFFFFF" points="523.2,265.944,562.8,265.944,567,291.3505,654.6,291.3505,654.6,405.144,523.2,405.144,523.2,265.944" style="stroke:#C6C6C6;stroke-width:0.6;"/><line style="stroke:#C6C6C6;stroke-width:0.6;" x1="523.2" x2="567" y1="291.3505" y2="291.3505"/><text fill="#262626" font-family="Noto Sans" font-size="7.2" font-weight="bold" lengthAdjust="spacing" textLength="24" x="531.6" y="280.8408">profile</text></g><!--class IJBResearchable--><g id="elem_IJBResearchable"><rect codeLine="13" fill="url(#g7zvhqs8f25um0)" height="26.9891" id="IJBResearchable" style="stroke:#C6C6C6;stroke-width:0.6;" width="75.6" x="359.4" y="153.444"/><rect fill="url(#g7zvhqs8f25um0)" height="26.9891" style="stroke:#C6C6C6;stroke-width:0.6;" width="75.6" x="359.4" y="153.444"/><ellipse cx="367.8" cy="166.9386" fill="#B4A7E5" rx="6" ry="6" style="stroke:#181818;stroke-width:0.6;"/><path d="M368.5219,165.7948 L368.5219,168.6167 L369.2531,168.6167 Q369.5062,168.6167 369.6188,168.7198 Q369.7313,168.8136 369.7313,168.9823 Q369.7313,169.1417 369.6188,169.2448 Q369.5062,169.3386 369.2531,169.3386 L367.0687,169.3386 Q366.8156,169.3386 366.7031,169.2448 Q366.5906,169.1417 366.5906,168.9729 Q366.5906,168.8136 366.7031,168.7198 Q366.8156,168.6167 367.0687,168.6167 L367.8,168.6167 L367.8,165.7948 L367.0687,165.7948 Q366.8156,165.7948 366.7031,165.7011 Q366.5906,165.5979 366.5906,165.4386 Q366.5906,165.2698 366.7031,165.1761 Q366.8156,165.0729 367.0687,165.0729 L369.2531,165.0729 Q369.5062,165.0729 369.6188,165.1761 Q369.7313,165.2698 369.7313,165.4386 Q369.7313,165.5979 369.6188,165.7011 Q369.5062,165.7948 369.2531,165.7948 L368.5219,165.7948 Z " fill="#000000"/><text fill="#262626" font-family="Noto Sans" font-size="6.6" font-style="italic" lengthAdjust="spacing" textLength="45.6" x="381.6" y="169.4993">IJBResearchable</text></g><!--class EJBMODE--><g id="elem_EJBMODE"><rect codeLine="16" fill="url(#g7zvhqs8f25um0)" height="94.7565" id="EJBMODE" style="stroke:#C6C6C6;stroke-width:0.6;" width="66.6" x="228.3" y="119.544"/><rect fill="url(#g7zvhqs8f25um0)" height="26.9891" style="stroke:#C6C6C6;stroke-width:0.6;" width="66.6" x="228.3" y="119.544"/><ellipse cx="239.94" cy="133.0386" fill="#EB937F" rx="6" ry="6" style="stroke:#181818;stroke-width:0.6;"/><path d="M239.865,133.6573 L239.865,134.7167 L241.7025,134.7167 L241.7025,134.3229 Q241.7025,134.0698 241.7963,133.9573 Q241.8994,133.8448 242.0587,133.8448 Q242.2181,133.8448 242.3212,133.9573 Q242.4244,134.0698 242.4244,134.3229 L242.4244,135.4386 L239.0306,135.4386 Q238.7681,135.4386 238.6556,135.3448 Q238.5431,135.2417 238.5431,135.0729 Q238.5431,134.9136 238.6556,134.8198 Q238.7681,134.7167 239.0306,134.7167 L239.1431,134.7167 L239.1431,131.8948 L239.0306,131.8948 Q238.7681,131.8948 238.6556,131.8011 Q238.5431,131.6979 238.5431,131.5386 Q238.5431,131.3698 238.6556,131.2761 Q238.7681,131.1729 239.0306,131.1729 L242.265,131.1729 L242.265,132.2698 Q242.265,132.5323 242.1619,132.6448 Q242.0681,132.7479 241.8994,132.7479 Q241.74,132.7479 241.6369,132.6448 Q241.5431,132.5323 241.5431,132.2698 L241.5431,131.8948 L239.865,131.8948 L239.865,132.9354 L240.4931,132.9354 Q240.4931,132.6542 240.5494,132.5792 Q240.6525,132.4011 240.8588,132.4011 Q241.0181,132.4011 241.1119,132.5136 Q241.215,132.6261 241.215,132.8886 L241.215,133.7136 Q241.215,133.9479 241.1587,134.0323 Q241.0463,134.2011 240.8588,134.2011 Q240.6525,134.2011 240.5494,134.0229 Q240.4931,133.9479 240.4931,133.6573 L239.865,133.6573 Z " fill="#000000"/><text fill="#262626" font-family="Noto Sans" font-size="6.6" lengthAdjust="spacing" textLength="29.4" x="254.46" y="135.5993">EJBMODE</text><line style="stroke:#C6C6C6;stroke-width:0.6;" x1="228.9" x2="294.3" y1="146.5331" y2="146.5331"/><ellipse cx="234.9" cy="160.3277" fill="none" rx="1.8" ry="1.8" style="stroke:#038048;stroke-width:0.6;"/><text fill="#262626" font-family="Noto Sans" font-size="6.6" lengthAdjust="spacing" textLength="39.6" x="245.7" y="161.9885">SEQUENTIAL</text><ellipse cx="234.9" cy="181.3168" fill="none" rx="1.8" ry="1.8" style="stroke:#038048;stroke-width:0.6;"/><text fill="#262626" font-family="Noto Sans" font-size="6.6" lengthAdjust="spacing" textLength="29.4" x="245.7" y="182.9776">RANDOM</text><ellipse cx="234.9" cy="202.3059" fill="none" rx="1.8" ry="1.8" style="stroke:#038048;stroke-width:0.6;"/><text fill="#262626" font-family="Noto Sans" font-size="6.6" lengthAdjust="spacing" textLength="18.6" x="245.7" y="203.9667">LOOP</text></g><!--class EJENTITY--><g id="elem_EJENTITY"><rect codeLine="22" fill="url(#g7zvhqs8f25um0)" height="178.7131" id="EJENTITY" style="stroke:#C6C6C6;stroke-width:0.6;" width="57" x="63.3" y="77.544"/><rect fill="url(#g7zvhqs8f25um0)" height="26.9891" style="stroke:#C6C6C6;stroke-width:0.6;" width="57" x="63.3" y="77.544"/><ellipse cx="71.7" cy="91.0386" fill="#EB937F" rx="6" ry="6" style="stroke:#181818;stroke-width:0.6;"/><path d="M71.625,91.6573 L71.625,92.7167 L73.4625,92.7167 L73.4625,92.3229 Q73.4625,92.0698 73.5562,91.9573 Q73.6594,91.8448 73.8188,91.8448 Q73.9781,91.8448 74.0813,91.9573 Q74.1844,92.0698 74.1844,92.3229 L74.1844,93.4386 L70.7906,93.4386 Q70.5281,93.4386 70.4156,93.3448 Q70.3031,93.2417 70.3031,93.0729 Q70.3031,92.9136 70.4156,92.8198 Q70.5281,92.7167 70.7906,92.7167 L70.9031,92.7167 L70.9031,89.8948 L70.7906,89.8948 Q70.5281,89.8948 70.4156,89.8011 Q70.3031,89.6979 70.3031,89.5386 Q70.3031,89.3698 70.4156,89.2761 Q70.5281,89.1729 70.7906,89.1729 L74.025,89.1729 L74.025,90.2698 Q74.025,90.5323 73.9219,90.6448 Q73.8281,90.7479 73.6594,90.7479 Q73.5,90.7479 73.3969,90.6448 Q73.3031,90.5323 73.3031,90.2698 L73.3031,89.8948 L71.625,89.8948 L71.625,90.9354 L72.2531,90.9354 Q72.2531,90.6542 72.3094,90.5792 Q72.4125,90.4011 72.6187,90.4011 Q72.7781,90.4011 72.8719,90.5136 Q72.975,90.6261 72.975,90.8886 L72.975,91.7136 Q72.975,91.9479 72.9188,92.0323 Q72.8062,92.2011 72.6187,92.2011 Q72.4125,92.2011 72.3094,92.0229 Q72.2531,91.9479 72.2531,91.6573 L71.625,91.6573 Z " fill="#000000"/><text fill="#262626" font-family="Noto Sans" font-size="6.6" lengthAdjust="spacing" textLength="27" x="85.5" y="93.5993">EJENTITY</text><line style="stroke:#C6C6C6;stroke-width:0.6;" x1="63.9" x2="119.7" y1="104.5331" y2="104.5331"/><ellipse cx="69.9" cy="118.3277" fill="none" rx="1.8" ry="1.8" style="stroke:#038048;stroke-width:0.6;"/><text fill="#262626" font-family="Noto Sans" font-size="6.6" lengthAdjust="spacing" textLength="18.6" x="80.7" y="119.9885">SONG</text><ellipse cx="69.9" cy="139.3168" fill="none" rx="1.8" ry="1.8" style="stroke:#038048;stroke-width:0.6;"/><text fill="#262626" font-family="Noto Sans" font-size="6.6" lengthAdjust="spacing" textLength="27.6" x="80.7" y="140.9776">EPISODE</text><ellipse cx="69.9" cy="160.3059" fill="none" rx="1.8" ry="1.8" style="stroke:#038048;stroke-width:0.6;"/><text fill="#262626" font-family="Noto Sans" font-size="6.6" lengthAdjust="spacing" textLength="28.8" x="80.7" y="161.9667">PLAYLIST</text><ellipse cx="69.9" cy="181.2951" fill="none" rx="1.8" ry="1.8" style="stroke:#038048;stroke-width:0.6;"/><text fill="#262626" font-family="Noto Sans" font-size="6.6" lengthAdjust="spacing" textLength="22.8" x="80.7" y="182.9559">ALBUM</text><ellipse cx="69.9" cy="202.2842" fill="none" rx="1.8" ry="1.8" style="stroke:#038048;stroke-width:0.6;"/><text fill="#262626" font-family="Noto Sans" font-size="6.6" lengthAdjust="spacing" textLength="30" x="80.7" y="203.945">PODCAST</text><ellipse cx="69.9" cy="223.2733" fill="none" rx="1.8" ry="1.8" style="stroke:#038048;stroke-width:0.6;"/><text fill="#262626" font-family="Noto Sans" font-size="6.6" lengthAdjust="spacing" textLength="16.2" x="80.7" y="224.9341">USER</text><ellipse cx="69.9" cy="244.2625" fill="none" rx="1.8" ry="1.8" style="stroke:#038048;stroke-width:0.6;"/><text fill="#262626" font-family="Noto Sans" font-size="6.6" lengthAdjust="spacing" textLength="21.6" x="80.7" y="245.9233">ARTIST</text></g><!--class IJBPlayable--><g id="elem_IJBPlayable"><rect codeLine="34" fill="url(#g7zvhqs8f25um0)" height="26.9891" id="IJBPlayable" style="stroke:#C6C6C6;stroke-width:0.6;" width="62.4" x="182.4" y="298.944"/><rect fill="url(#g7zvhqs8f25um0)" height="26.9891" style="stroke:#C6C6C6;stroke-width:0.6;" width="62.4" x="182.4" y="298.944"/><ellipse cx="190.8" cy="312.4386" fill="#B4A7E5" rx="6" ry="6" style="stroke:#181818;stroke-width:0.6;"/><path d="M191.5219,311.2948 L191.5219,314.1167 L192.2531,314.1167 Q192.5063,314.1167 192.6188,314.2198 Q192.7313,314.3136 192.7313,314.4823 Q192.7313,314.6417 192.6188,314.7448 Q192.5063,314.8386 192.2531,314.8386 L190.0688,314.8386 Q189.8156,314.8386 189.7031,314.7448 Q189.5906,314.6417 189.5906,314.4729 Q189.5906,314.3136 189.7031,314.2198 Q189.8156,314.1167 190.0688,314.1167 L190.8,314.1167 L190.8,311.2948 L190.0688,311.2948 Q189.8156,311.2948 189.7031,311.2011 Q189.5906,311.0979 189.5906,310.9386 Q189.5906,310.7698 189.7031,310.6761 Q189.8156,310.5729 190.0688,310.5729 L192.2531,310.5729 Q192.5063,310.5729 192.6188,310.6761 Q192.7313,310.7698 192.7313,310.9386 Q192.7313,311.0979 192.6188,311.2011 Q192.5063,311.2948 192.2531,311.2948 L191.5219,311.2948 Z " fill="#000000"/><text fill="#262626" font-family="Noto Sans" font-size="6.6" font-style="italic" lengthAdjust="spacing" textLength="32.4" x="204.6" y="314.9993">IJBPlayable</text></g><!--class JBAudio--><g id="elem_JBAudio"><rect codeLine="42" fill="url(#g7zvhqs8f25um0)" height="26.9891" id="JBAudio" style="stroke:#C6C6C6;stroke-width:0.6;" width="52.2" x="146.7" y="368.544"/><rect fill="url(#g7zvhqs8f25um0)" height="26.9891" style="stroke:#C6C6C6;stroke-width:0.6;" width="52.2" x="146.7" y="368.544"/><ellipse cx="155.1" cy="382.0386" fill="#A9DCDF" rx="6" ry="6" style="stroke:#181818;stroke-width:0.6;"/><path d="M156.0375,383.2761 L154.2938,383.2761 L154.1156,383.7167 L154.2938,383.7167 Q154.5469,383.7167 154.6594,383.8198 Q154.7719,383.9136 154.7719,384.0823 Q154.7719,384.2417 154.6594,384.3448 Q154.5469,384.4386 154.2938,384.4386 L153.3188,384.4386 Q153.0563,384.4386 152.9531,384.3448 Q152.8406,384.2417 152.8406,384.0729 Q152.8406,383.9136 152.9625,383.8104 Q153.075,383.7073 153.3375,383.7167 L154.4719,380.8948 L154.0031,380.8948 Q153.7406,380.8948 153.6281,380.8011 Q153.5156,380.6979 153.5156,380.5386 Q153.5156,380.3698 153.6281,380.2761 Q153.7406,380.1729 154.0031,380.1729 L155.5594,380.1729 L156.9938,383.7167 Q157.2469,383.7167 157.3219,383.7729 Q157.4906,383.8854 157.4906,384.0823 Q157.4906,384.2417 157.3781,384.3448 Q157.2656,384.4386 157.0125,384.4386 L156.0375,384.4386 Q155.775,384.4386 155.6625,384.3448 Q155.5594,384.2417 155.5594,384.0729 Q155.5594,383.9136 155.6625,383.8198 Q155.775,383.7167 156.0375,383.7167 L156.2156,383.7167 L156.0375,383.2761 Z M155.7469,382.5542 L155.1656,381.1292 L154.575,382.5542 L155.7469,382.5542 Z " fill="#000000"/><text fill="#262626" font-family="Noto Sans" font-size="6.6" font-style="italic" lengthAdjust="spacing" textLength="22.2" x="168.9" y="384.5993">JBAudio</text></g><!--class MetaData--><g id="elem_MetaData"><rect codeLine="55" fill="url(#g7zvhqs8f25um0)" height="46.344" id="MetaData" style="stroke:#C6C6C6;stroke-width:0.6;" width="60" x="48" y="431.544"/><rect fill="url(#g7zvhqs8f25um0)" height="46.344" style="stroke:#C6C6C6;stroke-width:0.6;" width="60" x="48" y="431.544"/><ellipse cx="56.4" cy="454.716" fill="#DDEBE0" rx="6" ry="6" style="stroke:#181818;stroke-width:0.6;"/><path d="M55.8562,454.2191 L55.8562,456.3941 L56.1188,456.3941 Q56.3813,456.3941 56.4844,456.4972 Q56.5969,456.591 56.5969,456.7597 Q56.5969,456.9191 56.4844,457.0222 Q56.3813,457.116 56.1188,457.116 L55.1719,457.116 Q54.9094,457.116 54.7969,457.0222 Q54.6938,456.9191 54.6938,456.7504 Q54.6938,456.6004 54.7969,456.4972 Q54.9094,456.3941 55.1344,456.3941 L55.1344,453.5722 L55.0219,453.5722 Q54.7688,453.5722 54.6563,453.4785 Q54.5437,453.3754 54.5437,453.216 Q54.5437,453.0472 54.6563,452.9535 Q54.7688,452.8504 55.0219,452.8504 L55.8562,452.8504 L57.7031,455.7472 L57.7031,453.5722 L57.4406,453.5722 Q57.1781,453.5722 57.0656,453.4785 Q56.9625,453.3754 56.9625,453.216 Q56.9625,453.0472 57.0656,452.9535 Q57.1781,452.8504 57.4406,452.8504 L58.3875,452.8504 Q58.65,452.8504 58.7531,452.9535 Q58.8656,453.0472 58.8656,453.216 Q58.8656,453.3754 58.7531,453.4785 Q58.65,453.5722 58.425,453.5722 L58.425,457.116 L57.7125,457.116 L55.8562,454.2191 Z " fill="#000000"/><text fill="#262626" font-family="IBM Plex Sans, Noto Sans, Verdana" font-size="5.4" font-style="italic" lengthAdjust="spacing" textLength="20.4" x="75" y="446.3166">&#171;Nested&#187;</text><text fill="#262626" font-family="Noto Sans" font-size="6.6" lengthAdjust="spacing" textLength="30" x="70.2" y="466.9542">MetaData</text></g><!--class Song--><g id="elem_Song"><rect codeLine="66" fill="url(#g7zvhqs8f25um0)" height="26.9891" id="Song" style="stroke:#C6C6C6;stroke-width:0.6;" width="46.2" x="129.3" y="441.144"/><rect fill="url(#g7zvhqs8f25um0)" height="26.9891" style="stroke:#C6C6C6;stroke-width:0.6;" width="46.2" x="129.3" y="441.144"/><ellipse cx="137.7" cy="454.6386" fill="#ADD1B2" rx="6" ry="6" style="stroke:#181818;stroke-width:0.6;"/><path d="M138.5906,452.9604 Q138.6563,452.8667 138.7313,452.8198 Q138.8156,452.7729 138.9094,452.7729 Q139.0688,452.7729 139.1625,452.8854 Q139.2656,452.9979 139.2656,453.2511 L139.2656,453.8698 Q139.2656,454.1229 139.1625,454.2354 Q139.0688,454.3479 138.9094,454.3479 Q138.7594,454.3479 138.675,454.2636 Q138.5906,454.1886 138.5438,453.9636 Q138.525,453.8136 138.45,453.7386 Q138.3,453.5792 138.0375,453.4854 Q137.7844,453.3917 137.5219,453.3917 Q137.2031,453.3917 136.9313,453.5323 Q136.6594,453.6729 136.4531,453.9917 Q136.2469,454.3011 136.2469,454.7417 L136.2469,455.2104 Q136.2469,455.7261 136.6219,456.0729 Q137.0063,456.4198 137.6719,456.4198 Q138.075,456.4198 138.3563,456.3167 Q138.5156,456.2511 138.6938,456.0636 Q138.8063,455.9511 138.8719,455.9229 Q138.9375,455.8854 139.0125,455.8854 Q139.1625,455.8854 139.2656,455.9979 Q139.3781,456.1011 139.3781,456.2511 Q139.3781,456.4011 139.2281,456.5698 Q139.0125,456.8136 138.675,456.9542 Q138.225,457.1417 137.6813,457.1417 Q137.0344,457.1417 136.5281,456.8792 Q136.1063,456.6729 135.8156,456.2136 Q135.525,455.7542 135.525,455.2198 L135.525,454.7323 Q135.525,454.1698 135.7875,453.6823 Q136.05,453.1948 136.5094,452.9323 Q136.9781,452.6698 137.4938,452.6698 Q137.8125,452.6698 138.0844,452.7448 Q138.3563,452.8104 138.5906,452.9604 Z " fill="#000000"/><text fill="#262626" font-family="Noto Sans" font-size="6.6" lengthAdjust="spacing" textLength="16.2" x="151.5" y="457.1993">Song</text></g><!--class Episode--><g id="elem_Episode"><rect codeLine="69" fill="url(#g7zvhqs8f25um0)" height="26.9891" id="Episode" style="stroke:#C6C6C6;stroke-width:0.6;" width="54.6" x="196.5" y="441.144"/><rect fill="url(#g7zvhqs8f25um0)" height="26.9891" style="stroke:#C6C6C6;stroke-width:0.6;" width="54.6" x="196.5" y="441.144"/><ellipse cx="204.9" cy="454.6386" fill="#ADD1B2" rx="6" ry="6" style="stroke:#181818;stroke-width:0.6;"/><path d="M205.7906,452.9604 Q205.8563,452.8667 205.9313,452.8198 Q206.0156,452.7729 206.1094,452.7729 Q206.2687,452.7729 206.3625,452.8854 Q206.4656,452.9979 206.4656,453.2511 L206.4656,453.8698 Q206.4656,454.1229 206.3625,454.2354 Q206.2687,454.3479 206.1094,454.3479 Q205.9594,454.3479 205.875,454.2636 Q205.7906,454.1886 205.7438,453.9636 Q205.725,453.8136 205.65,453.7386 Q205.5,453.5792 205.2375,453.4854 Q204.9844,453.3917 204.7219,453.3917 Q204.4031,453.3917 204.1313,453.5323 Q203.8594,453.6729 203.6531,453.9917 Q203.4469,454.3011 203.4469,454.7417 L203.4469,455.2104 Q203.4469,455.7261 203.8219,456.0729 Q204.2062,456.4198 204.8719,456.4198 Q205.275,456.4198 205.5563,456.3167 Q205.7156,456.2511 205.8937,456.0636 Q206.0063,455.9511 206.0719,455.9229 Q206.1375,455.8854 206.2125,455.8854 Q206.3625,455.8854 206.4656,455.9979 Q206.5781,456.1011 206.5781,456.2511 Q206.5781,456.4011 206.4281,456.5698 Q206.2125,456.8136 205.875,456.9542 Q205.425,457.1417 204.8813,457.1417 Q204.2344,457.1417 203.7281,456.8792 Q203.3063,456.6729 203.0156,456.2136 Q202.725,455.7542 202.725,455.2198 L202.725,454.7323 Q202.725,454.1698 202.9875,453.6823 Q203.25,453.1948 203.7094,452.9323 Q204.1781,452.6698 204.6938,452.6698 Q205.0125,452.6698 205.2844,452.7448 Q205.5563,452.8104 205.7906,452.9604 Z " fill="#000000"/><text fill="#262626" font-family="Noto Sans" font-size="6.6" lengthAdjust="spacing" textLength="24.6" x="218.7" y="457.1993">Episode</text></g><!--class JBCollection--><g id="elem_JBCollection"><rect codeLine="76" fill="url(#g7zvhqs8f25um0)" height="26.9891" id="JBCollection" style="stroke:#C6C6C6;stroke-width:0.6;" width="64.2" x="365.1" y="298.944"/><rect fill="url(#g7zvhqs8f25um0)" height="26.9891" style="stroke:#C6C6C6;stroke-width:0.6;" width="64.2" x="365.1" y="298.944"/><ellipse cx="373.5" cy="312.4386" fill="#A9DCDF" rx="6" ry="6" style="stroke:#181818;stroke-width:0.6;"/><path d="M374.4375,313.6761 L372.6937,313.6761 L372.5156,314.1167 L372.6937,314.1167 Q372.9469,314.1167 373.0594,314.2198 Q373.1719,314.3136 373.1719,314.4823 Q373.1719,314.6417 373.0594,314.7448 Q372.9469,314.8386 372.6937,314.8386 L371.7188,314.8386 Q371.4563,314.8386 371.3531,314.7448 Q371.2406,314.6417 371.2406,314.4729 Q371.2406,314.3136 371.3625,314.2104 Q371.475,314.1073 371.7375,314.1167 L372.8719,311.2948 L372.4031,311.2948 Q372.1406,311.2948 372.0281,311.2011 Q371.9156,311.0979 371.9156,310.9386 Q371.9156,310.7698 372.0281,310.6761 Q372.1406,310.5729 372.4031,310.5729 L373.9594,310.5729 L375.3938,314.1167 Q375.6469,314.1167 375.7219,314.1729 Q375.8906,314.2854 375.8906,314.4823 Q375.8906,314.6417 375.7781,314.7448 Q375.6656,314.8386 375.4125,314.8386 L374.4375,314.8386 Q374.175,314.8386 374.0625,314.7448 Q373.9594,314.6417 373.9594,314.4729 Q373.9594,314.3136 374.0625,314.2198 Q374.175,314.1167 374.4375,314.1167 L374.6156,314.1167 L374.4375,313.6761 Z M374.1469,312.9542 L373.5656,311.5292 L372.975,312.9542 L374.1469,312.9542 Z " fill="#000000"/><text fill="#262626" font-family="Noto Sans" font-size="6.6" font-style="italic" lengthAdjust="spacing" textLength="34.2" x="387.3" y="314.9993">JBCollection</text></g><!--class Album--><g id="elem_Album"><rect codeLine="89" fill="url(#g7zvhqs8f25um0)" height="26.9891" id="Album" style="stroke:#C6C6C6;stroke-width:0.6;" width="50.4" x="299.4" y="368.544"/><rect fill="url(#g7zvhqs8f25um0)" height="26.9891" style="stroke:#C6C6C6;stroke-width:0.6;" width="50.4" x="299.4" y="368.544"/><ellipse cx="307.8" cy="382.0386" fill="#ADD1B2" rx="6" ry="6" style="stroke:#181818;stroke-width:0.6;"/><path d="M308.6906,380.3604 Q308.7562,380.2667 308.8313,380.2198 Q308.9156,380.1729 309.0094,380.1729 Q309.1688,380.1729 309.2625,380.2854 Q309.3656,380.3979 309.3656,380.6511 L309.3656,381.2698 Q309.3656,381.5229 309.2625,381.6354 Q309.1688,381.7479 309.0094,381.7479 Q308.8594,381.7479 308.775,381.6636 Q308.6906,381.5886 308.6438,381.3636 Q308.625,381.2136 308.55,381.1386 Q308.4,380.9792 308.1375,380.8854 Q307.8844,380.7917 307.6219,380.7917 Q307.3031,380.7917 307.0313,380.9323 Q306.7594,381.0729 306.5531,381.3917 Q306.3469,381.7011 306.3469,382.1417 L306.3469,382.6104 Q306.3469,383.1261 306.7219,383.4729 Q307.1063,383.8198 307.7719,383.8198 Q308.175,383.8198 308.4563,383.7167 Q308.6156,383.6511 308.7938,383.4636 Q308.9063,383.3511 308.9719,383.3229 Q309.0375,383.2854 309.1125,383.2854 Q309.2625,383.2854 309.3656,383.3979 Q309.4781,383.5011 309.4781,383.6511 Q309.4781,383.8011 309.3281,383.9698 Q309.1125,384.2136 308.775,384.3542 Q308.325,384.5417 307.7813,384.5417 Q307.1344,384.5417 306.6281,384.2792 Q306.2063,384.0729 305.9156,383.6136 Q305.625,383.1542 305.625,382.6198 L305.625,382.1323 Q305.625,381.5698 305.8875,381.0823 Q306.15,380.5948 306.6094,380.3323 Q307.0781,380.0698 307.5938,380.0698 Q307.9125,380.0698 308.1844,380.1448 Q308.4563,380.2104 308.6906,380.3604 Z " fill="#000000"/><text fill="#262626" font-family="Noto Sans" font-size="6.6" lengthAdjust="spacing" textLength="20.4" x="321.6" y="384.5993">Album</text></g><!--class Playlist--><g id="elem_Playlist"><rect codeLine="98" fill="url(#g7zvhqs8f25um0)" height="26.9891" id="Playlist" style="stroke:#C6C6C6;stroke-width:0.6;" width="52.2" x="371.1" y="368.544"/><rect fill="url(#g7zvhqs8f25um0)" height="26.9891" style="stroke:#C6C6C6;stroke-width:0.6;" width="52.2" x="371.1" y="368.544"/><ellipse cx="379.5" cy="382.0386" fill="#ADD1B2" rx="6" ry="6" style="stroke:#181818;stroke-width:0.6;"/><path d="M380.3906,380.3604 Q380.4563,380.2667 380.5313,380.2198 Q380.6156,380.1729 380.7094,380.1729 Q380.8688,380.1729 380.9625,380.2854 Q381.0656,380.3979 381.0656,380.6511 L381.0656,381.2698 Q381.0656,381.5229 380.9625,381.6354 Q380.8688,381.7479 380.7094,381.7479 Q380.5594,381.7479 380.475,381.6636 Q380.3906,381.5886 380.3438,381.3636 Q380.325,381.2136 380.25,381.1386 Q380.1,380.9792 379.8375,380.8854 Q379.5844,380.7917 379.3219,380.7917 Q379.0031,380.7917 378.7313,380.9323 Q378.4594,381.0729 378.2531,381.3917 Q378.0469,381.7011 378.0469,382.1417 L378.0469,382.6104 Q378.0469,383.1261 378.4219,383.4729 Q378.8063,383.8198 379.4719,383.8198 Q379.875,383.8198 380.1563,383.7167 Q380.3156,383.6511 380.4938,383.4636 Q380.6063,383.3511 380.6719,383.3229 Q380.7375,383.2854 380.8125,383.2854 Q380.9625,383.2854 381.0656,383.3979 Q381.1781,383.5011 381.1781,383.6511 Q381.1781,383.8011 381.0281,383.9698 Q380.8125,384.2136 380.475,384.3542 Q380.025,384.5417 379.4813,384.5417 Q378.8344,384.5417 378.3281,384.2792 Q377.9063,384.0729 377.6156,383.6136 Q377.325,383.1542 377.325,382.6198 L377.325,382.1323 Q377.325,381.5698 377.5875,381.0823 Q377.85,380.5948 378.3094,380.3323 Q378.7781,380.0698 379.2938,380.0698 Q379.6125,380.0698 379.8844,380.1448 Q380.1563,380.2104 380.3906,380.3604 Z " fill="#000000"/><text fill="#262626" font-family="Noto Sans" font-size="6.6" lengthAdjust="spacing" textLength="22.2" x="393.3" y="384.5993">Playlist</text></g><!--class Podcast--><g id="elem_Podcast"><rect codeLine="108" fill="url(#g7zvhqs8f25um0)" height="26.9891" id="Podcast" style="stroke:#C6C6C6;stroke-width:0.6;" width="54.6" x="444.3" y="368.544"/><rect fill="url(#g7zvhqs8f25um0)" height="26.9891" style="stroke:#C6C6C6;stroke-width:0.6;" width="54.6" x="444.3" y="368.544"/><ellipse cx="452.7" cy="382.0386" fill="#ADD1B2" rx="6" ry="6" style="stroke:#181818;stroke-width:0.6;"/><path d="M453.5906,380.3604 Q453.6563,380.2667 453.7313,380.2198 Q453.8156,380.1729 453.9094,380.1729 Q454.0687,380.1729 454.1625,380.2854 Q454.2656,380.3979 454.2656,380.6511 L454.2656,381.2698 Q454.2656,381.5229 454.1625,381.6354 Q454.0687,381.7479 453.9094,381.7479 Q453.7594,381.7479 453.675,381.6636 Q453.5906,381.5886 453.5438,381.3636 Q453.525,381.2136 453.45,381.1386 Q453.3,380.9792 453.0375,380.8854 Q452.7844,380.7917 452.5219,380.7917 Q452.2031,380.7917 451.9313,380.9323 Q451.6594,381.0729 451.4531,381.3917 Q451.2469,381.7011 451.2469,382.1417 L451.2469,382.6104 Q451.2469,383.1261 451.6219,383.4729 Q452.0062,383.8198 452.6719,383.8198 Q453.075,383.8198 453.3563,383.7167 Q453.5156,383.6511 453.6937,383.4636 Q453.8063,383.3511 453.8719,383.3229 Q453.9375,383.2854 454.0125,383.2854 Q454.1625,383.2854 454.2656,383.3979 Q454.3781,383.5011 454.3781,383.6511 Q454.3781,383.8011 454.2281,383.9698 Q454.0125,384.2136 453.675,384.3542 Q453.225,384.5417 452.6813,384.5417 Q452.0344,384.5417 451.5281,384.2792 Q451.1063,384.0729 450.8156,383.6136 Q450.525,383.1542 450.525,382.6198 L450.525,382.1323 Q450.525,381.5698 450.7875,381.0823 Q451.05,380.5948 451.5094,380.3323 Q451.9781,380.0698 452.4938,380.0698 Q452.8125,380.0698 453.0844,380.1448 Q453.3563,380.2104 453.5906,380.3604 Z " fill="#000000"/><text fill="#262626" font-family="Noto Sans" font-size="6.6" lengthAdjust="spacing" textLength="24.6" x="466.5" y="384.5993">Podcast</text></g><!--class JBProfile--><g id="elem_JBProfile"><rect codeLine="120" fill="url(#g7zvhqs8f25um0)" height="26.9891" id="JBProfile" style="stroke:#C6C6C6;stroke-width:0.6;" width="54.6" x="533.1" y="298.944"/><rect fill="url(#g7zvhqs8f25um0)" height="26.9891" style="stroke:#C6C6C6;stroke-width:0.6;" width="54.6" x="533.1" y="298.944"/><ellipse cx="541.5" cy="312.4386" fill="#A9DCDF" rx="6" ry="6" style="stroke:#181818;stroke-width:0.6;"/><path d="M542.4375,313.6761 L540.6938,313.6761 L540.5156,314.1167 L540.6938,314.1167 Q540.9469,314.1167 541.0594,314.2198 Q541.1719,314.3136 541.1719,314.4823 Q541.1719,314.6417 541.0594,314.7448 Q540.9469,314.8386 540.6938,314.8386 L539.7188,314.8386 Q539.4563,314.8386 539.3531,314.7448 Q539.2406,314.6417 539.2406,314.4729 Q539.2406,314.3136 539.3625,314.2104 Q539.475,314.1073 539.7375,314.1167 L540.8719,311.2948 L540.4031,311.2948 Q540.1406,311.2948 540.0281,311.2011 Q539.9156,311.0979 539.9156,310.9386 Q539.9156,310.7698 540.0281,310.6761 Q540.1406,310.5729 540.4031,310.5729 L541.9594,310.5729 L543.3938,314.1167 Q543.6469,314.1167 543.7219,314.1729 Q543.8906,314.2854 543.8906,314.4823 Q543.8906,314.6417 543.7781,314.7448 Q543.6656,314.8386 543.4125,314.8386 L542.4375,314.8386 Q542.175,314.8386 542.0625,314.7448 Q541.9594,314.6417 541.9594,314.4729 Q541.9594,314.3136 542.0625,314.2198 Q542.175,314.1167 542.4375,314.1167 L542.6156,314.1167 L542.4375,313.6761 Z M542.1469,312.9542 L541.5656,311.5292 L540.975,312.9542 L542.1469,312.9542 Z " fill="#000000"/><text fill="#262626" font-family="Noto Sans" font-size="6.6" font-style="italic" lengthAdjust="spacing" textLength="24.6" x="555.3" y="314.9993">JBProfile</text></g><!--class User--><g id="elem_User"><rect codeLine="132" fill="url(#g7zvhqs8f25um0)" height="26.9891" id="User" style="stroke:#C6C6C6;stroke-width:0.6;" width="44.4" x="532.8" y="368.544"/><rect fill="url(#g7zvhqs8f25um0)" height="26.9891" style="stroke:#C6C6C6;stroke-width:0.6;" width="44.4" x="532.8" y="368.544"/><ellipse cx="541.2" cy="382.0386" fill="#ADD1B2" rx="6" ry="6" style="stroke:#181818;stroke-width:0.6;"/><path d="M542.0906,380.3604 Q542.1563,380.2667 542.2312,380.2198 Q542.3156,380.1729 542.4094,380.1729 Q542.5688,380.1729 542.6625,380.2854 Q542.7656,380.3979 542.7656,380.6511 L542.7656,381.2698 Q542.7656,381.5229 542.6625,381.6354 Q542.5688,381.7479 542.4094,381.7479 Q542.2594,381.7479 542.175,381.6636 Q542.0906,381.5886 542.0437,381.3636 Q542.025,381.2136 541.95,381.1386 Q541.8,380.9792 541.5375,380.8854 Q541.2844,380.7917 541.0219,380.7917 Q540.7031,380.7917 540.4313,380.9323 Q540.1594,381.0729 539.9531,381.3917 Q539.7469,381.7011 539.7469,382.1417 L539.7469,382.6104 Q539.7469,383.1261 540.1219,383.4729 Q540.5063,383.8198 541.1719,383.8198 Q541.575,383.8198 541.8562,383.7167 Q542.0156,383.6511 542.1938,383.4636 Q542.3063,383.3511 542.3719,383.3229 Q542.4375,383.2854 542.5125,383.2854 Q542.6625,383.2854 542.7656,383.3979 Q542.8781,383.5011 542.8781,383.6511 Q542.8781,383.8011 542.7281,383.9698 Q542.5125,384.2136 542.175,384.3542 Q541.725,384.5417 541.1813,384.5417 Q540.5344,384.5417 540.0281,384.2792 Q539.6062,384.0729 539.3156,383.6136 Q539.025,383.1542 539.025,382.6198 L539.025,382.1323 Q539.025,381.5698 539.2875,381.0823 Q539.55,380.5948 540.0094,380.3323 Q540.4781,380.0698 540.9938,380.0698 Q541.3125,380.0698 541.5844,380.1448 Q541.8562,380.2104 542.0906,380.3604 Z " fill="#000000"/><text fill="#262626" font-family="Noto Sans" font-size="6.6" lengthAdjust="spacing" textLength="14.4" x="555" y="384.5993">User</text></g><!--class Artist--><g id="elem_Artist"><rect codeLine="142" fill="url(#g7zvhqs8f25um0)" height="26.9891" id="Artist" style="stroke:#C6C6C6;stroke-width:0.6;" width="46.8" x="598.2" y="368.544"/><rect fill="url(#g7zvhqs8f25um0)" height="26.9891" style="stroke:#C6C6C6;stroke-width:0.6;" width="46.8" x="598.2" y="368.544"/><ellipse cx="606.6" cy="382.0386" fill="#ADD1B2" rx="6" ry="6" style="stroke:#181818;stroke-width:0.6;"/><path d="M607.4906,380.3604 Q607.5563,380.2667 607.6313,380.2198 Q607.7156,380.1729 607.8094,380.1729 Q607.9688,380.1729 608.0625,380.2854 Q608.1656,380.3979 608.1656,380.6511 L608.1656,381.2698 Q608.1656,381.5229 608.0625,381.6354 Q607.9688,381.7479 607.8094,381.7479 Q607.6594,381.7479 607.575,381.6636 Q607.4906,381.5886 607.4438,381.3636 Q607.425,381.2136 607.35,381.1386 Q607.2,380.9792 606.9375,380.8854 Q606.6844,380.7917 606.4219,380.7917 Q606.1031,380.7917 605.8313,380.9323 Q605.5594,381.0729 605.3531,381.3917 Q605.1469,381.7011 605.1469,382.1417 L605.1469,382.6104 Q605.1469,383.1261 605.5219,383.4729 Q605.9063,383.8198 606.5719,383.8198 Q606.975,383.8198 607.2563,383.7167 Q607.4156,383.6511 607.5938,383.4636 Q607.7063,383.3511 607.7719,383.3229 Q607.8375,383.2854 607.9125,383.2854 Q608.0625,383.2854 608.1656,383.3979 Q608.2781,383.5011 608.2781,383.6511 Q608.2781,383.8011 608.1281,383.9698 Q607.9125,384.2136 607.575,384.3542 Q607.125,384.5417 606.5813,384.5417 Q605.9344,384.5417 605.4281,384.2792 Q605.0063,384.0729 604.7156,383.6136 Q604.425,383.1542 604.425,382.6198 L604.425,382.1323 Q604.425,381.5698 604.6875,381.0823 Q604.95,380.5948 605.4094,380.3323 Q605.8781,380.0698 606.3938,380.0698 Q606.7125,380.0698 606.9844,380.1448 Q607.2563,380.2104 607.4906,380.3604 Z " fill="#000000"/><text fill="#262626" font-family="Noto Sans" font-size="6.6" lengthAdjust="spacing" textLength="16.8" x="620.4" y="384.5993">Artist</text></g><!--reverse link IJBResearchable to IJBPlayable--><g id="link_IJBResearchable_IJBPlayable"><path d="M380.4362,188.9445 C364.9442,208.2105 340.05,235.872 305.4,256.344 C299.154,260.034 296.352,258.036 289.8,261.144 C267.834,271.56 244.908,287.634 230.01,298.884 " fill="none" id="IJBResearchable-backto-IJBPlayable" style="stroke:#C6C6C6;stroke-width:0.6;"/><polygon fill="none" points="387.204,180.528,377.6307,186.6885,383.2417,191.2004,387.204,180.528" style="stroke:#C6C6C6;stroke-width:0.6;"/></g><!--reverse link IJBPlayable to JBAudio--><g id="link_IJBPlayable_JBAudio"><path d="M200.2983,335.3458 C193.0383,347.5198 187.794,356.31 180.54,368.466 " fill="none" id="IJBPlayable-backto-JBAudio" style="stroke:#C6C6C6;stroke-width:0.6;stroke-dasharray:7.0,7.0;"/><polygon fill="none" points="205.83,326.07,197.2064,333.5019,203.3903,337.1897,205.83,326.07" style="stroke:#C6C6C6;stroke-width:0.6;"/></g><!--reverse link JBAudio to Song--><g id="link_JBAudio_Song"><path d="M166.1383,405.9588 C162.4663,418.8168 159.822,428.058 156.138,440.97 " fill="none" id="JBAudio-backto-Song" style="stroke:#C6C6C6;stroke-width:0.6;"/><polygon fill="none" points="169.104,395.574,162.6767,404.9702,169.5999,406.9474,169.104,395.574" style="stroke:#C6C6C6;stroke-width:0.6;"/></g><!--reverse link JBAudio to Episode--><g id="link_JBAudio_Episode"><path d="M188.3121,404.3618 C197.4981,417.2198 205.242,428.058 214.458,440.97 " fill="none" id="JBAudio-backto-Episode" style="stroke:#C6C6C6;stroke-width:0.6;"/><polygon fill="none" points="182.034,395.574,185.3829,406.4545,191.2414,402.269,182.034,395.574" style="stroke:#C6C6C6;stroke-width:0.6;"/></g><!--reverse link IJBResearchable to JBCollection--><g id="link_IJBResearchable_JBCollection"><path d="M397.2,191.406 C397.2,218.88 397.2,271.56 397.2,298.92 " fill="none" id="IJBResearchable-backto-JBCollection" style="stroke:#C6C6C6;stroke-width:0.6;stroke-dasharray:7.0,7.0;"/><polygon fill="none" points="397.2,180.606,393.6,191.406,400.8,191.406,397.2,180.606" style="stroke:#C6C6C6;stroke-width:0.6;"/></g><!--reverse link JBCollection to Album--><g id="link_JBCollection_Album"><path d="M357.9474,331.8522 C345.4194,342.4482 337.728,357.228 331.392,368.388 " fill="none" id="JBCollection-backto-Album" style="stroke:#C6C6C6;stroke-width:0.6;"/><polygon fill="none" points="367.05,326.04,356.01,328.818,359.8848,334.8864,367.05,326.04" style="stroke:#C6C6C6;stroke-width:0.6;"/></g><!--reverse link JBCollection to Playlist--><g id="link_JBCollection_Playlist"><path d="M397.2,336.87 C397.2,349.044 397.2,356.31 397.2,368.466 " fill="none" id="JBCollection-backto-Playlist" style="stroke:#C6C6C6;stroke-width:0.6;"/><polygon fill="none" points="397.2,326.07,393.6,336.87,400.8,336.87,397.2,326.07" style="stroke:#C6C6C6;stroke-width:0.6;"/></g><!--reverse link JBCollection to Podcast--><g id="link_JBCollection_Podcast"><path d="M436.2804,331.698 C449.1504,342.324 457.584,357.252 464.322,368.4 " fill="none" id="JBCollection-backto-Podcast" style="stroke:#C6C6C6;stroke-width:0.6;"/><polygon fill="none" points="427.122,325.974,434.3724,334.7508,438.1884,328.6452,427.122,325.974" style="stroke:#C6C6C6;stroke-width:0.6;"/></g><!--reverse link IJBResearchable to JBProfile--><g id="link_IJBResearchable_JBProfile"><path d="M421.8452,187.2553 C443.8712,204.9733 475.854,231.222 508.8,261.144 C522.468,273.558 537.45,288.432 547.734,298.848 " fill="none" id="IJBResearchable-backto-JBProfile" style="stroke:#C6C6C6;stroke-width:0.6;stroke-dasharray:7.0,7.0;"/><polygon fill="none" points="413.43,180.486,419.5888,190.0604,424.1017,184.4502,413.43,180.486" style="stroke:#C6C6C6;stroke-width:0.6;"/></g><!--reverse link JBProfile to User--><g id="link_JBProfile_User"><path d="M558.5197,336.8361 C557.5537,349.0101 556.986,356.31 556.026,368.466 " fill="none" id="JBProfile-backto-User" style="stroke:#C6C6C6;stroke-width:0.6;"/><polygon fill="none" points="559.374,326.07,554.931,336.5514,562.1084,337.1209,559.374,326.07" style="stroke:#C6C6C6;stroke-width:0.6;"/></g><!--reverse link JBProfile to Artist--><g id="link_JBProfile_Artist"><path d="M591.0208,332.5194 C602.3788,343.7094 609.006,357.564 615.012,368.502 " fill="none" id="JBProfile-backto-Artist" style="stroke:#C6C6C6;stroke-width:0.6;"/><polygon fill="none" points="582.444,325.956,588.833,335.3783,593.2086,329.6604,582.444,325.956" style="stroke:#C6C6C6;stroke-width:0.6;"/></g><!--reverse link JBAudio to MetaData--><g id="link_JBAudio_MetaData"><path codeLine="166" d="M147.9652,401.3489 C134.6752,411.3569 123.624,419.682 107.892,431.532 " fill="none" id="JBAudio-backto-MetaData" style="stroke:#C6C6C6;stroke-width:0.6;"/><ellipse cx="151.7996" cy="398.4615" fill="none" rx="4.8" ry="4.8" style="stroke:#C6C6C6;stroke-width:0.6;"/><line style="stroke:#C6C6C6;stroke-width:0.6;" x1="147.9652" x2="155.634" y1="401.3489" y2="395.574"/><line style="stroke:#C6C6C6;stroke-width:0.6;" x1="148.9121" x2="154.6871" y1="394.6271" y2="402.2958"/></g><!--SRC=[pLTHazes47xthn2JcGuqHvg-NYapvl2rC1oGW-iqq-c3R2-WYMmnaaXAR_ZlMLcsaG_ZCDSq5xzONgsatMztFwrRUWC9a8ZAKAJTjQHxpzDCSo2a5makvFLQmhu_fX_f0AXMf4k68g4i9KD6KJtf_PIfzJslfUKEoA_aPw-reboPuLklfJRYqnIKXbYXmAXOsOr8ja8npKHg9h8LTiRNMh9mf-69_0xqHiH7eRUbqGUw1fA86FYZH_1XgGQveX6GqNXm3mgeZ3Oqv62d3rxsWdINa60yk9iD0pjXdjTa4Rnx2ARBaJznXFV-T3YxSmIJsMnUivjPk7nVsMus_Stv3EQZ1HxeIEOJ__raj5Ww8dyoU70Fcy-6Dtv5us4HtBiBxfV53haz1InRJlVMzLAz0iyydoVmZuOKWSrmV5CBNF6qs8gqdM1qAhFM8dFkxP_jwbGBJs2hKdGusbIOItSn4uwjvg6Xqf96caISAaN60zye4PPiEMPjgWkR2rVVE6uzdfXM6d_Ci5FxpTCbB2RN1grpq-gMVXIIQK2rK0WED3sZce2cCTKK5U_ouHdD381RnisU0ox2SsUdcc36XI1dguMMG1FLOEihD21cr802ChEX_3h5fngZosDkuxu6ZTcbsXto0r75-9933YTADjm6hw61hjSZxUaLUJKS1eFWROTOFY7zFdcijUNYGEV0IysKHd3yRD2WQPdncY3kB5qtA28dSeWCkQ7sU71JVZQiYNUIvYjYiSCCRj2LW2cd0D4nvfXNW_8QKWcgDFkll-j1gu_-eLgHDZ8BaQvBsiYhyj7xuh9WonJMwvTMLaTFMEs8hCCL9pnn1FoKB2uZkARKQU27Babfqf0Yc1fOibh8B2_cKgnOJQ2xPCiYlPErL50Jg4jeMKMKmznksrRiNx0UTF0rIX1PxpaLVPxMRIHy7kBbU8ptZHEzPy1kWlnXKXGhDYjctClJgFyrKFhlBXjovSR4b_2wk9x-O8g5tBcTVlbEm15nH5y8cs_dT5qpPYkzYRDoClX_26kdG1fckYBOlFChj4kfJqB6LyHArIwV3fd0jdwxsJTncE6amgNvUQQoogOO8CMDViU1aFjBitYLjrZcvYgAwll8uWS4qqdXUH7RvrmaJgaEpZIIcEL2KpufS5oox8QfQH9U317RENqbJ1nlqPAQY_ORktdmS50UuFwucjNsYlknsotQ6PILTy0JSSv-LUcnyflaJWLKsXkxvjX8b4spcIWRsegqqe_cBX_zot_MEzb1zd_hDIugTYWNR9Zfv9AjtfCL0nuhLvBOA7YV0G00]--></g></svg>