<?xml version="1.0" encoding="us-ascii" standalone="no"?><svg xmlns="http://www.w3.org/2000/svg" xmlns:xlink="http://www.w3.org/1999/xlink" contentStyleType="text/css" height="346.8px" preserveAspectRatio="none" style="width:452px;height:346px;" version="1.1" viewBox="0 0 452 346" width="452.8px" zoomAndPan="magnify"><defs><linearGradient id="g1w93wbklady2e0" x1="50%" x2="50%" y1="0%" y2="100%"><stop offset="0%" stop-color="#F4F4F4"/><stop offset="100%" stop-color="#F4F4F4"/></linearGradient></defs><g><text fill="#808080" font-family="Noto Sans" font-size="8" font-weight="bold" lengthAdjust="spacing" textLength="113.6" x="166.8" y="16.552">JavaBeats - Domain Diagram</text><!--cluster model--><g id="cluster_model"><polygon fill="#FFFFFF" points="6.4,29.696,32,29.696,34.8,46.6336,446,46.6336,446,344.096,6.4,344.096,6.4,29.696" style="stroke:#C6C6C6;stroke-width:0.4000000000000001;"/><line style="stroke:#C6C6C6;stroke-width:0.4000000000000001;" x1="6.4" x2="34.8" y1="46.6336" y2="46.6336"/><text fill="#262626" font-family="Noto Sans" font-size="4.8" font-weight="bold" lengthAdjust="spacing" textLength="15.2" x="12" y="39.6272">model</text></g><!--cluster playable--><g id="cluster_playable"><polygon fill="#FFFFFF" points="16,177.296,47.2,177.296,50,194.2336,183.6,194.2336,183.6,334.496,16,334.496,16,177.296" style="stroke:#C6C6C6;stroke-width:0.4000000000000001;"/><line style="stroke:#C6C6C6;stroke-width:0.4000000000000001;" x1="16" x2="50" y1="194.2336" y2="194.2336"/><text fill="#262626" font-family="Noto Sans" font-size="4.8" font-weight="bold" lengthAdjust="spacing" textLength="20.8" x="21.6" y="187.2272">playable</text></g><!--cluster audio--><g id="cluster_audio"><polygon fill="#FFFFFF" points="25.6,223.696,49.6,223.696,52.4,240.6336,174,240.6336,174,324.896,25.6,324.896,25.6,223.696" style="stroke:#C6C6C6;stroke-width:0.4000000000000001;"/><line style="stroke:#C6C6C6;stroke-width:0.4000000000000001;" x1="25.6" x2="52.4" y1="240.6336" y2="240.6336"/><text fill="#262626" font-family="Noto Sans" font-size="4.8" font-weight="bold" lengthAdjust="spacing" textLength="13.6" x="31.2" y="233.6272">audio</text></g><!--cluster collection--><g id="cluster_collection"><polygon fill="#FFFFFF" points="193.2,177.296,226.8,177.296,229.6,194.2336,339.2,194.2336,339.2,270.096,193.2,270.096,193.2,177.296" style="stroke:#C6C6C6;stroke-width:0.4000000000000001;"/><line style="stroke:#C6C6C6;stroke-width:0.4000000000000001;" x1="193.2" x2="229.6" y1="194.2336" y2="194.2336"/><text fill="#262626" font-family="Noto Sans" font-size="4.8" font-weight="bold" lengthAdjust="spacing" textLength="23.2" x="198.8" y="187.2272">collection</text></g><!--cluster profile--><g id="cluster_profile"><polygon fill="#FFFFFF" points="348.8,177.296,375.2,177.296,378,194.2336,436.4,194.2336,436.4,270.096,348.8,270.096,348.8,177.296" style="stroke:#C6C6C6;stroke-width:0.4000000000000001;"/><line style="stroke:#C6C6C6;stroke-width:0.4000000000000001;" x1="348.8" x2="378" y1="194.2336" y2="194.2336"/><text fill="#262626" font-family="Noto Sans" font-size="4.8" font-weight="bold" lengthAdjust="spacing" textLength="16" x="354.4" y="187.2272">profile</text></g><!--class IJBResearchable--><g id="elem_IJBResearchable"><rect codeLine="13" fill="url(#g1w93wbklady2e0)" height="17.9928" id="IJBResearchable" style="stroke:#C6C6C6;stroke-width:0.4000000000000001;" width="50.4" x="239.6" y="102.296"/><rect fill="url(#g1w93wbklady2e0)" height="17.9928" style="stroke:#C6C6C6;stroke-width:0.4000000000000001;" width="50.4" x="239.6" y="102.296"/><ellipse cx="245.2" cy="111.2924" fill="#B4A7E5" rx="4" ry="4" style="stroke:#181818;stroke-width:0.4000000000000001;"/><path d="M245.6813,110.5299 L245.6813,112.4111 L246.1688,112.4111 Q246.3375,112.4111 246.4125,112.4799 Q246.4875,112.5424 246.4875,112.6549 Q246.4875,112.7611 246.4125,112.8299 Q246.3375,112.8924 246.1688,112.8924 L244.7125,112.8924 Q244.5438,112.8924 244.4688,112.8299 Q244.3938,112.7611 244.3938,112.6486 Q244.3938,112.5424 244.4688,112.4799 Q244.5438,112.4111 244.7125,112.4111 L245.2,112.4111 L245.2,110.5299 L244.7125,110.5299 Q244.5438,110.5299 244.4688,110.4674 Q244.3938,110.3986 244.3938,110.2924 Q244.3938,110.1799 244.4688,110.1174 Q244.5438,110.0486 244.7125,110.0486 L246.1688,110.0486 Q246.3375,110.0486 246.4125,110.1174 Q246.4875,110.1799 246.4875,110.2924 Q246.4875,110.3986 246.4125,110.4674 Q246.3375,110.5299 246.1688,110.5299 L245.6813,110.5299 Z " fill="#000000"/><text fill="#262626" font-family="Noto Sans" font-size="4.4" font-style="italic" lengthAdjust="spacing" textLength="30.4" x="254.4" y="112.9996">IJBResearchable</text></g><!--class EJENTITY--><g id="elem_EJENTITY"><rect codeLine="16" fill="url(#g1w93wbklady2e0)" height="119.142" id="EJENTITY" style="stroke:#C6C6C6;stroke-width:0.4000000000000001;" width="38" x="100.2" y="51.696"/><rect fill="url(#g1w93wbklady2e0)" height="17.9928" style="stroke:#C6C6C6;stroke-width:0.4000000000000001;" width="38" x="100.2" y="51.696"/><ellipse cx="105.8" cy="60.6924" fill="#EB937F" rx="4" ry="4" style="stroke:#181818;stroke-width:0.4000000000000001;"/><path d="M105.75,61.1049 L105.75,61.8111 L106.975,61.8111 L106.975,61.5486 Q106.975,61.3799 107.0375,61.3049 Q107.1063,61.2299 107.2125,61.2299 Q107.3188,61.2299 107.3875,61.3049 Q107.4563,61.3799 107.4563,61.5486 L107.4563,62.2924 L105.1938,62.2924 Q105.0188,62.2924 104.9438,62.2299 Q104.8688,62.1611 104.8688,62.0486 Q104.8688,61.9424 104.9438,61.8799 Q105.0188,61.8111 105.1938,61.8111 L105.2688,61.8111 L105.2688,59.9299 L105.1938,59.9299 Q105.0188,59.9299 104.9438,59.8674 Q104.8688,59.7986 104.8688,59.6924 Q104.8688,59.5799 104.9438,59.5174 Q105.0188,59.4486 105.1938,59.4486 L107.35,59.4486 L107.35,60.1799 Q107.35,60.3549 107.2813,60.4299 Q107.2188,60.4986 107.1063,60.4986 Q107,60.4986 106.9313,60.4299 Q106.8688,60.3549 106.8688,60.1799 L106.8688,59.9299 L105.75,59.9299 L105.75,60.6236 L106.1688,60.6236 Q106.1688,60.4361 106.2063,60.3861 Q106.275,60.2674 106.4125,60.2674 Q106.5188,60.2674 106.5813,60.3424 Q106.65,60.4174 106.65,60.5924 L106.65,61.1424 Q106.65,61.2986 106.6125,61.3549 Q106.5375,61.4674 106.4125,61.4674 Q106.275,61.4674 106.2063,61.3486 Q106.1688,61.2986 106.1688,61.1049 L105.75,61.1049 Z " fill="#000000"/><text fill="#262626" font-family="Noto Sans" font-size="4.4" lengthAdjust="spacing" textLength="18" x="115" y="62.3996">EJENTITY</text><line style="stroke:#C6C6C6;stroke-width:0.4000000000000001;" x1="100.6" x2="137.8" y1="69.6887" y2="69.6887"/><ellipse cx="104.6" cy="78.8851" fill="none" rx="1.2" ry="1.2" style="stroke:#038048;stroke-width:0.4000000000000001;"/><text fill="#262626" font-family="Noto Sans" font-size="4.4" lengthAdjust="spacing" textLength="12.4" x="111.8" y="79.9923">SONG</text><ellipse cx="104.6" cy="92.8779" fill="none" rx="1.2" ry="1.2" style="stroke:#038048;stroke-width:0.4000000000000001;"/><text fill="#262626" font-family="Noto Sans" font-size="4.4" lengthAdjust="spacing" textLength="18.4" x="111.8" y="93.9851">EPISODE</text><ellipse cx="104.6" cy="106.8706" fill="none" rx="1.2" ry="1.2" style="stroke:#038048;stroke-width:0.4000000000000001;"/><text fill="#262626" font-family="Noto Sans" font-size="4.4" lengthAdjust="spacing" textLength="19.2" x="111.8" y="107.9778">PLAYLIST</text><ellipse cx="104.6" cy="120.8634" fill="none" rx="1.2" ry="1.2" style="stroke:#038048;stroke-width:0.4000000000000001;"/><text fill="#262626" font-family="Noto Sans" font-size="4.4" lengthAdjust="spacing" textLength="15.2" x="111.8" y="121.9706">ALBUM</text><ellipse cx="104.6" cy="134.8561" fill="none" rx="1.2" ry="1.2" style="stroke:#038048;stroke-width:0.4000000000000001;"/><text fill="#262626" font-family="Noto Sans" font-size="4.4" lengthAdjust="spacing" textLength="20" x="111.8" y="135.9633">PODCAST</text><ellipse cx="104.6" cy="148.8489" fill="none" rx="1.2" ry="1.2" style="stroke:#038048;stroke-width:0.4000000000000001;"/><text fill="#262626" font-family="Noto Sans" font-size="4.4" lengthAdjust="spacing" textLength="10.8" x="111.8" y="149.9561">USER</text><ellipse cx="104.6" cy="162.8417" fill="none" rx="1.2" ry="1.2" style="stroke:#038048;stroke-width:0.4000000000000001;"/><text fill="#262626" font-family="Noto Sans" font-size="4.4" lengthAdjust="spacing" textLength="14.4" x="111.8" y="163.9488">ARTIST</text></g><!--class IJBPlayable--><g id="elem_IJBPlayable"><rect codeLine="28" fill="url(#g1w93wbklady2e0)" height="17.9928" id="IJBPlayable" style="stroke:#C6C6C6;stroke-width:0.4000000000000001;" width="41.6" x="108.4" y="199.296"/><rect fill="url(#g1w93wbklady2e0)" height="17.9928" style="stroke:#C6C6C6;stroke-width:0.4000000000000001;" width="41.6" x="108.4" y="199.296"/><ellipse cx="114" cy="208.2924" fill="#B4A7E5" rx="4" ry="4" style="stroke:#181818;stroke-width:0.4000000000000001;"/><path d="M114.4813,207.5299 L114.4813,209.4111 L114.9688,209.4111 Q115.1375,209.4111 115.2125,209.4799 Q115.2875,209.5424 115.2875,209.6549 Q115.2875,209.7611 115.2125,209.8299 Q115.1375,209.8924 114.9688,209.8924 L113.5125,209.8924 Q113.3438,209.8924 113.2688,209.8299 Q113.1938,209.7611 113.1938,209.6486 Q113.1938,209.5424 113.2688,209.4799 Q113.3438,209.4111 113.5125,209.4111 L114,209.4111 L114,207.5299 L113.5125,207.5299 Q113.3438,207.5299 113.2688,207.4674 Q113.1938,207.3986 113.1938,207.2924 Q113.1938,207.1799 113.2688,207.1174 Q113.3438,207.0486 113.5125,207.0486 L114.9688,207.0486 Q115.1375,207.0486 115.2125,207.1174 Q115.2875,207.1799 115.2875,207.2924 Q115.2875,207.3986 115.2125,207.4674 Q115.1375,207.5299 114.9688,207.5299 L114.4813,207.5299 Z " fill="#000000"/><text fill="#262626" font-family="Noto Sans" font-size="4.4" font-style="italic" lengthAdjust="spacing" textLength="21.6" x="123.2" y="209.9996">IJBPlayable</text></g><!--class JBAudio--><g id="elem_JBAudio"><rect codeLine="36" fill="url(#g1w93wbklady2e0)" height="17.9928" id="JBAudio" style="stroke:#C6C6C6;stroke-width:0.4000000000000001;" width="34.8" x="97.8" y="245.696"/><rect fill="url(#g1w93wbklady2e0)" height="17.9928" style="stroke:#C6C6C6;stroke-width:0.4000000000000001;" width="34.8" x="97.8" y="245.696"/><ellipse cx="103.4" cy="254.6924" fill="#A9DCDF" rx="4" ry="4" style="stroke:#181818;stroke-width:0.4000000000000001;"/><path d="M104.025,255.5174 L102.8625,255.5174 L102.7438,255.8111 L102.8625,255.8111 Q103.0313,255.8111 103.1063,255.8799 Q103.1813,255.9424 103.1813,256.0549 Q103.1813,256.1611 103.1063,256.2299 Q103.0313,256.2924 102.8625,256.2924 L102.2125,256.2924 Q102.0375,256.2924 101.9688,256.2299 Q101.8938,256.1611 101.8938,256.0486 Q101.8938,255.9424 101.975,255.8736 Q102.05,255.8049 102.225,255.8111 L102.9813,253.9299 L102.6688,253.9299 Q102.4938,253.9299 102.4188,253.8674 Q102.3438,253.7986 102.3438,253.6924 Q102.3438,253.5799 102.4188,253.5174 Q102.4938,253.4486 102.6688,253.4486 L103.7063,253.4486 L104.6625,255.8111 Q104.8313,255.8111 104.8813,255.8486 Q104.9938,255.9236 104.9938,256.0549 Q104.9938,256.1611 104.9188,256.2299 Q104.8438,256.2924 104.675,256.2924 L104.025,256.2924 Q103.85,256.2924 103.775,256.2299 Q103.7063,256.1611 103.7063,256.0486 Q103.7063,255.9424 103.775,255.8799 Q103.85,255.8111 104.025,255.8111 L104.1438,255.8111 L104.025,255.5174 Z M103.8313,255.0361 L103.4438,254.0861 L103.05,255.0361 L103.8313,255.0361 Z " fill="#000000"/><text fill="#262626" font-family="Noto Sans" font-size="4.4" font-style="italic" lengthAdjust="spacing" textLength="14.8" x="112.6" y="256.3996">JBAudio</text></g><!--class MetaData--><g id="elem_MetaData"><rect codeLine="49" fill="url(#g1w93wbklady2e0)" height="30.896" id="MetaData" style="stroke:#C6C6C6;stroke-width:0.4000000000000001;" width="40" x="32" y="287.696"/><rect fill="url(#g1w93wbklady2e0)" height="30.896" style="stroke:#C6C6C6;stroke-width:0.4000000000000001;" width="40" x="32" y="287.696"/><ellipse cx="37.6" cy="303.144" fill="#DDEBE0" rx="4" ry="4" style="stroke:#181818;stroke-width:0.4000000000000001;"/><path d="M37.2375,302.8127 L37.2375,304.2627 L37.4125,304.2627 Q37.5875,304.2627 37.6563,304.3315 Q37.7313,304.394 37.7313,304.5065 Q37.7313,304.6127 37.6563,304.6815 Q37.5875,304.744 37.4125,304.744 L36.7813,304.744 Q36.6063,304.744 36.5313,304.6815 Q36.4625,304.6127 36.4625,304.5002 Q36.4625,304.4002 36.5313,304.3315 Q36.6063,304.2627 36.7563,304.2627 L36.7563,302.3815 L36.6813,302.3815 Q36.5125,302.3815 36.4375,302.319 Q36.3625,302.2502 36.3625,302.144 Q36.3625,302.0315 36.4375,301.969 Q36.5125,301.9002 36.6813,301.9002 L37.2375,301.9002 L38.4688,303.8315 L38.4688,302.3815 L38.2938,302.3815 Q38.1188,302.3815 38.0438,302.319 Q37.975,302.2502 37.975,302.144 Q37.975,302.0315 38.0438,301.969 Q38.1188,301.9002 38.2938,301.9002 L38.925,301.9002 Q39.1,301.9002 39.1688,301.969 Q39.2438,302.0315 39.2438,302.144 Q39.2438,302.2502 39.1688,302.319 Q39.1,302.3815 38.95,302.3815 L38.95,304.744 L38.475,304.744 L37.2375,302.8127 Z " fill="#000000"/><text fill="#262626" font-family="IBM Plex Sans, Noto Sans, Verdana" font-size="3.6" font-style="italic" lengthAdjust="spacing" textLength="13.6" x="50" y="297.5444">&#171;Nested&#187;</text><text fill="#262626" font-family="Noto Sans" font-size="4.4" lengthAdjust="spacing" textLength="20" x="46.8" y="311.3028">MetaData</text></g><!--class Song--><g id="elem_Song"><rect codeLine="60" fill="url(#g1w93wbklady2e0)" height="17.9928" id="Song" style="stroke:#C6C6C6;stroke-width:0.4000000000000001;" width="30.8" x="86.2" y="294.096"/><rect fill="url(#g1w93wbklady2e0)" height="17.9928" style="stroke:#C6C6C6;stroke-width:0.4000000000000001;" width="30.8" x="86.2" y="294.096"/><ellipse cx="91.8" cy="303.0924" fill="#ADD1B2" rx="4" ry="4" style="stroke:#181818;stroke-width:0.4000000000000001;"/><path d="M92.3938,301.9736 Q92.4375,301.9111 92.4875,301.8799 Q92.5438,301.8486 92.6063,301.8486 Q92.7125,301.8486 92.775,301.9236 Q92.8438,301.9986 92.8438,302.1674 L92.8438,302.5799 Q92.8438,302.7486 92.775,302.8236 Q92.7125,302.8986 92.6063,302.8986 Q92.5063,302.8986 92.45,302.8424 Q92.3938,302.7924 92.3625,302.6424 Q92.35,302.5424 92.3,302.4924 Q92.2,302.3861 92.025,302.3236 Q91.8563,302.2611 91.6813,302.2611 Q91.4688,302.2611 91.2875,302.3549 Q91.1063,302.4486 90.9688,302.6611 Q90.8313,302.8674 90.8313,303.1611 L90.8313,303.4736 Q90.8313,303.8174 91.0813,304.0486 Q91.3375,304.2799 91.7813,304.2799 Q92.05,304.2799 92.2375,304.2111 Q92.3438,304.1674 92.4625,304.0424 Q92.5375,303.9674 92.5813,303.9486 Q92.625,303.9236 92.675,303.9236 Q92.775,303.9236 92.8438,303.9986 Q92.9188,304.0674 92.9188,304.1674 Q92.9188,304.2674 92.8188,304.3799 Q92.675,304.5424 92.45,304.6361 Q92.15,304.7611 91.7875,304.7611 Q91.3563,304.7611 91.0188,304.5861 Q90.7375,304.4486 90.5438,304.1424 Q90.35,303.8361 90.35,303.4799 L90.35,303.1549 Q90.35,302.7799 90.525,302.4549 Q90.7,302.1299 91.0063,301.9549 Q91.3188,301.7799 91.6625,301.7799 Q91.875,301.7799 92.0563,301.8299 Q92.2375,301.8736 92.3938,301.9736 Z " fill="#000000"/><text fill="#262626" font-family="Noto Sans" font-size="4.4" lengthAdjust="spacing" textLength="10.8" x="101" y="304.7996">Song</text></g><!--class Episode--><g id="elem_Episode"><rect codeLine="63" fill="url(#g1w93wbklady2e0)" height="17.9928" id="Episode" style="stroke:#C6C6C6;stroke-width:0.4000000000000001;" width="36.4" x="131" y="294.096"/><rect fill="url(#g1w93wbklady2e0)" height="17.9928" style="stroke:#C6C6C6;stroke-width:0.4000000000000001;" width="36.4" x="131" y="294.096"/><ellipse cx="136.6" cy="303.0924" fill="#ADD1B2" rx="4" ry="4" style="stroke:#181818;stroke-width:0.4000000000000001;"/><path d="M137.1938,301.9736 Q137.2375,301.9111 137.2875,301.8799 Q137.3438,301.8486 137.4063,301.8486 Q137.5125,301.8486 137.575,301.9236 Q137.6438,301.9986 137.6438,302.1674 L137.6438,302.5799 Q137.6438,302.7486 137.575,302.8236 Q137.5125,302.8986 137.4063,302.8986 Q137.3063,302.8986 137.25,302.8424 Q137.1938,302.7924 137.1625,302.6424 Q137.15,302.5424 137.1,302.4924 Q137,302.3861 136.825,302.3236 Q136.6563,302.2611 136.4813,302.2611 Q136.2688,302.2611 136.0875,302.3549 Q135.9063,302.4486 135.7688,302.6611 Q135.6313,302.8674 135.6313,303.1611 L135.6313,303.4736 Q135.6313,303.8174 135.8813,304.0486 Q136.1375,304.2799 136.5813,304.2799 Q136.85,304.2799 137.0375,304.2111 Q137.1438,304.1674 137.2625,304.0424 Q137.3375,303.9674 137.3813,303.9486 Q137.425,303.9236 137.475,303.9236 Q137.575,303.9236 137.6438,303.9986 Q137.7188,304.0674 137.7188,304.1674 Q137.7188,304.2674 137.6188,304.3799 Q137.475,304.5424 137.25,304.6361 Q136.95,304.7611 136.5875,304.7611 Q136.1563,304.7611 135.8188,304.5861 Q135.5375,304.4486 135.3438,304.1424 Q135.15,303.8361 135.15,303.4799 L135.15,303.1549 Q135.15,302.7799 135.325,302.4549 Q135.5,302.1299 135.8063,301.9549 Q136.1188,301.7799 136.4625,301.7799 Q136.675,301.7799 136.8563,301.8299 Q137.0375,301.8736 137.1938,301.9736 Z " fill="#000000"/><text fill="#262626" font-family="Noto Sans" font-size="4.4" lengthAdjust="spacing" textLength="16.4" x="145.8" y="304.7996">Episode</text></g><!--class JBCollection--><g id="elem_JBCollection"><rect codeLine="70" fill="url(#g1w93wbklady2e0)" height="17.9928" id="JBCollection" style="stroke:#C6C6C6;stroke-width:0.4000000000000001;" width="42.8" x="243.4" y="199.296"/><rect fill="url(#g1w93wbklady2e0)" height="17.9928" style="stroke:#C6C6C6;stroke-width:0.4000000000000001;" width="42.8" x="243.4" y="199.296"/><ellipse cx="249" cy="208.2924" fill="#A9DCDF" rx="4" ry="4" style="stroke:#181818;stroke-width:0.4000000000000001;"/><path d="M249.625,209.1174 L248.4625,209.1174 L248.3438,209.4111 L248.4625,209.4111 Q248.6313,209.4111 248.7063,209.4799 Q248.7813,209.5424 248.7813,209.6549 Q248.7813,209.7611 248.7063,209.8299 Q248.6313,209.8924 248.4625,209.8924 L247.8125,209.8924 Q247.6375,209.8924 247.5688,209.8299 Q247.4938,209.7611 247.4938,209.6486 Q247.4938,209.5424 247.575,209.4736 Q247.65,209.4049 247.825,209.4111 L248.5813,207.5299 L248.2688,207.5299 Q248.0938,207.5299 248.0188,207.4674 Q247.9438,207.3986 247.9438,207.2924 Q247.9438,207.1799 248.0188,207.1174 Q248.0938,207.0486 248.2688,207.0486 L249.3063,207.0486 L250.2625,209.4111 Q250.4313,209.4111 250.4813,209.4486 Q250.5938,209.5236 250.5938,209.6549 Q250.5938,209.7611 250.5188,209.8299 Q250.4438,209.8924 250.275,209.8924 L249.625,209.8924 Q249.45,209.8924 249.375,209.8299 Q249.3063,209.7611 249.3063,209.6486 Q249.3063,209.5424 249.375,209.4799 Q249.45,209.4111 249.625,209.4111 L249.7438,209.4111 L249.625,209.1174 Z M249.4313,208.6361 L249.0438,207.6861 L248.65,208.6361 L249.4313,208.6361 Z " fill="#000000"/><text fill="#262626" font-family="Noto Sans" font-size="4.4" font-style="italic" lengthAdjust="spacing" textLength="22.8" x="258.2" y="209.9996">JBCollection</text></g><!--class Album--><g id="elem_Album"><rect codeLine="83" fill="url(#g1w93wbklady2e0)" height="17.9928" id="Album" style="stroke:#C6C6C6;stroke-width:0.4000000000000001;" width="33.6" x="199.6" y="245.696"/><rect fill="url(#g1w93wbklady2e0)" height="17.9928" style="stroke:#C6C6C6;stroke-width:0.4000000000000001;" width="33.6" x="199.6" y="245.696"/><ellipse cx="205.2" cy="254.6924" fill="#ADD1B2" rx="4" ry="4" style="stroke:#181818;stroke-width:0.4000000000000001;"/><path d="M205.7938,253.5736 Q205.8375,253.5111 205.8875,253.4799 Q205.9438,253.4486 206.0063,253.4486 Q206.1125,253.4486 206.175,253.5236 Q206.2438,253.5986 206.2438,253.7674 L206.2438,254.1799 Q206.2438,254.3486 206.175,254.4236 Q206.1125,254.4986 206.0063,254.4986 Q205.9063,254.4986 205.85,254.4424 Q205.7938,254.3924 205.7625,254.2424 Q205.75,254.1424 205.7,254.0924 Q205.6,253.9861 205.425,253.9236 Q205.2563,253.8611 205.0813,253.8611 Q204.8688,253.8611 204.6875,253.9549 Q204.5063,254.0486 204.3688,254.2611 Q204.2313,254.4674 204.2313,254.7611 L204.2313,255.0736 Q204.2313,255.4174 204.4813,255.6486 Q204.7375,255.8799 205.1813,255.8799 Q205.45,255.8799 205.6375,255.8111 Q205.7438,255.7674 205.8625,255.6424 Q205.9375,255.5674 205.9813,255.5486 Q206.025,255.5236 206.075,255.5236 Q206.175,255.5236 206.2438,255.5986 Q206.3188,255.6674 206.3188,255.7674 Q206.3188,255.8674 206.2188,255.9799 Q206.075,256.1424 205.85,256.2361 Q205.55,256.3611 205.1875,256.3611 Q204.7563,256.3611 204.4188,256.1861 Q204.1375,256.0486 203.9438,255.7424 Q203.75,255.4361 203.75,255.0799 L203.75,254.7549 Q203.75,254.3799 203.925,254.0549 Q204.1,253.7299 204.4063,253.5549 Q204.7188,253.3799 205.0625,253.3799 Q205.275,253.3799 205.4563,253.4299 Q205.6375,253.4736 205.7938,253.5736 Z " fill="#000000"/><text fill="#262626" font-family="Noto Sans" font-size="4.4" lengthAdjust="spacing" textLength="13.6" x="214.4" y="256.3996">Album</text></g><!--class Playlist--><g id="elem_Playlist"><rect codeLine="92" fill="url(#g1w93wbklady2e0)" height="17.9928" id="Playlist" style="stroke:#C6C6C6;stroke-width:0.4000000000000001;" width="34.8" x="247.4" y="245.696"/><rect fill="url(#g1w93wbklady2e0)" height="17.9928" style="stroke:#C6C6C6;stroke-width:0.4000000000000001;" width="34.8" x="247.4" y="245.696"/><ellipse cx="253" cy="254.6924" fill="#ADD1B2" rx="4" ry="4" style="stroke:#181818;stroke-width:0.4000000000000001;"/><path d="M253.5938,253.5736 Q253.6375,253.5111 253.6875,253.4799 Q253.7438,253.4486 253.8063,253.4486 Q253.9125,253.4486 253.975,253.5236 Q254.0438,253.5986 254.0438,253.7674 L254.0438,254.1799 Q254.0438,254.3486 253.975,254.4236 Q253.9125,254.4986 253.8063,254.4986 Q253.7063,254.4986 253.65,254.4424 Q253.5938,254.3924 253.5625,254.2424 Q253.55,254.1424 253.5,254.0924 Q253.4,253.9861 253.225,253.9236 Q253.0563,253.8611 252.8813,253.8611 Q252.6688,253.8611 252.4875,253.9549 Q252.3063,254.0486 252.1688,254.2611 Q252.0313,254.4674 252.0313,254.7611 L252.0313,255.0736 Q252.0313,255.4174 252.2813,255.6486 Q252.5375,255.8799 252.9813,255.8799 Q253.25,255.8799 253.4375,255.8111 Q253.5438,255.7674 253.6625,255.6424 Q253.7375,255.5674 253.7813,255.5486 Q253.825,255.5236 253.875,255.5236 Q253.975,255.5236 254.0438,255.5986 Q254.1188,255.6674 254.1188,255.7674 Q254.1188,255.8674 254.0188,255.9799 Q253.875,256.1424 253.65,256.2361 Q253.35,256.3611 252.9875,256.3611 Q252.5563,256.3611 252.2188,256.1861 Q251.9375,256.0486 251.7438,255.7424 Q251.55,255.4361 251.55,255.0799 L251.55,254.7549 Q251.55,254.3799 251.725,254.0549 Q251.9,253.7299 252.2063,253.5549 Q252.5188,253.3799 252.8625,253.3799 Q253.075,253.3799 253.2563,253.4299 Q253.4375,253.4736 253.5938,253.5736 Z " fill="#000000"/><text fill="#262626" font-family="Noto Sans" font-size="4.4" lengthAdjust="spacing" textLength="14.8" x="262.2" y="256.3996">Playlist</text></g><!--class Podcast--><g id="elem_Podcast"><rect codeLine="102" fill="url(#g1w93wbklady2e0)" height="17.9928" id="Podcast" style="stroke:#C6C6C6;stroke-width:0.4000000000000001;" width="36.4" x="296.2" y="245.696"/><rect fill="url(#g1w93wbklady2e0)" height="17.9928" style="stroke:#C6C6C6;stroke-width:0.4000000000000001;" width="36.4" x="296.2" y="245.696"/><ellipse cx="301.8" cy="254.6924" fill="#ADD1B2" rx="4" ry="4" style="stroke:#181818;stroke-width:0.4000000000000001;"/><path d="M302.3938,253.5736 Q302.4375,253.5111 302.4875,253.4799 Q302.5438,253.4486 302.6063,253.4486 Q302.7125,253.4486 302.775,253.5236 Q302.8438,253.5986 302.8438,253.7674 L302.8438,254.1799 Q302.8438,254.3486 302.775,254.4236 Q302.7125,254.4986 302.6063,254.4986 Q302.5063,254.4986 302.45,254.4424 Q302.3938,254.3924 302.3625,254.2424 Q302.35,254.1424 302.3,254.0924 Q302.2,253.9861 302.025,253.9236 Q301.8563,253.8611 301.6813,253.8611 Q301.4688,253.8611 301.2875,253.9549 Q301.1063,254.0486 300.9688,254.2611 Q300.8313,254.4674 300.8313,254.7611 L300.8313,255.0736 Q300.8313,255.4174 301.0813,255.6486 Q301.3375,255.8799 301.7813,255.8799 Q302.05,255.8799 302.2375,255.8111 Q302.3438,255.7674 302.4625,255.6424 Q302.5375,255.5674 302.5813,255.5486 Q302.625,255.5236 302.675,255.5236 Q302.775,255.5236 302.8438,255.5986 Q302.9188,255.6674 302.9188,255.7674 Q302.9188,255.8674 302.8188,255.9799 Q302.675,256.1424 302.45,256.2361 Q302.15,256.3611 301.7875,256.3611 Q301.3563,256.3611 301.0188,256.1861 Q300.7375,256.0486 300.5438,255.7424 Q300.35,255.4361 300.35,255.0799 L300.35,254.7549 Q300.35,254.3799 300.525,254.0549 Q300.7,253.7299 301.0063,253.5549 Q301.3188,253.3799 301.6625,253.3799 Q301.875,253.3799 302.0563,253.4299 Q302.2375,253.4736 302.3938,253.5736 Z " fill="#000000"/><text fill="#262626" font-family="Noto Sans" font-size="4.4" lengthAdjust="spacing" textLength="16.4" x="311" y="256.3996">Podcast</text></g><!--class JBProfile--><g id="elem_JBProfile"><rect codeLine="114" fill="url(#g1w93wbklady2e0)" height="17.9928" id="JBProfile" style="stroke:#C6C6C6;stroke-width:0.4000000000000001;" width="36.4" x="355.4" y="199.296"/><rect fill="url(#g1w93wbklady2e0)" height="17.9928" style="stroke:#C6C6C6;stroke-width:0.4000000000000001;" width="36.4" x="355.4" y="199.296"/><ellipse cx="361" cy="208.2924" fill="#A9DCDF" rx="4" ry="4" style="stroke:#181818;stroke-width:0.4000000000000001;"/><path d="M361.625,209.1174 L360.4625,209.1174 L360.3438,209.4111 L360.4625,209.4111 Q360.6313,209.4111 360.7063,209.4799 Q360.7813,209.5424 360.7813,209.6549 Q360.7813,209.7611 360.7063,209.8299 Q360.6313,209.8924 360.4625,209.8924 L359.8125,209.8924 Q359.6375,209.8924 359.5688,209.8299 Q359.4938,209.7611 359.4938,209.6486 Q359.4938,209.5424 359.575,209.4736 Q359.65,209.4049 359.825,209.4111 L360.5813,207.5299 L360.2688,207.5299 Q360.0938,207.5299 360.0188,207.4674 Q359.9438,207.3986 359.9438,207.2924 Q359.9438,207.1799 360.0188,207.1174 Q360.0938,207.0486 360.2688,207.0486 L361.3063,207.0486 L362.2625,209.4111 Q362.4313,209.4111 362.4813,209.4486 Q362.5938,209.5236 362.5938,209.6549 Q362.5938,209.7611 362.5188,209.8299 Q362.4438,209.8924 362.275,209.8924 L361.625,209.8924 Q361.45,209.8924 361.375,209.8299 Q361.3063,209.7611 361.3063,209.6486 Q361.3063,209.5424 361.375,209.4799 Q361.45,209.4111 361.625,209.4111 L361.7438,209.4111 L361.625,209.1174 Z M361.4313,208.6361 L361.0438,207.6861 L360.65,208.6361 L361.4313,208.6361 Z " fill="#000000"/><text fill="#262626" font-family="Noto Sans" font-size="4.4" font-style="italic" lengthAdjust="spacing" textLength="16.4" x="370.2" y="209.9996">JBProfile</text></g><!--class User--><g id="elem_User"><rect codeLine="126" fill="url(#g1w93wbklady2e0)" height="17.9928" id="User" style="stroke:#C6C6C6;stroke-width:0.4000000000000001;" width="29.6" x="355.2" y="245.696"/><rect fill="url(#g1w93wbklady2e0)" height="17.9928" style="stroke:#C6C6C6;stroke-width:0.4000000000000001;" width="29.6" x="355.2" y="245.696"/><ellipse cx="360.8" cy="254.6924" fill="#ADD1B2" rx="4" ry="4" style="stroke:#181818;stroke-width:0.4000000000000001;"/><path d="M361.3938,253.5736 Q361.4375,253.5111 361.4875,253.4799 Q361.5438,253.4486 361.6063,253.4486 Q361.7125,253.4486 361.775,253.5236 Q361.8438,253.5986 361.8438,253.7674 L361.8438,254.1799 Q361.8438,254.3486 361.775,254.4236 Q361.7125,254.4986 361.6063,254.4986 Q361.5063,254.4986 361.45,254.4424 Q361.3938,254.3924 361.3625,254.2424 Q361.35,254.1424 361.3,254.0924 Q361.2,253.9861 361.025,253.9236 Q360.8563,253.8611 360.6813,253.8611 Q360.4688,253.8611 360.2875,253.9549 Q360.1063,254.0486 359.9688,254.2611 Q359.8313,254.4674 359.8313,254.7611 L359.8313,255.0736 Q359.8313,255.4174 360.0813,255.6486 Q360.3375,255.8799 360.7813,255.8799 Q361.05,255.8799 361.2375,255.8111 Q361.3438,255.7674 361.4625,255.6424 Q361.5375,255.5674 361.5813,255.5486 Q361.625,255.5236 361.675,255.5236 Q361.775,255.5236 361.8438,255.5986 Q361.9188,255.6674 361.9188,255.7674 Q361.9188,255.8674 361.8188,255.9799 Q361.675,256.1424 361.45,256.2361 Q361.15,256.3611 360.7875,256.3611 Q360.3563,256.3611 360.0188,256.1861 Q359.7375,256.0486 359.5438,255.7424 Q359.35,255.4361 359.35,255.0799 L359.35,254.7549 Q359.35,254.3799 359.525,254.0549 Q359.7,253.7299 360.0063,253.5549 Q360.3188,253.3799 360.6625,253.3799 Q360.875,253.3799 361.0563,253.4299 Q361.2375,253.4736 361.3938,253.5736 Z " fill="#000000"/><text fill="#262626" font-family="Noto Sans" font-size="4.4" lengthAdjust="spacing" textLength="9.6" x="370" y="256.3996">User</text></g><!--class Artist--><g id="elem_Artist"><rect codeLine="136" fill="url(#g1w93wbklady2e0)" height="17.9928" id="Artist" style="stroke:#C6C6C6;stroke-width:0.4000000000000001;" width="31.2" x="398.8" y="245.696"/><rect fill="url(#g1w93wbklady2e0)" height="17.9928" style="stroke:#C6C6C6;stroke-width:0.4000000000000001;" width="31.2" x="398.8" y="245.696"/><ellipse cx="404.4" cy="254.6924" fill="#ADD1B2" rx="4" ry="4" style="stroke:#181818;stroke-width:0.4000000000000001;"/><path d="M404.9938,253.5736 Q405.0375,253.5111 405.0875,253.4799 Q405.1438,253.4486 405.2063,253.4486 Q405.3125,253.4486 405.375,253.5236 Q405.4438,253.5986 405.4438,253.7674 L405.4438,254.1799 Q405.4438,254.3486 405.375,254.4236 Q405.3125,254.4986 405.2063,254.4986 Q405.1063,254.4986 405.05,254.4424 Q404.9938,254.3924 404.9625,254.2424 Q404.95,254.1424 404.9,254.0924 Q404.8,253.9861 404.625,253.9236 Q404.4563,253.8611 404.2813,253.8611 Q404.0688,253.8611 403.8875,253.9549 Q403.7063,254.0486 403.5688,254.2611 Q403.4313,254.4674 403.4313,254.7611 L403.4313,255.0736 Q403.4313,255.4174 403.6813,255.6486 Q403.9375,255.8799 404.3813,255.8799 Q404.65,255.8799 404.8375,255.8111 Q404.9438,255.7674 405.0625,255.6424 Q405.1375,255.5674 405.1813,255.5486 Q405.225,255.5236 405.275,255.5236 Q405.375,255.5236 405.4438,255.5986 Q405.5188,255.6674 405.5188,255.7674 Q405.5188,255.8674 405.4188,255.9799 Q405.275,256.1424 405.05,256.2361 Q404.75,256.3611 404.3875,256.3611 Q403.9563,256.3611 403.6188,256.1861 Q403.3375,256.0486 403.1438,255.7424 Q402.95,255.4361 402.95,255.0799 L402.95,254.7549 Q402.95,254.3799 403.125,254.0549 Q403.3,253.7299 403.6063,253.5549 Q403.9188,253.3799 404.2625,253.3799 Q404.475,253.3799 404.6563,253.4299 Q404.8375,253.4736 404.9938,253.5736 Z " fill="#000000"/><text fill="#262626" font-family="Noto Sans" font-size="4.4" lengthAdjust="spacing" textLength="11.2" x="413.6" y="256.3996">Artist</text></g><!--reverse link IJBResearchable to IJBPlayable--><g id="link_IJBResearchable_IJBPlayable"><path d="M246.7757,124.4821 C221.0317,142.7461 167.136,180.984 141.376,199.26 " fill="none" id="IJBResearchable-backto-IJBPlayable" style="stroke:#C6C6C6;stroke-width:0.4000000000000001;"/><polygon fill="none" points="252.648,120.316,245.387,122.5246,248.1644,126.4395,252.648,120.316" style="stroke:#C6C6C6;stroke-width:0.4000000000000001;"/></g><!--reverse link IJBPlayable to JBAudio--><g id="link_IJBPlayable_JBAudio"><path d="M124.4217,224.2638 C121.9337,232.3798 120.344,237.54 117.856,245.644 " fill="none" id="IJBPlayable-backto-JBAudio" style="stroke:#C6C6C6;stroke-width:0.4000000000000001;stroke-dasharray:7.0,7.0;"/><polygon fill="none" points="126.532,217.38,122.1271,223.5604,126.7163,224.9672,126.532,217.38" style="stroke:#C6C6C6;stroke-width:0.4000000000000001;"/></g><!--reverse link JBAudio to Song--><g id="link_JBAudio_Song"><path d="M110.7589,270.6392 C108.3109,279.2112 106.548,285.372 104.092,293.98 " fill="none" id="JBAudio-backto-Song" style="stroke:#C6C6C6;stroke-width:0.4000000000000001;"/><polygon fill="none" points="112.736,263.716,108.4511,269.9802,113.0666,271.2983,112.736,263.716" style="stroke:#C6C6C6;stroke-width:0.4000000000000001;"/></g><!--reverse link JBAudio to Episode--><g id="link_JBAudio_Episode"><path d="M125.5414,269.5745 C131.6654,278.1465 136.828,285.372 142.972,293.98 " fill="none" id="JBAudio-backto-Episode" style="stroke:#C6C6C6;stroke-width:0.4000000000000001;"/><polygon fill="none" points="121.356,263.716,123.5886,270.9696,127.4943,268.1794,121.356,263.716" style="stroke:#C6C6C6;stroke-width:0.4000000000000001;"/></g><!--reverse link IJBResearchable to JBCollection--><g id="link_IJBResearchable_JBCollection"><path d="M264.8,127.604 C264.8,145.92 264.8,181.04 264.8,199.28 " fill="none" id="IJBResearchable-backto-JBCollection" style="stroke:#C6C6C6;stroke-width:0.4000000000000001;stroke-dasharray:7.0,7.0;"/><polygon fill="none" points="264.8,120.404,262.4,127.604,267.2,127.604,264.8,120.404" style="stroke:#C6C6C6;stroke-width:0.4000000000000001;"/></g><!--reverse link JBCollection to Album--><g id="link_JBCollection_Album"><path d="M238.6316,221.2348 C230.2796,228.2988 225.152,238.152 220.928,245.592 " fill="none" id="JBCollection-backto-Album" style="stroke:#C6C6C6;stroke-width:0.4000000000000001;"/><polygon fill="none" points="244.7,217.36,237.34,219.212,239.9232,223.2576,244.7,217.36" style="stroke:#C6C6C6;stroke-width:0.4000000000000001;"/></g><!--reverse link JBCollection to Playlist--><g id="link_JBCollection_Playlist"><path d="M264.8,224.58 C264.8,232.696 264.8,237.54 264.8,245.644 " fill="none" id="JBCollection-backto-Playlist" style="stroke:#C6C6C6;stroke-width:0.4000000000000001;"/><polygon fill="none" points="264.8,217.38,262.4,224.58,267.2,224.58,264.8,217.38" style="stroke:#C6C6C6;stroke-width:0.4000000000000001;"/></g><!--reverse link JBCollection to Podcast--><g id="link_JBCollection_Podcast"><path d="M290.8536,221.132 C299.4336,228.216 305.056,238.168 309.548,245.6 " fill="none" id="JBCollection-backto-Podcast" style="stroke:#C6C6C6;stroke-width:0.4000000000000001;"/><polygon fill="none" points="284.748,217.316,289.5816,223.1672,292.1256,219.0968,284.748,217.316" style="stroke:#C6C6C6;stroke-width:0.4000000000000001;"/></g><!--reverse link IJBResearchable to JBProfile--><g id="link_IJBResearchable_JBProfile"><path d="M281.2302,124.8369 C295.9142,136.6489 317.236,154.148 339.2,174.096 C348.312,182.372 358.3,192.288 365.156,199.232 " fill="none" id="IJBResearchable-backto-JBProfile" style="stroke:#C6C6C6;stroke-width:0.4000000000000001;stroke-dasharray:7.0,7.0;"/><polygon fill="none" points="275.62,120.324,279.7259,126.7069,282.7345,122.9668,275.62,120.324" style="stroke:#C6C6C6;stroke-width:0.4000000000000001;"/></g><!--reverse link JBProfile to User--><g id="link_JBProfile_User"><path d="M372.3465,224.5574 C371.7025,232.6734 371.324,237.54 370.684,245.644 " fill="none" id="JBProfile-backto-User" style="stroke:#C6C6C6;stroke-width:0.4000000000000001;"/><polygon fill="none" points="372.916,217.38,369.954,224.3676,374.739,224.7473,372.916,217.38" style="stroke:#C6C6C6;stroke-width:0.4000000000000001;"/></g><!--reverse link JBProfile to Artist--><g id="link_JBProfile_Artist"><path d="M394.0139,221.6796 C401.5859,229.1396 406.004,238.376 410.008,245.668 " fill="none" id="JBProfile-backto-Artist" style="stroke:#C6C6C6;stroke-width:0.4000000000000001;"/><polygon fill="none" points="388.296,217.304,392.5554,223.5855,395.4724,219.7736,388.296,217.304" style="stroke:#C6C6C6;stroke-width:0.4000000000000001;"/></g><!--reverse link JBAudio to MetaData--><g id="link_JBAudio_MetaData"><path codeLine="160" d="M98.6435,267.566 C89.7835,274.238 82.416,279.788 71.928,287.688 " fill="none" id="JBAudio-backto-MetaData" style="stroke:#C6C6C6;stroke-width:0.4000000000000001;"/><ellipse cx="101.1997" cy="265.641" fill="none" rx="3.2" ry="3.2" style="stroke:#C6C6C6;stroke-width:0.4000000000000001;"/><line style="stroke:#C6C6C6;stroke-width:0.4000000000000001;" x1="98.6435" x2="103.756" y1="267.566" y2="263.716"/><line style="stroke:#C6C6C6;stroke-width:0.4000000000000001;" x1="99.2748" x2="103.1247" y1="263.0847" y2="268.1972"/></g><!--SRC=[pLVVZzeu47xFNs5KwGJjqlPUjnG95hO7OdVHmbQjgdjmaW6iEZ6odRPqnV_USPmVpX9IjDVhDYznncDxvfkPpvEMta049A3I5t5tBUdEypJJ70Zf1O8BURwMiEjFwHSw1AeLwPAHY2YBoOXHL8zwhrArlkUrj4o0l2L_UwqLvSeCNtijjH5Vhq5f21KAZ8gLNOXeAnJJJCHc8brXPmPQI-Od6Xx8hq1lH5WAlIqDFjCra4Y4mEyzWW-BDSWL3O1CfiDRK41biA4-1pkzzz8Nn4b4njFnzNAo_6XdpFE2B6wktpcVu_baSJCQEvBvRF1nDbai7T5WDhoxSbLkHXU3YiRTOdphBhXTvZjazkIER3dTMMCBzOf3ysoUm3SDCKAHUlworjNyQR4LQJlmTIgprY9pxkM7TdMgXIUmLI7QbpRbvj8aPCAnrJpKLrhIG9E0KwN8T3WmIeH5Muvv5klSvjpLbuvRzmUc5SQNEN5eltcwX8NatA1rR5fTqYz2CWsevWl1WSP7L2FGDAIQek9LDZoYcG9moRZPSyY5V-piM1FCE1_apMgX9T18DTZw30q86JMWW4njABuEyQd6wFIOsxYlGMDsgNQ7_4LKFZxbaFs1aWstmMjaeElrIFlwZ3mRZSR3yUiEiGn0-droNslBoO7EW9UQAOtW3D91WwRbidE2kBDutQ28BCOXC7I4sjFXHV7Pi2PC9CrMX2B136xGbO0ffm3HCUQOLuFo6c89gZ3xqx_reDL7Vr-jI1kPXOZN1MraLNdl_NJPUCiKrklFLbP73rYjHDRXYWEUA04_98lJ2AufTHhueKjY6ZMa2AO6bgmMCisBkHGhLXFeBjcoG2UobWfg0dKABQk0SfZRRTkAVGVhGGTVamYHzHvJqSTftKPYm7sy7CjuNpZHUmJi9iYVPtcnOdjXnhqiZVg_0gN_xh8XLsvCV0gly-lfFLFCvyxjzEOF0KU40NqYR7wVqtNDcAtq9ixAoE3_8Qn4WJJCT4QmtUPdQ9TINuKCpuYLgYIRzfd0HdoxsJLncE6atANvSQQoogOO8CQD_i61aBjJitYLjLZcvigBwi_8uZi4qqdXUHxRnrmaJgaEZpIIcEL2KpxBSLooz8QfQHAU317REVqYJ1nlqPAQY_OtkxdtS50SuFvgcjNsYdlUxURj3CgAE-21E6E_ghIi_2QvKm6LziQkAHk9ecas4qL3Mv5M-j7CvTA_xFUwanva_xTUuA9yXsB1XfbEBjhg7LanuA5o9P6DWlS3]--></g></svg>