<?xml version="1.0" encoding="us-ascii" standalone="no"?><svg xmlns="http://www.w3.org/2000/svg" xmlns:xlink="http://www.w3.org/1999/xlink" contentStyleType="text/css" height="1210px" preserveAspectRatio="none" style="width:1958px;height:1210px;" version="1.1" viewBox="0 0 1958 1210" width="1958px" zoomAndPan="magnify"><defs><linearGradient id="g1k7p42yymk4ww0" x1="50%" x2="50%" y1="0%" y2="100%"><stop offset="0%" stop-color="#F4F4F4"/><stop offset="100%" stop-color="#F4F4F4"/></linearGradient></defs><g><text fill="#808080" font-family="Noto Sans" font-size="20" font-weight="bold" lengthAdjust="spacing" textLength="251" x="846.5" y="41.38">JavaBeats - DAO Diagram</text><!--cluster DAO--><g id="cluster_DAO"><polygon fill="#FFFFFF" points="16,74.24,69,74.24,76,116.5841,1941,116.5841,1941,1203.24,16,1203.24,16,74.24" style="stroke:#C6C6C6;stroke-width:1.0;"/><line style="stroke:#C6C6C6;stroke-width:1.0;" x1="16" x2="76" y1="116.5841" y2="116.5841"/><text fill="#262626" font-family="Noto Sans" font-size="12" font-weight="bold" lengthAdjust="spacing" textLength="27" x="30" y="99.0681">DAO</text></g><!--cluster profile--><g id="cluster_profile"><polygon fill="#FFFFFF" points="1533,224.74,1599,224.74,1606,267.0841,1917,267.0841,1917,1144.24,1533,1144.24,1533,224.74" style="stroke:#C6C6C6;stroke-width:1.0;"/><line style="stroke:#C6C6C6;stroke-width:1.0;" x1="1533" x2="1606" y1="267.0841" y2="267.0841"/><text fill="#262626" font-family="Noto Sans" font-size="12" font-weight="bold" lengthAdjust="spacing" textLength="40" x="1547" y="249.5681">profile</text></g><!--cluster playable--><g id="cluster_playable"><polygon fill="#FFFFFF" points="1023,137.24,1101,137.24,1108,179.5841,1509,179.5841,1509,1091.74,1023,1091.74,1023,137.24" style="stroke:#C6C6C6;stroke-width:1.0;"/><line style="stroke:#C6C6C6;stroke-width:1.0;" x1="1023" x2="1108" y1="179.5841" y2="179.5841"/><text fill="#262626" font-family="Noto Sans" font-size="12" font-weight="bold" lengthAdjust="spacing" textLength="52" x="1037" y="162.0681">playable</text></g><!--cluster collection--><g id="cluster_collection"><polygon fill="#FFFFFF" points="573,137.24,657,137.24,664,179.5841,999,179.5841,999,1179.24,573,1179.24,573,137.24" style="stroke:#C6C6C6;stroke-width:1.0;"/><line style="stroke:#C6C6C6;stroke-width:1.0;" x1="573" x2="664" y1="179.5841" y2="179.5841"/><text fill="#262626" font-family="Noto Sans" font-size="12" font-weight="bold" lengthAdjust="spacing" textLength="58" x="587" y="162.0681">collection</text></g><!--class ISearchDAO--><g id="elem_ISearchDAO"><rect codeLine="11" fill="url(#g1k7p42yymk4ww0)" height="122.9457" id="ISearchDAO" style="stroke:#C6C6C6;stroke-width:1.0;" width="522" x="32" y="349.74"/><rect fill="url(#g1k7p42yymk4ww0)" height="44.9819" style="stroke:#C6C6C6;stroke-width:1.0;" width="522" x="32" y="349.74"/><ellipse cx="250.5" cy="372.2309" fill="#B4A7E5" rx="10" ry="10" style="stroke:#181818;stroke-width:1.0;"/><path d="M251.7031,370.3247 L251.7031,375.0278 L252.9219,375.0278 Q253.3438,375.0278 253.5313,375.1997 Q253.7188,375.3559 253.7188,375.6372 Q253.7188,375.9028 253.5313,376.0747 Q253.3438,376.2309 252.9219,376.2309 L249.2813,376.2309 Q248.8594,376.2309 248.6719,376.0747 Q248.4844,375.9028 248.4844,375.6215 Q248.4844,375.3559 248.6719,375.1997 Q248.8594,375.0278 249.2813,375.0278 L250.5,375.0278 L250.5,370.3247 L249.2813,370.3247 Q248.8594,370.3247 248.6719,370.1684 Q248.4844,369.9965 248.4844,369.7309 Q248.4844,369.4497 248.6719,369.2934 Q248.8594,369.1215 249.2813,369.1215 L252.9219,369.1215 Q253.3438,369.1215 253.5313,369.2934 Q253.7188,369.4497 253.7188,369.7309 Q253.7188,369.9965 253.5313,370.1684 Q253.3438,370.3247 252.9219,370.3247 L251.7031,370.3247 Z " fill="#000000"/><text fill="#262626" font-family="Noto Sans" font-size="11" font-style="italic" lengthAdjust="spacing" textLength="57" x="279.5" y="376.4989">ISearchDAO</text><line style="stroke:#C6C6C6;stroke-width:1.0;" x1="33" x2="553" y1="394.7219" y2="394.7219"/><ellipse cx="43" cy="417.7128" fill="#84BE84" rx="3" ry="3" style="stroke:#038048;stroke-width:1.0;"/><text fill="#262626" font-family="Noto Sans" font-size="11" lengthAdjust="spacing" textLength="380" x="61" y="420.4808">search(field : String, activeProfile : JBProfile) : ArrayList&lt;IJBResearchable&gt;</text><ellipse cx="43" cy="452.6947" fill="#84BE84" rx="3" ry="3" style="stroke:#038048;stroke-width:1.0;"/><text fill="#262626" font-family="Noto Sans" font-size="11" lengthAdjust="spacing" textLength="477" x="61" y="455.4627">search(field : String, activeProfile : JBProfile, mode : EJBENTITY) : ArrayList&lt;IJBResearchable&gt;</text></g><!--class SearchDAO--><g id="elem_SearchDAO"><rect codeLine="15" fill="url(#g1k7p42yymk4ww0)" height="297.8551" id="SearchDAO" style="stroke:#C6C6C6;stroke-width:1.0;" width="429" x="78.5" y="777.74"/><rect fill="url(#g1k7p42yymk4ww0)" height="44.9819" style="stroke:#C6C6C6;stroke-width:1.0;" width="429" x="78.5" y="777.74"/><ellipse cx="249.5" cy="800.2309" fill="#ADD1B2" rx="10" ry="10" style="stroke:#181818;stroke-width:1.0;"/><path d="M250.9844,797.434 Q251.0938,797.2778 251.2188,797.1997 Q251.3594,797.1215 251.5156,797.1215 Q251.7813,797.1215 251.9375,797.309 Q252.1094,797.4965 252.1094,797.9184 L252.1094,798.9497 Q252.1094,799.3715 251.9375,799.559 Q251.7813,799.7465 251.5156,799.7465 Q251.2656,799.7465 251.125,799.6059 Q250.9844,799.4809 250.9063,799.1059 Q250.875,798.8559 250.75,798.7309 Q250.5,798.4653 250.0625,798.309 Q249.6406,798.1528 249.2031,798.1528 Q248.6719,798.1528 248.2188,798.3872 Q247.7656,798.6215 247.4219,799.1528 Q247.0781,799.6684 247.0781,800.4028 L247.0781,801.184 Q247.0781,802.0434 247.7031,802.6215 Q248.3438,803.1997 249.4531,803.1997 Q250.125,803.1997 250.5938,803.0278 Q250.8594,802.9184 251.1563,802.6059 Q251.3438,802.4184 251.4531,802.3715 Q251.5625,802.309 251.6875,802.309 Q251.9375,802.309 252.1094,802.4965 Q252.2969,802.6684 252.2969,802.9184 Q252.2969,803.1684 252.0469,803.4497 Q251.6875,803.8559 251.125,804.0903 Q250.375,804.4028 249.4688,804.4028 Q248.3906,804.4028 247.5469,803.9653 Q246.8438,803.6215 246.3594,802.8559 Q245.875,802.0903 245.875,801.1997 L245.875,800.3872 Q245.875,799.4497 246.3125,798.6372 Q246.75,797.8247 247.5156,797.3872 Q248.2969,796.9497 249.1563,796.9497 Q249.6875,796.9497 250.1406,797.0747 Q250.5938,797.184 250.9844,797.434 Z " fill="#000000"/><text fill="#262626" font-family="Noto Sans" font-size="11" lengthAdjust="spacing" textLength="59" x="278.5" y="804.4989">SearchDAO</text><line style="stroke:#C6C6C6;stroke-width:1.0;" x1="79.5" x2="506.5" y1="822.7219" y2="822.7219"/><rect fill="#F24D5C" height="6" style="stroke:#C82930;stroke-width:1.0;" width="6" x="86.5" y="842.7128"/><text fill="#262626" font-family="Noto Sans" font-size="11" lengthAdjust="spacing" textLength="225" x="107.5" y="848.4808">searchUsers(field : String) : ArrayList&lt;User&gt;</text><rect fill="#F24D5C" height="6" style="stroke:#C82930;stroke-width:1.0;" width="6" x="86.5" y="877.6947"/><text fill="#262626" font-family="Noto Sans" font-size="11" lengthAdjust="spacing" textLength="233" x="107.5" y="883.4627">searchArtists(field : String) : ArrayList&lt;Artist&gt;</text><rect fill="#F24D5C" height="6" style="stroke:#C82930;stroke-width:1.0;" width="6" x="86.5" y="912.6766"/><text fill="#262626" font-family="Noto Sans" font-size="11" lengthAdjust="spacing" textLength="356" x="107.5" y="918.4446">searchSongs(field : String, activeProfile : JBProfile) : ArrayList&lt;Song&gt;</text><rect fill="#F24D5C" height="6" style="stroke:#C82930;stroke-width:1.0;" width="6" x="86.5" y="947.6585"/><text fill="#262626" font-family="Noto Sans" font-size="11" lengthAdjust="spacing" textLength="384" x="107.5" y="953.4264">searchEpisodes(field : String, activeProfile : JBProfile) : ArrayList&lt;Episode&gt;</text><rect fill="#F24D5C" height="6" style="stroke:#C82930;stroke-width:1.0;" width="6" x="86.5" y="982.6404"/><text fill="#262626" font-family="Noto Sans" font-size="11" lengthAdjust="spacing" textLength="251" x="107.5" y="988.4083">searchPlaylists(field : String) : ArrayList&lt;Playlist&gt;</text><rect fill="#F24D5C" height="6" style="stroke:#C82930;stroke-width:1.0;" width="6" x="86.5" y="1017.6222"/><text fill="#262626" font-family="Noto Sans" font-size="11" lengthAdjust="spacing" textLength="245" x="107.5" y="1023.3902">searchAlbums(field : String) : ArrayList&lt;Album&gt;</text><rect fill="#F24D5C" height="6" style="stroke:#C82930;stroke-width:1.0;" width="6" x="86.5" y="1052.6041"/><text fill="#262626" font-family="Noto Sans" font-size="11" lengthAdjust="spacing" textLength="259" x="107.5" y="1058.3721">searchPodcasts(field : String) : ArrayList&lt;Podcast&gt;</text></g><!--class IProfileDAO--><g id="elem_IProfileDAO"><rect codeLine="28" fill="url(#g1k7p42yymk4ww0)" height="262.8732" id="IProfileDAO" style="stroke:#C6C6C6;stroke-width:1.0;" width="222" x="1614" y="279.74"/><rect fill="url(#g1k7p42yymk4ww0)" height="44.9819" style="stroke:#C6C6C6;stroke-width:1.0;" width="222" x="1614" y="279.74"/><ellipse cx="1683" cy="302.2309" fill="#B4A7E5" rx="10" ry="10" style="stroke:#181818;stroke-width:1.0;"/><path d="M1684.2031,300.3247 L1684.2031,305.0278 L1685.4219,305.0278 Q1685.8438,305.0278 1686.0313,305.1997 Q1686.2188,305.3559 1686.2188,305.6372 Q1686.2188,305.9028 1686.0313,306.0747 Q1685.8438,306.2309 1685.4219,306.2309 L1681.7813,306.2309 Q1681.3594,306.2309 1681.1719,306.0747 Q1680.9844,305.9028 1680.9844,305.6215 Q1680.9844,305.3559 1681.1719,305.1997 Q1681.3594,305.0278 1681.7813,305.0278 L1683,305.0278 L1683,300.3247 L1681.7813,300.3247 Q1681.3594,300.3247 1681.1719,300.1684 Q1680.9844,299.9965 1680.9844,299.7309 Q1680.9844,299.4497 1681.1719,299.2934 Q1681.3594,299.1215 1681.7813,299.1215 L1685.4219,299.1215 Q1685.8438,299.1215 1686.0313,299.2934 Q1686.2188,299.4497 1686.2188,299.7309 Q1686.2188,299.9965 1686.0313,300.1684 Q1685.8438,300.3247 1685.4219,300.3247 L1684.2031,300.3247 Z " fill="#000000"/><text fill="#262626" font-family="Noto Sans" font-size="11" font-style="italic" lengthAdjust="spacing" textLength="56" x="1712" y="306.4989">IProfileDAO</text><line style="stroke:#C6C6C6;stroke-width:1.0;" x1="1615" x2="1835" y1="324.7219" y2="324.7219"/><ellipse cx="1625" cy="347.7128" fill="#84BE84" rx="3" ry="3" style="stroke:#038048;stroke-width:1.0;"/><text fill="#262626" font-family="Noto Sans" font-size="11" lengthAdjust="spacing" textLength="157" x="1643" y="350.4808">insert(profile : JBProfile) : void</text><ellipse cx="1625" cy="382.6947" fill="#84BE84" rx="3" ry="3" style="stroke:#038048;stroke-width:1.0;"/><text fill="#262626" font-family="Noto Sans" font-size="11" lengthAdjust="spacing" textLength="167" x="1643" y="385.4627">remove(profile : JBProfile) : void</text><ellipse cx="1625" cy="417.6766" fill="#84BE84" rx="3" ry="3" style="stroke:#038048;stroke-width:1.0;"/><text fill="#262626" font-family="Noto Sans" font-size="11" lengthAdjust="spacing" textLength="164" x="1643" y="420.4446">update(profile : JBProfile) : void</text><ellipse cx="1625" cy="452.6585" fill="#84BE84" rx="3" ry="3" style="stroke:#038048;stroke-width:1.0;"/><text fill="#262626" font-family="Noto Sans" font-size="11" lengthAdjust="spacing" textLength="166" x="1643" y="455.4264">get(profile : JBProfile) : JBProfile</text><ellipse cx="1625" cy="487.6404" fill="#84BE84" rx="3" ry="3" style="stroke:#038048;stroke-width:1.0;"/><text fill="#262626" font-family="Noto Sans" font-size="11" lengthAdjust="spacing" textLength="177" x="1643" y="490.4083">getArtist(profile : JBProfile) : Artist</text><ellipse cx="1625" cy="522.6222" fill="#84BE84" rx="3" ry="3" style="stroke:#038048;stroke-width:1.0;"/><text fill="#262626" font-family="Noto Sans" font-size="11" lengthAdjust="spacing" textLength="169" x="1643" y="525.3902">getUser(profile : JBProfile) : User</text></g><!--class ProfileDAO--><g id="elem_ProfileDAO"><rect codeLine="36" fill="url(#g1k7p42yymk4ww0)" height="402.8008" id="ProfileDAO" style="stroke:#C6C6C6;stroke-width:1.0;" width="352" x="1549" y="725.24"/><rect fill="url(#g1k7p42yymk4ww0)" height="44.9819" style="stroke:#C6C6C6;stroke-width:1.0;" width="352" x="1549" y="725.24"/><ellipse cx="1681.5" cy="747.7309" fill="#ADD1B2" rx="10" ry="10" style="stroke:#181818;stroke-width:1.0;"/><path d="M1682.9844,744.934 Q1683.0938,744.7778 1683.2188,744.6997 Q1683.3594,744.6215 1683.5156,744.6215 Q1683.7813,744.6215 1683.9375,744.809 Q1684.1094,744.9965 1684.1094,745.4184 L1684.1094,746.4497 Q1684.1094,746.8715 1683.9375,747.059 Q1683.7813,747.2465 1683.5156,747.2465 Q1683.2656,747.2465 1683.125,747.1059 Q1682.9844,746.9809 1682.9063,746.6059 Q1682.875,746.3559 1682.75,746.2309 Q1682.5,745.9653 1682.0625,745.809 Q1681.6406,745.6528 1681.2031,745.6528 Q1680.6719,745.6528 1680.2188,745.8872 Q1679.7656,746.1215 1679.4219,746.6528 Q1679.0781,747.1684 1679.0781,747.9028 L1679.0781,748.684 Q1679.0781,749.5434 1679.7031,750.1215 Q1680.3438,750.6997 1681.4531,750.6997 Q1682.125,750.6997 1682.5938,750.5278 Q1682.8594,750.4184 1683.1563,750.1059 Q1683.3438,749.9184 1683.4531,749.8715 Q1683.5625,749.809 1683.6875,749.809 Q1683.9375,749.809 1684.1094,749.9965 Q1684.2969,750.1684 1684.2969,750.4184 Q1684.2969,750.6684 1684.0469,750.9497 Q1683.6875,751.3559 1683.125,751.5903 Q1682.375,751.9028 1681.4688,751.9028 Q1680.3906,751.9028 1679.5469,751.4653 Q1678.8438,751.1215 1678.3594,750.3559 Q1677.875,749.5903 1677.875,748.6997 L1677.875,747.8872 Q1677.875,746.9497 1678.3125,746.1372 Q1678.75,745.3247 1679.5156,744.8872 Q1680.2969,744.4497 1681.1563,744.4497 Q1681.6875,744.4497 1682.1406,744.5747 Q1682.5938,744.684 1682.9844,744.934 Z " fill="#000000"/><text fill="#262626" font-family="Noto Sans" font-size="11" lengthAdjust="spacing" textLength="59" x="1710.5" y="751.9989">ProfileDAO</text><line style="stroke:#C6C6C6;stroke-width:1.0;" x1="1550" x2="1900" y1="770.2219" y2="770.2219"/><rect fill="#F24D5C" height="6" style="stroke:#C82930;stroke-width:1.0;" width="6" x="1557" y="790.2128"/><text fill="#262626" font-family="Noto Sans" font-size="11" lengthAdjust="spacing" textLength="224" x="1578" y="795.9808">getTotalListeningTime(user : User) : double</text><rect fill="#F24D5C" height="6" style="stroke:#C82930;stroke-width:1.0;" width="6" x="1557" y="825.1947"/><text fill="#262626" font-family="Noto Sans" font-size="11" lengthAdjust="spacing" textLength="183" x="1578" y="830.9627">getTotalListeners(artist : Artist) : int</text><rect fill="#F24D5C" height="6" style="stroke:#C82930;stroke-width:1.0;" width="6" x="1557" y="860.1766"/><text fill="#262626" font-family="Noto Sans" font-size="11" lengthAdjust="spacing" textLength="307" x="1578" y="865.9446">getListeningHistory(profile : JBProfile) : ArrayList&lt;JBAudio&gt;</text><rect fill="#F24D5C" height="6" style="stroke:#C82930;stroke-width:1.0;" width="6" x="1557" y="895.1585"/><text fill="#262626" font-family="Noto Sans" font-size="11" lengthAdjust="spacing" textLength="217" x="1578" y="900.9264">updateUsername(profile : JBProfile) : void</text><rect fill="#F24D5C" height="6" style="stroke:#C82930;stroke-width:1.0;" width="6" x="1557" y="930.1404"/><text fill="#262626" font-family="Noto Sans" font-size="11" lengthAdjust="spacing" textLength="215" x="1578" y="935.9083">updatePassword(profile : JBProfile) : void</text><rect fill="#F24D5C" height="6" style="stroke:#C82930;stroke-width:1.0;" width="6" x="1557" y="965.1222"/><text fill="#262626" font-family="Noto Sans" font-size="11" lengthAdjust="spacing" textLength="194" x="1578" y="970.8902">updateName(profile : JBProfile) : void</text><rect fill="#F24D5C" height="6" style="stroke:#C82930;stroke-width:1.0;" width="6" x="1557" y="1000.1041"/><text fill="#262626" font-family="Noto Sans" font-size="11" lengthAdjust="spacing" textLength="211" x="1578" y="1005.8721">updateSurname(profile : JBProfile) : void</text><rect fill="#F24D5C" height="6" style="stroke:#C82930;stroke-width:1.0;" width="6" x="1557" y="1035.086"/><text fill="#262626" font-family="Noto Sans" font-size="11" lengthAdjust="spacing" textLength="219" x="1578" y="1040.854">updateBiography(profile : JBProfile) : void</text><rect fill="#F24D5C" height="6" style="stroke:#C82930;stroke-width:1.0;" width="6" x="1557" y="1070.0679"/><text fill="#262626" font-family="Noto Sans" font-size="11" lengthAdjust="spacing" textLength="236" x="1578" y="1075.8359">updateProfilePicture(profile : JBProfile) : void</text><rect fill="#F24D5C" height="6" style="stroke:#C82930;stroke-width:1.0;" width="6" x="1557" y="1105.0498"/><text fill="#262626" font-family="Noto Sans" font-size="11" lengthAdjust="spacing" textLength="175" x="1578" y="1110.8178">updateVisibility(user : User) : void</text></g><!--class IAudioDAO--><g id="elem_IAudioDAO"><rect codeLine="54" fill="url(#g1k7p42yymk4ww0)" height="437.7827" id="IAudioDAO" style="stroke:#C6C6C6;stroke-width:1.0;" width="453" x="1039.5" y="192.24"/><rect fill="url(#g1k7p42yymk4ww0)" height="44.9819" style="stroke:#C6C6C6;stroke-width:1.0;" width="453" x="1039.5" y="192.24"/><ellipse cx="1226" cy="214.7309" fill="#B4A7E5" rx="10" ry="10" style="stroke:#181818;stroke-width:1.0;"/><path d="M1227.2031,212.8247 L1227.2031,217.5278 L1228.4219,217.5278 Q1228.8438,217.5278 1229.0313,217.6997 Q1229.2188,217.8559 1229.2188,218.1372 Q1229.2188,218.4028 1229.0313,218.5747 Q1228.8438,218.7309 1228.4219,218.7309 L1224.7813,218.7309 Q1224.3594,218.7309 1224.1719,218.5747 Q1223.9844,218.4028 1223.9844,218.1215 Q1223.9844,217.8559 1224.1719,217.6997 Q1224.3594,217.5278 1224.7813,217.5278 L1226,217.5278 L1226,212.8247 L1224.7813,212.8247 Q1224.3594,212.8247 1224.1719,212.6684 Q1223.9844,212.4965 1223.9844,212.2309 Q1223.9844,211.9497 1224.1719,211.7934 Q1224.3594,211.6215 1224.7813,211.6215 L1228.4219,211.6215 Q1228.8438,211.6215 1229.0313,211.7934 Q1229.2188,211.9497 1229.2188,212.2309 Q1229.2188,212.4965 1229.0313,212.6684 Q1228.8438,212.8247 1228.4219,212.8247 L1227.2031,212.8247 Z " fill="#000000"/><text fill="#262626" font-family="Noto Sans" font-size="11" font-style="italic" lengthAdjust="spacing" textLength="52" x="1255" y="218.9989">IAudioDAO</text><line style="stroke:#C6C6C6;stroke-width:1.0;" x1="1040.5" x2="1491.5" y1="237.2219" y2="237.2219"/><ellipse cx="1050.5" cy="260.2128" fill="#84BE84" rx="3" ry="3" style="stroke:#038048;stroke-width:1.0;"/><text fill="#262626" font-family="Noto Sans" font-size="11" lengthAdjust="spacing" textLength="145" x="1068.5" y="262.9808">insert(audio : JBAudio): void</text><ellipse cx="1050.5" cy="295.1947" fill="#84BE84" rx="3" ry="3" style="stroke:#038048;stroke-width:1.0;"/><text fill="#262626" font-family="Noto Sans" font-size="11" lengthAdjust="spacing" textLength="155" x="1068.5" y="297.9627">remove(audio : JBAudio): void</text><ellipse cx="1050.5" cy="330.1766" fill="#84BE84" rx="3" ry="3" style="stroke:#038048;stroke-width:1.0;"/><text fill="#262626" font-family="Noto Sans" font-size="11" lengthAdjust="spacing" textLength="275" x="1068.5" y="332.9446">get(audio : JBAudio, activeProfile : JBProfile): JBAudio</text><ellipse cx="1050.5" cy="365.1585" fill="#84BE84" rx="3" ry="3" style="stroke:#038048;stroke-width:1.0;"/><text fill="#262626" font-family="Noto Sans" font-size="11" lengthAdjust="spacing" textLength="288" x="1068.5" y="367.9264">getSong(audio : JBAudio, activeProfile : JBProfile): Song</text><ellipse cx="1050.5" cy="400.1404" fill="#84BE84" rx="3" ry="3" style="stroke:#038048;stroke-width:1.0;"/><text fill="#262626" font-family="Noto Sans" font-size="11" lengthAdjust="spacing" textLength="316" x="1068.5" y="402.9083">getEpisode(audio : JBAudio, activeProfile : JBProfile): Episode</text><ellipse cx="1050.5" cy="435.1222" fill="#84BE84" rx="3" ry="3" style="stroke:#038048;stroke-width:1.0;"/><text fill="#262626" font-family="Noto Sans" font-size="11" lengthAdjust="spacing" textLength="243" x="1068.5" y="437.8902">updateIsFavorite(activeProfile : JBProfile): void</text><ellipse cx="1050.5" cy="470.1041" fill="#84BE84" rx="3" ry="3" style="stroke:#038048;stroke-width:1.0;"/><text fill="#262626" font-family="Noto Sans" font-size="11" lengthAdjust="spacing" textLength="359" x="1068.5" y="472.8721">addToListeningHistory(audio : JBAudio, activeProfile : JBProfile): void</text><ellipse cx="1050.5" cy="505.086" fill="#84BE84" rx="3" ry="3" style="stroke:#038048;stroke-width:1.0;"/><text fill="#262626" font-family="Noto Sans" font-size="11" lengthAdjust="spacing" textLength="399" x="1068.5" y="507.854">selectByPlaylist(playlist : Playlist, activeProfile JBProfile)  : ArrayList&lt;JBAudio&gt;</text><ellipse cx="1050.5" cy="540.0679" fill="#84BE84" rx="3" ry="3" style="stroke:#038048;stroke-width:1.0;"/><text fill="#262626" font-family="Noto Sans" font-size="11" lengthAdjust="spacing" textLength="372" x="1068.5" y="542.8359">selectByAlbum(album : Album, activeProfile JBProfile) : ArrayList&lt;Song&gt;</text><ellipse cx="1050.5" cy="575.0498" fill="#84BE84" rx="3" ry="3" style="stroke:#038048;stroke-width:1.0;"/><text fill="#262626" font-family="Noto Sans" font-size="11" lengthAdjust="spacing" textLength="408" x="1068.5" y="577.8178">selectByPodcast(podcast : Podcast, activeProfile JBProfile) : ArrayList&lt;Episode&gt;</text><ellipse cx="1050.5" cy="610.0317" fill="#84BE84" rx="3" ry="3" style="stroke:#038048;stroke-width:1.0;"/><text fill="#262626" font-family="Noto Sans" font-size="11" lengthAdjust="spacing" textLength="305" x="1068.5" y="612.7997">selectFavorites(activeProfile JBProfile) : ArrayList&lt;JBAudio&gt;</text></g><!--class AudioDAO--><g id="elem_AudioDAO"><rect codeLine="68" fill="url(#g1k7p42yymk4ww0)" height="297.8551" id="AudioDAO" style="stroke:#C6C6C6;stroke-width:1.0;" width="246" x="1143" y="777.74"/><rect fill="url(#g1k7p42yymk4ww0)" height="44.9819" style="stroke:#C6C6C6;stroke-width:1.0;" width="246" x="1143" y="777.74"/><ellipse cx="1224.5" cy="800.2309" fill="#ADD1B2" rx="10" ry="10" style="stroke:#181818;stroke-width:1.0;"/><path d="M1225.9844,797.434 Q1226.0938,797.2778 1226.2188,797.1997 Q1226.3594,797.1215 1226.5156,797.1215 Q1226.7813,797.1215 1226.9375,797.309 Q1227.1094,797.4965 1227.1094,797.9184 L1227.1094,798.9497 Q1227.1094,799.3715 1226.9375,799.559 Q1226.7813,799.7465 1226.5156,799.7465 Q1226.2656,799.7465 1226.125,799.6059 Q1225.9844,799.4809 1225.9063,799.1059 Q1225.875,798.8559 1225.75,798.7309 Q1225.5,798.4653 1225.0625,798.309 Q1224.6406,798.1528 1224.2031,798.1528 Q1223.6719,798.1528 1223.2188,798.3872 Q1222.7656,798.6215 1222.4219,799.1528 Q1222.0781,799.6684 1222.0781,800.4028 L1222.0781,801.184 Q1222.0781,802.0434 1222.7031,802.6215 Q1223.3438,803.1997 1224.4531,803.1997 Q1225.125,803.1997 1225.5938,803.0278 Q1225.8594,802.9184 1226.1563,802.6059 Q1226.3438,802.4184 1226.4531,802.3715 Q1226.5625,802.309 1226.6875,802.309 Q1226.9375,802.309 1227.1094,802.4965 Q1227.2969,802.6684 1227.2969,802.9184 Q1227.2969,803.1684 1227.0469,803.4497 Q1226.6875,803.8559 1226.125,804.0903 Q1225.375,804.4028 1224.4688,804.4028 Q1223.3906,804.4028 1222.5469,803.9653 Q1221.8438,803.6215 1221.3594,802.8559 Q1220.875,802.0903 1220.875,801.1997 L1220.875,800.3872 Q1220.875,799.4497 1221.3125,798.6372 Q1221.75,797.8247 1222.5156,797.3872 Q1223.2969,796.9497 1224.1563,796.9497 Q1224.6875,796.9497 1225.1406,797.0747 Q1225.5938,797.184 1225.9844,797.434 Z " fill="#000000"/><text fill="#262626" font-family="Noto Sans" font-size="11" lengthAdjust="spacing" textLength="55" x="1253.5" y="804.4989">AudioDAO</text><line style="stroke:#C6C6C6;stroke-width:1.0;" x1="1144" x2="1388" y1="822.7219" y2="822.7219"/><rect fill="#F24D5C" height="6" style="stroke:#C82930;stroke-width:1.0;" width="6" x="1151" y="842.7128"/><text fill="#262626" font-family="Noto Sans" font-size="11" lengthAdjust="spacing" textLength="150" x="1172" y="848.4808">getGenres(JBAudio) : String[]</text><rect fill="#F24D5C" height="6" style="stroke:#C82930;stroke-width:1.0;" width="6" x="1151" y="877.6947"/><text fill="#262626" font-family="Noto Sans" font-size="11" lengthAdjust="spacing" textLength="185" x="1172" y="883.4627">getNumberOfStreams(JBAudio) : int</text><rect fill="#F24D5C" height="6" style="stroke:#C82930;stroke-width:1.0;" width="6" x="1151" y="912.6766"/><text fill="#262626" font-family="Noto Sans" font-size="11" lengthAdjust="spacing" textLength="201" x="1172" y="918.4446">isFavorite(JBAudio, JBProfile) : boolean</text><rect fill="#F24D5C" height="6" style="stroke:#C82930;stroke-width:1.0;" width="6" x="1151" y="947.6585"/><text fill="#262626" font-family="Noto Sans" font-size="11" lengthAdjust="spacing" textLength="140" x="1172" y="953.4264">insertAudio(JBAudio) : void</text><rect fill="#F24D5C" height="6" style="stroke:#C82930;stroke-width:1.0;" width="6" x="1151" y="982.6404"/><text fill="#262626" font-family="Noto Sans" font-size="11" lengthAdjust="spacing" textLength="170" x="1172" y="988.4083">linkAudioToArtist(JBAudio) : void</text><rect fill="#F24D5C" height="6" style="stroke:#C82930;stroke-width:1.0;" width="6" x="1151" y="1017.6222"/><text fill="#262626" font-family="Noto Sans" font-size="11" lengthAdjust="spacing" textLength="194" x="1172" y="1023.3902">linkAudioToCollection(JBAudio) : void</text><rect fill="#F24D5C" height="6" style="stroke:#C82930;stroke-width:1.0;" width="6" x="1151" y="1052.6041"/><text fill="#262626" font-family="Noto Sans" font-size="11" lengthAdjust="spacing" textLength="179" x="1172" y="1058.3721">linkAudioToGenres(JBAudio) : void</text></g><!--class ICollectionDAO--><g id="elem_ICollectionDAO"><rect codeLine="83" fill="url(#g1k7p42yymk4ww0)" height="437.7827" id="ICollectionDAO" style="stroke:#C6C6C6;stroke-width:1.0;" width="393" x="589.5" y="192.24"/><rect fill="url(#g1k7p42yymk4ww0)" height="44.9819" style="stroke:#C6C6C6;stroke-width:1.0;" width="393" x="589.5" y="192.24"/><ellipse cx="736" cy="214.7309" fill="#B4A7E5" rx="10" ry="10" style="stroke:#181818;stroke-width:1.0;"/><path d="M737.2031,212.8247 L737.2031,217.5278 L738.4219,217.5278 Q738.8438,217.5278 739.0313,217.6997 Q739.2188,217.8559 739.2188,218.1372 Q739.2188,218.4028 739.0313,218.5747 Q738.8438,218.7309 738.4219,218.7309 L734.7813,218.7309 Q734.3594,218.7309 734.1719,218.5747 Q733.9844,218.4028 733.9844,218.1215 Q733.9844,217.8559 734.1719,217.6997 Q734.3594,217.5278 734.7813,217.5278 L736,217.5278 L736,212.8247 L734.7813,212.8247 Q734.3594,212.8247 734.1719,212.6684 Q733.9844,212.4965 733.9844,212.2309 Q733.9844,211.9497 734.1719,211.7934 Q734.3594,211.6215 734.7813,211.6215 L738.4219,211.6215 Q738.8438,211.6215 739.0313,211.7934 Q739.2188,211.9497 739.2188,212.2309 Q739.2188,212.4965 739.0313,212.6684 Q738.8438,212.8247 738.4219,212.8247 L737.2031,212.8247 Z " fill="#000000"/><text fill="#262626" font-family="Noto Sans" font-size="11" font-style="italic" lengthAdjust="spacing" textLength="72" x="765" y="218.9989">ICollectionDAO</text><line style="stroke:#C6C6C6;stroke-width:1.0;" x1="590.5" x2="981.5" y1="237.2219" y2="237.2219"/><ellipse cx="600.5" cy="260.2128" fill="#84BE84" rx="3" ry="3" style="stroke:#038048;stroke-width:1.0;"/><text fill="#262626" font-family="Noto Sans" font-size="11" lengthAdjust="spacing" textLength="228" x="618.5" y="262.9808">insert(collection : JBCollection) : JBCollection</text><ellipse cx="600.5" cy="295.1947" fill="#84BE84" rx="3" ry="3" style="stroke:#038048;stroke-width:1.0;"/><text fill="#262626" font-family="Noto Sans" font-size="11" lengthAdjust="spacing" textLength="199" x="618.5" y="297.9627">remove(collection : JBCollection) : void</text><ellipse cx="600.5" cy="330.1766" fill="#84BE84" rx="3" ry="3" style="stroke:#038048;stroke-width:1.0;"/><text fill="#262626" font-family="Noto Sans" font-size="11" lengthAdjust="spacing" textLength="196" x="618.5" y="332.9446">update(collection : JBCollection) : void</text><ellipse cx="600.5" cy="365.1585" fill="#84BE84" rx="3" ry="3" style="stroke:#038048;stroke-width:1.0;"/><text fill="#262626" font-family="Noto Sans" font-size="11" lengthAdjust="spacing" textLength="215" x="618.5" y="367.9264">get(collection : JBCollection) : JBCollection</text><ellipse cx="600.5" cy="400.1404" fill="#84BE84" rx="3" ry="3" style="stroke:#038048;stroke-width:1.0;"/><text fill="#262626" font-family="Noto Sans" font-size="11" lengthAdjust="spacing" textLength="230" x="618.5" y="402.9083">getPlaylist(collection : JBCollection) : PLaylist</text><ellipse cx="600.5" cy="435.1222" fill="#84BE84" rx="3" ry="3" style="stroke:#038048;stroke-width:1.0;"/><text fill="#262626" font-family="Noto Sans" font-size="11" lengthAdjust="spacing" textLength="221" x="618.5" y="437.8902">getAlbum(collection : JBCollection) : Album</text><ellipse cx="600.5" cy="470.1041" fill="#84BE84" rx="3" ry="3" style="stroke:#038048;stroke-width:1.0;"/><text fill="#262626" font-family="Noto Sans" font-size="11" lengthAdjust="spacing" textLength="235" x="618.5" y="472.8721">getPodcast(collection : JBCollection) : Podcast</text><ellipse cx="600.5" cy="505.086" fill="#84BE84" rx="3" ry="3" style="stroke:#038048;stroke-width:1.0;"/><text fill="#262626" font-family="Noto Sans" font-size="11" lengthAdjust="spacing" textLength="236" x="618.5" y="507.854">getFavorites(activeProfile : JBProfile) : Playlist</text><ellipse cx="600.5" cy="540.0679" fill="#84BE84" rx="3" ry="3" style="stroke:#038048;stroke-width:1.0;"/><text fill="#262626" font-family="Noto Sans" font-size="11" lengthAdjust="spacing" textLength="344" x="618.5" y="542.8359">selectPlaylistsByProfile(profile : JBProfile) : ArrayList&lt;JBCollection&gt;</text><ellipse cx="600.5" cy="575.0498" fill="#84BE84" rx="3" ry="3" style="stroke:#038048;stroke-width:1.0;"/><text fill="#262626" font-family="Noto Sans" font-size="11" lengthAdjust="spacing" textLength="341" x="618.5" y="577.8178">selectAlbumsByProfile(profile : JBProfile) : ArrayList&lt;JBCollection&gt;</text><ellipse cx="600.5" cy="610.0317" fill="#84BE84" rx="3" ry="3" style="stroke:#038048;stroke-width:1.0;"/><text fill="#262626" font-family="Noto Sans" font-size="11" lengthAdjust="spacing" textLength="348" x="618.5" y="612.7997">selectPodcastsByProfile(profile : JBProfile) : ArrayList&lt;JBCollection&gt;</text></g><!--class CollectionDAO--><g id="elem_CollectionDAO"><rect codeLine="97" fill="url(#g1k7p42yymk4ww0)" height="472.7645" id="CollectionDAO" style="stroke:#C6C6C6;stroke-width:1.0;" width="323" x="624.5" y="690.24"/><rect fill="url(#g1k7p42yymk4ww0)" height="44.9819" style="stroke:#C6C6C6;stroke-width:1.0;" width="323" x="624.5" y="690.24"/><ellipse cx="734" cy="712.7309" fill="#ADD1B2" rx="10" ry="10" style="stroke:#181818;stroke-width:1.0;"/><path d="M735.4844,709.934 Q735.5938,709.7778 735.7188,709.6997 Q735.8594,709.6215 736.0156,709.6215 Q736.2813,709.6215 736.4375,709.809 Q736.6094,709.9965 736.6094,710.4184 L736.6094,711.4497 Q736.6094,711.8715 736.4375,712.059 Q736.2813,712.2465 736.0156,712.2465 Q735.7656,712.2465 735.625,712.1059 Q735.4844,711.9809 735.4063,711.6059 Q735.375,711.3559 735.25,711.2309 Q735,710.9653 734.5625,710.809 Q734.1406,710.6528 733.7031,710.6528 Q733.1719,710.6528 732.7188,710.8872 Q732.2656,711.1215 731.9219,711.6528 Q731.5781,712.1684 731.5781,712.9028 L731.5781,713.684 Q731.5781,714.5434 732.2031,715.1215 Q732.8438,715.6997 733.9531,715.6997 Q734.625,715.6997 735.0938,715.5278 Q735.3594,715.4184 735.6563,715.1059 Q735.8438,714.9184 735.9531,714.8715 Q736.0625,714.809 736.1875,714.809 Q736.4375,714.809 736.6094,714.9965 Q736.7969,715.1684 736.7969,715.4184 Q736.7969,715.6684 736.5469,715.9497 Q736.1875,716.3559 735.625,716.5903 Q734.875,716.9028 733.9688,716.9028 Q732.8906,716.9028 732.0469,716.4653 Q731.3438,716.1215 730.8594,715.3559 Q730.375,714.5903 730.375,713.6997 L730.375,712.8872 Q730.375,711.9497 730.8125,711.1372 Q731.25,710.3247 732.0156,709.8872 Q732.7969,709.4497 733.6563,709.4497 Q734.1875,709.4497 734.6406,709.5747 Q735.0938,709.684 735.4844,709.934 Z " fill="#000000"/><text fill="#262626" font-family="Noto Sans" font-size="11" lengthAdjust="spacing" textLength="76" x="763" y="716.9989">CollectionDAO</text><line style="stroke:#C6C6C6;stroke-width:1.0;" x1="625.5" x2="946.5" y1="735.2219" y2="735.2219"/><rect fill="#F24D5C" height="6" style="stroke:#C82930;stroke-width:1.0;" width="6" x="632.5" y="755.2128"/><text fill="#262626" font-family="Noto Sans" font-size="11" lengthAdjust="spacing" textLength="226" x="653.5" y="760.9808">updateName(collection : JBCollection) : void</text><rect fill="#F24D5C" height="6" style="stroke:#C82930;stroke-width:1.0;" width="6" x="632.5" y="790.1947"/><text fill="#262626" font-family="Noto Sans" font-size="11" lengthAdjust="spacing" textLength="233" x="653.5" y="795.9627">updatePicture(collection : JBCollection) : void</text><rect fill="#F24D5C" height="6" style="stroke:#C82930;stroke-width:1.0;" width="6" x="632.5" y="825.1766"/><text fill="#262626" font-family="Noto Sans" font-size="11" lengthAdjust="spacing" textLength="242" x="653.5" y="830.9446">updateTrackList(collection : JBCollection) : void</text><rect fill="#F24D5C" height="6" style="stroke:#C82930;stroke-width:1.0;" width="6" x="632.5" y="860.1585"/><text fill="#262626" font-family="Noto Sans" font-size="11" lengthAdjust="spacing" textLength="238" x="653.5" y="865.9264">insertColection(collection : JBCollection) : void</text><rect fill="#F24D5C" height="6" style="stroke:#C82930;stroke-width:1.0;" width="6" x="632.5" y="895.1404"/><text fill="#262626" font-family="Noto Sans" font-size="11" lengthAdjust="spacing" textLength="278" x="653.5" y="900.9083">linkCollectionToProfile(collection : JBCollection) : void</text><rect fill="#F24D5C" height="6" style="stroke:#C82930;stroke-width:1.0;" width="6" x="632.5" y="930.1222"/><text fill="#262626" font-family="Noto Sans" font-size="11" lengthAdjust="spacing" textLength="225" x="653.5" y="935.8902">linkPlaylistToProfile(playlist : Playlist) : void</text><rect fill="#F24D5C" height="6" style="stroke:#C82930;stroke-width:1.0;" width="6" x="632.5" y="965.1041"/><text fill="#262626" font-family="Noto Sans" font-size="11" lengthAdjust="spacing" textLength="208" x="653.5" y="970.8721">linkAlbumToArtist(album : Album) : void</text><rect fill="#F24D5C" height="6" style="stroke:#C82930;stroke-width:1.0;" width="6" x="632.5" y="1000.086"/><text fill="#262626" font-family="Noto Sans" font-size="11" lengthAdjust="spacing" textLength="230" x="653.5" y="1005.854">linkPodcastToArtist(podcast : Podcast) : void</text><rect fill="#F24D5C" height="6" style="stroke:#C82930;stroke-width:1.0;" width="6" x="632.5" y="1035.0679"/><text fill="#262626" font-family="Noto Sans" font-size="11" lengthAdjust="spacing" textLength="274" x="653.5" y="1040.8359">linkCollectionToAudio(collection : JBCollection) : void</text><rect fill="#F24D5C" height="6" style="stroke:#C82930;stroke-width:1.0;" width="6" x="632.5" y="1070.0498"/><text fill="#262626" font-family="Noto Sans" font-size="11" lengthAdjust="spacing" textLength="226" x="653.5" y="1075.8178">linkPlaylistToAudios(playlist : Playlist) : void</text><rect fill="#F24D5C" height="6" style="stroke:#C82930;stroke-width:1.0;" width="6" x="632.5" y="1105.0317"/><text fill="#262626" font-family="Noto Sans" font-size="11" lengthAdjust="spacing" textLength="212" x="653.5" y="1110.7997">linkAlbumToSongs(album : Album) : void</text><rect fill="#F24D5C" height="6" style="stroke:#C82930;stroke-width:1.0;" width="6" x="632.5" y="1140.0136"/><text fill="#262626" font-family="Noto Sans" font-size="11" lengthAdjust="spacing" textLength="243" x="653.5" y="1145.7815">linkPodcastToEpisode(podcast : Podcast) : void</text></g><!--reverse link ISearchDAO to SearchDAO--><g id="link_ISearchDAO_SearchDAO"><path d="M293,490.91 C293,565.42 293,676.37 293,777.66 " fill="none" id="ISearchDAO-backto-SearchDAO" style="stroke:#C6C6C6;stroke-width:1.0;stroke-dasharray:7.0,7.0;"/><polygon fill="none" points="293,472.91,287,490.91,299,490.91,293,472.91" style="stroke:#C6C6C6;stroke-width:1.0;"/></g><!--reverse link IProfileDAO to ProfileDAO--><g id="link_IProfileDAO_ProfileDAO"><path d="M1725,560.81 C1725,616.08 1725,663.73 1725,724.92 " fill="none" id="IProfileDAO-backto-ProfileDAO" style="stroke:#C6C6C6;stroke-width:1.0;stroke-dasharray:7.0,7.0;"/><polygon fill="none" points="1725,542.81,1719,560.81,1731,560.81,1725,542.81" style="stroke:#C6C6C6;stroke-width:1.0;"/></g><!--reverse link IAudioDAO to AudioDAO--><g id="link_IAudioDAO_AudioDAO"><path d="M1266,648.38 C1266,697.96 1266,731.51 1266,777.39 " fill="none" id="IAudioDAO-backto-AudioDAO" style="stroke:#C6C6C6;stroke-width:1.0;stroke-dasharray:7.0,7.0;"/><polygon fill="none" points="1266,630.38,1260,648.38,1272,648.38,1266,630.38" style="stroke:#C6C6C6;stroke-width:1.0;"/></g><!--reverse link ICollectionDAO to CollectionDAO--><g id="link_ICollectionDAO_CollectionDAO"><path d="M786,648.38 C786,668.05 786,670.03 786,689.84 " fill="none" id="ICollectionDAO-backto-CollectionDAO" style="stroke:#C6C6C6;stroke-width:1.0;stroke-dasharray:7.0,7.0;"/><polygon fill="none" points="786,630.38,780,648.38,792,648.38,786,630.38" style="stroke:#C6C6C6;stroke-width:1.0;"/></g><!--SRC=[hLXRRvim57xdLpXlH5krxRNg8YLhjoNgscXXawPf3muuYLM3aMrIeQd_VRvmnn2Wuu5mET_du-DplcCo4oSK8k13jgVHrP71r7445WG1SEDJGjdraQ5qiO5dk49GS705RfUFu1P3QHlUlDCs2yUP2POWy15yS6O7IBYwVE_C-8a-Rna-Gu6-8N6Y0PVFbQNZnD1_WaUasFuw3f07ZWHY1-WZiDuXoFoJVWMoumtW-g5xm8W4u1hi1CFHyIs0li1dj6NqWANNrs2pogxdycR9v8pkCHStwytgEp8KS4_GuXN4Rq580_NaRhEwU_3Mtgy1GxteiqyWvw2O7i1XJ6Jy8nbOswHd-03STX3dXO4whh89_E28ySOiweufYuKLksH26lIZZOqTlwFHaKzT6WMsqzx5cCjGJsREy7RoBO4fkJZhtAeZRcIVX1V2famwFA213oywO8nAXXcA0dp8aah_vBKKcnYK-LCfgIm-jVGowOyZcHR2ZUt1F5CSD00CXVICHW2IE939Em9mH9t-53TjY4dGBg1vsqQfekZ2g7S5ugMuCbLSHhHMnbs17bJB9ZkaLnuLaAZrHv7C20-7o4saCvbFohU09lj656nefGbGJxs8WKBBpB13Yp6_oWlAqkvmvWcwMIsJ0DE5XSyilF8uWk7m1AY2jpBKpvG5ay0FKqVT9TCzNc4gUsDyIgVDrzXjiIyIDis1dvZZFIPOfCsSQS4gMbAcU5DLf0AgFfQrwOQkwBNlLXMeNclljU6yJr06sIffQ1ZsjOF2g4sZsiuuAeLeysHDPXnL1h8AvPf_XcVAi9JCFWfBS60GUBHLmQCSix1oH90lLcdU2jqukv3G_5cJj9AjbyMY748tInUgiuAftnxc_ar4nN7JGjtO_2gtpTL0Rkis8gVFrugxWxXQ0NXn6dqbhwXQLx6NsRYUyWL5JBgPbrUnt_Zznsx_a8Hxn1uFqWh1i0QqjmzS9cwHQxKmx2ab24Osg9OBZQcEqw5p14TFsiQZMTCVXVb4YLevJADnk7O09mcgNmnlbzJIlMvTBJbq_PQGUUFUBhMzyEuTt5YO4kkfdafi8JYz7DjxOsNP46erwGLh4yl8cMBq3soCskWkIMWqyNnwLbaflawaV1d8a9rOwQ1ThCptod-bp3zYNatQ4i9Q7TJKiFvciYPMDedZChksOSjsQjCPF2Q5uVvYddTm646GffcYJU5G6bSQUZHVoQbSUVAMJ9OjmoNDLQbQw7jjIt1fT9EH1RRLzaT4mdIaryT1y_3fOJ1_i4oAGhu_7HQ6hWRcEF9qmW42A8n52lHV5hpw93I5vlm3]--></g></svg>