<?xml version="1.0" encoding="us-ascii" standalone="no"?><svg xmlns="http://www.w3.org/2000/svg" xmlns:xlink="http://www.w3.org/1999/xlink" contentStyleType="text/css" height="736px" preserveAspectRatio="none" style="width:1786px;height:736px;" version="1.1" viewBox="0 0 1786 736" width="1786px" zoomAndPan="magnify"><defs><linearGradient id="g1vqseihaanbx40" x1="50%" x2="50%" y1="0%" y2="100%"><stop offset="0%" stop-color="#F4F4F4"/><stop offset="100%" stop-color="#F4F4F4"/></linearGradient></defs><g><!--class Album--><g id="elem_Album"><rect codeLine="5" fill="url(#g1vqseihaanbx40)" height="91.6094" id="Album" style="stroke:#C6C6C6;stroke-width:1.0;" width="86" x="129.5" y="240"/><rect fill="url(#g1vqseihaanbx40)" height="42.8047" style="stroke:#C6C6C6;stroke-width:1.0;" width="86" x="129.5" y="240"/><ellipse cx="143.5" cy="261.4023" fill="#ADD1B2" rx="10" ry="10" style="stroke:#181818;stroke-width:1.0;"/><path d="M145.3594,258.1523 C144.7031,257.8398 144.2813,257.7461 143.6563,257.7461 C141.8125,257.7461 140.3906,259.1992 140.3906,261.1211 L140.3906,261.918 C140.3906,263.7461 141.8906,265.0742 143.9219,265.0742 C144.7813,265.0742 145.6094,264.8555 146.125,264.4648 C146.5469,264.1836 146.7656,263.8711 146.7656,263.5898 C146.7656,263.2773 146.4844,262.9961 146.1719,262.9961 C146.0156,262.9961 145.875,263.0586 145.7344,263.1836 C145.4063,263.5273 145.4063,263.5273 145.2813,263.5898 C144.9844,263.7773 144.5,263.8711 143.9531,263.8711 C142.5156,263.8711 141.5938,263.0898 141.5938,261.8867 L141.5938,261.1211 C141.5938,259.8555 142.4844,258.9336 143.7031,258.9336 C144.1094,258.9336 144.5469,259.043 144.875,259.2305 C145.2188,259.418 145.3438,259.5742 145.4063,259.8555 C145.4531,260.1523 145.4688,260.2305 145.5625,260.3242 C145.6563,260.4336 145.8281,260.4961 145.9844,260.4961 C146.1875,260.4961 146.3594,260.4023 146.4844,260.2461 C146.5625,260.1367 146.5938,260.0117 146.5938,259.6992 L146.5938,258.6992 C146.5938,258.4023 146.5781,258.3086 146.5,258.1992 C146.3906,258.0117 146.2031,257.9023 145.9844,257.9023 C145.7813,257.9023 145.6406,257.9805 145.4844,258.1992 L145.3594,258.1523 Z " fill="#000000"/><text fill="#262626" font-family="sans-serif" font-size="11" lengthAdjust="spacing" textLength="36" x="166.5" y="265.2104">Album</text><line style="stroke:#C6C6C6;stroke-width:1.0;" x1="130.5" x2="214.5" y1="282.8047" y2="282.8047"/><text fill="#262626" font-family="sans-serif" font-size="11" lengthAdjust="spacing" textLength="31" x="145.5" y="307.0151">id: int</text><line style="stroke:#C6C6C6;stroke-width:1.0;" x1="130.5" x2="214.5" y1="323.6094" y2="323.6094"/></g><!--class AlbumSongs--><g id="elem_AlbumSongs"><rect codeLine="8" fill="url(#g1vqseihaanbx40)" height="124.4141" id="AlbumSongs" style="stroke:#C6C6C6;stroke-width:1.0;" width="121" x="76" y="7"/><rect fill="url(#g1vqseihaanbx40)" height="42.8047" style="stroke:#C6C6C6;stroke-width:1.0;" width="121" x="76" y="7"/><ellipse cx="90" cy="28.4023" fill="#ADD1B2" rx="10" ry="10" style="stroke:#181818;stroke-width:1.0;"/><path d="M91.8594,25.1523 C91.2031,24.8398 90.7813,24.7461 90.1563,24.7461 C88.3125,24.7461 86.8906,26.1992 86.8906,28.1211 L86.8906,28.918 C86.8906,30.7461 88.3906,32.0742 90.4219,32.0742 C91.2813,32.0742 92.1094,31.8555 92.625,31.4648 C93.0469,31.1836 93.2656,30.8711 93.2656,30.5898 C93.2656,30.2773 92.9844,29.9961 92.6719,29.9961 C92.5156,29.9961 92.375,30.0586 92.2344,30.1836 C91.9063,30.5273 91.9063,30.5273 91.7813,30.5898 C91.4844,30.7773 91,30.8711 90.4531,30.8711 C89.0156,30.8711 88.0938,30.0898 88.0938,28.8867 L88.0938,28.1211 C88.0938,26.8555 88.9844,25.9336 90.2031,25.9336 C90.6094,25.9336 91.0469,26.043 91.375,26.2305 C91.7188,26.418 91.8438,26.5742 91.9063,26.8555 C91.9531,27.1523 91.9688,27.2305 92.0625,27.3242 C92.1563,27.4336 92.3281,27.4961 92.4844,27.4961 C92.6875,27.4961 92.8594,27.4023 92.9844,27.2461 C93.0625,27.1367 93.0938,27.0117 93.0938,26.6992 L93.0938,25.6992 C93.0938,25.4023 93.0781,25.3086 93,25.1992 C92.8906,25.0117 92.7031,24.9023 92.4844,24.9023 C92.2813,24.9023 92.1406,24.9805 91.9844,25.1992 L91.8594,25.1523 Z " fill="#000000"/><text fill="#262626" font-family="sans-serif" font-size="11" lengthAdjust="spacing" textLength="71" x="113" y="32.2104">AlbumSongs</text><line style="stroke:#C6C6C6;stroke-width:1.0;" x1="77" x2="196" y1="49.8047" y2="49.8047"/><text fill="#262626" font-family="sans-serif" font-size="11" lengthAdjust="spacing" textLength="67" x="92" y="74.0151">idAlbum: int</text><text fill="#262626" font-family="sans-serif" font-size="11" lengthAdjust="spacing" textLength="60" x="92" y="106.8198">idSong: int</text><line style="stroke:#C6C6C6;stroke-width:1.0;" x1="77" x2="196" y1="123.4141" y2="123.4141"/></g><!--class Artist--><g id="elem_Artist"><rect codeLine="12" fill="url(#g1vqseihaanbx40)" height="91.6094" id="Artist" style="stroke:#C6C6C6;stroke-width:1.0;" width="134" x="1474.5" y="240"/><rect fill="url(#g1vqseihaanbx40)" height="42.8047" style="stroke:#C6C6C6;stroke-width:1.0;" width="134" x="1474.5" y="240"/><ellipse cx="1513.25" cy="261.4023" fill="#ADD1B2" rx="10" ry="10" style="stroke:#181818;stroke-width:1.0;"/><path d="M1515.1094,258.1523 C1514.4531,257.8398 1514.0313,257.7461 1513.4063,257.7461 C1511.5625,257.7461 1510.1406,259.1992 1510.1406,261.1211 L1510.1406,261.918 C1510.1406,263.7461 1511.6406,265.0742 1513.6719,265.0742 C1514.5313,265.0742 1515.3594,264.8555 1515.875,264.4648 C1516.2969,264.1836 1516.5156,263.8711 1516.5156,263.5898 C1516.5156,263.2773 1516.2344,262.9961 1515.9219,262.9961 C1515.7656,262.9961 1515.625,263.0586 1515.4844,263.1836 C1515.1563,263.5273 1515.1563,263.5273 1515.0313,263.5898 C1514.7344,263.7773 1514.25,263.8711 1513.7031,263.8711 C1512.2656,263.8711 1511.3438,263.0898 1511.3438,261.8867 L1511.3438,261.1211 C1511.3438,259.8555 1512.2344,258.9336 1513.4531,258.9336 C1513.8594,258.9336 1514.2969,259.043 1514.625,259.2305 C1514.9688,259.418 1515.0938,259.5742 1515.1563,259.8555 C1515.2031,260.1523 1515.2188,260.2305 1515.3125,260.3242 C1515.4063,260.4336 1515.5781,260.4961 1515.7344,260.4961 C1515.9375,260.4961 1516.1094,260.4023 1516.2344,260.2461 C1516.3125,260.1367 1516.3438,260.0117 1516.3438,259.6992 L1516.3438,258.6992 C1516.3438,258.4023 1516.3281,258.3086 1516.25,258.1992 C1516.1406,258.0117 1515.9531,257.9023 1515.7344,257.9023 C1515.5313,257.9023 1515.3906,257.9805 1515.2344,258.1992 L1515.1094,258.1523 Z " fill="#000000"/><text fill="#262626" font-family="sans-serif" font-size="11" lengthAdjust="spacing" textLength="29" x="1541.75" y="265.2104">Artist</text><line style="stroke:#C6C6C6;stroke-width:1.0;" x1="1475.5" x2="1607.5" y1="282.8047" y2="282.8047"/><line style="stroke:#C6C6C6;stroke-width:1.0;" x1="1475.5" x2="1607.5" y1="290.8047" y2="290.8047"/><text fill="#262626" font-family="sans-serif" font-size="11" lengthAdjust="spacing" textLength="102" x="1490.5" y="315.0151">mail: varchar(100)</text></g><!--class ArtistAlbums--><g id="elem_ArtistAlbums"><rect codeLine="15" fill="url(#g1vqseihaanbx40)" height="124.4141" id="ArtistAlbums" style="stroke:#C6C6C6;stroke-width:1.0;" width="160" x="1022.5" y="7"/><rect fill="url(#g1vqseihaanbx40)" height="42.8047" style="stroke:#C6C6C6;stroke-width:1.0;" width="160" x="1022.5" y="7"/><ellipse cx="1054.05" cy="28.4023" fill="#ADD1B2" rx="10" ry="10" style="stroke:#181818;stroke-width:1.0;"/><path d="M1055.9094,25.1523 C1055.2531,24.8398 1054.8313,24.7461 1054.2063,24.7461 C1052.3625,24.7461 1050.9406,26.1992 1050.9406,28.1211 L1050.9406,28.918 C1050.9406,30.7461 1052.4406,32.0742 1054.4719,32.0742 C1055.3313,32.0742 1056.1594,31.8555 1056.675,31.4648 C1057.0969,31.1836 1057.3156,30.8711 1057.3156,30.5898 C1057.3156,30.2773 1057.0344,29.9961 1056.7219,29.9961 C1056.5656,29.9961 1056.425,30.0586 1056.2844,30.1836 C1055.9563,30.5273 1055.9563,30.5273 1055.8313,30.5898 C1055.5344,30.7773 1055.05,30.8711 1054.5031,30.8711 C1053.0656,30.8711 1052.1438,30.0898 1052.1438,28.8867 L1052.1438,28.1211 C1052.1438,26.8555 1053.0344,25.9336 1054.2531,25.9336 C1054.6594,25.9336 1055.0969,26.043 1055.425,26.2305 C1055.7688,26.418 1055.8938,26.5742 1055.9563,26.8555 C1056.0031,27.1523 1056.0188,27.2305 1056.1125,27.3242 C1056.2063,27.4336 1056.3781,27.4961 1056.5344,27.4961 C1056.7375,27.4961 1056.9094,27.4023 1057.0344,27.2461 C1057.1125,27.1367 1057.1438,27.0117 1057.1438,26.6992 L1057.1438,25.6992 C1057.1438,25.4023 1057.1281,25.3086 1057.05,25.1992 C1056.9406,25.0117 1056.7531,24.9023 1056.5344,24.9023 C1056.3313,24.9023 1056.1906,24.9805 1056.0344,25.1992 L1055.9094,25.1523 Z " fill="#000000"/><text fill="#262626" font-family="sans-serif" font-size="11" lengthAdjust="spacing" textLength="71" x="1080.95" y="32.2104">ArtistAlbums</text><line style="stroke:#C6C6C6;stroke-width:1.0;" x1="1023.5" x2="1181.5" y1="49.8047" y2="49.8047"/><text fill="#262626" font-family="sans-serif" font-size="11" lengthAdjust="spacing" textLength="67" x="1038.5" y="74.0151">idAlbum: int</text><line style="stroke:#C6C6C6;stroke-width:1.0;" x1="1023.5" x2="1181.5" y1="90.6094" y2="90.6094"/><text fill="#262626" font-family="sans-serif" font-size="11" lengthAdjust="spacing" textLength="128" x="1038.5" y="114.8198">artistMail: varchar(100)</text></g><!--class ArtistAudios--><g id="elem_ArtistAudios"><rect codeLine="19" fill="url(#g1vqseihaanbx40)" height="124.4141" id="ArtistAudios" style="stroke:#C6C6C6;stroke-width:1.0;" width="160" x="1454.5" y="7"/><rect fill="url(#g1vqseihaanbx40)" height="42.8047" style="stroke:#C6C6C6;stroke-width:1.0;" width="160" x="1454.5" y="7"/><ellipse cx="1487.85" cy="28.4023" fill="#ADD1B2" rx="10" ry="10" style="stroke:#181818;stroke-width:1.0;"/><path d="M1489.7094,25.1523 C1489.0531,24.8398 1488.6313,24.7461 1488.0063,24.7461 C1486.1625,24.7461 1484.7406,26.1992 1484.7406,28.1211 L1484.7406,28.918 C1484.7406,30.7461 1486.2406,32.0742 1488.2719,32.0742 C1489.1313,32.0742 1489.9594,31.8555 1490.475,31.4648 C1490.8969,31.1836 1491.1156,30.8711 1491.1156,30.5898 C1491.1156,30.2773 1490.8344,29.9961 1490.5219,29.9961 C1490.3656,29.9961 1490.225,30.0586 1490.0844,30.1836 C1489.7563,30.5273 1489.7563,30.5273 1489.6313,30.5898 C1489.3344,30.7773 1488.85,30.8711 1488.3031,30.8711 C1486.8656,30.8711 1485.9438,30.0898 1485.9438,28.8867 L1485.9438,28.1211 C1485.9438,26.8555 1486.8344,25.9336 1488.0531,25.9336 C1488.4594,25.9336 1488.8969,26.043 1489.225,26.2305 C1489.5688,26.418 1489.6938,26.5742 1489.7563,26.8555 C1489.8031,27.1523 1489.8188,27.2305 1489.9125,27.3242 C1490.0063,27.4336 1490.1781,27.4961 1490.3344,27.4961 C1490.5375,27.4961 1490.7094,27.4023 1490.8344,27.2461 C1490.9125,27.1367 1490.9438,27.0117 1490.9438,26.6992 L1490.9438,25.6992 C1490.9438,25.4023 1490.9281,25.3086 1490.85,25.1992 C1490.7406,25.0117 1490.5531,24.9023 1490.3344,24.9023 C1490.1313,24.9023 1489.9906,24.9805 1489.8344,25.1992 L1489.7094,25.1523 Z " fill="#000000"/><text fill="#262626" font-family="sans-serif" font-size="11" lengthAdjust="spacing" textLength="67" x="1515.15" y="32.2104">ArtistAudios</text><line style="stroke:#C6C6C6;stroke-width:1.0;" x1="1455.5" x2="1613.5" y1="49.8047" y2="49.8047"/><text fill="#262626" font-family="sans-serif" font-size="11" lengthAdjust="spacing" textLength="63" x="1470.5" y="74.0151">idAudio: int</text><line style="stroke:#C6C6C6;stroke-width:1.0;" x1="1455.5" x2="1613.5" y1="90.6094" y2="90.6094"/><text fill="#262626" font-family="sans-serif" font-size="11" lengthAdjust="spacing" textLength="128" x="1470.5" y="114.8198">artistMail: varchar(100)</text></g><!--class ArtistPodcasts--><g id="elem_ArtistPodcasts"><rect codeLine="23" fill="url(#g1vqseihaanbx40)" height="124.4141" id="ArtistPodcasts" style="stroke:#C6C6C6;stroke-width:1.0;" width="160" x="1245.5" y="7"/><rect fill="url(#g1vqseihaanbx40)" height="42.8047" style="stroke:#C6C6C6;stroke-width:1.0;" width="160" x="1245.5" y="7"/><ellipse cx="1273.9" cy="28.4023" fill="#ADD1B2" rx="10" ry="10" style="stroke:#181818;stroke-width:1.0;"/><path d="M1275.7594,25.1523 C1275.1031,24.8398 1274.6813,24.7461 1274.0563,24.7461 C1272.2125,24.7461 1270.7906,26.1992 1270.7906,28.1211 L1270.7906,28.918 C1270.7906,30.7461 1272.2906,32.0742 1274.3219,32.0742 C1275.1813,32.0742 1276.0094,31.8555 1276.525,31.4648 C1276.9469,31.1836 1277.1656,30.8711 1277.1656,30.5898 C1277.1656,30.2773 1276.8844,29.9961 1276.5719,29.9961 C1276.4156,29.9961 1276.275,30.0586 1276.1344,30.1836 C1275.8063,30.5273 1275.8063,30.5273 1275.6813,30.5898 C1275.3844,30.7773 1274.9,30.8711 1274.3531,30.8711 C1272.9156,30.8711 1271.9938,30.0898 1271.9938,28.8867 L1271.9938,28.1211 C1271.9938,26.8555 1272.8844,25.9336 1274.1031,25.9336 C1274.5094,25.9336 1274.9469,26.043 1275.275,26.2305 C1275.6188,26.418 1275.7438,26.5742 1275.8063,26.8555 C1275.8531,27.1523 1275.8688,27.2305 1275.9625,27.3242 C1276.0563,27.4336 1276.2281,27.4961 1276.3844,27.4961 C1276.5875,27.4961 1276.7594,27.4023 1276.8844,27.2461 C1276.9625,27.1367 1276.9938,27.0117 1276.9938,26.6992 L1276.9938,25.6992 C1276.9938,25.4023 1276.9781,25.3086 1276.9,25.1992 C1276.7906,25.0117 1276.6031,24.9023 1276.3844,24.9023 C1276.1813,24.9023 1276.0406,24.9805 1275.8844,25.1992 L1275.7594,25.1523 Z " fill="#000000"/><text fill="#262626" font-family="sans-serif" font-size="11" lengthAdjust="spacing" textLength="78" x="1300.1" y="32.2104">ArtistPodcasts</text><line style="stroke:#C6C6C6;stroke-width:1.0;" x1="1246.5" x2="1404.5" y1="49.8047" y2="49.8047"/><text fill="#262626" font-family="sans-serif" font-size="11" lengthAdjust="spacing" textLength="74" x="1261.5" y="74.0151">idPodcast: int</text><line style="stroke:#C6C6C6;stroke-width:1.0;" x1="1246.5" x2="1404.5" y1="90.6094" y2="90.6094"/><text fill="#262626" font-family="sans-serif" font-size="11" lengthAdjust="spacing" textLength="128" x="1261.5" y="114.8198">artistMail: varchar(100)</text></g><!--class Audio--><g id="elem_Audio"><rect codeLine="27" fill="url(#g1vqseihaanbx40)" height="222.8281" id="Audio" style="stroke:#C6C6C6;stroke-width:1.0;" width="163" x="656" y="473.5"/><rect fill="url(#g1vqseihaanbx40)" height="42.8047" style="stroke:#C6C6C6;stroke-width:1.0;" width="163" x="656" y="473.5"/><ellipse cx="707.5" cy="494.9023" fill="#ADD1B2" rx="10" ry="10" style="stroke:#181818;stroke-width:1.0;"/><path d="M709.3594,491.6523 C708.7031,491.3398 708.2813,491.2461 707.6563,491.2461 C705.8125,491.2461 704.3906,492.6992 704.3906,494.6211 L704.3906,495.418 C704.3906,497.2461 705.8906,498.5742 707.9219,498.5742 C708.7813,498.5742 709.6094,498.3555 710.125,497.9648 C710.5469,497.6836 710.7656,497.3711 710.7656,497.0898 C710.7656,496.7773 710.4844,496.4961 710.1719,496.4961 C710.0156,496.4961 709.875,496.5586 709.7344,496.6836 C709.4063,497.0273 709.4063,497.0273 709.2813,497.0898 C708.9844,497.2773 708.5,497.3711 707.9531,497.3711 C706.5156,497.3711 705.5938,496.5898 705.5938,495.3867 L705.5938,494.6211 C705.5938,493.3555 706.4844,492.4336 707.7031,492.4336 C708.1094,492.4336 708.5469,492.543 708.875,492.7305 C709.2188,492.918 709.3438,493.0742 709.4063,493.3555 C709.4531,493.6523 709.4688,493.7305 709.5625,493.8242 C709.6563,493.9336 709.8281,493.9961 709.9844,493.9961 C710.1875,493.9961 710.3594,493.9023 710.4844,493.7461 C710.5625,493.6367 710.5938,493.5117 710.5938,493.1992 L710.5938,492.1992 C710.5938,491.9023 710.5781,491.8086 710.5,491.6992 C710.3906,491.5117 710.2031,491.4023 709.9844,491.4023 C709.7813,491.4023 709.6406,491.4805 709.4844,491.6992 L709.3594,491.6523 Z " fill="#000000"/><text fill="#262626" font-family="sans-serif" font-size="11" lengthAdjust="spacing" textLength="32" x="736.5" y="498.7104">Audio</text><line style="stroke:#C6C6C6;stroke-width:1.0;" x1="657" x2="818" y1="516.3047" y2="516.3047"/><text fill="#262626" font-family="sans-serif" font-size="11" lengthAdjust="spacing" textLength="92" x="672" y="540.5151">duration: double</text><text fill="#262626" font-family="sans-serif" font-size="11" lengthAdjust="spacing" textLength="131" x="672" y="573.3198">releaseDate: datetime</text><text fill="#262626" font-family="sans-serif" font-size="11" lengthAdjust="spacing" textLength="107" x="672" y="606.1245">AudioFile: longblob</text><text fill="#262626" font-family="sans-serif" font-size="11" lengthAdjust="spacing" textLength="31" x="672" y="638.9292">id: int</text><line style="stroke:#C6C6C6;stroke-width:1.0;" x1="657" x2="818" y1="655.5234" y2="655.5234"/><text fill="#262626" font-family="sans-serif" font-size="11" lengthAdjust="spacing" textLength="93" x="672" y="679.7339">title: varchar(50)</text></g><!--class AudioGenres--><g id="elem_AudioGenres"><rect codeLine="34" fill="url(#g1vqseihaanbx40)" height="124.4141" id="AudioGenres" style="stroke:#C6C6C6;stroke-width:1.0;" width="139" x="823" y="224"/><rect fill="url(#g1vqseihaanbx40)" height="42.8047" style="stroke:#C6C6C6;stroke-width:1.0;" width="139" x="823" y="224"/><ellipse cx="843.75" cy="245.4023" fill="#ADD1B2" rx="10" ry="10" style="stroke:#181818;stroke-width:1.0;"/><path d="M845.6094,242.1523 C844.9531,241.8398 844.5313,241.7461 843.9063,241.7461 C842.0625,241.7461 840.6406,243.1992 840.6406,245.1211 L840.6406,245.918 C840.6406,247.7461 842.1406,249.0742 844.1719,249.0742 C845.0313,249.0742 845.8594,248.8555 846.375,248.4648 C846.7969,248.1836 847.0156,247.8711 847.0156,247.5898 C847.0156,247.2773 846.7344,246.9961 846.4219,246.9961 C846.2656,246.9961 846.125,247.0586 845.9844,247.1836 C845.6563,247.5273 845.6563,247.5273 845.5313,247.5898 C845.2344,247.7773 844.75,247.8711 844.2031,247.8711 C842.7656,247.8711 841.8438,247.0898 841.8438,245.8867 L841.8438,245.1211 C841.8438,243.8555 842.7344,242.9336 843.9531,242.9336 C844.3594,242.9336 844.7969,243.043 845.125,243.2305 C845.4688,243.418 845.5938,243.5742 845.6563,243.8555 C845.7031,244.1523 845.7188,244.2305 845.8125,244.3242 C845.9063,244.4336 846.0781,244.4961 846.2344,244.4961 C846.4375,244.4961 846.6094,244.4023 846.7344,244.2461 C846.8125,244.1367 846.8438,244.0117 846.8438,243.6992 L846.8438,242.6992 C846.8438,242.4023 846.8281,242.3086 846.75,242.1992 C846.6406,242.0117 846.4531,241.9023 846.2344,241.9023 C846.0313,241.9023 845.8906,241.9805 845.7344,242.1992 L845.6094,242.1523 Z " fill="#000000"/><text fill="#262626" font-family="sans-serif" font-size="11" lengthAdjust="spacing" textLength="74" x="868.25" y="249.2104">AudioGenres</text><line style="stroke:#C6C6C6;stroke-width:1.0;" x1="824" x2="961" y1="266.8047" y2="266.8047"/><text fill="#262626" font-family="sans-serif" font-size="11" lengthAdjust="spacing" textLength="63" x="839" y="291.0151">idAudio: int</text><line style="stroke:#C6C6C6;stroke-width:1.0;" x1="824" x2="961" y1="307.6094" y2="307.6094"/><text fill="#262626" font-family="sans-serif" font-size="11" lengthAdjust="spacing" textLength="107" x="839" y="331.8198">Genre: varchar(50)</text></g><!--class Collection--><g id="elem_Collection"><rect codeLine="38" fill="url(#g1vqseihaanbx40)" height="157.2188" id="Collection" style="stroke:#C6C6C6;stroke-width:1.0;" width="149" x="244" y="506.5"/><rect fill="url(#g1vqseihaanbx40)" height="42.8047" style="stroke:#C6C6C6;stroke-width:1.0;" width="149" x="244" y="506.5"/><ellipse cx="277.35" cy="527.9023" fill="#ADD1B2" rx="10" ry="10" style="stroke:#181818;stroke-width:1.0;"/><path d="M279.2094,524.6523 C278.5531,524.3398 278.1313,524.2461 277.5063,524.2461 C275.6625,524.2461 274.2406,525.6992 274.2406,527.6211 L274.2406,528.418 C274.2406,530.2461 275.7406,531.5742 277.7719,531.5742 C278.6313,531.5742 279.4594,531.3555 279.975,530.9648 C280.3969,530.6836 280.6156,530.3711 280.6156,530.0898 C280.6156,529.7773 280.3344,529.4961 280.0219,529.4961 C279.8656,529.4961 279.725,529.5586 279.5844,529.6836 C279.2563,530.0273 279.2563,530.0273 279.1313,530.0898 C278.8344,530.2773 278.35,530.3711 277.8031,530.3711 C276.3656,530.3711 275.4438,529.5898 275.4438,528.3867 L275.4438,527.6211 C275.4438,526.3555 276.3344,525.4336 277.5531,525.4336 C277.9594,525.4336 278.3969,525.543 278.725,525.7305 C279.0688,525.918 279.1938,526.0742 279.2563,526.3555 C279.3031,526.6523 279.3188,526.7305 279.4125,526.8242 C279.5063,526.9336 279.6781,526.9961 279.8344,526.9961 C280.0375,526.9961 280.2094,526.9023 280.3344,526.7461 C280.4125,526.6367 280.4438,526.5117 280.4438,526.1992 L280.4438,525.1992 C280.4438,524.9023 280.4281,524.8086 280.35,524.6992 C280.2406,524.5117 280.0531,524.4023 279.8344,524.4023 C279.6313,524.4023 279.4906,524.4805 279.3344,524.6992 L279.2094,524.6523 Z " fill="#000000"/><text fill="#262626" font-family="sans-serif" font-size="11" lengthAdjust="spacing" textLength="56" x="304.65" y="531.7104">Collection</text><line style="stroke:#C6C6C6;stroke-width:1.0;" x1="245" x2="392" y1="549.3047" y2="549.3047"/><text fill="#262626" font-family="sans-serif" font-size="11" lengthAdjust="spacing" textLength="117" x="260" y="573.5151">picture: mediumblob</text><text fill="#262626" font-family="sans-serif" font-size="11" lengthAdjust="spacing" textLength="31" x="260" y="606.3198">id: int</text><line style="stroke:#C6C6C6;stroke-width:1.0;" x1="245" x2="392" y1="622.9141" y2="622.9141"/><text fill="#262626" font-family="sans-serif" font-size="11" lengthAdjust="spacing" textLength="111" x="260" y="647.1245">name: varchar(100)</text></g><!--class Episode--><g id="elem_Episode"><rect codeLine="43" fill="url(#g1vqseihaanbx40)" height="91.6094" id="Episode" style="stroke:#C6C6C6;stroke-width:1.0;" width="95" x="493" y="240"/><rect fill="url(#g1vqseihaanbx40)" height="42.8047" style="stroke:#C6C6C6;stroke-width:1.0;" width="95" x="493" y="240"/><ellipse cx="507" cy="261.4023" fill="#ADD1B2" rx="10" ry="10" style="stroke:#181818;stroke-width:1.0;"/><path d="M508.8594,258.1523 C508.2031,257.8398 507.7813,257.7461 507.1563,257.7461 C505.3125,257.7461 503.8906,259.1992 503.8906,261.1211 L503.8906,261.918 C503.8906,263.7461 505.3906,265.0742 507.4219,265.0742 C508.2813,265.0742 509.1094,264.8555 509.625,264.4648 C510.0469,264.1836 510.2656,263.8711 510.2656,263.5898 C510.2656,263.2773 509.9844,262.9961 509.6719,262.9961 C509.5156,262.9961 509.375,263.0586 509.2344,263.1836 C508.9063,263.5273 508.9063,263.5273 508.7813,263.5898 C508.4844,263.7773 508,263.8711 507.4531,263.8711 C506.0156,263.8711 505.0938,263.0898 505.0938,261.8867 L505.0938,261.1211 C505.0938,259.8555 505.9844,258.9336 507.2031,258.9336 C507.6094,258.9336 508.0469,259.043 508.375,259.2305 C508.7188,259.418 508.8438,259.5742 508.9063,259.8555 C508.9531,260.1523 508.9688,260.2305 509.0625,260.3242 C509.1563,260.4336 509.3281,260.4961 509.4844,260.4961 C509.6875,260.4961 509.8594,260.4023 509.9844,260.2461 C510.0625,260.1367 510.0938,260.0117 510.0938,259.6992 L510.0938,258.6992 C510.0938,258.4023 510.0781,258.3086 510,258.1992 C509.8906,258.0117 509.7031,257.9023 509.4844,257.9023 C509.2813,257.9023 509.1406,257.9805 508.9844,258.1992 L508.8594,258.1523 Z " fill="#000000"/><text fill="#262626" font-family="sans-serif" font-size="11" lengthAdjust="spacing" textLength="45" x="530" y="265.2104">Episode</text><line style="stroke:#C6C6C6;stroke-width:1.0;" x1="494" x2="587" y1="282.8047" y2="282.8047"/><text fill="#262626" font-family="sans-serif" font-size="11" lengthAdjust="spacing" textLength="31" x="509" y="307.0151">id: int</text><line style="stroke:#C6C6C6;stroke-width:1.0;" x1="494" x2="587" y1="323.6094" y2="323.6094"/></g><!--class Favorites--><g id="elem_Favorites"><rect codeLine="46" fill="url(#g1vqseihaanbx40)" height="124.4141" id="Favorites" style="stroke:#C6C6C6;stroke-width:1.0;" width="168" x="997.5" y="224"/><rect fill="url(#g1vqseihaanbx40)" height="42.8047" style="stroke:#C6C6C6;stroke-width:1.0;" width="168" x="997.5" y="224"/><ellipse cx="1041.5" cy="245.4023" fill="#ADD1B2" rx="10" ry="10" style="stroke:#181818;stroke-width:1.0;"/><path d="M1043.3594,242.1523 C1042.7031,241.8398 1042.2813,241.7461 1041.6563,241.7461 C1039.8125,241.7461 1038.3906,243.1992 1038.3906,245.1211 L1038.3906,245.918 C1038.3906,247.7461 1039.8906,249.0742 1041.9219,249.0742 C1042.7813,249.0742 1043.6094,248.8555 1044.125,248.4648 C1044.5469,248.1836 1044.7656,247.8711 1044.7656,247.5898 C1044.7656,247.2773 1044.4844,246.9961 1044.1719,246.9961 C1044.0156,246.9961 1043.875,247.0586 1043.7344,247.1836 C1043.4063,247.5273 1043.4063,247.5273 1043.2813,247.5898 C1042.9844,247.7773 1042.5,247.8711 1041.9531,247.8711 C1040.5156,247.8711 1039.5938,247.0898 1039.5938,245.8867 L1039.5938,245.1211 C1039.5938,243.8555 1040.4844,242.9336 1041.7031,242.9336 C1042.1094,242.9336 1042.5469,243.043 1042.875,243.2305 C1043.2188,243.418 1043.3438,243.5742 1043.4063,243.8555 C1043.4531,244.1523 1043.4688,244.2305 1043.5625,244.3242 C1043.6563,244.4336 1043.8281,244.4961 1043.9844,244.4961 C1044.1875,244.4961 1044.3594,244.4023 1044.4844,244.2461 C1044.5625,244.1367 1044.5938,244.0117 1044.5938,243.6992 L1044.5938,242.6992 C1044.5938,242.4023 1044.5781,242.3086 1044.5,242.1992 C1044.3906,242.0117 1044.2031,241.9023 1043.9844,241.9023 C1043.7813,241.9023 1043.6406,241.9805 1043.4844,242.1992 L1043.3594,242.1523 Z " fill="#000000"/><text fill="#262626" font-family="sans-serif" font-size="11" lengthAdjust="spacing" textLength="52" x="1070.5" y="249.2104">Favorites</text><line style="stroke:#C6C6C6;stroke-width:1.0;" x1="998.5" x2="1164.5" y1="266.8047" y2="266.8047"/><text fill="#262626" font-family="sans-serif" font-size="11" lengthAdjust="spacing" textLength="63" x="1013.5" y="291.0151">idAudio: int</text><line style="stroke:#C6C6C6;stroke-width:1.0;" x1="998.5" x2="1164.5" y1="307.6094" y2="307.6094"/><text fill="#262626" font-family="sans-serif" font-size="11" lengthAdjust="spacing" textLength="136" x="1013.5" y="331.8198">profileMail: varchar(100)</text></g><!--class Genre--><g id="elem_Genre"><rect codeLine="50" fill="url(#g1vqseihaanbx40)" height="91.6094" id="Genre" style="stroke:#C6C6C6;stroke-width:1.0;" width="139" x="854" y="539"/><rect fill="url(#g1vqseihaanbx40)" height="42.8047" style="stroke:#C6C6C6;stroke-width:1.0;" width="139" x="854" y="539"/><ellipse cx="891.85" cy="560.4023" fill="#ADD1B2" rx="10" ry="10" style="stroke:#181818;stroke-width:1.0;"/><path d="M893.7094,557.1523 C893.0531,556.8398 892.6313,556.7461 892.0063,556.7461 C890.1625,556.7461 888.7406,558.1992 888.7406,560.1211 L888.7406,560.918 C888.7406,562.7461 890.2406,564.0742 892.2719,564.0742 C893.1313,564.0742 893.9594,563.8555 894.475,563.4648 C894.8969,563.1836 895.1156,562.8711 895.1156,562.5898 C895.1156,562.2773 894.8344,561.9961 894.5219,561.9961 C894.3656,561.9961 894.225,562.0586 894.0844,562.1836 C893.7563,562.5273 893.7563,562.5273 893.6313,562.5898 C893.3344,562.7773 892.85,562.8711 892.3031,562.8711 C890.8656,562.8711 889.9438,562.0898 889.9438,560.8867 L889.9438,560.1211 C889.9438,558.8555 890.8344,557.9336 892.0531,557.9336 C892.4594,557.9336 892.8969,558.043 893.225,558.2305 C893.5688,558.418 893.6938,558.5742 893.7563,558.8555 C893.8031,559.1523 893.8188,559.2305 893.9125,559.3242 C894.0063,559.4336 894.1781,559.4961 894.3344,559.4961 C894.5375,559.4961 894.7094,559.4023 894.8344,559.2461 C894.9125,559.1367 894.9438,559.0117 894.9438,558.6992 L894.9438,557.6992 C894.9438,557.4023 894.9281,557.3086 894.85,557.1992 C894.7406,557.0117 894.5531,556.9023 894.3344,556.9023 C894.1313,556.9023 893.9906,556.9805 893.8344,557.1992 L893.7094,557.1523 Z " fill="#000000"/><text fill="#262626" font-family="sans-serif" font-size="11" lengthAdjust="spacing" textLength="36" x="920.15" y="564.2104">Genre</text><line style="stroke:#C6C6C6;stroke-width:1.0;" x1="855" x2="992" y1="581.8047" y2="581.8047"/><line style="stroke:#C6C6C6;stroke-width:1.0;" x1="855" x2="992" y1="589.8047" y2="589.8047"/><text fill="#262626" font-family="sans-serif" font-size="11" lengthAdjust="spacing" textLength="107" x="870" y="614.0151">Genre: varchar(50)</text></g><!--class ListeningHistory--><g id="elem_ListeningHistory"><rect codeLine="53" fill="url(#g1vqseihaanbx40)" height="190.0234" id="ListeningHistory" style="stroke:#C6C6C6;stroke-width:1.0;" width="168" x="1200.5" y="191"/><rect fill="url(#g1vqseihaanbx40)" height="42.8047" style="stroke:#C6C6C6;stroke-width:1.0;" width="168" x="1200.5" y="191"/><ellipse cx="1227.1" cy="212.4023" fill="#ADD1B2" rx="10" ry="10" style="stroke:#181818;stroke-width:1.0;"/><path d="M1228.9594,209.1523 C1228.3031,208.8398 1227.8813,208.7461 1227.2563,208.7461 C1225.4125,208.7461 1223.9906,210.1992 1223.9906,212.1211 L1223.9906,212.918 C1223.9906,214.7461 1225.4906,216.0742 1227.5219,216.0742 C1228.3813,216.0742 1229.2094,215.8555 1229.725,215.4648 C1230.1469,215.1836 1230.3656,214.8711 1230.3656,214.5898 C1230.3656,214.2773 1230.0844,213.9961 1229.7719,213.9961 C1229.6156,213.9961 1229.475,214.0586 1229.3344,214.1836 C1229.0063,214.5273 1229.0063,214.5273 1228.8813,214.5898 C1228.5844,214.7773 1228.1,214.8711 1227.5531,214.8711 C1226.1156,214.8711 1225.1938,214.0898 1225.1938,212.8867 L1225.1938,212.1211 C1225.1938,210.8555 1226.0844,209.9336 1227.3031,209.9336 C1227.7094,209.9336 1228.1469,210.043 1228.475,210.2305 C1228.8188,210.418 1228.9438,210.5742 1229.0063,210.8555 C1229.0531,211.1523 1229.0688,211.2305 1229.1625,211.3242 C1229.2563,211.4336 1229.4281,211.4961 1229.5844,211.4961 C1229.7875,211.4961 1229.9594,211.4023 1230.0844,211.2461 C1230.1625,211.1367 1230.1938,211.0117 1230.1938,210.6992 L1230.1938,209.6992 C1230.1938,209.4023 1230.1781,209.3086 1230.1,209.1992 C1229.9906,209.0117 1229.8031,208.9023 1229.5844,208.9023 C1229.3813,208.9023 1229.2406,208.9805 1229.0844,209.1992 L1228.9594,209.1523 Z " fill="#000000"/><text fill="#262626" font-family="sans-serif" font-size="11" lengthAdjust="spacing" textLength="90" x="1252.9" y="216.2104">ListeningHistory</text><line style="stroke:#C6C6C6;stroke-width:1.0;" x1="1201.5" x2="1367.5" y1="233.8047" y2="233.8047"/><text fill="#262626" font-family="sans-serif" font-size="11" lengthAdjust="spacing" textLength="63" x="1216.5" y="258.0151">idAudio: int</text><text fill="#262626" font-family="sans-serif" font-size="11" lengthAdjust="spacing" textLength="135" x="1216.5" y="290.8198">listeningDate: datetime</text><text fill="#262626" font-family="sans-serif" font-size="11" lengthAdjust="spacing" textLength="121" x="1216.5" y="323.6245">idListeningHistory: int</text><line style="stroke:#C6C6C6;stroke-width:1.0;" x1="1201.5" x2="1367.5" y1="340.2188" y2="340.2188"/><text fill="#262626" font-family="sans-serif" font-size="11" lengthAdjust="spacing" textLength="136" x="1216.5" y="364.4292">profileMail: varchar(100)</text></g><!--class Playlist--><g id="elem_Playlist"><rect codeLine="59" fill="url(#g1vqseihaanbx40)" height="124.4141" id="Playlist" style="stroke:#C6C6C6;stroke-width:1.0;" width="136" x="250.5" y="224"/><rect fill="url(#g1vqseihaanbx40)" height="42.8047" style="stroke:#C6C6C6;stroke-width:1.0;" width="136" x="250.5" y="224"/><ellipse cx="285.65" cy="245.4023" fill="#ADD1B2" rx="10" ry="10" style="stroke:#181818;stroke-width:1.0;"/><path d="M287.5094,242.1523 C286.8531,241.8398 286.4313,241.7461 285.8063,241.7461 C283.9625,241.7461 282.5406,243.1992 282.5406,245.1211 L282.5406,245.918 C282.5406,247.7461 284.0406,249.0742 286.0719,249.0742 C286.9313,249.0742 287.7594,248.8555 288.275,248.4648 C288.6969,248.1836 288.9156,247.8711 288.9156,247.5898 C288.9156,247.2773 288.6344,246.9961 288.3219,246.9961 C288.1656,246.9961 288.025,247.0586 287.8844,247.1836 C287.5563,247.5273 287.5563,247.5273 287.4313,247.5898 C287.1344,247.7773 286.65,247.8711 286.1031,247.8711 C284.6656,247.8711 283.7438,247.0898 283.7438,245.8867 L283.7438,245.1211 C283.7438,243.8555 284.6344,242.9336 285.8531,242.9336 C286.2594,242.9336 286.6969,243.043 287.025,243.2305 C287.3688,243.418 287.4938,243.5742 287.5563,243.8555 C287.6031,244.1523 287.6188,244.2305 287.7125,244.3242 C287.8063,244.4336 287.9781,244.4961 288.1344,244.4961 C288.3375,244.4961 288.5094,244.4023 288.6344,244.2461 C288.7125,244.1367 288.7438,244.0117 288.7438,243.6992 L288.7438,242.6992 C288.7438,242.4023 288.7281,242.3086 288.65,242.1992 C288.5406,242.0117 288.3531,241.9023 288.1344,241.9023 C287.9313,241.9023 287.7906,241.9805 287.6344,242.1992 L287.5094,242.1523 Z " fill="#000000"/><text fill="#262626" font-family="sans-serif" font-size="11" lengthAdjust="spacing" textLength="39" x="313.35" y="249.2104">Playlist</text><line style="stroke:#C6C6C6;stroke-width:1.0;" x1="251.5" x2="385.5" y1="266.8047" y2="266.8047"/><text fill="#262626" font-family="sans-serif" font-size="11" lengthAdjust="spacing" textLength="31" x="266.5" y="291.0151">id: int</text><line style="stroke:#C6C6C6;stroke-width:1.0;" x1="251.5" x2="385.5" y1="307.6094" y2="307.6094"/><text fill="#262626" font-family="sans-serif" font-size="11" lengthAdjust="spacing" textLength="104" x="266.5" y="331.8198">isVisible: tinyint(1)</text></g><!--class PlaylistAudios--><g id="elem_PlaylistAudios"><rect codeLine="63" fill="url(#g1vqseihaanbx40)" height="124.4141" id="PlaylistAudios" style="stroke:#C6C6C6;stroke-width:1.0;" width="127" x="284" y="7"/><rect fill="url(#g1vqseihaanbx40)" height="42.8047" style="stroke:#C6C6C6;stroke-width:1.0;" width="127" x="284" y="7"/><ellipse cx="298" cy="28.4023" fill="#ADD1B2" rx="10" ry="10" style="stroke:#181818;stroke-width:1.0;"/><path d="M299.8594,25.1523 C299.2031,24.8398 298.7813,24.7461 298.1563,24.7461 C296.3125,24.7461 294.8906,26.1992 294.8906,28.1211 L294.8906,28.918 C294.8906,30.7461 296.3906,32.0742 298.4219,32.0742 C299.2813,32.0742 300.1094,31.8555 300.625,31.4648 C301.0469,31.1836 301.2656,30.8711 301.2656,30.5898 C301.2656,30.2773 300.9844,29.9961 300.6719,29.9961 C300.5156,29.9961 300.375,30.0586 300.2344,30.1836 C299.9063,30.5273 299.9063,30.5273 299.7813,30.5898 C299.4844,30.7773 299,30.8711 298.4531,30.8711 C297.0156,30.8711 296.0938,30.0898 296.0938,28.8867 L296.0938,28.1211 C296.0938,26.8555 296.9844,25.9336 298.2031,25.9336 C298.6094,25.9336 299.0469,26.043 299.375,26.2305 C299.7188,26.418 299.8438,26.5742 299.9063,26.8555 C299.9531,27.1523 299.9688,27.2305 300.0625,27.3242 C300.1563,27.4336 300.3281,27.4961 300.4844,27.4961 C300.6875,27.4961 300.8594,27.4023 300.9844,27.2461 C301.0625,27.1367 301.0938,27.0117 301.0938,26.6992 L301.0938,25.6992 C301.0938,25.4023 301.0781,25.3086 301,25.1992 C300.8906,25.0117 300.7031,24.9023 300.4844,24.9023 C300.2813,24.9023 300.1406,24.9805 299.9844,25.1992 L299.8594,25.1523 Z " fill="#000000"/><text fill="#262626" font-family="sans-serif" font-size="11" lengthAdjust="spacing" textLength="77" x="321" y="32.2104">PlaylistAudios</text><line style="stroke:#C6C6C6;stroke-width:1.0;" x1="285" x2="410" y1="49.8047" y2="49.8047"/><text fill="#262626" font-family="sans-serif" font-size="11" lengthAdjust="spacing" textLength="70" x="300" y="74.0151">idPlaylist: int</text><text fill="#262626" font-family="sans-serif" font-size="11" lengthAdjust="spacing" textLength="63" x="300" y="106.8198">idAudio: int</text><line style="stroke:#C6C6C6;stroke-width:1.0;" x1="285" x2="410" y1="123.4141" y2="123.4141"/></g><!--class Podcast--><g id="elem_Podcast"><rect codeLine="67" fill="url(#g1vqseihaanbx40)" height="91.6094" id="Podcast" style="stroke:#C6C6C6;stroke-width:1.0;" width="93" x="623" y="240"/><rect fill="url(#g1vqseihaanbx40)" height="42.8047" style="stroke:#C6C6C6;stroke-width:1.0;" width="93" x="623" y="240"/><ellipse cx="637" cy="261.4023" fill="#ADD1B2" rx="10" ry="10" style="stroke:#181818;stroke-width:1.0;"/><path d="M638.8594,258.1523 C638.2031,257.8398 637.7813,257.7461 637.1563,257.7461 C635.3125,257.7461 633.8906,259.1992 633.8906,261.1211 L633.8906,261.918 C633.8906,263.7461 635.3906,265.0742 637.4219,265.0742 C638.2813,265.0742 639.1094,264.8555 639.625,264.4648 C640.0469,264.1836 640.2656,263.8711 640.2656,263.5898 C640.2656,263.2773 639.9844,262.9961 639.6719,262.9961 C639.5156,262.9961 639.375,263.0586 639.2344,263.1836 C638.9063,263.5273 638.9063,263.5273 638.7813,263.5898 C638.4844,263.7773 638,263.8711 637.4531,263.8711 C636.0156,263.8711 635.0938,263.0898 635.0938,261.8867 L635.0938,261.1211 C635.0938,259.8555 635.9844,258.9336 637.2031,258.9336 C637.6094,258.9336 638.0469,259.043 638.375,259.2305 C638.7188,259.418 638.8438,259.5742 638.9063,259.8555 C638.9531,260.1523 638.9688,260.2305 639.0625,260.3242 C639.1563,260.4336 639.3281,260.4961 639.4844,260.4961 C639.6875,260.4961 639.8594,260.4023 639.9844,260.2461 C640.0625,260.1367 640.0938,260.0117 640.0938,259.6992 L640.0938,258.6992 C640.0938,258.4023 640.0781,258.3086 640,258.1992 C639.8906,258.0117 639.7031,257.9023 639.4844,257.9023 C639.2813,257.9023 639.1406,257.9805 638.9844,258.1992 L638.8594,258.1523 Z " fill="#000000"/><text fill="#262626" font-family="sans-serif" font-size="11" lengthAdjust="spacing" textLength="43" x="660" y="265.2104">Podcast</text><line style="stroke:#C6C6C6;stroke-width:1.0;" x1="624" x2="715" y1="282.8047" y2="282.8047"/><text fill="#262626" font-family="sans-serif" font-size="11" lengthAdjust="spacing" textLength="31" x="639" y="307.0151">id: int</text><line style="stroke:#C6C6C6;stroke-width:1.0;" x1="624" x2="715" y1="323.6094" y2="323.6094"/></g><!--class PodcastEpisodes--><g id="elem_PodcastEpisodes"><rect codeLine="70" fill="url(#g1vqseihaanbx40)" height="124.4141" id="PodcastEpisodes" style="stroke:#C6C6C6;stroke-width:1.0;" width="144" x="475.5" y="7"/><rect fill="url(#g1vqseihaanbx40)" height="42.8047" style="stroke:#C6C6C6;stroke-width:1.0;" width="144" x="475.5" y="7"/><ellipse cx="489.5" cy="28.4023" fill="#ADD1B2" rx="10" ry="10" style="stroke:#181818;stroke-width:1.0;"/><path d="M491.3594,25.1523 C490.7031,24.8398 490.2813,24.7461 489.6563,24.7461 C487.8125,24.7461 486.3906,26.1992 486.3906,28.1211 L486.3906,28.918 C486.3906,30.7461 487.8906,32.0742 489.9219,32.0742 C490.7813,32.0742 491.6094,31.8555 492.125,31.4648 C492.5469,31.1836 492.7656,30.8711 492.7656,30.5898 C492.7656,30.2773 492.4844,29.9961 492.1719,29.9961 C492.0156,29.9961 491.875,30.0586 491.7344,30.1836 C491.4063,30.5273 491.4063,30.5273 491.2813,30.5898 C490.9844,30.7773 490.5,30.8711 489.9531,30.8711 C488.5156,30.8711 487.5938,30.0898 487.5938,28.8867 L487.5938,28.1211 C487.5938,26.8555 488.4844,25.9336 489.7031,25.9336 C490.1094,25.9336 490.5469,26.043 490.875,26.2305 C491.2188,26.418 491.3438,26.5742 491.4063,26.8555 C491.4531,27.1523 491.4688,27.2305 491.5625,27.3242 C491.6563,27.4336 491.8281,27.4961 491.9844,27.4961 C492.1875,27.4961 492.3594,27.4023 492.4844,27.2461 C492.5625,27.1367 492.5938,27.0117 492.5938,26.6992 L492.5938,25.6992 C492.5938,25.4023 492.5781,25.3086 492.5,25.1992 C492.3906,25.0117 492.2031,24.9023 491.9844,24.9023 C491.7813,24.9023 491.6406,24.9805 491.4844,25.1992 L491.3594,25.1523 Z " fill="#000000"/><text fill="#262626" font-family="sans-serif" font-size="11" lengthAdjust="spacing" textLength="94" x="512.5" y="32.2104">PodcastEpisodes</text><line style="stroke:#C6C6C6;stroke-width:1.0;" x1="476.5" x2="618.5" y1="49.8047" y2="49.8047"/><text fill="#262626" font-family="sans-serif" font-size="11" lengthAdjust="spacing" textLength="74" x="491.5" y="74.0151">idPodcast: int</text><text fill="#262626" font-family="sans-serif" font-size="11" lengthAdjust="spacing" textLength="76" x="491.5" y="106.8198">idEpisode: int</text><line style="stroke:#C6C6C6;stroke-width:1.0;" x1="476.5" x2="618.5" y1="123.4141" y2="123.4141"/></g><!--class Profile--><g id="elem_Profile"><rect codeLine="74" fill="url(#g1vqseihaanbx40)" height="288.4375" id="Profile" style="stroke:#C6C6C6;stroke-width:1.0;" width="184" x="1329.5" y="441"/><rect fill="url(#g1vqseihaanbx40)" height="42.8047" style="stroke:#C6C6C6;stroke-width:1.0;" width="184" x="1329.5" y="441"/><ellipse cx="1390" cy="462.4023" fill="#ADD1B2" rx="10" ry="10" style="stroke:#181818;stroke-width:1.0;"/><path d="M1391.8594,459.1523 C1391.2031,458.8398 1390.7813,458.7461 1390.1563,458.7461 C1388.3125,458.7461 1386.8906,460.1992 1386.8906,462.1211 L1386.8906,462.918 C1386.8906,464.7461 1388.3906,466.0742 1390.4219,466.0742 C1391.2813,466.0742 1392.1094,465.8555 1392.625,465.4648 C1393.0469,465.1836 1393.2656,464.8711 1393.2656,464.5898 C1393.2656,464.2773 1392.9844,463.9961 1392.6719,463.9961 C1392.5156,463.9961 1392.375,464.0586 1392.2344,464.1836 C1391.9063,464.5273 1391.9063,464.5273 1391.7813,464.5898 C1391.4844,464.7773 1391,464.8711 1390.4531,464.8711 C1389.0156,464.8711 1388.0938,464.0898 1388.0938,462.8867 L1388.0938,462.1211 C1388.0938,460.8555 1388.9844,459.9336 1390.2031,459.9336 C1390.6094,459.9336 1391.0469,460.043 1391.375,460.2305 C1391.7188,460.418 1391.8438,460.5742 1391.9063,460.8555 C1391.9531,461.1523 1391.9688,461.2305 1392.0625,461.3242 C1392.1563,461.4336 1392.3281,461.4961 1392.4844,461.4961 C1392.6875,461.4961 1392.8594,461.4023 1392.9844,461.2461 C1393.0625,461.1367 1393.0938,461.0117 1393.0938,460.6992 L1393.0938,459.6992 C1393.0938,459.4023 1393.0781,459.3086 1393,459.1992 C1392.8906,459.0117 1392.7031,458.9023 1392.4844,458.9023 C1392.2813,458.9023 1392.1406,458.9805 1391.9844,459.1992 L1391.8594,459.1523 Z " fill="#000000"/><text fill="#262626" font-family="sans-serif" font-size="11" lengthAdjust="spacing" textLength="35" x="1419" y="466.2104">Profile</text><line style="stroke:#C6C6C6;stroke-width:1.0;" x1="1330.5" x2="1512.5" y1="483.8047" y2="483.8047"/><text fill="#262626" font-family="sans-serif" font-size="11" lengthAdjust="spacing" textLength="86" x="1345.5" y="508.0151">biography: text</text><text fill="#262626" font-family="sans-serif" font-size="11" lengthAdjust="spacing" textLength="152" x="1345.5" y="540.8198">profilePicture: mediumblob</text><line style="stroke:#C6C6C6;stroke-width:1.0;" x1="1330.5" x2="1512.5" y1="557.4141" y2="557.4141"/><text fill="#262626" font-family="sans-serif" font-size="11" lengthAdjust="spacing" textLength="129" x="1345.5" y="581.6245">username: varchar(30)</text><text fill="#262626" font-family="sans-serif" font-size="11" lengthAdjust="spacing" textLength="131" x="1345.5" y="614.4292">password: varchar(100)</text><text fill="#262626" font-family="sans-serif" font-size="11" lengthAdjust="spacing" textLength="104" x="1345.5" y="647.2339">name: varchar(50)</text><text fill="#262626" font-family="sans-serif" font-size="11" lengthAdjust="spacing" textLength="121" x="1345.5" y="680.0386">surname: varchar(50)</text><text fill="#262626" font-family="sans-serif" font-size="11" lengthAdjust="spacing" textLength="102" x="1345.5" y="712.8433">mail: varchar(100)</text></g><!--class ProfilePlaylists--><g id="elem_ProfilePlaylists"><rect codeLine="83" fill="url(#g1vqseihaanbx40)" height="124.4141" id="ProfilePlaylists" style="stroke:#C6C6C6;stroke-width:1.0;" width="168" x="764.5" y="7"/><rect fill="url(#g1vqseihaanbx40)" height="42.8047" style="stroke:#C6C6C6;stroke-width:1.0;" width="168" x="764.5" y="7"/><ellipse cx="795.6" cy="28.4023" fill="#ADD1B2" rx="10" ry="10" style="stroke:#181818;stroke-width:1.0;"/><path d="M797.4594,25.1523 C796.8031,24.8398 796.3813,24.7461 795.7563,24.7461 C793.9125,24.7461 792.4906,26.1992 792.4906,28.1211 L792.4906,28.918 C792.4906,30.7461 793.9906,32.0742 796.0219,32.0742 C796.8813,32.0742 797.7094,31.8555 798.225,31.4648 C798.6469,31.1836 798.8656,30.8711 798.8656,30.5898 C798.8656,30.2773 798.5844,29.9961 798.2719,29.9961 C798.1156,29.9961 797.975,30.0586 797.8344,30.1836 C797.5063,30.5273 797.5063,30.5273 797.3813,30.5898 C797.0844,30.7773 796.6,30.8711 796.0531,30.8711 C794.6156,30.8711 793.6938,30.0898 793.6938,28.8867 L793.6938,28.1211 C793.6938,26.8555 794.5844,25.9336 795.8031,25.9336 C796.2094,25.9336 796.6469,26.043 796.975,26.2305 C797.3188,26.418 797.4438,26.5742 797.5063,26.8555 C797.5531,27.1523 797.5688,27.2305 797.6625,27.3242 C797.7563,27.4336 797.9281,27.4961 798.0844,27.4961 C798.2875,27.4961 798.4594,27.4023 798.5844,27.2461 C798.6625,27.1367 798.6938,27.0117 798.6938,26.6992 L798.6938,25.6992 C798.6938,25.4023 798.6781,25.3086 798.6,25.1992 C798.4906,25.0117 798.3031,24.9023 798.0844,24.9023 C797.8813,24.9023 797.7406,24.9805 797.5844,25.1992 L797.4594,25.1523 Z " fill="#000000"/><text fill="#262626" font-family="sans-serif" font-size="11" lengthAdjust="spacing" textLength="80" x="822.4" y="32.2104">ProfilePlaylists</text><line style="stroke:#C6C6C6;stroke-width:1.0;" x1="765.5" x2="931.5" y1="49.8047" y2="49.8047"/><text fill="#262626" font-family="sans-serif" font-size="11" lengthAdjust="spacing" textLength="70" x="780.5" y="74.0151">idPlaylist: int</text><line style="stroke:#C6C6C6;stroke-width:1.0;" x1="765.5" x2="931.5" y1="90.6094" y2="90.6094"/><text fill="#262626" font-family="sans-serif" font-size="11" lengthAdjust="spacing" textLength="136" x="780.5" y="114.8198">profileMail: varchar(100)</text></g><!--class Song--><g id="elem_Song"><rect codeLine="87" fill="url(#g1vqseihaanbx40)" height="91.6094" id="Song" style="stroke:#C6C6C6;stroke-width:1.0;" width="79" x="15" y="240"/><rect fill="url(#g1vqseihaanbx40)" height="42.8047" style="stroke:#C6C6C6;stroke-width:1.0;" width="79" x="15" y="240"/><ellipse cx="29" cy="261.4023" fill="#ADD1B2" rx="10" ry="10" style="stroke:#181818;stroke-width:1.0;"/><path d="M30.8594,258.1523 C30.2031,257.8398 29.7813,257.7461 29.1563,257.7461 C27.3125,257.7461 25.8906,259.1992 25.8906,261.1211 L25.8906,261.918 C25.8906,263.7461 27.3906,265.0742 29.4219,265.0742 C30.2813,265.0742 31.1094,264.8555 31.625,264.4648 C32.0469,264.1836 32.2656,263.8711 32.2656,263.5898 C32.2656,263.2773 31.9844,262.9961 31.6719,262.9961 C31.5156,262.9961 31.375,263.0586 31.2344,263.1836 C30.9063,263.5273 30.9063,263.5273 30.7813,263.5898 C30.4844,263.7773 30,263.8711 29.4531,263.8711 C28.0156,263.8711 27.0938,263.0898 27.0938,261.8867 L27.0938,261.1211 C27.0938,259.8555 27.9844,258.9336 29.2031,258.9336 C29.6094,258.9336 30.0469,259.043 30.375,259.2305 C30.7188,259.418 30.8438,259.5742 30.9063,259.8555 C30.9531,260.1523 30.9688,260.2305 31.0625,260.3242 C31.1563,260.4336 31.3281,260.4961 31.4844,260.4961 C31.6875,260.4961 31.8594,260.4023 31.9844,260.2461 C32.0625,260.1367 32.0938,260.0117 32.0938,259.6992 L32.0938,258.6992 C32.0938,258.4023 32.0781,258.3086 32,258.1992 C31.8906,258.0117 31.7031,257.9023 31.4844,257.9023 C31.2813,257.9023 31.1406,257.9805 30.9844,258.1992 L30.8594,258.1523 Z " fill="#000000"/><text fill="#262626" font-family="sans-serif" font-size="11" lengthAdjust="spacing" textLength="29" x="52" y="265.2104">Song</text><line style="stroke:#C6C6C6;stroke-width:1.0;" x1="16" x2="93" y1="282.8047" y2="282.8047"/><text fill="#262626" font-family="sans-serif" font-size="11" lengthAdjust="spacing" textLength="31" x="31" y="307.0151">id: int</text><line style="stroke:#C6C6C6;stroke-width:1.0;" x1="16" x2="93" y1="323.6094" y2="323.6094"/></g><!--class User--><g id="elem_User"><rect codeLine="90" fill="url(#g1vqseihaanbx40)" height="124.4141" id="User" style="stroke:#C6C6C6;stroke-width:1.0;" width="136" x="1643.5" y="224"/><rect fill="url(#g1vqseihaanbx40)" height="42.8047" style="stroke:#C6C6C6;stroke-width:1.0;" width="136" x="1643.5" y="224"/><ellipse cx="1684.5" cy="245.4023" fill="#ADD1B2" rx="10" ry="10" style="stroke:#181818;stroke-width:1.0;"/><path d="M1686.3594,242.1523 C1685.7031,241.8398 1685.2813,241.7461 1684.6563,241.7461 C1682.8125,241.7461 1681.3906,243.1992 1681.3906,245.1211 L1681.3906,245.918 C1681.3906,247.7461 1682.8906,249.0742 1684.9219,249.0742 C1685.7813,249.0742 1686.6094,248.8555 1687.125,248.4648 C1687.5469,248.1836 1687.7656,247.8711 1687.7656,247.5898 C1687.7656,247.2773 1687.4844,246.9961 1687.1719,246.9961 C1687.0156,246.9961 1686.875,247.0586 1686.7344,247.1836 C1686.4063,247.5273 1686.4063,247.5273 1686.2813,247.5898 C1685.9844,247.7773 1685.5,247.8711 1684.9531,247.8711 C1683.5156,247.8711 1682.5938,247.0898 1682.5938,245.8867 L1682.5938,245.1211 C1682.5938,243.8555 1683.4844,242.9336 1684.7031,242.9336 C1685.1094,242.9336 1685.5469,243.043 1685.875,243.2305 C1686.2188,243.418 1686.3438,243.5742 1686.4063,243.8555 C1686.4531,244.1523 1686.4688,244.2305 1686.5625,244.3242 C1686.6563,244.4336 1686.8281,244.4961 1686.9844,244.4961 C1687.1875,244.4961 1687.3594,244.4023 1687.4844,244.2461 C1687.5625,244.1367 1687.5938,244.0117 1687.5938,243.6992 L1687.5938,242.6992 C1687.5938,242.4023 1687.5781,242.3086 1687.5,242.1992 C1687.3906,242.0117 1687.2031,241.9023 1686.9844,241.9023 C1686.7813,241.9023 1686.6406,241.9805 1686.4844,242.1992 L1686.3594,242.1523 Z " fill="#000000"/><text fill="#262626" font-family="sans-serif" font-size="11" lengthAdjust="spacing" textLength="26" x="1713.5" y="249.2104">User</text><line style="stroke:#C6C6C6;stroke-width:1.0;" x1="1644.5" x2="1778.5" y1="266.8047" y2="266.8047"/><line style="stroke:#C6C6C6;stroke-width:1.0;" x1="1644.5" x2="1778.5" y1="274.8047" y2="274.8047"/><text fill="#262626" font-family="sans-serif" font-size="11" lengthAdjust="spacing" textLength="104" x="1659.5" y="299.0151">isVisible: tinyint(1)</text><text fill="#262626" font-family="sans-serif" font-size="11" lengthAdjust="spacing" textLength="102" x="1659.5" y="331.8198">mail: varchar(100)</text></g><!--link Album to Collection--><g id="link_Album_Collection"><path codeLine="95" d="M172.5,332.063 C172.5,415.935 172.5,585 172.5,585 C172.5,585 189.868,585 225.789,585 " fill="none" id="Album-to-Collection" style="stroke:#595959;stroke-width:1.0;"/><polygon fill="none" points="243.789,585,225.789,579,225.789,591,243.789,585" style="stroke:#595959;stroke-width:1.0;"/><text fill="#262626" font-family="sans-serif" font-size="12" lengthAdjust="spacing" textLength="11" x="150.5" y="481.3147">id</text></g><!--link AlbumSongs to Album--><g id="link_AlbumSongs_Album"><path codeLine="96" d="M163.25,131.183 C163.25,165.75 163.25,190.037 163.25,221.677 " fill="none" id="AlbumSongs-to-Album" style="stroke:#595959;stroke-width:1.0;"/><polygon fill="none" points="163.25,239.677,169.25,221.677,157.25,221.677,163.25,239.677" style="stroke:#595959;stroke-width:1.0;"/><text fill="#262626" font-family="sans-serif" font-size="12" lengthAdjust="spacing" textLength="63" x="89.25" y="172.5687">idAlbum:id</text></g><!--link AlbumSongs to Song--><g id="link_AlbumSongs_Song"><path codeLine="97" d="M85,131.183 C85,165.75 85,190.037 85,221.677 " fill="none" id="AlbumSongs-to-Song" style="stroke:#595959;stroke-width:1.0;"/><polygon fill="none" points="85,239.677,91,221.677,79,221.677,85,239.677" style="stroke:#595959;stroke-width:1.0;"/><text fill="#262626" font-family="sans-serif" font-size="12" lengthAdjust="spacing" textLength="57" x="17" y="207.5687">idSong:id</text></g><!--link Artist to Profile--><g id="link_Artist_Profile"><path codeLine="98" d="M1487.5,332.063 C1487.5,361.468 1487.5,383.343 1487.5,422.734 " fill="none" id="Artist-to-Profile" style="stroke:#595959;stroke-width:1.0;"/><polygon fill="none" points="1487.5,440.734,1493.5,422.734,1481.5,422.734,1487.5,440.734" style="stroke:#595959;stroke-width:1.0;"/><text fill="#262626" font-family="sans-serif" font-size="12" lengthAdjust="spacing" textLength="24" x="1452.5" y="373.5377">mail</text></g><!--link ArtistAlbums to Album--><g id="link_ArtistAlbums_Album"><path codeLine="99" d="M1094,131.111 C1094,138.229 1094,143 1094,143 C1094,143 206.25,143 206.25,143 C206.25,143 206.25,180.163 206.25,221.967 " fill="none" id="ArtistAlbums-to-Album" style="stroke:#595959;stroke-width:1.0;"/><polygon fill="none" points="206.25,239.967,212.25,221.967,200.25,221.967,206.25,239.967" style="stroke:#595959;stroke-width:1.0;"/><text fill="#262626" font-family="sans-serif" font-size="12" lengthAdjust="spacing" textLength="63" x="533.586" y="165.1387">idAlbum:id</text></g><!--link ArtistAlbums to Artist--><g id="link_ArtistAlbums_Artist"><path codeLine="100" d="M1174,131.072 C1174,156.023 1174,179 1174,179 C1174,179 1519.17,179 1519.17,179 C1519.17,179 1519.17,192.773 1519.17,221.691 " fill="none" id="ArtistAlbums-to-Artist" style="stroke:#595959;stroke-width:1.0;"/><polygon fill="none" points="1519.17,239.691,1525.17,221.691,1513.17,221.691,1519.17,239.691" style="stroke:#595959;stroke-width:1.0;"/><text fill="#262626" font-family="sans-serif" font-size="12" lengthAdjust="spacing" textLength="81" x="1260.96" y="166.1387">artistMail:mail</text></g><!--link ArtistAudios to Artist--><g id="link_ArtistAudios_Artist"><path codeLine="101" d="M1563.83,131.183 C1563.83,165.75 1563.83,190.037 1563.83,221.677 " fill="none" id="ArtistAudios-to-Artist" style="stroke:#595959;stroke-width:1.0;"/><polygon fill="none" points="1563.83,239.677,1569.83,221.677,1557.83,221.677,1563.83,239.677" style="stroke:#595959;stroke-width:1.0;"/><text fill="#262626" font-family="sans-serif" font-size="12" lengthAdjust="spacing" textLength="81" x="1471.83" y="172.5687">artistMail:mail</text></g><!--link ArtistAudios to Audio--><g id="link_ArtistAudios_Audio"><path codeLine="102" d="M1464.5,131.065 C1464.5,150.514 1464.5,167 1464.5,167 C1464.5,167 782.667,167 782.667,167 C782.667,167 782.667,331.437 782.667,455.258 " fill="none" id="ArtistAudios-to-Audio" style="stroke:#595959;stroke-width:1.0;"/><polygon fill="none" points="782.667,473.258,788.667,455.258,776.667,455.258,782.667,473.258" style="stroke:#595959;stroke-width:1.0;"/><text fill="#262626" font-family="sans-serif" font-size="12" lengthAdjust="spacing" textLength="60" x="917.422" y="189.1387">idAudio:id</text></g><!--link ArtistPodcasts to Artist--><g id="link_ArtistPodcasts_Artist"><path codeLine="103" d="M1387,131.183 C1387,195.307 1387,286 1387,286 C1387,286 1414.55,286 1456.18,286 " fill="none" id="ArtistPodcasts-to-Artist" style="stroke:#595959;stroke-width:1.0;"/><polygon fill="none" points="1474.18,286,1456.18,280,1456.18,292,1474.18,286" style="stroke:#595959;stroke-width:1.0;"/><text fill="#262626" font-family="sans-serif" font-size="12" lengthAdjust="spacing" textLength="81" x="1398" y="239.3217">artistMail:mail</text></g><!--link ArtistPodcasts to Podcast--><g id="link_ArtistPodcasts_Podcast"><path codeLine="104" d="M1307,131.044 C1307,144.606 1307,155 1307,155 C1307,155 669.5,155 669.5,155 C669.5,155 669.5,184.099 669.5,221.814 " fill="none" id="ArtistPodcasts-to-Podcast" style="stroke:#595959;stroke-width:1.0;"/><polygon fill="none" points="669.5,239.814,675.5,221.814,663.5,221.814,669.5,239.814" style="stroke:#595959;stroke-width:1.0;"/><text fill="#262626" font-family="sans-serif" font-size="12" lengthAdjust="spacing" textLength="73" x="968.821" y="142.1387">idPodcast:id</text></g><!--link AudioGenres to Audio--><g id="link_AudioGenres_Audio"><path codeLine="105" d="M822.557,340 C810.01,340 800.833,340 800.833,340 C800.833,340 800.833,390.638 800.833,455.254 " fill="none" id="AudioGenres-to-Audio" style="stroke:#595959;stroke-width:1.0;"/><polygon fill="none" points="800.833,473.254,806.833,455.254,794.833,455.254,800.833,473.254" style="stroke:#595959;stroke-width:1.0;"/><text fill="#262626" font-family="sans-serif" font-size="12" lengthAdjust="spacing" textLength="60" x="729.833" y="382.9037">idAudio:id</text></g><!--link AudioGenres to Genre--><g id="link_AudioGenres_Genre"><path codeLine="106" d="M908,348.316 C908,405.138 908,469.788 908,520.878 " fill="none" id="AudioGenres-to-Genre" style="stroke:#595959;stroke-width:1.0;"/><polygon fill="none" points="908,538.878,914,520.878,902,520.878,908,538.878" style="stroke:#595959;stroke-width:1.0;"/><text fill="#262626" font-family="sans-serif" font-size="12" lengthAdjust="spacing" textLength="37" x="860" y="430.7357">Genre</text></g><!--link Episode to Audio--><g id="link_Episode_Audio"><path codeLine="107" d="M540.5,332.449 C540.5,390.409 540.5,482 540.5,482 C540.5,482 583.755,482 637.951,482 " fill="none" id="Episode-to-Audio" style="stroke:#595959;stroke-width:1.0;"/><polygon fill="none" points="655.951,482,637.951,476,637.951,488,655.951,482" style="stroke:#595959;stroke-width:1.0;"/><text fill="#262626" font-family="sans-serif" font-size="12" lengthAdjust="spacing" textLength="11" x="518.5" y="452.0887">id</text></g><!--link Favorites to Audio--><g id="link_Favorites_Audio"><path codeLine="108" d="M1053.5,348.149 C1053.5,413.515 1053.5,507 1053.5,507 C1053.5,507 930.918,507 837.289,507 " fill="none" id="Favorites-to-Audio" style="stroke:#595959;stroke-width:1.0;"/><polygon fill="none" points="819.289,507,837.289,513,837.289,501,819.289,507" style="stroke:#595959;stroke-width:1.0;"/><text fill="#262626" font-family="sans-serif" font-size="12" lengthAdjust="spacing" textLength="60" x="944.82" y="494.1387">idAudio:id</text></g><!--link Favorites to Profile--><g id="link_Favorites_Profile"><path codeLine="109" d="M1109.5,348.285 C1109.5,395.388 1109.5,452 1109.5,452 C1109.5,452 1219.15,452 1311.16,452 " fill="none" id="Favorites-to-Profile" style="stroke:#595959;stroke-width:1.0;"/><polygon fill="none" points="1329.16,452,1311.16,446,1311.16,458,1329.16,452" style="stroke:#595959;stroke-width:1.0;"/><text fill="#262626" font-family="sans-serif" font-size="12" lengthAdjust="spacing" textLength="90" x="1066.47" y="439.1387">profileMail:mail</text></g><!--link ListeningHistory to Audio--><g id="link_ListeningHistory_Audio"><path codeLine="110" d="M1200.47,365 C1064.16,365 809.917,365 809.917,365 C809.917,365 809.917,400.931 809.917,455.389 " fill="none" id="ListeningHistory-to-Audio" style="stroke:#595959;stroke-width:1.0;"/><polygon fill="none" points="809.917,473.389,815.917,455.389,803.917,455.389,809.917,473.389" style="stroke:#595959;stroke-width:1.0;"/><text fill="#262626" font-family="sans-serif" font-size="12" lengthAdjust="spacing" textLength="60" x="880.001" y="387.1387">idAudio:id</text></g><!--link ListeningHistory to Profile--><g id="link_ListeningHistory_Profile"><path codeLine="111" d="M1349,381.016 C1349,400.083 1349,402.519 1349,422.824 " fill="none" id="ListeningHistory-to-Profile" style="stroke:#595959;stroke-width:1.0;"/><polygon fill="none" points="1349,440.824,1355,422.824,1343,422.824,1349,440.824" style="stroke:#595959;stroke-width:1.0;"/><text fill="#262626" font-family="sans-serif" font-size="12" lengthAdjust="spacing" textLength="90" x="1248" y="433.0587">profileMail:mail</text></g><!--link Playlist to Collection--><g id="link_Playlist_Collection"><path codeLine="112" d="M318.5,348.316 C318.5,394.184 318.5,438.882 318.5,488.224 " fill="none" id="Playlist-to-Collection" style="stroke:#595959;stroke-width:1.0;"/><polygon fill="none" points="318.5,506.224,324.5,488.224,312.5,488.224,318.5,506.224" style="stroke:#595959;stroke-width:1.0;"/><text fill="#262626" font-family="sans-serif" font-size="12" lengthAdjust="spacing" textLength="11" x="296.5" y="414.4087">id</text></g><!--link PlaylistAudios to Audio--><g id="link_PlaylistAudios_Audio"><path codeLine="113" d="M402,131.12 C402,248.228 402,490 402,490 C402,490 538.548,490 637.856,490 " fill="none" id="PlaylistAudios-to-Audio" style="stroke:#595959;stroke-width:1.0;"/><polygon fill="none" points="655.856,490,637.856,484,637.856,496,655.856,490" style="stroke:#595959;stroke-width:1.0;"/><text fill="#262626" font-family="sans-serif" font-size="12" lengthAdjust="spacing" textLength="60" x="331" y="424.6267">idAudio:id</text></g><!--link PlaylistAudios to Playlist--><g id="link_PlaylistAudios_Playlist"><path codeLine="114" d="M335.25,131.183 C335.25,160.239 335.25,176.751 335.25,205.807 " fill="none" id="PlaylistAudios-to-Playlist" style="stroke:#595959;stroke-width:1.0;"/><polygon fill="none" points="335.25,223.807,341.25,205.807,329.25,205.807,335.25,223.807" style="stroke:#595959;stroke-width:1.0;"/><text fill="#262626" font-family="sans-serif" font-size="12" lengthAdjust="spacing" textLength="66" x="258.25" y="164.6337">idPlaylist:id</text></g><!--link Podcast to Collection--><g id="link_Podcast_Collection"><path codeLine="115" d="M639.5,332.063 C639.5,415.935 639.5,585 639.5,585 C639.5,585 506.208,585 411.355,585 " fill="none" id="Podcast-to-Collection" style="stroke:#595959;stroke-width:1.0;"/><polygon fill="none" points="393.355,585,411.355,591,411.355,579,393.355,585" style="stroke:#595959;stroke-width:1.0;"/><text fill="#262626" font-family="sans-serif" font-size="12" lengthAdjust="spacing" textLength="11" x="617.5" y="568.7427">id</text></g><!--link PodcastEpisodes to Episode--><g id="link_PodcastEpisodes_Episode"><path codeLine="116" d="M540.5,131.183 C540.5,165.75 540.5,190.037 540.5,221.677 " fill="none" id="PodcastEpisodes-to-Episode" style="stroke:#595959;stroke-width:1.0;"/><polygon fill="none" points="540.5,239.677,546.5,221.677,534.5,221.677,540.5,239.677" style="stroke:#595959;stroke-width:1.0;"/><text fill="#262626" font-family="sans-serif" font-size="12" lengthAdjust="spacing" textLength="75" x="454.5" y="207.5687">idEpisode:id</text></g><!--link PodcastEpisodes to Podcast--><g id="link_PodcastEpisodes_Podcast"><path codeLine="117" d="M603.75,131.183 C603.75,195.307 603.75,286 603.75,286 C603.75,286 594.058,286 604.768,286 " fill="none" id="PodcastEpisodes-to-Podcast" style="stroke:#595959;stroke-width:1.0;"/><polygon fill="none" points="622.768,286,604.768,280,604.768,292,622.768,286" style="stroke:#595959;stroke-width:1.0;"/><text fill="#262626" font-family="sans-serif" font-size="12" lengthAdjust="spacing" textLength="73" x="614.75" y="205.2397">idPodcast:id</text></g><!--link ProfilePlaylists to Playlist--><g id="link_ProfilePlaylists_Playlist"><path codeLine="118" d="M773.583,131.088 C773.583,177.152 773.583,232 773.583,232 C773.583,232 531.584,232 404.631,232 " fill="none" id="ProfilePlaylists-to-Playlist" style="stroke:#595959;stroke-width:1.0;"/><polygon fill="none" points="386.631,232,404.631,238,404.631,226,386.631,232" style="stroke:#595959;stroke-width:1.0;"/><text fill="#262626" font-family="sans-serif" font-size="12" lengthAdjust="spacing" textLength="66" x="553.563" y="219.1387">idPlaylist:id</text></g><!--link ProfilePlaylists to Profile--><g id="link_ProfilePlaylists_Profile"><path codeLine="119" d="M791.75,131.43 C791.75,242.528 791.75,463 791.75,463 C791.75,463 1136.34,463 1311.25,463 " fill="none" id="ProfilePlaylists-to-Profile" style="stroke:#595959;stroke-width:1.0;"/><polygon fill="none" points="1329.25,463,1311.25,457,1311.25,469,1329.25,463" style="stroke:#595959;stroke-width:1.0;"/><text fill="#262626" font-family="sans-serif" font-size="12" lengthAdjust="spacing" textLength="90" x="821.717" y="485.1387">profileMail:mail</text></g><!--link Song to Audio--><g id="link_Song_Audio"><path codeLine="120" d="M54.5,332.218 C54.5,394.863 54.5,499 54.5,499 C54.5,499 456.503,499 637.793,499 " fill="none" id="Song-to-Audio" style="stroke:#595959;stroke-width:1.0;"/><polygon fill="none" points="655.793,499,637.793,493,637.793,505,655.793,499" style="stroke:#595959;stroke-width:1.0;"/><text fill="#262626" font-family="sans-serif" font-size="12" lengthAdjust="spacing" textLength="11" x="249.755" y="486.1387">id</text></g><!--link User to Profile--><g id="link_User_Profile"><path codeLine="121" d="M1643.29,340 C1581.64,340 1500.5,340 1500.5,340 C1500.5,340 1500.5,369.525 1500.5,422.711 " fill="none" id="User-to-Profile" style="stroke:#595959;stroke-width:1.0;"/><polygon fill="none" points="1500.5,440.711,1506.5,422.711,1494.5,422.711,1500.5,440.711" style="stroke:#595959;stroke-width:1.0;"/><text fill="#262626" font-family="sans-serif" font-size="12" lengthAdjust="spacing" textLength="24" x="1532.54" y="362.1387">mail</text></g><!--SRC=[lLLDYzim4BtxLwZfPHSQsANieRajxMvxQ25GsajfGRRKPAWi6KdUDfJ-z-h3yfVan75W4mYHDFCqy-PfveNUqvAY0ijSyFLEuaEcHOMqGBdGMfI8WAI51i4pzGjuXIKk4GDEzQ6YI4Yz5rbMCAmKkcTvNQA_6K88o0O1rzc__j5dmNSgdBiTR-JMzd3a8pKexUrB36o3dh0izbXUtTxSN8_C75m3ZjtEfzXbVF48eYOWklZigerl4d88iHMam4gt8Ctw31Xxg_ScjSIMzWqYeiuPjNiQDAETwvtFIL96iQBli3PdnFngA9svGti4wy8ClJaJUR8urkmzvP9EPE_EXjS6txU2CIyFxyfnIMFMAoXqRI5AIg0kfm9vg409GjCIUiHFGe8ECLPI_3IPJLQvIo00k2oyyv64Ffe2KGvyzy7y4V9mxcrcpG94N14WO_nXZ5k63wnLFQYle22tzTF03yRmwlOwnKrm6qeuxFPUMOAMHgDfqfl3fZ2JkWRIM8oyFMlUgrPK3jNnkX67CVqj98c97PetQbUrJExd84ptglQ6KKt_w5xLjcdr7UafJU21m6b6ftKHe6nVItFxnH1oeix943FVP_kVzRUNTs_izrN5CF3lwn-e_pBzPuDMG5PPhnKVyOxkSDw-Tyv7SSb7AAxLEn3VuKya4bJK1x741F-czIzFPHxAE5Q3qcldWu3yAtmMA3SlejpSA-zoQyVIvG6TWWhTP1XGw1SkfDwqkI2nMIY-vGzHtDug2xFckFRIOQooRXYX2vAOXvBIVx_l-F94SsjHHFDGvaNKph95RMeqqXOoF0ybYjIBDZHx1pJMzNd9ZCPesZkIfFCEatK-pkat6CstnRJC0vgbbsXOdFKYtJH5YsV9Vm00]--></g></svg>