<?xml version="1.0" encoding="us-ascii" standalone="no"?><svg xmlns="http://www.w3.org/2000/svg" xmlns:xlink="http://www.w3.org/1999/xlink" contentStyleType="text/css" height="557.4px" preserveAspectRatio="none" style="width:1832px;height:557px;background:#FFFFFF;" version="1.1" viewBox="0 0 1832 557" width="1832.4px" zoomAndPan="magnify"><defs/><g><text fill="#000000" font-family="sans-serif" font-size="8.4" font-weight="bold" lengthAdjust="spacing" textLength="127.8" x="848.322" y="15.0645">JavaBeats - Use Case Diagram</text><!--cluster JavaBeats--><g id="cluster_JavaBeats"><rect fill="none" height="343.8" rx="1.5" ry="1.5" style="stroke:#181818;stroke-width:0.6;" width="1728" x="71.544" y="210.0727"/><text fill="#000000" font-family="sans-serif" font-size="8.4" font-weight="bold" lengthAdjust="spacing" textLength="43.8" x="913.644" y="220.3371">JavaBeats</text></g><!--cluster UC1--><g id="cluster_UC1"><path d="M216.444,250.5727 L330.444,250.5727 A2.25,2.25 0 0 1 331.944,252.0727 L336.144,265.3453 L421.044,265.3453 A1.5,1.5 0 0 1 422.544,266.8453 L422.544,310.8727 A1.5,1.5 0 0 1 421.044,312.3727 L216.444,312.3727 A1.5,1.5 0 0 1 214.944,310.8727 L214.944,252.0727 A1.5,1.5 0 0 1 216.444,250.5727 " fill="none" style="stroke:#000000;stroke-width:0.8999999999999999;"/><line style="stroke:#000000;stroke-width:0.8999999999999999;" x1="214.944" x2="336.144" y1="265.3453" y2="265.3453"/><text fill="#000000" font-family="sans-serif" font-size="8.4" font-weight="bold" lengthAdjust="spacing" textLength="113.4" x="217.344" y="260.8371">1. Registrazione e Accesso</text></g><!--cluster UC2--><g id="cluster_UC2"><path d="M448.044,247.2727 L524.244,247.2727 A2.25,2.25 0 0 1 525.744,248.7727 L529.944,262.0453 L846.444,262.0453 A1.5,1.5 0 0 1 847.944,263.5453 L847.944,375.0727 A1.5,1.5 0 0 1 846.444,376.5727 L448.044,376.5727 A1.5,1.5 0 0 1 446.544,375.0727 L446.544,248.7727 A1.5,1.5 0 0 1 448.044,247.2727 " fill="none" style="stroke:#000000;stroke-width:0.8999999999999999;"/><line style="stroke:#000000;stroke-width:0.8999999999999999;" x1="446.544" x2="529.944" y1="262.0453" y2="262.0453"/><text fill="#000000" font-family="sans-serif" font-size="8.4" font-weight="bold" lengthAdjust="spacing" textLength="75.6" x="448.944" y="257.5371">2. Modifica Profilo</text></g><!--cluster UC3--><g id="cluster_UC3"><path d="M873.444,246.6727 L1027.044,246.6727 A2.25,2.25 0 0 1 1028.544,248.1727 L1032.744,261.4453 L1177.644,261.4453 A1.5,1.5 0 0 1 1179.144,262.9453 L1179.144,314.7727 A1.5,1.5 0 0 1 1177.644,316.2727 L873.444,316.2727 A1.5,1.5 0 0 1 871.944,314.7727 L871.944,248.1727 A1.5,1.5 0 0 1 873.444,246.6727 " fill="none" style="stroke:#000000;stroke-width:0.8999999999999999;"/><line style="stroke:#000000;stroke-width:0.8999999999999999;" x1="871.944" x2="1032.744" y1="261.4453" y2="261.4453"/><text fill="#000000" font-family="sans-serif" font-size="8.4" font-weight="bold" lengthAdjust="spacing" textLength="153" x="874.344" y="256.9371">3: Modifica di Privilegi Utente/Artista</text></g><!--cluster UC4--><g id="cluster_UC4"><path d="M1204.644,248.4727 L1291.644,248.4727 A2.25,2.25 0 0 1 1293.144,249.9727 L1297.344,263.2453 L1474.044,263.2453 A1.5,1.5 0 0 1 1475.544,264.7453 L1475.544,312.9727 A1.5,1.5 0 0 1 1474.044,314.4727 L1204.644,314.4727 A1.5,1.5 0 0 1 1203.144,312.9727 L1203.144,249.9727 A1.5,1.5 0 0 1 1204.644,248.4727 " fill="none" style="stroke:#000000;stroke-width:0.8999999999999999;"/><line style="stroke:#000000;stroke-width:0.8999999999999999;" x1="1203.144" x2="1297.344" y1="263.2453" y2="263.2453"/><text fill="#000000" font-family="sans-serif" font-size="8.4" font-weight="bold" lengthAdjust="spacing" textLength="86.4" x="1205.544" y="258.7371">4: Gestione di Album</text></g><!--cluster UC5--><g id="cluster_UC5"><path d="M1501.044,248.4727 L1595.844,248.4727 A2.25,2.25 0 0 1 1597.344,249.9727 L1601.544,263.2453 L1769.244,263.2453 A1.5,1.5 0 0 1 1770.744,264.7453 L1770.744,376.5727 A1.5,1.5 0 0 1 1769.244,378.0727 L1501.044,378.0727 A1.5,1.5 0 0 1 1499.544,376.5727 L1499.544,249.9727 A1.5,1.5 0 0 1 1501.044,248.4727 " fill="none" style="stroke:#000000;stroke-width:0.8999999999999999;"/><line style="stroke:#000000;stroke-width:0.8999999999999999;" x1="1499.544" x2="1601.544" y1="263.2453" y2="263.2453"/><text fill="#000000" font-family="sans-serif" font-size="8.4" font-weight="bold" lengthAdjust="spacing" textLength="94.2" x="1501.944" y="258.7371">5: Gestione di Podcast</text></g><!--cluster UC6--><g id="cluster_UC6"><path d="M499.644,402.6727 L590.244,402.6727 A2.25,2.25 0 0 1 591.744,404.1727 L595.944,417.4453 L761.844,417.4453 A1.5,1.5 0 0 1 763.344,418.9453 L763.344,528.3727 A1.5,1.5 0 0 1 761.844,529.8727 L499.644,529.8727 A1.5,1.5 0 0 1 498.144,528.3727 L498.144,404.1727 A1.5,1.5 0 0 1 499.644,402.6727 " fill="none" style="stroke:#000000;stroke-width:0.8999999999999999;"/><line style="stroke:#000000;stroke-width:0.8999999999999999;" x1="498.144" x2="595.944" y1="417.4453" y2="417.4453"/><text fill="#000000" font-family="sans-serif" font-size="8.4" font-weight="bold" lengthAdjust="spacing" textLength="90" x="500.544" y="412.9371">6: Gestione di Playlist</text></g><!--cluster UC7--><g id="cluster_UC7"><path d="M97.044,402.0727 L230.844,402.0727 A2.25,2.25 0 0 1 232.344,403.5727 L236.544,416.8453 L472.644,416.8453 A1.5,1.5 0 0 1 474.144,418.3453 L474.144,528.3727 A1.5,1.5 0 0 1 472.644,529.8727 L97.044,529.8727 A1.5,1.5 0 0 1 95.544,528.3727 L95.544,403.5727 A1.5,1.5 0 0 1 97.044,402.0727 " fill="none" style="stroke:#000000;stroke-width:0.8999999999999999;"/><line style="stroke:#000000;stroke-width:0.8999999999999999;" x1="95.544" x2="236.544" y1="416.8453" y2="416.8453"/><text fill="#000000" font-family="sans-serif" font-size="8.4" font-weight="bold" lengthAdjust="spacing" textLength="133.2" x="97.944" y="412.3371">7: Riproduzione di Tracce Audio</text></g><!--cluster UC8--><g id="cluster_UC8"><path d="M97.044,250.8727 L139.044,250.8727 A2.25,2.25 0 0 1 140.544,252.3727 L144.744,265.6453 L189.444,265.6453 A1.5,1.5 0 0 1 190.944,267.1453 L190.944,310.5727 A1.5,1.5 0 0 1 189.444,312.0727 L97.044,312.0727 A1.5,1.5 0 0 1 95.544,310.5727 L95.544,252.3727 A1.5,1.5 0 0 1 97.044,250.8727 " fill="none" style="stroke:#000000;stroke-width:0.8999999999999999;"/><line style="stroke:#000000;stroke-width:0.8999999999999999;" x1="95.544" x2="144.744" y1="265.6453" y2="265.6453"/><text fill="#000000" font-family="sans-serif" font-size="8.4" font-weight="bold" lengthAdjust="spacing" textLength="41.4" x="97.944" y="261.1371">8: Ricerca</text></g><g id="elem_UC1.1"><ellipse cx="365.0144" cy="287.6667" fill="#F1F1F1" rx="43.2704" ry="10.0941" style="stroke:#181818;stroke-width:0.3;"/><text fill="#000000" font-family="sans-serif" font-size="8.4" lengthAdjust="spacing" textLength="51.6" x="337.4144" y="290.549">Registrazione</text></g><g id="elem_UC1.2"><ellipse cx="270.7765" cy="287.6747" fill="#F1F1F1" rx="29.7325" ry="9.8021" style="stroke:#181818;stroke-width:0.3;"/><text fill="#000000" font-family="sans-serif" font-size="8.4" lengthAdjust="spacing" textLength="31.8" x="253.0765" y="290.557">Accesso</text></g><g id="elem_UC2.1"><ellipse cx="526.8013" cy="287.8041" fill="#F1F1F1" rx="54.4573" ry="12.3315" style="stroke:#181818;stroke-width:0.3;"/><text fill="#000000" font-family="sans-serif" font-size="8.4" lengthAdjust="spacing" textLength="81.6" x="484.2013" y="290.6864">Modifica Nome Profilo</text></g><g id="elem_UC2.2"><ellipse cx="663.0291" cy="287.8097" fill="#F1F1F1" rx="60.4851" ry="13.537" style="stroke:#181818;stroke-width:0.3;"/><text fill="#000000" font-family="sans-serif" font-size="8.4" lengthAdjust="spacing" textLength="96" x="614.5072" y="290.2806">Modifica Immagine Profilo</text></g><g id="elem_UC2.3"><ellipse cx="789.2335" cy="287.9106" fill="#F1F1F1" rx="44.4895" ry="10.3379" style="stroke:#181818;stroke-width:0.3;"/><text fill="#000000" font-family="sans-serif" font-size="8.4" lengthAdjust="spacing" textLength="55.2" x="759.8335" y="290.7928">Modifica Nome</text></g><g id="elem_UC2.4"><ellipse cx="551.4067" cy="350.8052" fill="#F1F1F1" rx="49.9627" ry="11.4325" style="stroke:#181818;stroke-width:0.3;"/><text fill="#000000" font-family="sans-serif" font-size="8.4" lengthAdjust="spacing" textLength="70.2" x="514.5067" y="353.6874">Modifica Cognome</text></g><g id="elem_UC2.5"><ellipse cx="671.4674" cy="350.8773" fill="#F1F1F1" rx="48.8234" ry="11.2047" style="stroke:#181818;stroke-width:0.3;"/><text fill="#000000" font-family="sans-serif" font-size="8.4" lengthAdjust="spacing" textLength="67.2" x="636.0674" y="353.7596">Modifica Biografia</text></g><g id="elem_UC3.1"><ellipse cx="1106.0779" cy="287.7994" fill="#F1F1F1" rx="58.9339" ry="13.2268" style="stroke:#181818;stroke-width:0.3;"/><text fill="#000000" font-family="sans-serif" font-size="8.4" lengthAdjust="spacing" textLength="92.4" x="1058.891" y="290.4295">Upgrade a Profilo Artista</text></g><g id="elem_UC3.2"><ellipse cx="961.9763" cy="287.8991" fill="#F1F1F1" rx="63.9323" ry="14.2265" style="stroke:#181818;stroke-width:0.3;"/><text fill="#000000" font-family="sans-serif" font-size="8.4" lengthAdjust="spacing" textLength="103.8" x="910.0763" y="290.1772">Downgrade a Profilo Utente</text></g><g id="elem_UC4.1"><ellipse cx="1410.2653" cy="287.7369" fill="#F1F1F1" rx="51.1213" ry="11.6643" style="stroke:#181818;stroke-width:0.3;"/><text fill="#000000" font-family="sans-serif" font-size="8.4" lengthAdjust="spacing" textLength="73.2" x="1371.8653" y="290.6192">Creazione di Album</text></g><g id="elem_UC4.2"><ellipse cx="1283.4013" cy="287.8041" fill="#F1F1F1" rx="54.4573" ry="12.3315" style="stroke:#181818;stroke-width:0.3;"/><text fill="#000000" font-family="sans-serif" font-size="8.4" lengthAdjust="spacing" textLength="81.6" x="1240.8013" y="290.6864">Eliminazione di Album</text></g><g id="elem_UC5.1"><ellipse cx="1579.3171" cy="287.7073" fill="#F1F1F1" rx="53.9731" ry="12.2346" style="stroke:#181818;stroke-width:0.3;"/><text fill="#000000" font-family="sans-serif" font-size="8.4" lengthAdjust="spacing" textLength="80.4" x="1537.3171" y="290.5895">Creazione di Podcast</text></g><g id="elem_UC5.2"><ellipse cx="1705.4653" cy="287.7369" fill="#F1F1F1" rx="51.1213" ry="11.6643" style="stroke:#181818;stroke-width:0.3;"/><text fill="#000000" font-family="sans-serif" font-size="8.4" lengthAdjust="spacing" textLength="73.2" x="1667.0653" y="290.6192">Modifica di Podcast</text></g><g id="elem_UC5.3"><ellipse cx="1583.057" cy="350.7953" fill="#F1F1F1" rx="57.413" ry="12.9226" style="stroke:#181818;stroke-width:0.3;"/><text fill="#000000" font-family="sans-serif" font-size="8.4" lengthAdjust="spacing" textLength="88.8" x="1537.1792" y="353.5813">Eliminazione di Podcast</text></g><g id="elem_UC6.1"><ellipse cx="576.242" cy="441.5723" fill="#F1F1F1" rx="52.298" ry="11.8996" style="stroke:#181818;stroke-width:0.3;"/><text fill="#000000" font-family="sans-serif" font-size="8.4" lengthAdjust="spacing" textLength="76.2" x="536.342" y="444.4545">Creazione di Playlist</text></g><g id="elem_UC6.2"><ellipse cx="699.1486" cy="441.6136" fill="#F1F1F1" rx="49.5046" ry="11.3409" style="stroke:#181818;stroke-width:0.3;"/><text fill="#000000" font-family="sans-serif" font-size="8.4" lengthAdjust="spacing" textLength="69" x="662.8486" y="444.4958">Modifica di Playlist</text></g><g id="elem_UC6.3"><ellipse cx="579.6221" cy="502.8483" fill="#F1F1F1" rx="55.6781" ry="12.5756" style="stroke:#181818;stroke-width:0.3;"/><text fill="#000000" font-family="sans-serif" font-size="8.4" lengthAdjust="spacing" textLength="84.6" x="535.5221" y="505.7305">Eliminazione di Playlist</text></g><g id="elem_UC7.1"><ellipse cx="164.021" cy="441.748" fill="#F1F1F1" rx="42.677" ry="9.9754" style="stroke:#181818;stroke-width:0.3;"/><text fill="#000000" font-family="sans-serif" font-size="8.4" lengthAdjust="spacing" textLength="49.8" x="137.321" y="444.6303">Riproduzione</text></g><g id="elem_UC7.2"><ellipse cx="276.8207" cy="441.568" fill="#F1F1F1" rx="49.2767" ry="11.2953" style="stroke:#181818;stroke-width:0.3;"/><text fill="#000000" font-family="sans-serif" font-size="8.4" lengthAdjust="spacing" textLength="68.4" x="240.8207" y="444.4502">Cambio di Traccia</text></g><g id="elem_UC7.3"><ellipse cx="403.3612" cy="441.7961" fill="#F1F1F1" rx="56.4172" ry="12.7234" style="stroke:#181818;stroke-width:0.3;"/><text fill="#000000" font-family="sans-serif" font-size="8.4" lengthAdjust="spacing" textLength="86.4" x="358.3612" y="444.6783">Cambio del Minutaggio</text></g><g id="elem_UC7.4"><ellipse cx="177.0768" cy="502.7992" fill="#F1F1F1" rx="55.4328" ry="12.5266" style="stroke:#181818;stroke-width:0.3;"/><text fill="#000000" font-family="sans-serif" font-size="8.4" lengthAdjust="spacing" textLength="84" x="133.2768" y="505.6814">Variazione del Volume</text></g><g id="elem_UC7.5"><ellipse cx="277.8753" cy="502.9978" fill="#F1F1F1" rx="23.9313" ry="9.7252" style="stroke:#181818;stroke-width:0.3;"/><text fill="#000000" font-family="sans-serif" font-size="8.4" lengthAdjust="spacing" textLength="24" x="264.6356" y="505.7199">Pausa</text></g><g id="elem_UC8.1"><ellipse cx="148.8404" cy="287.6476" fill="#F1F1F1" rx="27.4964" ry="9.7749" style="stroke:#181818;stroke-width:0.3;"/><text fill="#000000" font-family="sans-serif" font-size="8.4" lengthAdjust="spacing" textLength="28.8" x="132.6404" y="290.5298">Ricerca</text></g><!--entity Utente--><g id="elem_Utente"><ellipse cx="219.744" cy="120.9727" fill="#F1F1F1" rx="9.6" ry="9.6" style="stroke:#181818;stroke-width:0.3;"/><path d="M219.744,132.9727 C222.144,132.9727 223.944,132.9727 226.344,130.5727 C231.144,130.5727 235.944,135.3727 235.944,140.1727 L235.944,142.5727 C235.944,144.9727 233.544,147.3727 231.144,147.3727 L208.344,147.3727 C205.944,147.3727 203.544,144.9727 203.544,142.5727 L203.544,140.1727 C203.544,135.3727 208.344,130.5727 213.144,130.5727 C215.544,132.9727 217.344,132.9727 219.744,132.9727 " fill="#F1F1F1" style="stroke:#181818;stroke-width:0.3;"/><text fill="#000000" font-family="sans-serif" font-size="8.4" lengthAdjust="spacing" textLength="24.6" x="207.444" y="156.7371">Utente</text></g><!--entity Artista--><g id="elem_Artista"><ellipse cx="1207.944" cy="36.9727" fill="#F1F1F1" rx="9.6" ry="9.6" style="stroke:#181818;stroke-width:0.3;"/><path d="M1207.944,48.9727 C1210.344,48.9727 1212.144,48.9727 1214.544,46.5727 C1219.344,46.5727 1224.144,51.3727 1224.144,56.1727 L1224.144,58.5727 C1224.144,60.9727 1221.744,63.3727 1219.344,63.3727 L1196.544,63.3727 C1194.144,63.3727 1191.744,60.9727 1191.744,58.5727 L1191.744,56.1727 C1191.744,51.3727 1196.544,46.5727 1201.344,46.5727 C1203.744,48.9727 1205.544,48.9727 1207.944,48.9727 " fill="#F1F1F1" style="stroke:#181818;stroke-width:0.3;"/><text fill="#000000" font-family="sans-serif" font-size="8.4" lengthAdjust="spacing" textLength="24" x="1195.944" y="72.7371">Artista</text></g><!--entity DB--><g id="elem_DB"><path d="M1766.844,126.6727 C1766.844,120.6727 1794.744,120.6727 1794.744,120.6727 C1794.744,120.6727 1822.644,120.6727 1822.644,126.6727 L1822.644,143.2453 C1822.644,149.2453 1794.744,149.2453 1794.744,149.2453 C1794.744,149.2453 1766.844,149.2453 1766.844,143.2453 L1766.844,126.6727 " fill="#F1F1F1" style="stroke:#181818;stroke-width:0.3;"/><path d="M1766.844,126.6727 C1766.844,132.6727 1794.744,132.6727 1794.744,132.6727 C1794.744,132.6727 1822.644,132.6727 1822.644,126.6727 " fill="none" style="stroke:#181818;stroke-width:0.3;"/><text fill="#000000" font-family="sans-serif" font-size="8.4" lengthAdjust="spacing" textLength="43.8" x="1772.844" y="144.1371">DATABASE</text></g><!--link Utente to UC1--><g id="link_Utente_UC1"><path d="M219.744,159.1807 C219.744,180.1237 219.744,211.4572 219.744,237.8797 C219.744,241.1825 219.744,244.4085 219.744,247.528 C219.744,248.3079 219.744,249.0811 219.744,249.8471 C219.744,250.0387 219.744,250.2297 219.744,250.4203 " fill="none" id="Utente-UC1" style="stroke:#181818;stroke-width:0.6;"/></g><!--link Utente to UC2--><g id="link_Utente_UC2"><path d="M236.484,136.4767 C273.924,139.1467 365.244,150.7087 417.744,200.4727 C432.507,214.4647 440.877,235.6867 445.5712,253.6319 C445.8646,254.7535 446.1437,255.8623 446.409,256.9557 C446.4422,257.0924 446.4751,257.2288 446.5079,257.365 " fill="none" id="Utente-UC2" style="stroke:#181818;stroke-width:0.6;"/></g><!--link Utente to UC3--><g id="link_Utente_UC3"><path d="M236.346,136.3747 C330.348,140.4787 793.452,162.5107 843.144,200.4727 C851.226,206.6467 857.3651,215.0328 862.0282,224.1683 C864.3597,228.7361 866.3222,233.4913 867.974,238.2509 C868.7999,240.6308 869.5481,243.0117 870.226,245.371 C870.5649,246.5506 870.8863,247.7248 871.1909,248.8907 C871.3432,249.4736 871.4914,250.0545 871.6355,250.633 C871.7076,250.9222 871.7786,251.2108 871.8486,251.4988 " fill="none" id="Utente-UC3" style="stroke:#181818;stroke-width:0.6;"/></g><!--link Utente to UC6--><g id="link_Utente_UC6"><path d="M203.202,138.3367 C174.384,143.9647 115.674,160.0507 90.744,200.4727 C61.488,247.9087 54.912,283.1887 90.744,325.8727 C200.592,456.7267 325.506,300.2767 469.344,392.4727 C480.054,399.3367 488.2725,410.9542 493.8998,421.1092 C495.3066,423.6479 496.5514,426.0953 497.6328,428.3541 C497.7679,428.6364 497.9006,428.9158 498.0306,429.1921 C498.0631,429.2612 498.0955,429.33 498.1277,429.3987 " fill="none" id="Utente-UC6" style="stroke:#181818;stroke-width:0.6;"/></g><!--link Utente to UC7--><g id="link_Utente_UC7"><path d="M203.076,135.7867 C168.216,137.0467 87.942,145.4647 52.944,195.0727 C3.6,265.0207 22.554,307.6507 52.944,387.6727 C58.491,402.2737 70.0605,415.4377 80.3805,425.0422 C85.5405,429.8444 90.3881,433.7568 94.0144,436.514 C94.4677,436.8586 94.9019,437.1852 95.3152,437.4932 C95.3669,437.5318 95.4182,437.57 95.4692,437.6079 " fill="none" id="Utente-UC7" style="stroke:#181818;stroke-width:0.6;"/></g><!--link Utente to UC8--><g id="link_Utente_UC8"><path d="M203.16,140.5087 C178.704,148.5847 133.512,167.2867 111.744,200.4727 C106.4985,208.4707 103.1445,217.783 101.0687,227.2784 C100.0308,232.0261 99.3124,236.8195 98.8369,241.5173 C98.5992,243.8662 98.4222,246.1911 98.2963,248.4745 C98.2648,249.0454 98.2366,249.6136 98.2113,250.179 C98.205,250.3203 98.1989,250.4615 98.193,250.6024 " fill="none" id="Utente-UC8" style="stroke:#181818;stroke-width:0.6;"/></g><!--link Artista to Utente--><g id="link_Artista_Utente"><path d="M1191.414,53.0587 C1072.962,62.9827 365.4583,122.2608 247.0303,132.1848 " fill="none" id="Artista-to-Utente" style="stroke:#181818;stroke-width:0.6;"/><polygon fill="none" points="236.268,133.0867,247.3309,135.7722,246.7297,128.5974,236.268,133.0867" style="stroke:#181818;stroke-width:0.6;"/></g><!--link Artista to UC4--><g id="link_Artista_UC4"><path d="M1207.944,75.1147 C1207.944,104.6647 1207.944,157.0852 1207.944,202.4114 C1207.944,213.743 1207.944,224.6311 1207.944,234.6077 C1207.944,237.1019 1207.944,239.539 1207.944,241.9119 C1207.944,243.0984 1207.944,244.2687 1207.944,245.4221 C1207.944,245.9988 1207.944,246.5712 1207.944,247.1393 C1207.944,247.4234 1207.944,247.7063 1207.944,247.9882 " fill="none" id="Artista-UC4" style="stroke:#181818;stroke-width:0.6;"/></g><!--link Artista to UC5--><g id="link_Artista_UC5"><path d="M1224.51,56.6467 C1270.206,71.1847 1399.35,117.8587 1470.744,200.4727 C1484.043,215.8627 1492.3905,237.1057 1497.4387,254.7119 C1498.0698,256.9127 1498.6493,259.0566 1499.1804,261.1252 C1499.2468,261.3838 1499.3125,261.6412 1499.3773,261.8974 C1499.4098,262.0255 1499.442,262.1533 1499.4741,262.2808 " fill="none" id="Artista-UC5" style="stroke:#181818;stroke-width:0.6;"/></g><!--link DB to JavaBeats--><g id="link_DB_JavaBeats"><path d="M1794.744,153.2527 C1794.744,162.4822 1794.744,171.8977 1794.744,186.2768 C1794.744,193.4663 1794.744,200.9967 1794.744,208.5653 C1794.744,209.0383 1794.744,205.9115 1794.744,206.3848 " fill="none" id="DB-JavaBeats" style="stroke:#B5B5B5;stroke-width:0.6;stroke-dasharray:7.0,7.0;"/><polygon fill="#B5B5B5" points="1794.744,149.6527,1792.344,155.0527,1794.744,152.6527,1797.144,155.0527,1794.744,149.6527" style="stroke:#B5B5B5;stroke-width:0.6;"/><polygon fill="#B5B5B5" points="1794.744,209.9848,1797.144,204.5848,1794.744,206.9848,1792.344,204.5848,1794.744,209.9848" style="stroke:#B5B5B5;stroke-width:0.6;"/></g><!--SRC=[fLRVRvim47xtN-5qB-r3s08XYT1MYIJLj4cTghRfopHL5t2GLS2HCQsw7__x3c8SS4UNR4IASjntttrtNCuK3ppVWeICGgI4l57FAQFmn0gHCK8KLsX-XaUOCr057T9LmUW2y6l98Qd221aeMJBwWOx8O0DfKVryHmPbmIB4tMSy5vBZlGg52CcYYDt7e60DDRQE8IHOAPOh5f0Wb8eN2W923Efa6Tw6y_3cueH2GPTpGf16GPvqrFqW5AyjH0-GOCp8eTSiGIe9txd86MKqnDn58MgMrMAa8wfhm3VqjAlvp3YhwxJ3TQOPd54Nf1COjxjFmFAORshpL_tT5Uiwz58WW4T0hwJOyBHHwHwbqf1ymGVOC6avhgtMW3zb6IGyVndWli9kG5uFQ26Il8qRz-3cNE0eRJWOf7zesxnWtxQOetp-o5DyK7GtJM_rBEbMUaUrShL5LJ7-6vgkKCscPNfsEvVYART3TZfCnC7pC0xeHrQeUcwni31TbvckOdnK5Gl9zFWtD5hCs9P_aN9aw0FtAE-gzhkghqICmfJMxV-xRasanVYzS_m7gFjwaJRSEwJCYLLc2iyfDtLE_gDEpQJbJ5ujrCR-hL8RxnqwYzE0NlEj575fo6ubuAQZOHdpPazDZzkcBKAjQ6fNku1ipOL9P_R3r2wr0RAKNlAyL90aN1YmjPxkGFAcAnXm9z8osqkmTjGLbCK-xS5hQLPrB68oQZRFxCZcrB4wxwpLbqvU7ClTUXaEXtZOj0stRNXjOz8sfcrZHeXUSCFXp_ETetKBbq3RyF7Whmgn3lHT9QZclUDyVRFsgyytnpd7CtldSFiSNfzZtEVm-noJFiUqpp5xwHYmwhsaSY_d7U-vUUCW-d7y1W00]--></g></svg>