<?xml version="1.0" encoding="us-ascii" standalone="no"?><svg xmlns="http://www.w3.org/2000/svg" xmlns:xlink="http://www.w3.org/1999/xlink" contentStyleType="text/css" height="415.2px" preserveAspectRatio="none" style="width:1030px;height:415px;background:#FFFFFF;" version="1.1" viewBox="0 0 1030 415" width="1030.2px" zoomAndPan="magnify"><defs/><g><text fill="#000000" font-family="sans-serif" font-size="8.4" font-weight="bold" lengthAdjust="spacing" textLength="127.8" x="447" y="15.0645">JavaBeats - Use Case Diagram</text><!--cluster JavaBeats--><g id="cluster_JavaBeats"><rect fill="none" height="67.8" rx="1.5" ry="1.5" style="stroke:#181818;stroke-width:0.6;" width="1022.4" x="4.2" y="209.4727"/><text fill="#000000" font-family="sans-serif" font-size="8.4" font-weight="bold" lengthAdjust="spacing" textLength="43.8" x="493.5" y="219.7371">JavaBeats</text></g><!--entity UC1--><g id="elem_UC1"><path d="M548.4,231.6727 L573,231.6727 A2.25,2.25 0 0 1 574.5,233.1727 L578.7,246.4453 L666,246.4453 A1.5,1.5 0 0 1 667.5,247.9453 L667.5,266.318 A1.5,1.5 0 0 1 666,267.818 L548.4,267.818 A1.5,1.5 0 0 1 546.9,266.318 L546.9,233.1727 A1.5,1.5 0 0 1 548.4,231.6727 " fill="#F1F1F1" style="stroke:#181818;stroke-width:0.3;"/><line style="stroke:#181818;stroke-width:0.3;" x1="546.9" x2="578.7" y1="246.4453" y2="246.4453"/><text fill="#000000" font-family="sans-serif" font-size="8.4" font-weight="bold" lengthAdjust="spacing" textLength="16.8" x="552.9" y="242.5371">UC1</text><text fill="#000000" font-family="sans-serif" font-size="8.4" lengthAdjust="spacing" textLength="102.6" x="552.9" y="259.7098">1. Registrazione e Accesso</text></g><!--entity UC2--><g id="elem_UC2"><path d="M690.3,231.6727 L714.9,231.6727 A2.25,2.25 0 0 1 716.4,233.1727 L720.6,246.4453 L772.5,246.4453 A1.5,1.5 0 0 1 774,247.9453 L774,266.318 A1.5,1.5 0 0 1 772.5,267.818 L690.3,267.818 A1.5,1.5 0 0 1 688.8,266.318 L688.8,233.1727 A1.5,1.5 0 0 1 690.3,231.6727 " fill="#F1F1F1" style="stroke:#181818;stroke-width:0.3;"/><line style="stroke:#181818;stroke-width:0.3;" x1="688.8" x2="720.6" y1="246.4453" y2="246.4453"/><text fill="#000000" font-family="sans-serif" font-size="8.4" font-weight="bold" lengthAdjust="spacing" textLength="16.8" x="694.8" y="242.5371">UC2</text><text fill="#000000" font-family="sans-serif" font-size="8.4" lengthAdjust="spacing" textLength="67.2" x="694.8" y="259.7098">2. Modifica Profilo</text></g><!--entity UC3--><g id="elem_UC3"><path d="M15.6,231.6727 L40.2,231.6727 A2.25,2.25 0 0 1 41.7,233.1727 L45.9,246.4453 L165.6,246.4453 A1.5,1.5 0 0 1 167.1,247.9453 L167.1,266.318 A1.5,1.5 0 0 1 165.6,267.818 L15.6,267.818 A1.5,1.5 0 0 1 14.1,266.318 L14.1,233.1727 A1.5,1.5 0 0 1 15.6,231.6727 " fill="#F1F1F1" style="stroke:#181818;stroke-width:0.3;"/><line style="stroke:#181818;stroke-width:0.3;" x1="14.1" x2="45.9" y1="246.4453" y2="246.4453"/><text fill="#000000" font-family="sans-serif" font-size="8.4" font-weight="bold" lengthAdjust="spacing" textLength="16.8" x="20.1" y="242.5371">UC3</text><text fill="#000000" font-family="sans-serif" font-size="8.4" lengthAdjust="spacing" textLength="135" x="20.1" y="259.7098">3: Modifica di Privilegi Utente/Artista</text></g><!--entity UC4--><g id="elem_UC4"><path d="M796.8,231.6727 L821.4,231.6727 A2.25,2.25 0 0 1 822.9,233.1727 L827.1,246.4453 L890.4,246.4453 A1.5,1.5 0 0 1 891.9,247.9453 L891.9,266.318 A1.5,1.5 0 0 1 890.4,267.818 L796.8,267.818 A1.5,1.5 0 0 1 795.3,266.318 L795.3,233.1727 A1.5,1.5 0 0 1 796.8,231.6727 " fill="#F1F1F1" style="stroke:#181818;stroke-width:0.3;"/><line style="stroke:#181818;stroke-width:0.3;" x1="795.3" x2="827.1" y1="246.4453" y2="246.4453"/><text fill="#000000" font-family="sans-serif" font-size="8.4" font-weight="bold" lengthAdjust="spacing" textLength="16.8" x="801.3" y="242.5371">UC4</text><text fill="#000000" font-family="sans-serif" font-size="8.4" lengthAdjust="spacing" textLength="78.6" x="801.3" y="259.7098">4: Gestione di Album</text></g><!--entity UC5--><g id="elem_UC5"><path d="M914.4,231.6727 L939,231.6727 A2.25,2.25 0 0 1 940.5,233.1727 L944.7,246.4453 L1015.2,246.4453 A1.5,1.5 0 0 1 1016.7,247.9453 L1016.7,266.318 A1.5,1.5 0 0 1 1015.2,267.818 L914.4,267.818 A1.5,1.5 0 0 1 912.9,266.318 L912.9,233.1727 A1.5,1.5 0 0 1 914.4,231.6727 " fill="#F1F1F1" style="stroke:#181818;stroke-width:0.3;"/><line style="stroke:#181818;stroke-width:0.3;" x1="912.9" x2="944.7" y1="246.4453" y2="246.4453"/><text fill="#000000" font-family="sans-serif" font-size="8.4" font-weight="bold" lengthAdjust="spacing" textLength="16.8" x="918.9" y="242.5371">UC5</text><text fill="#000000" font-family="sans-serif" font-size="8.4" lengthAdjust="spacing" textLength="85.8" x="918.9" y="259.7098">5: Gestione di Podcast</text></g><!--entity UC6--><g id="elem_UC6"><path d="M189.9,231.6727 L214.5,231.6727 A2.25,2.25 0 0 1 216,233.1727 L220.2,246.4453 L286.5,246.4453 A1.5,1.5 0 0 1 288,247.9453 L288,266.318 A1.5,1.5 0 0 1 286.5,267.818 L189.9,267.818 A1.5,1.5 0 0 1 188.4,266.318 L188.4,233.1727 A1.5,1.5 0 0 1 189.9,231.6727 " fill="#F1F1F1" style="stroke:#181818;stroke-width:0.3;"/><line style="stroke:#181818;stroke-width:0.3;" x1="188.4" x2="220.2" y1="246.4453" y2="246.4453"/><text fill="#000000" font-family="sans-serif" font-size="8.4" font-weight="bold" lengthAdjust="spacing" textLength="16.8" x="194.4" y="242.5371">UC6</text><text fill="#000000" font-family="sans-serif" font-size="8.4" lengthAdjust="spacing" textLength="81.6" x="194.4" y="259.7098">6: Gestione di Playlist</text></g><!--entity UC7--><g id="elem_UC7"><path d="M310.5,231.6727 L335.1,231.6727 A2.25,2.25 0 0 1 336.6,233.1727 L340.8,246.4453 L446.7,246.4453 A1.5,1.5 0 0 1 448.2,247.9453 L448.2,266.318 A1.5,1.5 0 0 1 446.7,267.818 L310.5,267.818 A1.5,1.5 0 0 1 309,266.318 L309,233.1727 A1.5,1.5 0 0 1 310.5,231.6727 " fill="#F1F1F1" style="stroke:#181818;stroke-width:0.3;"/><line style="stroke:#181818;stroke-width:0.3;" x1="309" x2="340.8" y1="246.4453" y2="246.4453"/><text fill="#000000" font-family="sans-serif" font-size="8.4" font-weight="bold" lengthAdjust="spacing" textLength="16.8" x="315" y="242.5371">UC7</text><text fill="#000000" font-family="sans-serif" font-size="8.4" lengthAdjust="spacing" textLength="121.2" x="315" y="259.7098">7: Riproduzione di Tracce Audio</text></g><!--entity UC8--><g id="elem_UC8"><path d="M470.7,231.6727 L495.3,231.6727 A2.25,2.25 0 0 1 496.8,233.1727 L501,246.4453 L524.1,246.4453 A1.5,1.5 0 0 1 525.6,247.9453 L525.6,266.318 A1.5,1.5 0 0 1 524.1,267.818 L470.7,267.818 A1.5,1.5 0 0 1 469.2,266.318 L469.2,233.1727 A1.5,1.5 0 0 1 470.7,231.6727 " fill="#F1F1F1" style="stroke:#181818;stroke-width:0.3;"/><line style="stroke:#181818;stroke-width:0.3;" x1="469.2" x2="501" y1="246.4453" y2="246.4453"/><text fill="#000000" font-family="sans-serif" font-size="8.4" font-weight="bold" lengthAdjust="spacing" textLength="16.8" x="475.2" y="242.5371">UC8</text><text fill="#000000" font-family="sans-serif" font-size="8.4" lengthAdjust="spacing" textLength="38.4" x="475.2" y="259.7098">8: Ricerca</text></g><!--entity Utente--><g id="elem_Utente"><ellipse cx="497.4" cy="120.9727" fill="#F1F1F1" rx="9.6" ry="9.6" style="stroke:#181818;stroke-width:0.3;"/><path d="M497.4,132.9727 C499.8,132.9727 501.6,132.9727 504,130.5727 C508.8,130.5727 513.6,135.3727 513.6,140.1727 L513.6,142.5727 C513.6,144.9727 511.2,147.3727 508.8,147.3727 L486,147.3727 C483.6,147.3727 481.2,144.9727 481.2,142.5727 L481.2,140.1727 C481.2,135.3727 486,130.5727 490.8,130.5727 C493.2,132.9727 495,132.9727 497.4,132.9727 " fill="#F1F1F1" style="stroke:#181818;stroke-width:0.3;"/><text fill="#000000" font-family="sans-serif" font-size="8.4" lengthAdjust="spacing" textLength="24.6" x="485.1" y="156.7371">Utente</text></g><!--entity Artista--><g id="elem_Artista"><ellipse cx="843.6" cy="36.9727" fill="#F1F1F1" rx="9.6" ry="9.6" style="stroke:#181818;stroke-width:0.3;"/><path d="M843.6,48.9727 C846,48.9727 847.8,48.9727 850.2,46.5727 C855,46.5727 859.8,51.3727 859.8,56.1727 L859.8,58.5727 C859.8,60.9727 857.4,63.3727 855,63.3727 L832.2,63.3727 C829.8,63.3727 827.4,60.9727 827.4,58.5727 L827.4,56.1727 C827.4,51.3727 832.2,46.5727 837,46.5727 C839.4,48.9727 841.2,48.9727 843.6,48.9727 " fill="#F1F1F1" style="stroke:#181818;stroke-width:0.3;"/><text fill="#000000" font-family="sans-serif" font-size="8.4" lengthAdjust="spacing" textLength="24" x="831.6" y="72.7371">Artista</text></g><!--entity DB--><g id="elem_DB"><path d="M507.3,382.8727 C507.3,376.8727 535.2,376.8727 535.2,376.8727 C535.2,376.8727 563.1,376.8727 563.1,382.8727 L563.1,399.4453 C563.1,405.4453 535.2,405.4453 535.2,405.4453 C535.2,405.4453 507.3,405.4453 507.3,399.4453 L507.3,382.8727 " fill="#F1F1F1" style="stroke:#181818;stroke-width:0.3;"/><path d="M507.3,382.8727 C507.3,388.8727 535.2,388.8727 535.2,388.8727 C535.2,388.8727 563.1,388.8727 563.1,382.8727 " fill="none" style="stroke:#181818;stroke-width:0.3;"/><text fill="#000000" font-family="sans-serif" font-size="8.4" lengthAdjust="spacing" textLength="43.8" x="513.3" y="400.3371">DATABASE</text></g><!--link Utente to UC1--><g id="link_Utente_UC1"><path d="M514.074,152.8987 C534.654,174.1507 569.454,210.0907 590.184,231.4987 " fill="none" id="Utente-UC1" style="stroke:#181818;stroke-width:0.6;"/></g><!--link Utente to UC2--><g id="link_Utente_UC2"><path d="M513.906,139.9987 C546.678,149.0047 621.648,171.7087 678,204.6727 C690.798,212.1607 703.626,222.7027 713.502,231.6367 " fill="none" id="Utente-UC2" style="stroke:#181818;stroke-width:0.6;"/></g><!--link Utente to UC3--><g id="link_Utente_UC3"><path d="M480.846,137.7007 C432.834,143.9047 289.83,164.6947 177.6,204.6727 C157.71,211.7587 136.59,222.4507 120.138,231.5707 " fill="none" id="Utente-UC3" style="stroke:#181818;stroke-width:0.6;"/></g><!--link Utente to UC6--><g id="link_Utente_UC6"><path d="M480.696,139.6207 C445.56,148.3087 361.974,171.0427 298.2,204.6727 C284.1,212.1067 269.7,222.6487 258.54,231.5947 " fill="none" id="Utente-UC6" style="stroke:#181818;stroke-width:0.6;"/></g><!--link Utente to UC7--><g id="link_Utente_UC7"><path d="M480.882,151.4407 C458.82,172.4947 419.868,209.6827 396.924,231.5767 " fill="none" id="Utente-UC7" style="stroke:#181818;stroke-width:0.6;"/></g><!--link Utente to UC8--><g id="link_Utente_UC8"><path d="M497.4,159.1687 C497.4,180.7087 497.4,212.1127 497.4,231.5347 " fill="none" id="Utente-UC8" style="stroke:#181818;stroke-width:0.6;"/></g><!--link Artista to Utente--><g id="link_Artista_Utente"><path d="M826.902,55.6687 C768.282,69.6847 582.7898,114.0506 524.4338,128.0066 " fill="none" id="Artista-to-Utente" style="stroke:#181818;stroke-width:0.6;"/><polygon fill="none" points="513.93,130.5187,525.2711,131.5079,523.5965,124.5054,513.93,130.5187" style="stroke:#181818;stroke-width:0.6;"/></g><!--link Artista to UC4--><g id="link_Artista_UC4"><path d="M843.6,75.0907 C843.6,115.1287 843.6,195.8407 843.6,231.4807 " fill="none" id="Artista-UC4" style="stroke:#181818;stroke-width:0.6;"/></g><!--link Artista to UC5--><g id="link_Artista_UC5"><path d="M857.982,75.0907 C882.558,115.1287 932.118,195.8407 954,231.4807 " fill="none" id="Artista-UC5" style="stroke:#181818;stroke-width:0.6;"/></g><!--link UC1 to DB--><g id="link_UC1_DB"><path d="M596.5817,270.9722 C582.1097,299.2022 557.1764,347.8152 543.9764,373.5612 " fill="none" id="UC1-DB" style="stroke:#B5B5B5;stroke-width:0.6;stroke-dasharray:7.0,7.0;"/><polygon fill="#B5B5B5" points="598.224,267.7687,593.6248,271.4791,596.8554,270.4383,597.8963,273.6689,598.224,267.7687" style="stroke:#B5B5B5;stroke-width:0.6;"/><polygon fill="#B5B5B5" points="542.334,376.7647,546.9333,373.0544,543.7027,374.0951,542.662,370.8645,542.334,376.7647" style="stroke:#B5B5B5;stroke-width:0.6;"/></g><!--link UC2 to DB--><g id="link_UC2_DB"><path d="M704.0224,269.8636 C664.5724,298.0936 593.5436,348.9236 557.5676,374.6696 " fill="none" id="UC2-DB" style="stroke:#B5B5B5;stroke-width:0.6;stroke-dasharray:7.0,7.0;"/><polygon fill="#B5B5B5" points="706.95,267.7687,701.1619,268.9594,704.5103,269.5145,703.9552,272.8629,706.95,267.7687" style="stroke:#B5B5B5;stroke-width:0.6;"/><polygon fill="#B5B5B5" points="554.64,376.7647,560.4281,375.5737,557.0796,375.0187,557.6346,371.6703,554.64,376.7647" style="stroke:#B5B5B5;stroke-width:0.6;"/></g><!--link UC3 to DB--><g id="link_UC3_DB"><path d="M140.3185,268.9885 C153.4105,273.7825 164.328,277.6387 177.6,282.0727 C299.442,322.8067 443.2681,364.5092 503.7481,381.7592 " fill="none" id="UC3-DB" style="stroke:#B5B5B5;stroke-width:0.6;stroke-dasharray:7.0,7.0;"/><polygon fill="#B5B5B5" points="136.938,267.7507,141.1835,271.8611,139.7551,268.7822,142.834,267.3538,136.938,267.7507" style="stroke:#B5B5B5;stroke-width:0.6;"/><polygon fill="#B5B5B5" points="507.21,382.7467,502.6754,378.9576,504.3251,381.9238,501.3588,383.5735,507.21,382.7467" style="stroke:#B5B5B5;stroke-width:0.6;"/></g><!--link UC4 to DB--><g id="link_UC4_DB"><path d="M809.4148,269.4057 C800.5228,274.2237 793.932,277.6267 784.8,282.0727 C705.768,320.5507 613.1506,359.088 566.5906,378.03 " fill="none" id="UC4-DB" style="stroke:#B5B5B5;stroke-width:0.6;stroke-dasharray:7.0,7.0;"/><polygon fill="#B5B5B5" points="812.58,267.6907,806.6888,268.1531,809.9423,269.1198,808.9755,272.3734,812.58,267.6907" style="stroke:#B5B5B5;stroke-width:0.6;"/><polygon fill="#B5B5B5" points="563.256,379.3867,569.1623,379.5748,566.0348,378.2561,567.3535,375.1287,563.256,379.3867" style="stroke:#B5B5B5;stroke-width:0.6;"/></g><!--link UC5 to DB--><g id="link_UC5_DB"><path d="M930.2192,269.3323 C920.4512,274.3603 912.732,277.9507 902.4,282.0727 C779.358,331.1347 628.9082,368.7876 566.7002,383.4336 " fill="none" id="UC5-DB" style="stroke:#B5B5B5;stroke-width:0.6;stroke-dasharray:7.0,7.0;"/><polygon fill="#B5B5B5" points="933.42,267.6847,927.5203,268.0222,930.7526,269.0577,929.7171,272.29,933.42,267.6847" style="stroke:#B5B5B5;stroke-width:0.6;"/><polygon fill="#B5B5B5" points="563.196,384.2587,569.0023,385.3573,566.1162,383.5711,567.9023,380.685,563.196,384.2587" style="stroke:#B5B5B5;stroke-width:0.6;"/></g><!--link UC6 to DB--><g id="link_UC6_DB"><path d="M273.4319,269.3843 C282.4199,274.1543 289.056,277.5607 298.2,282.0727 C372.876,318.9307 459.3456,357.4616 503.9316,377.0336 " fill="none" id="UC6-DB" style="stroke:#B5B5B5;stroke-width:0.6;stroke-dasharray:7.0,7.0;"/><polygon fill="#B5B5B5" points="270.252,267.6967,273.8968,272.348,272.9019,269.103,276.147,268.1081,270.252,267.6967" style="stroke:#B5B5B5;stroke-width:0.6;"/><polygon fill="#B5B5B5" points="507.228,378.4807,503.2481,374.1125,504.481,377.2748,501.3187,378.5077,507.228,378.4807" style="stroke:#B5B5B5;stroke-width:0.6;"/></g><!--link UC7 to DB--><g id="link_UC7_DB"><path d="M400.7982,270.172 C432.2802,298.402 488.2876,348.6155 517.0036,374.3615 " fill="none" id="UC7-DB" style="stroke:#B5B5B5;stroke-width:0.6;stroke-dasharray:7.0,7.0;"/><polygon fill="#B5B5B5" points="398.118,267.7687,400.5361,273.1606,400.3515,269.7715,403.7406,269.5869,398.118,267.7687" style="stroke:#B5B5B5;stroke-width:0.6;"/><polygon fill="#B5B5B5" points="519.684,376.7647,517.2655,371.3729,517.4503,374.762,514.0612,374.9468,519.684,376.7647" style="stroke:#B5B5B5;stroke-width:0.6;"/></g><!--link UC8 to DB--><g id="link_UC8_DB"><path d="M503.0461,271.2448 C510.6481,299.4748 523.5903,347.5424 530.5203,373.2884 " fill="none" id="UC8-DB" style="stroke:#B5B5B5;stroke-width:0.6;stroke-dasharray:7.0,7.0;"/><polygon fill="#B5B5B5" points="502.11,267.7687,501.1967,273.607,502.8901,270.6655,505.8316,272.3588,502.11,267.7687" style="stroke:#B5B5B5;stroke-width:0.6;"/><polygon fill="#B5B5B5" points="531.456,376.7647,532.37,370.9264,530.6762,373.8678,527.7349,372.174,531.456,376.7647" style="stroke:#B5B5B5;stroke-width:0.6;"/></g><!--SRC=[fLRVRvim47xtN-5qB-r3s08XYT1MYIJLj4cTghRfopHL5t2GLS2HCQsw7__x3c8SS4UNR4IASjntttrtNCuK3ppVWeICGgI4l57FAQFmn0gHCK8KLsX-XaUOCr057T9LmUW2y6l98Qd221aeMJBwWOx8O0DfKVryHmPbmIB4tMSy5vBZlTg74CcYYDt7e60DDRWA9oHOAPOh5f0Wb8eN2W923EXa6Tw6y_3cueH2GPTpGf15GPvqrFqW5AyjH0-GOCp8eTSiGIe9txd86MKqnDH58MgMrMAa8wfhm3VqjAlvp3YhwxJ3TQOPd54Nf1COjxjFmFAORshpL_tT5Uiwz58WW4T0hwJOyBHHwHwbqf1ymGVOC6avhgtMW3zb6IGyVndWli9kG5uFQ26Il8qRz-3cNE0eRJWOf7zesxnWtxQOetp-o5DyK7GtJM_rBEbMUaUrShL5LJ7-6vgkKCscPNfsEvVYART3TZfCnC7pC0xeHrQeUcwni31TbvckOdnK5Gl9zFWtD5hCs9P_aN9aw0FtAE-gzhkghqICmfJMxV-xRasanVYzS_m7gFjwaJRSEwJCYLLc2iyfDtLE_gDEpQJbJ5ujrCR-hL8RxnqwYzE0NlEj575fo6ubuAQZOHdpPazDZzkcBKAjQ6fNku1ipOL9P_R3r2wr0RAKNlAyL90aN1YmjPxkGFAcAnXm9z8osqkmTjGLbCK-xS5hQLPrB68oQZRFxCZcrB4wxwpLbqvU7ClTUXaEXtZOj0stRNXjOz8sfcrZHeXUSCFXp_ETetKBbq3RyF7WhmgnplDT9QZclUDyVRFsgyytnpd7CtldSFiSNfzZtEVm-noJFiUqpp5xwHYmwdsbSY_d7U-vUUCW-d7y1W00]--></g></svg>